<svg id="Layer_1" data-name="Layer 1" xmlns="http://www.w3.org/2000/svg" width="121.66" height="200" viewBox="0 0 121.66 200"><title>_</title><path d="M119.56,149.27a12.9,12.9,0,1,0-21.62-14.09A22.14,22.14,0,0,1,79.1,145.57c-0.58,0-1.06,0-1.41-.05a13,13,0,0,0-2.44-.24q-0.56,0-1.11,0C63.85,145,56.28,141.26,51,133.76a36.62,36.62,0,0,1-3.35-5.94H77A12.9,12.9,0,1,0,77,102H42.63q0-1,0-2.07c0-1.76.06-3.53,0.19-5.29H77a12.9,12.9,0,1,0,0-25.8H50.85c5.58-8.27,14.28-14,27-14.29q0.52,0,1,0h0.28C83.47,55,91.7,57,94,61.59a12.9,12.9,0,1,0,23-11.75C108.38,33,88.65,29.59,81.69,28.92a12.94,12.94,0,0,0-5-.13c-18.32.58-33.69,8.14-44.55,22a67.15,67.15,0,0,0-10.05,18.1H12.9a12.9,12.9,0,0,0,0,25.8h4q-0.13,2.61-.13,5.29c0,0.69,0,1.39,0,2.07H12.9a12.9,12.9,0,0,0,0,25.8h7.45c7.58,27,26.92,43,54.17,43.31a39,39,0,0,0,4.57.26A48,48,0,0,0,119.56,149.27Z" fill="#231f20"/></svg>