<svg id="Layer_1" data-name="Layer 1" xmlns="http://www.w3.org/2000/svg" width="136.49" height="200" viewBox="0 0 136.49 200"><title>_</title><path d="M25.21,108.39a12.9,12.9,0,1,0,0,25.8H37.28v12.07a12.9,12.9,0,0,0,25.8,0V134.19h13v12.07a12.9,12.9,0,0,0,25.8,0V134.19h12.07a12.9,12.9,0,1,0,0-25.8H101.86v-13h12.07a12.9,12.9,0,0,0,0-25.8H101.86V57.54a12.9,12.9,0,1,0-25.8,0V69.61h-13V57.54a12.9,12.9,0,0,0-25.8,0V69.61H25.21a12.9,12.9,0,0,0,0,25.8H37.28v13H25.21Zm37.88-13h13v13h-13v-13Z" fill="#231f20"/></svg>