<svg id="Layer_1" data-name="Layer 1" xmlns="http://www.w3.org/2000/svg" width="137.88" height="200" viewBox="0 0 137.88 200"><title>_</title><path d="M20.7,153.52c1.32,0.68,2.8,1.5,4.36,2.36,7.33,4,17.58,9.68,31,12.37v4.85a12.9,12.9,0,1,0,25.8,0v-4c13.92-1.93,22.68-7.68,27.87-12.74a39.78,39.78,0,0,0,12-28.76c0-26-23.9-36.6-39.85-41.22V53.31A105.11,105.11,0,0,1,96.4,59.65a12.9,12.9,0,0,0,11.86-22.92c-9.71-5-18.44-8.4-26.42-10.2V22.13a12.9,12.9,0,1,0-25.8,0v3.24c-10.63,1.3-19.2,4.94-25.57,10.89C22.63,43.56,18.51,53.8,18.2,66.69c-0.22,9,2.67,21.82,17.67,31.43A73,73,0,0,0,56,106.64v35c-7.09-2.12-13-5.4-18.52-8.42-1.72-.94-3.34-1.84-5-2.67A12.9,12.9,0,1,0,20.7,153.52Zm61.13-39.86c14,5.58,14.05,11.39,14.05,13.94a14.07,14.07,0,0,1-4.19,10.28,20.89,20.89,0,0,1-9.86,5V113.66ZM44,67.32c0.21-8.59,3.11-11.3,4.07-12.19a16.64,16.64,0,0,1,8-3.65v28C43.81,74.64,43.94,69.35,44,67.32Z" fill="#231f20"/></svg>