<svg id="Layer_1" data-name="Layer 1" xmlns="http://www.w3.org/2000/svg" width="200" height="200" viewBox="0 0 200 200"><title>_</title><path d="M49.91,166.93a12.9,12.9,0,0,0,18-3.09L147.24,51.6a12.9,12.9,0,1,0-21.07-14.9L46.83,148.94A12.9,12.9,0,0,0,49.91,166.93Z" fill="#231f20"/><path d="M149.47,91c-19.63,0-35.6,17.78-35.6,39.63s16,39.63,35.6,39.63,35.6-17.78,35.6-39.63S169.1,91,149.47,91Zm0,53.46c-5.31,0-9.8-6.33-9.8-13.83s4.49-13.83,9.8-13.83,9.8,6.33,9.8,13.83S154.78,144.49,149.47,144.49Z" fill="#231f20"/><path d="M86.13,64.57c0-21.85-16-39.63-35.6-39.63s-35.6,17.78-35.6,39.63,16,39.63,35.6,39.63S86.13,86.42,86.13,64.57Zm-45.4,0c0-7.5,4.49-13.83,9.8-13.83s9.8,6.33,9.8,13.83S55.84,78.4,50.53,78.4,40.73,72.06,40.73,64.57Z" fill="#231f20"/></svg>