<svg id="Layer_1" data-name="Layer 1" xmlns="http://www.w3.org/2000/svg" width="119.36" height="200" viewBox="0 0 119.36 200"><title>_</title><path d="M106.15,132.45a201.45,201.45,0,0,0,13.21-22.73A12.9,12.9,0,1,0,96.3,98.14c-2.78,5.55-5.68,10.69-8.62,15.37L75.53,101.06c13.8-7.37,20.19-21.14,20.19-34.79,0-16.8-6.74-26.15-12.38-31-8.49-7.34-18.7-8.58-24.63-8.58a37.36,37.36,0,0,0-4.19.22C34.17,28.47,21,43,20.82,63.94a43.91,43.91,0,0,0,6.1,22.13,51.38,51.38,0,0,0-11.5,7.4C5.47,102,0,113.38,0,125.61c0,24.75,23,44.89,51.23,44.89,13.1,0,26-6.07,38.39-18L100,163.13a12.9,12.9,0,0,0,18.47-18ZM56.7,52.58c0.32,0,.64-0.06,1-0.1,0,0,.38,0,1,0,1.75,0,5.49.26,7.85,2.3,2.86,2.47,3.46,7.63,3.46,11.52,0,5.93-2.61,12.91-14.34,14.24l-0.2-.21a12.86,12.86,0,0,0-1.21-1.12c-2-1.61-7.6-7.82-7.56-15.07C46.69,53.29,53.2,52.83,56.7,52.58Zm-5.46,92.11c-13.79,0-25.43-8.74-25.43-19.09,0-8.89,8.39-16.52,19.54-18.55L71.59,134C64.42,140.89,57.41,144.69,51.23,144.69Z" fill="#231f20"/></svg>