<svg id="Layer_1" data-name="Layer 1" xmlns="http://www.w3.org/2000/svg" width="127.17" height="200" viewBox="0 0 127.17 200"><title>_</title><path d="M59.68,171.2c33.84,0,58.39-29.54,58.39-70.23,0-39.79-26.2-72.16-58.39-72.16-15.39,0-30.75,7.9-42.13,21.68S0,82.11,0,101c0,19.16,5.82,36.75,16.4,49.53C27.45,163.84,42.82,171.2,59.68,171.2Zm0-116.59c15.74,0,32.59,18.63,32.59,46.36,0,26.16-13.4,44.43-32.59,44.43-19.63,0-33.88-18.68-33.88-44.43C25.8,74.43,43.69,54.61,59.68,54.61Z" fill="#231f20"/></svg>