<svg id="Layer_1" data-name="Layer 1" xmlns="http://www.w3.org/2000/svg" width="112.2" height="200" viewBox="0 0 112.2 200"><title>_</title><path d="M77.61,116.1C95.2,99.32,101.07,79.22,93.7,61c-6.93-17.19-25.23-30.1-42.63-30.1H50.92C31.51,30.94,14,40.8,5.22,56.59A12.9,12.9,0,1,0,27.78,69.12C31,63.4,39,56.71,51,56.66h0c6.19,0,15.37,5.71,18.69,13.94,4.17,10.34-3.12,20.3-10,26.83-4.18,4-9.45,8.2-15.55,13.07C32.83,119.63,18.62,131,3.49,147.42h0l-0.08.09-0.14.17c-0.18.2-.35,0.4-0.52,0.61l-0.23.31q-0.2.28-.39,0.56l-0.22.34c-0.12.2-.24,0.4-0.35,0.61l-0.17.31c-0.16.31-.3,0.62-0.43,0.95H1l0,0,0,0h0c-0.16.4-.29,0.8-0.41,1.21,0,0.13-.06.26-0.09,0.39-0.07.28-.14,0.57-0.19,0.85s0,0.33-.07.5-0.07.51-.09,0.76,0,0.38,0,.57,0,0.34,0,.52v0.18c0,0.27,0,.54,0,0.81s0,0.39,0,.59,0.08,0.5.12,0.74,0.07,0.41.11,0.61,0.13,0.47.2,0.7,0.11,0.4.18,0.6a12.84,12.84,0,0,0,.51,1.25v0l0,0a12.83,12.83,0,0,0,2.3,3.35l0,0h0q0.28,0.29.59,0.57l0.11,0.09a13.05,13.05,0,0,0,1.09.89,12.92,12.92,0,0,0,2.72,1.5l0,0h0q0.46,0.18.94,0.33l0.21,0.06c0.25,0.07.49,0.14,0.74,0.2l0.34,0.06L11,169q0.49,0.07,1,.11h75.8a12.9,12.9,0,0,0,0-25.8H44.89c5.41-4.64,10.58-8.77,15.46-12.68C66.93,125.41,72.61,120.88,77.61,116.1Z" fill="#231f20"/></svg>