<svg id="Layer_1" data-name="Layer 1" xmlns="http://www.w3.org/2000/svg" width="106.83" height="200" viewBox="0 0 106.83 200"><title>_</title><path d="M0,43.87a12.9,12.9,0,0,0,12.9,12.9H41.39L14.18,82.41,14,82.57q-0.42.4-.81,0.83h0l0,0a12.82,12.82,0,0,0-2.64,4.68h0v0A12.82,12.82,0,0,0,10,93.48q0.07,0.6.2,1.2l0.06,0.24c0.07,0.28.14,0.56,0.22,0.84s0.09,0.27.13,0.4,0.17,0.47.26,0.7l0.15,0.36c0.15,0.34.31,0.68,0.49,1h0l0,0a12.91,12.91,0,0,0,.94,1.43c0.13,0.17.27,0.33,0.41,0.49s0.33,0.43.52,0.63l0.36,0.37h0l0,0a12.88,12.88,0,0,0,10.3,3.59,13.08,13.08,0,0,0,1.42-.22l0.2,0a87.4,87.4,0,0,1,18.07-2.12c8.85,0,15.79,1.92,20.2,5.7,6.1,5.22,6.16,12.74,6,14.92-0.64,11-13.54,20.21-28.19,20.21a21.32,21.32,0,0,1-18.14-9.56,12.9,12.9,0,1,0-21.7,14A47,47,0,0,0,41.89,169a58.66,58.66,0,0,0,36.22-12.26c10.69-8.42,17-19.86,17.72-32.2v0a44.17,44.17,0,0,0-15-36,49.23,49.23,0,0,0-24-10.88L82.74,53.27l0.12-.12q0.34-.33.65-0.68l0.15-.16c0.24-.27.46-0.56,0.67-0.85l0.21-.3q0.22-.32.42-0.65l0.19-.32c0.18-.32.35-0.64,0.5-1a12.84,12.84,0,0,0,.51-1.3c0-.1.05-0.21,0.08-0.31,0.1-.34.2-0.69,0.27-1,0-.15,0-0.31.08-0.46s0.11-.6.14-0.91,0-.42,0-0.63,0-.46,0-0.69V43.8c0-.31,0-0.62-0.05-0.93s0-.35,0-0.53-0.09-.53-0.14-0.8-0.11-.57-0.18-0.85c0-.11-0.06-0.21-0.09-0.31S86.2,40,86.15,39.86,86,39.51,86,39.34s-0.07-.2-0.11-0.3q-0.16-.41-0.35-0.8-0.27-.55-0.59-1.08t-0.69-1l0-.06h0c-0.25-.33-0.53-0.66-0.82-1L83.28,35q-0.26-.28-0.53-0.53t-0.82-.71c-0.26-.21-0.54-0.41-0.82-0.6l-0.06,0q-0.44-.29-0.91-0.55l0,0q-0.48-.26-1-0.49a12.84,12.84,0,0,0-1.26-.48l-0.21-.06c-0.36-.11-0.72-0.21-1.09-0.29l-0.37-.06c-0.32-.06-0.63-0.12-1-0.15S74.45,31,74.06,31H12.9A12.9,12.9,0,0,0,0,43.87Z" fill="#231f20"/></svg>