<svg id="Layer_1" data-name="Layer 1" xmlns="http://www.w3.org/2000/svg" width="124.66" height="200" viewBox="0 0 124.66 200"><title>_</title><path d="M0,127.71H0q0,0.59.11,1.17c0.05,0.37.12,0.74,0.2,1.11v0c0.09,0.37.19,0.74,0.31,1.1v0q0.19,0.56.42,1.11a12.82,12.82,0,0,0,.58,1.16l0,0c0.21,0.36.43,0.72,0.67,1.06l0,0c0.24,0.34.49,0.66,0.76,1s0.58,0.64.89,0.93l0.41,0.37,0.4,0.32,0.32,0.26c0.33,0.25.67,0.48,1,.7h0l0,0h0l0,0,0,0,0,0,0,0h0l0.06,0h0q0.41,0.23.83,0.44h0l0.07,0h0l0.07,0h0l0.06,0h0l0.06,0h0l0.07,0q0.49,0.22,1,.39L9,139.4c0.23,0.07.47,0.15,0.7,0.21l0.43,0.09,0.61,0.13q0.53,0.09,1.06.14h0.38l0.74,0H72.27v16.1a12.9,12.9,0,1,0,25.8,0V140h7.47a12.9,12.9,0,1,0,0-25.8H98.07V45.15a12.87,12.87,0,0,0-10.24-13.9h0c-0.39-.08-0.78-0.15-1.18-0.19h0Q85.94,31,85.28,31H85.17L84.7,31c-0.3,0-.59,0-0.89.05s-0.71.1-1.06,0.17l-0.26,0c-0.41.09-.82,0.2-1.22,0.33h0a13,13,0,0,0-1.55.62l0,0a12.86,12.86,0,0,0-4.89,4L3.23,118.58l-0.07.08L3,118.9c-0.13.16-.27,0.32-0.39,0.49l-0.23.33c-0.11.15-.22,0.31-0.32,0.46l-0.23.39c-0.09.15-.18,0.29-0.26,0.44s-0.14.29-.21,0.43-0.15.29-.21,0.44-0.12.3-.18,0.45-0.12.29-.17,0.44-0.1.32-.15,0.47-0.1.3-.14,0.45-0.09.35-.13,0.53-0.07.27-.09,0.41c-0.06.32-.11,0.63-0.15,1v0h0A13.07,13.07,0,0,0,0,127v0.16q0,0.28,0,.56v0ZM72.27,78.47v35.75H41.2Z" fill="#231f20"/></svg>