<svg id="Layer_1" data-name="Layer 1" xmlns="http://www.w3.org/2000/svg" width="104.16" height="200" viewBox="0 0 104.16 200"><title>_</title><path d="M93.5,124.47A44,44,0,0,0,77.58,87.75c-9.21-7.46-21.21-11.19-35.87-11.19A103.89,103.89,0,0,0,26.15,77.8l1-21H76.65a12.9,12.9,0,1,0,0-25.8H14.88a12.9,12.9,0,0,0-2.51.25H12.3A12.91,12.91,0,0,0,4,36.89H4l0,0.06H4L4,37H4l0,0v0l0,0,0,0,0,0,0,0,0,0,0,0,0,0,0,0,0,0,0,0,0,0,0,0,0,0,0,0,0,0,0,0v0l0,0v0l0,0v0l0,0,0,0v0l0,0h0a12.8,12.8,0,0,0-.56,1.25c-0.07.18-.12,0.38-0.19,0.56s-0.18.49-.24,0.75-0.1.47-.15,0.7-0.1.44-.14,0.67-0.05.49-.08,0.73S2,43,2,43.24v0.13L-0.43,93v0.29c0,0.14,0,.27,0,0.4s0,0.38,0,.57c0,0.36,0,.71.07,1.06s0.09,0.69.16,1,0.09,0.4.14,0.61S0,97.23,0,97.35l0,0.06c0.09,0.33.2,0.66,0.32,1l0.05,0.15q0.21,0.56.47,1.09A12.83,12.83,0,0,0,4,103.74h0l0,0a12.84,12.84,0,0,0,5.61,2.78c0.39,0.09.79,0.15,1.2,0.2l0.49,0,0.44,0h0.62a12.83,12.83,0,0,0,1.64-.11c0.31,0,.62-0.09.93-0.16l0.51-.12,0.33-.08,0.25-.07a99.23,99.23,0,0,1,25.5-3.92c8.56,0,15.3,1.81,19.74,5.41,6.44,5.22,6.53,12.94,6.4,15.21h0c-0.64,11-13.55,20.21-28.19,20.21a21.32,21.32,0,0,1-18.14-9.56,12.9,12.9,0,1,0-21.71,14A47,47,0,0,0,39.55,169a58.65,58.65,0,0,0,36.22-12.26c10.71-8.43,17-19.89,17.72-32.25v0Z" fill="#231f20"/></svg>