<svg id="Layer_1" data-name="Layer 1" xmlns="http://www.w3.org/2000/svg" width="115.65" height="200" viewBox="0 0 115.65 200"><title>_</title><path d="M54.24,170.72c28.25,0,51.23-20.14,51.23-44.89A43.64,43.64,0,0,0,91.81,93.45c-9.23-8.61-22.22-13.16-37.57-13.16a55.66,55.66,0,0,0-27.66,7.22c1.28-8.59,4.13-15.69,8.54-21.08A31,31,0,0,1,58.76,55.08c7.43,0,15,2.51,19.7,6.56A12.9,12.9,0,0,0,95.24,42c-9.47-8.11-22.77-12.76-36.48-12.76A56.93,56.93,0,0,0,15.13,50.12C8.12,58.7,3.49,69.38,1.35,81.87-0.9,95-.34,110.32,3,127.28,3.91,151.36,26.54,170.72,54.24,170.72Zm0-64.62c16.16,0,25.43,7.19,25.43,19.73,0,10.35-11.65,19.09-25.43,19.09s-25.43-8.74-25.43-19.09C28.81,115.13,40.45,106.1,54.24,106.1Z" fill="#231f20"/></svg>