<svg id="Layer_1" data-name="Layer 1" xmlns="http://www.w3.org/2000/svg" width="125.6" height="200" viewBox="0 0 125.6 200"><title>_</title><path d="M9.75,127.29c0,12,6.21,23.56,17,31.61,9.84,7.32,22.73,11.36,36.27,11.36s26.43-4,36.28-11.36c10.83-8.06,17-19.58,17-31.61,0-11.87-6-23.25-16.6-31.28,7.56-7.21,11.81-16.56,11.81-26.27,0-11.2-5.66-21.92-15.53-29.43-9-6.82-20.68-10.57-33-10.57s-24,3.75-33,10.57c-9.87,7.5-15.53,18.23-15.53,29.43,0,9.71,4.25,19.06,11.82,26.27C15.79,104,9.75,115.42,9.75,127.29ZM63.06,55.54c13.39,0,22.72,7.48,22.72,14.19S76.45,83.93,63.06,83.93,40.33,76.45,40.33,69.74,49.66,55.54,63.06,55.54Zm0,54.58c16.21,0,27.51,9,27.51,17.17s-11.3,17.17-27.51,17.17-27.51-9-27.51-17.17S46.84,110.12,63.06,110.12Z" fill="#231f20"/></svg>