<svg id="Layer_1" data-name="Layer 1" xmlns="http://www.w3.org/2000/svg" width="120.17" height="200" viewBox="0 0 120.17 200"><title>_</title><path d="M1.33,74.17A43.65,43.65,0,0,0,15,106.55c9.23,8.61,22.22,13.16,37.57,13.16a55.66,55.66,0,0,0,27.66-7.22c-1.28,8.59-4.13,15.69-8.54,21.08a31,31,0,0,1-23.64,11.35c-7.43,0-15-2.51-19.7-6.56A12.9,12.9,0,1,0,11.57,158c9.47,8.11,22.77,12.76,36.48,12.76a56.93,56.93,0,0,0,43.63-20.84c7-8.58,11.64-19.26,13.77-31.75,2.25-13.18,1.69-28.45-1.68-45.42-0.88-24.08-23.51-43.44-51.21-43.44C24.32,29.28,1.33,49.42,1.33,74.17Zm76.67,0C78,84.87,66.35,93.9,52.57,93.9c-16.16,0-25.43-7.19-25.43-19.73,0-10.35,11.65-19.09,25.43-19.09S78,63.83,78,74.17Z" fill="#231f20"/></svg>