<svg id="Layer_1" data-name="Layer 1" xmlns="http://www.w3.org/2000/svg" width="64.43" height="200" viewBox="0 0 64.43 200"><title>_</title><path d="M32.65,76.87A12.9,12.9,0,0,0,45.55,64V61.46a12.9,12.9,0,0,0-25.8,0V64A12.9,12.9,0,0,0,32.65,76.87Z" fill="#231f20"/><path d="M22.72,150.39a12.89,12.89,0,0,0,16.94-6.78c2.16-5,2.67-11,2.73-15.15a13.34,13.34,0,0,0,.43-3.33l0-.85a13.36,13.36,0,0,0-.54-3,12.9,12.9,0,0,0-25.67,0,13.51,13.51,0,0,0-.57,3.8v0.17q0,0.34,0,.68v0.11a13.24,13.24,0,0,0,.5,2.76,18.21,18.21,0,0,1-.62,4.59A12.9,12.9,0,0,0,22.72,150.39Z" fill="#231f20"/></svg>