<svg id="Layer_1" data-name="Layer 1" xmlns="http://www.w3.org/2000/svg" width="139.62" height="200" viewBox="0 0 139.62 200"><title>_</title><path d="M138,99.29V99.23c0-.18,0-0.35,0-0.53v0c0-.23-0.06-0.46-0.09-0.69l0-.12c0-.16-0.05-0.33-0.09-0.49h0c-0.05-.25-0.12-0.49-0.18-0.73l0-.16c0-.13-0.06-0.26-0.1-0.38h0q-0.19-.6-0.44-1.18l0-.08q-0.14-.33-0.31-0.65L136.54,94c-0.12-.23-0.25-0.44-0.38-0.66s-0.18-.3-0.28-0.45-0.28-.4-0.42-0.59l-0.34-.44c-0.14-.18-0.3-0.34-0.45-0.51l-0.41-.44c-0.15-.15-0.31-0.29-0.46-0.43s-0.22-.21-0.33-0.31l0,0h0L133.32,90c-0.24-.19-0.49-0.37-0.74-0.55l-0.33-.24-0.07,0A13.06,13.06,0,0,0,131,88.5l-0.08,0-112.16-57a12.9,12.9,0,1,0-11.69,23L96.66,100,7.06,145.51a12.9,12.9,0,1,0,11.68,23l112.13-57,0.11-.06,0.14-.08a13,13,0,0,0,1.43-.86l0.18-.13a12.84,12.84,0,0,0,1.11-.91l0.18-.15h0l0,0,0,0,0,0,0.15-.15,0.29-.31,0.36-.39,0.19-.24,0.23-.29,0.29-.39,0.24-.36,0.16-.25,0.23-.38,0.25-.45,0.13-.23q0.17-.33.32-0.67h0v0l0.1-.27c0.08-.19.15-0.38,0.22-0.58s0.13-.39.19-0.59,0.12-.43.18-0.65,0.09-.37.12-0.55,0.08-.45.12-0.68,0-.38.07-0.57,0-.43,0-0.65,0-.18,0-0.27,0-.21,0-0.31S138,99.54,138,99.29Z" fill="#231f20"/></svg>