<svg id="Layer_1" data-name="Layer 1" xmlns="http://www.w3.org/2000/svg" width="89.1" height="200" viewBox="0 0 89.1 200"><title>_</title><path d="M86.54,65A43.16,43.16,0,0,0,72.36,41c-7.49-6.55-16.36-10.15-25-10.15-27.88,0-39.1,13.75-45.76,25.74A12.9,12.9,0,1,0,24.18,69.12c3.92-7.06,8.13-12.47,23.2-12.47,4.43,0,12.36,5.69,13.82,13.24,2,10.23-11.29,17.29-19.56,20.64l-0.25.1L41,90.8,40.49,91q-0.48.24-.93,0.5a12.83,12.83,0,0,0-4.07,3.85h0l0,0a12.83,12.83,0,0,0-2,5c-0.06.37-.11,0.75-0.14,1.14,0,0.2,0,.4,0,0.6s0,0.3,0,.45v18.08a12.9,12.9,0,1,0,25.8,0V110.9c9.38-4.83,16.52-10.75,21.3-17.65A36.51,36.51,0,0,0,86.54,65Z" fill="#231f20"/><path d="M59.09,156.25v-2.51a12.9,12.9,0,1,0-25.8,0v2.51A12.9,12.9,0,0,0,59.09,156.25Z" fill="#231f20"/></svg>