<svg id="Layer_1" data-name="Layer 1" xmlns="http://www.w3.org/2000/svg" width="152.61" height="200" viewBox="0 0 152.61 200"><title>_</title><path d="M84.8,38.15L84.74,38l-0.13-.23-0.23-.42c-0.12-.2-0.24-0.4-0.37-0.6l-0.25-.37c-0.16-.23-0.33-0.45-0.51-0.67l-0.19-.24c-0.23-.27-0.47-0.53-0.72-0.78l0,0,0,0,0,0h0c-0.25-.24-0.51-0.47-0.77-0.69l-0.13-.1-0.22-.17-0.47-.35-0.29-.2L80.11,33l-0.36-.22-0.42-.23-0.26-.14-0.49-.23L78.26,32l-0.72-.28L77,31.56l-0.81-.22-0.47-.1c-0.28-.06-0.57-0.1-0.86-0.14L74.43,31c-0.28,0-.57,0-0.85,0l-0.35,0H72.62c-0.31,0-.63,0-0.94.07h0l-0.23,0-0.22,0c-0.25,0-.5.08-0.74,0.13h0l-0.33.09-0.16,0c-0.23.06-.45,0.11-0.68,0.19h0l-0.49.18c-0.19.07-.38,0.13-0.57,0.21h0l-0.06,0-0.05,0-0.18.08-0.55.26-0.21.12-0.51.29-0.52.32-0.47.32-0.52.4-0.41.34c-0.18.16-.35,0.32-0.52,0.49L63.9,35l-0.1.1v0l0,0-0.06.06,0,0-0.05.06h0l-0.16.21c-0.23.27-.44,0.55-0.65,0.84-0.07.1-.15,0.18-0.21,0.28l-0.09.14A13,13,0,0,0,61.73,38l-0.06.12h0l-57,112.13a12.9,12.9,0,1,0,23,11.68l9-17.81H109.7l9,17.81a12.9,12.9,0,1,0,23-11.68Zm-34.92,80.2,23.35-46,23.35,46H49.88Z" fill="#231f20"/></svg>