<svg id="Layer_1" data-name="Layer 1" xmlns="http://www.w3.org/2000/svg" width="146.03" height="200" viewBox="0 0 146.03 200"><title>_</title><path d="M12.9,169a12.9,12.9,0,0,0,12.9-12.9V83.19l30.91,42,0.18,0.25L57,125.53A11.85,11.85,0,0,0,59.36,128l0.11,0.1,0.13,0.09c0.29,0.22.59,0.42,0.89,0.6l0.24,0.15a12.69,12.69,0,0,0,6.55,1.8h0a12.84,12.84,0,0,0,5.29-1.14h0c0.38-.17.75-0.37,1.12-0.58l0.22-.13c0.29-.18.58-0.36,0.86-0.57l0.11-.07L75,128.1a11.89,11.89,0,0,0,2.44-2.41l0.07-.08,0.18-.24,33-43.27v74a12.9,12.9,0,1,0,25.8,0V43.88q0-.42,0-0.83V43a12.86,12.86,0,0,0-3.63-8.12,13,13,0,0,0-1-1l-0.39-.31-0.23-.16-0.37-.26-0.46-.29L130,32.67l-0.54-.29-0.33-.17c-0.3-.14-0.59-0.27-0.9-0.39h0l0,0h-0.06q-0.53-.2-1.08-0.35c-0.23-.06-0.46-0.11-0.69-0.16l-0.42-.09a12.9,12.9,0,0,0-2.3-.21q-0.52,0-1,0a12.87,12.87,0,0,0-8.67,4.35h0q-0.28.33-.55,0.68l-0.11.15L67.47,96.27,23.41,36.39l-0.11-.16Q23,35.85,22.7,35.48a12.81,12.81,0,0,0-4.19-3.23H18.45A12.82,12.82,0,0,0,13.93,31q-0.52,0-1,0a12.91,12.91,0,0,0-2.34.21l-0.38.09c-0.25.05-.51,0.11-0.75,0.17s-0.74.22-1.1,0.36H8.27l0,0h0a12.87,12.87,0,0,0-1.4.66l-0.17.09a13.05,13.05,0,0,0-1.27.81l-0.11.07-0.33.25a13,13,0,0,0-1.06.93,12.81,12.81,0,0,0-2.49,3.41h0v0a12.82,12.82,0,0,0-1.24,4A13,13,0,0,0,0,43.55q0,0.16,0,.33V156.12A12.9,12.9,0,0,0,12.9,169Z" fill="#231f20"/></svg>