<svg id="Layer_1" data-name="Layer 1" xmlns="http://www.w3.org/2000/svg" width="132.05" height="200" viewBox="0 0 132.05 200"><title>_</title><path d="M3.35,35.22Q3,35.61,2.67,36l-0.15.2c-0.24.32-.45,0.66-0.66,1l-0.18.31c-0.2.36-.39,0.72-0.56,1.1a12.81,12.81,0,0,0-1,3.48Q0,42.72,0,43.32q0,0.28,0,.56V156.12a12.9,12.9,0,1,0,25.8,0V79l72.47,85.43,0,0c0.26,0.3.54,0.59,0.83,0.87l0.25,0.23c0.27,0.25.54,0.48,0.83,0.71l0.19,0.14c0.28,0.21.57,0.4,0.86,0.59l0.3,0.19c0.33,0.2.67,0.39,1,.55l0,0h0a12.88,12.88,0,0,0,1.32.53l0.08,0a12.93,12.93,0,0,0,1.29.36l0.18,0c0.4,0.08.8,0.15,1.21,0.2s0.76,0.06,1.15.06h0.27q0.49,0,1,0h0.2c0.33,0,.66-0.08,1-0.13l0.39-.08,0.58-.13,0.44-.13,0.51-.16,0.44-.16,0.49-.19,0.44-.2,0.46-.22,0.44-.24,0.43-.25,0.44-.29,0.39-.27,0.43-.34,0.27-.22,0.18-.16h0l0,0a13,13,0,0,0,1-1c0.28-.31.54-0.63,0.79-1l0.06-.08a12.92,12.92,0,0,0,.72-1.1l0,0a12.8,12.8,0,0,0,1.64-4.71q0.08-.6.11-1.21h0v0q0-.28,0-0.56V43.88a12.9,12.9,0,0,0-25.8,0V121L22.77,35.57l0,0-0.12-.13h0l0,0a13,13,0,0,0-1-1c-0.3-.28-0.63-0.53-1-0.78l-0.14-.11a12.93,12.93,0,0,0-1.11-.72l-0.08-.05A12.82,12.82,0,0,0,14,31H14q-0.53,0-1.07,0H12.66l-0.79,0-0.4,0-0.64.08-0.41.08-0.62.13-0.41.11-0.61.19-0.38.13-0.68.28-0.28.12q-0.47.22-.91,0.47l-0.25.15-0.65.41-0.3.21-0.59.45L4.56,34l-0.08.07Q4,34.53,3.57,35Z" fill="#231f20"/></svg>