<svg id="Layer_1" data-name="Layer 1" xmlns="http://www.w3.org/2000/svg" width="118.75" height="200" viewBox="0 0 118.75 200"><title>_</title><path d="M5.83,155.54c12.25,8,27.77,16.33,50,16.9l2.18,0c20,0,31.66-7.23,38-13.42a39.78,39.78,0,0,0,12-28.76c0-8.92-3-21.58-17.48-31.31C82.17,93.39,71,89.25,55.31,86c-25.3-5.5-25.11-13.37-25-16,0.21-8.69,3.19-11.4,4.17-12.29,3.2-2.91,9-4.4,17-4.4q2.53,0,5.34.2h0C63.61,54,72.31,57,82.68,62.35A12.9,12.9,0,1,0,94.53,39.43C80.84,32.35,69.12,28.54,58.68,27.79q-3.63-.26-7-0.26c-14.84,0-26.44,3.72-34.56,11.1S4.79,56.29,4.47,69.39c-0.22,9,2.66,21.82,17.64,31.42,7,4.51,15.87,7.81,27.81,10.4l0.21,0c32,6.71,32,15.66,32,19A14.07,14.07,0,0,1,78,140.57c-4.1,4-11,6.09-20,6.09l-1.52,0C40.78,146.24,29.66,140.31,20,134A12.9,12.9,0,1,0,5.83,155.54Z" fill="#231f20"/></svg>