<svg id="Layer_1" data-name="Layer 1" xmlns="http://www.w3.org/2000/svg" width="140.28" height="200" viewBox="0 0 140.28 200"><title>_</title><path d="M122.45,32.18a12.89,12.89,0,0,0-17.13,6.28L65,125.46l-40.35-87A12.9,12.9,0,1,0,1.2,49.31l52,112.11,0.06,0.13c0.09,0.19.2,0.37,0.3,0.55s0.3,0.6.48,0.87,0.32,0.46.49,0.69,0.31,0.46.49,0.67,0.45,0.5.68,0.74,0.3,0.33.46,0.48a12.83,12.83,0,0,0,1.29,1.06h0l0.08,0.06h0l0.08,0.05,0,0,0,0c0.33,0.22.67,0.43,1,.62l0.36,0.19,0.45,0.23L60,168A12.83,12.83,0,0,0,65,169h0a12.81,12.81,0,0,0,3.59-.51q0.58-.17,1.14-0.39h0l0.08,0,0.61-.26,0.18-.1a12.89,12.89,0,0,0,1.47-.81h0l0.08-.05,0,0,0,0,0.06,0,0,0,0.17-.12h0a12.86,12.86,0,0,0,1.23-1h0l0.07-.06h0l0.07-.07,0,0,0,0,0.06-.06,0,0,0,0,0,0a12.91,12.91,0,0,0,1.66-2h0l0.06-.09,0,0,0,0,0.05-.08h0l0.06-.09h0a13,13,0,0,0,.68-1.27l0,0,52-112.21A12.9,12.9,0,0,0,122.45,32.18Z" fill="#231f20"/></svg>