<svg id="Layer_1" data-name="Layer 1" xmlns="http://www.w3.org/2000/svg" width="200" height="200" viewBox="0 0 200 200"><title>_</title><path d="M191.52,31.81a12.89,12.89,0,0,0-16.63,7.51l-30,79.53L116.27,39.54v0l-0.07-.18h0l0,0V39.21l0-.06h0q-0.22-.56-0.49-1.1c-0.15-.3-0.32-0.59-0.5-0.88L115,37c-0.2-.31-0.41-0.61-0.63-0.91L114.36,36q-0.37-.48-0.78-0.92a12.44,12.44,0,0,0-1.36-1.26,13.29,13.29,0,0,0-1.53-1.05l-0.19-.12-0.43-.22c-0.25-.13-0.51-0.27-0.77-0.38l0,0c-0.19-.08-0.38-0.14-0.57-0.22s-0.4-.16-0.61-0.23-0.53-.15-0.79-0.22l-0.46-.12c-0.32-.07-0.64-0.12-1-0.16l-0.31-.05a12.86,12.86,0,0,0-1.3-.08h-0.14c-0.42,0-.84,0-1.26.07l-0.35,0c-0.31,0-.61.09-0.92,0.15l-0.4.09c-0.29.07-.59,0.15-0.87,0.24l-0.36.11-0.21.07-0.37.16c-0.3.12-.59,0.24-0.88,0.38l-0.58.3c-0.25.14-.5,0.29-0.75,0.45l-0.55.36c-0.25.18-.49,0.38-0.73,0.57s-0.29.23-.43,0.36a12.79,12.79,0,0,0-1,1.06h0l0,0q-0.41.47-.76,1t-0.67,1v0l0,0a13,13,0,0,0-.63,1.25l-0.06.13L56.41,121.2,27,39.51A12.9,12.9,0,1,0,2.69,48.25L43.11,160.42l0,0.08q0.1,0.27.21,0.54h0v0l0,0h0q0.2,0.48.45,0.95T44.34,163v0q0.28,0.44.59,0.86h0q0.31,0.42.66,0.82v0l0,0c0.28,0.31.58,0.61,0.88,0.89l0.35,0.3c0.2,0.18.41,0.35,0.63,0.51l0.43,0.3,0.66,0.43L49,167.4c0.27,0.15.56,0.29,0.84,0.42L50.13,168l0.09,0,0.27,0.11,0.72,0.27,0.33,0.1,0.73,0.2,0.3,0.07c0.34,0.07.68,0.14,1,.18h0.06a12.79,12.79,0,0,0,4.74-.29q0.51-.13,1-0.3h0.11l0.13,0,0.15-.06h0l0,0h0a13,13,0,0,0,1.19-.53c0.29-.15.58-0.32,0.86-0.49l0.26-.15c0.31-.2.62-0.42,0.91-0.65l0.15-.1a12.86,12.86,0,0,0,1-.86q0.44-.43.84-0.89l0.08-.11c0.23-.28.45-0.56,0.66-0.86L66,163.3c0.18-.26.35-0.53,0.51-0.8s0.39-.72.55-1.09h0l0-.06h0l0-.06L103,78.8l29.45,81.69,0,0.08q0.22,0.59.49,1.16l0.15,0.29c0.16,0.32.34,0.63,0.53,0.93l0.12,0.2c0.22,0.33.45,0.65,0.7,1l0.23,0.28c0.26,0.31.53,0.62,0.82,0.9a12.88,12.88,0,0,0,1,.88l0.06,0c0.33,0.26.66,0.5,1,.73l0.15,0.09c0.32,0.2.65,0.4,1,.57a13,13,0,0,0,1.2.54H140l0.07,0c0.26,0.1.51,0.16,0.77,0.24s0.46,0.16.69,0.22a12.85,12.85,0,0,0,1.52.28h0.52l0.79,0h0.5a12.86,12.86,0,0,0,1.5-.12h0.17a13,13,0,0,0,1.46-.32l0.46-.14,0.53-.16,0.75-.3a12.83,12.83,0,0,0,3.54-2.28l0,0h0a12.84,12.84,0,0,0,.9-0.92l0.23-.27c0.27-.32.52-0.64,0.76-1l0.16-.25q0.31-.47.57-1L156,162a13,13,0,0,0,.54-1.21l0.06-.13L199,48.44A12.9,12.9,0,0,0,191.52,31.81Z" fill="#231f20"/></svg>