<svg id="Layer_1" data-name="Layer 1" xmlns="http://www.w3.org/2000/svg" width="117.59" height="200" viewBox="0 0 117.59 200"><title>_</title><path d="M2.69,148.23l0,0.06a13,13,0,0,0-.79,1.17l-0.06.1c-0.07.11-.12,0.23-0.18,0.34-0.16.28-.31,0.57-0.44,0.86l-0.09.17C1,151,1,151.17.95,151.29s-0.17.42-.24,0.64-0.12.37-.17,0.56-0.13.46-.18,0.69-0.08.37-.11,0.55-0.09.49-.12,0.74,0,0.36-.06.54,0,0.52,0,.78c0,0.11,0,.21,0,0.32s0,0.32,0,.48v0c0,0.43.06,0.86,0.12,1.29V158a13,13,0,0,0,.63,2.47h0v0A12.84,12.84,0,0,0,1.43,162l0,0h0l0.13,0.22c0.11,0.2.22,0.39,0.34,0.58l0.3,0.48c0.13,0.2.27,0.39,0.42,0.57L3,164.35c0.15,0.18.3,0.35,0.46,0.52l0.42,0.43,0.46,0.43L4.57,166l0.5,0.41,0.45,0.31,0.31,0.22L6,167l0.32,0.19c0.21,0.13.42,0.25,0.63,0.36l0,0,0,0H7l0.17,0.08q0.5,0.24,1,.45l0.33,0.12a12.89,12.89,0,0,0,2.64.64l0.3,0a12.94,12.94,0,0,0,1.4.09H98.6a12.9,12.9,0,0,0,0-25.8H39l69.87-91.51c0.17-.23.32-0.46,0.48-0.7s0.18-.25.26-0.38l0,0c0.08-.13.14-0.26,0.21-0.39s0.29-.51.42-0.77V49.38c0.05-.11.09-0.23,0.14-0.34,0.12-.28.24-0.56,0.35-0.85s0.09-.3.14-0.45,0.17-.56.24-0.84,0.07-.32.1-0.48,0.11-.57.15-0.86,0-.32.05-0.49,0-.6.05-0.9c0-.1,0-0.19,0-0.29s0-.21,0-0.32,0-.18,0-0.28V43.07c0-.14,0-0.27,0-0.41s0-.47-0.08-0.71h0c0-.19-0.07-0.38-0.1-0.57V41.32c0-.2-0.08-0.4-0.13-0.6h0c0-.19-0.1-0.37-0.16-0.56l0-.08c-0.06-.19-0.12-0.38-0.19-0.57v0c-0.07-.18-0.14-0.36-0.21-0.55l0,0c-0.08-.2-0.17-0.39-0.26-0.58s-0.08-.19-0.13-0.28h0l0,0-0.15-.27-0.27-.48c-0.11-.18-0.22-0.36-0.34-0.54L109,36.23c-0.13-.17-0.26-0.34-0.4-0.5l-0.36-.43c-0.17-.19-0.36-0.38-0.54-0.56l-0.29-.3,0-.05h0l0,0c-0.26-.23-0.53-0.46-0.81-0.68l-0.07-.06-0.1-.07c-0.31-.23-0.62-0.45-0.95-0.65l-0.06,0-0.11-.07h0c-0.29-.17-0.59-0.33-0.9-0.48l-0.22-.11,0,0-0.16-.08-0.74-.3L103,31.75l-0.29-.1-0.24-.08-0.54-.16-0.28-.07-0.4-.1h-0.13l-0.26,0-0.63-.09L99.63,31,99,31,98.6,31H12.9a12.9,12.9,0,0,0,0,25.8H72.52L2.7,148.23h0Z" fill="#231f20"/></svg>