<svg id="Layer_1" data-name="Layer 1" xmlns="http://www.w3.org/2000/svg" width="152.61" height="200" viewBox="0 0 152.61 200"><title>_</title><path d="M84.81,38.18L84.74,38l-0.11-.19c-0.11-.2-0.22-0.4-0.34-0.59L84,36.77c-0.12-.18-0.25-0.36-0.38-0.53l-0.36-.48-0.4-.46-0.44-.47L82,34.43l-0.25-.24h0l-0.06-.06,0,0,0,0-0.23-.18-0.24-.19-0.63-.46-0.18-.13-0.06,0-0.07,0c-0.33-.21-0.68-0.41-1-0.59l-0.1-.06-0.49-.23L78.26,32l-0.71-.28L77,31.56l-0.81-.22-0.47-.1c-0.28-.06-0.57-0.1-0.86-0.14L74.43,31c-0.28,0-.57,0-0.85,0l-0.35,0H72.64c-0.32,0-.65,0-1,0.07h0l-0.23,0-0.21,0c-0.25,0-.5.08-0.75,0.13h0l-0.34.09-0.15,0c-0.23.06-.45,0.11-0.68,0.19h0l-0.49.18c-0.19.07-.38,0.13-0.56,0.21h0l-0.06,0-0.05,0-0.18.08-0.55.26-0.14.08a13,13,0,0,0-1.41.85l-0.13.1a12.8,12.8,0,0,0-1.12.91l-0.17.14h0l0,0,0,0,0,0-0.07.07h0l-0.13.13-0.27.29-0.33.35-0.21.26L63,36l-0.2.26c-0.1.14-.2,0.29-0.29,0.43l-0.2.29-0.11.17c-0.11.18-.21,0.37-0.31,0.56s-0.13.22-.19,0.33l-57,112.24a12.9,12.9,0,1,0,23,11.68l9-17.81H109.7l9,17.81a12.9,12.9,0,0,0,23-11.68ZM49.88,118.35l23.35-46,23.35,46H49.88Z" fill="#231f20"/></svg>