<svg id="Layer_1" data-name="Layer 1" xmlns="http://www.w3.org/2000/svg" width="138.08" height="200" viewBox="0 0 138.08 200"><title>_</title><path d="M72.35,171.2c18.41,0,37.05-7.17,49.91-19.18l0.09-.09,0.47-.47h0l0-.05,0,0h0q0.35-.38.68-0.78a12.92,12.92,0,0,0,.9-1.27,12.75,12.75,0,0,0,.74-1.37c0.17-.36.31-0.74,0.45-1.11l0.12-.36q0.15-.46.26-0.94l0.07-.26c0.08-.39.15-0.78,0.2-1.17,0-.12,0-0.24,0-0.35,0-.37.06-0.74,0.06-1.11V101.15a12.9,12.9,0,0,0-12.9-12.9H67.58a12.9,12.9,0,1,0,0,25.8h33v22.4a49.2,49.2,0,0,1-28.27,8.94,45.39,45.39,0,1,1,31.47-78.11,12.9,12.9,0,0,0,17.89-18.59A71.2,71.2,0,1,0,72.35,171.2Z" fill="#231f20"/></svg>