<svg id="Layer_1" data-name="Layer 1" xmlns="http://www.w3.org/2000/svg" width="146.03" height="200" viewBox="0 0 146.03 200"><title>_</title><path d="M12.89,31a12.9,12.9,0,0,0-2.3.21l-0.38.09c-0.24.05-.49,0.1-0.73,0.17s-0.73.22-1.09,0.35h0l-0.05,0H8.27a12.85,12.85,0,0,0-1.42.66l-0.2.1a13,13,0,0,0-1.29.82l-0.11.07-0.39.3A12.83,12.83,0,0,0,1.42,38l0,0h0A12.81,12.81,0,0,0,.12,42.13,13,13,0,0,0,0,43.56c0,0.11,0,.21,0,0.32V156.12a12.9,12.9,0,1,0,25.8,0V83.19l30.91,42,0.18,0.25L57,125.53A11.85,11.85,0,0,0,59.36,128l0.11,0.1,0.13,0.09c0.29,0.22.59,0.42,0.89,0.6l0.24,0.15a12.68,12.68,0,0,0,6.55,1.8h0a12.84,12.84,0,0,0,5.29-1.14h0c0.38-.17.75-0.37,1.12-0.58l0.21-.13c0.29-.18.58-0.37,0.86-0.57l0.11-.07L75,128.1a11.89,11.89,0,0,0,2.44-2.41l0.07-.08,0.18-.24,33-43.27v74a12.9,12.9,0,1,0,25.8,0V43.88q0-.41,0-0.81a12.86,12.86,0,0,0-3.61-8.17,13,13,0,0,0-1-.93l-0.45-.35-0.21-.15-0.37-.26-0.47-.3L130,32.68l-0.55-.29-0.32-.16c-0.3-.14-0.6-0.27-0.91-0.39h0l0,0h-0.06l-0.05,0h0q-0.52-.19-1.07-0.34c-0.23-.06-0.47-0.11-0.71-0.16l-0.39-.09a12.9,12.9,0,0,0-2.26-.2q-0.52,0-1,0a12.87,12.87,0,0,0-8.63,4.3q-0.32.36-.61,0.74l-0.12.16L67.47,96.28,23.41,36.4l-0.12-.16q-0.29-.4-0.61-0.77l0,0,0,0a12.82,12.82,0,0,0-4.14-3.17l0,0h0A12.82,12.82,0,0,0,13.93,31Q13.41,31,12.89,31Z" fill="#231f20"/></svg>