<svg id="Layer_1" data-name="Layer 1" xmlns="http://www.w3.org/2000/svg" width="132.05" height="200" viewBox="0 0 132.05 200"><title>_</title><path d="M0,44V156.12a12.9,12.9,0,0,0,25.8,0V79l72.44,85.4,0,0,0.11,0.13h0l0,0a13,13,0,0,0,1,1c0.3,0.28.63,0.53,1,.78l0.16,0.13a12.92,12.92,0,0,0,1.1.71l0.12,0.07a12.86,12.86,0,0,0,1.3.64h0a12.82,12.82,0,0,0,3.81,1H107q0.57,0.05,1.14.05h0.25l0.78,0,0.4,0,0.64-.08,0.41-.08,0.62-.13,0.4-.11,0.62-.19,0.37-.13,0.69-.28,0.27-.12q0.47-.22.91-0.47l0.24-.15c0.22-.13.44-0.27,0.66-0.42l0.3-.21,0.59-.45,0.18-.14,0.08-.07q0.48-.41.91-0.87l0.22-.24q0.36-.39.68-0.82l0.16-.2c0.24-.32.45-0.66,0.66-1l0.18-.31c0.2-.36.39-0.72,0.56-1.1a12.81,12.81,0,0,0,1-3.45q0.08-.59.11-1.19h0v0q0-.28,0-0.56V43.88a12.9,12.9,0,1,0-25.8,0V121L22.81,35.62l-0.07-.08-0.37-.41h0l0-.05,0,0h0q-0.39-.42-0.83-0.8a13,13,0,0,0-1.36-1.06,12.76,12.76,0,0,0-1.5-.87,12.89,12.89,0,0,0-1.36-.58l-0.14,0a13,13,0,0,0-1.27-.37l-0.26,0c-0.39-.08-0.79-0.16-1.19-0.2S13.66,31,13.31,31l-0.4,0H12.81q-0.49,0-1,0H11.65q-0.53.05-1.06,0.15l-0.6.13-0.44.1c-0.23.06-.46,0.14-0.69,0.22l-0.32.1q-0.5.18-1,.4h0l-0.06,0h0l-0.06,0h0l0,0h0l0,0h0l0,0h0l0,0h0l-0.07,0,0,0,0,0H7l0,0h0l0,0h0l0,0,0,0,0,0h0l0,0h0l0,0h0a12.88,12.88,0,0,0-1.09.69l-0.39.3c-0.18.14-.37,0.27-0.55,0.43l-0.18.16h0l0,0,0,0h0a12.85,12.85,0,0,0-1.77,2l0,0a12.92,12.92,0,0,0-.73,1.11h0A12.8,12.8,0,0,0,.12,42.1Q0,42.71,0,43.32q0,0.28,0,.56V44Z" fill="#231f20"/></svg>