<svg id="Layer_1" data-name="Layer 1" xmlns="http://www.w3.org/2000/svg" width="122.59" height="200" viewBox="0 0 122.59 200"><title>_</title><path d="M61.81,146.66l-1.52,0c-15.68-.4-26.79-6.33-36.48-12.68A12.9,12.9,0,1,0,9.66,155.54c12.25,8,27.77,16.33,50,16.9l2.18,0c20,0,31.66-7.23,38-13.42a39.78,39.78,0,0,0,12-28.76c0-8.92-3-21.58-17.48-31.31C86,93.39,74.83,89.25,59.15,86c-25.3-5.5-25.11-13.37-25-16,0.21-8.69,3.19-11.4,4.17-12.29,3.2-2.91,9-4.4,17-4.4q2.53,0,5.34.2h0C67.44,54,76.14,57,86.51,62.35A12.9,12.9,0,1,0,98.36,39.43C84.68,32.35,73,28.54,62.51,27.79q-3.63-.26-7-0.26c-14.84,0-26.44,3.72-34.56,11.1S8.63,56.29,8.31,69.39c-0.22,9,2.66,21.82,17.64,31.42,7,4.51,15.87,7.81,27.81,10.4l0.21,0c32,6.71,32,15.66,32,19a14.07,14.07,0,0,1-4.19,10.28C77.7,144.57,70.82,146.66,61.81,146.66Z" fill="#231f20"/></svg>