<svg id="Layer_1" data-name="Layer 1" xmlns="http://www.w3.org/2000/svg" width="139.83" height="200" viewBox="0 0 139.83 200"><title>_</title><path d="M4.17,49.31l52,112.14,0,0.11c0.09,0.19.19,0.37,0.29,0.55s0.16,0.33.25,0.49q0.3,0.53.65,1v0l0.06,0.08,0,0,0,0,0,0,0,0,0.08,0.1h0q0.33,0.43.7,0.84t0.77,0.78h0l0.06,0.05h0l0.1,0.09h0l0.05,0,0,0,0.11,0.09h0l0,0,0,0,0.16,0.13,0,0,0.05,0h0l0.12,0.09h0l0.06,0h0a12.92,12.92,0,0,0,1.33.9l0.5,0.27c0.22,0.12.44,0.25,0.67,0.36L63,168q0.58,0.24,1.19.42a12.81,12.81,0,0,0,3.74.56h0a12.81,12.81,0,0,0,3.59-.51q0.58-.17,1.14-0.39h0l0.08,0,0.61-.26,0.18-.09,0.47-.24,0.46-.26L74.9,167l0.46-.3,0.39-.29,0.44-.35,0.36-.31,0.42-.4L77.3,165l0.39-.44L78,164.2c0.14-.17.26-0.35,0.39-0.52l0.23-.32c0.2-.29.38-0.59,0.55-0.89v0l0-.06,0-.07,0,0,0-.06,0,0,0-.09v0l0-.08h0l0-.09v0l0-.09h0l0-.08,0,0,0-.05,0,0L131.69,49.31a12.9,12.9,0,1,0-23.41-10.86l-40.36,87-40.35-87A12.9,12.9,0,1,0,4.17,49.31Z" fill="#231f20"/></svg>