<svg id="Layer_1" data-name="Layer 1" xmlns="http://www.w3.org/2000/svg" width="200" height="200" viewBox="0 0 200 200"><title>_</title><path d="M191.52,31.81a12.89,12.89,0,0,0-16.63,7.51l-30,79.53L116.27,39.54v0l-0.06-.18h0l0,0V39.22q-0.23-.6-0.52-1.17c-0.15-.29-0.32-0.57-0.49-0.85L115,36.94c-0.2-.31-0.42-0.62-0.65-0.91l-0.09-.13q-0.39-.5-0.84-1t-0.76-.73l-0.12-.09c-0.23-.19-0.46-0.38-0.7-0.56l-0.25-.17c-0.2-.14-0.4-0.28-0.62-0.42s-0.6-.36-0.92-0.52-0.5-.26-0.76-0.38h0c-0.18-.08-0.37-0.14-0.55-0.21s-0.4-.16-0.6-0.23-0.52-.15-0.78-0.22l-0.42-.11c-0.31-.07-0.63-0.12-0.95-0.16l-0.29,0Q105.06,31,104.43,31h-0.31c-0.42,0-.84,0-1.26.07l-0.34,0c-0.31,0-.62.09-0.92,0.15l-0.39.09c-0.3.07-.59,0.15-0.88,0.24l-0.36.11-0.21.07-0.37.16c-0.3.12-.59,0.24-0.88,0.38l-0.58.3c-0.25.14-.5,0.29-0.75,0.45l-0.55.36c-0.25.18-.49,0.37-0.73,0.57s-0.3.23-.44,0.36a12.8,12.8,0,0,0-1,1.06h0l0,0q-0.41.47-.76,1t-0.67,1v0l0,0a13.07,13.07,0,0,0-.63,1.25l-0.06.13L56.41,121.2,27,39.51A12.9,12.9,0,1,0,2.69,48.25L43.1,160.38l0,0.11q0.18,0.49.39,1v0.05q0.2,0.44.43,0.86a12.8,12.8,0,0,0,1,1.59l0,0q0.29,0.38.62,0.75l0,0h0q0.38,0.42.8,0.81l0.07,0.06c0.26,0.24.52,0.46,0.8,0.68l0.05,0c0.28,0.22.57,0.42,0.87,0.62s0.64,0.39,1,.57,0.58,0.29.88,0.42l0.1,0a13,13,0,0,0,1.31.48H51.6q0.47,0.14,1,.24t1,0.17h0.13a12.79,12.79,0,0,0,4.75-.28q0.51-.13,1-0.3h0.11l0.13,0,0.15-.06h0l0,0h0q0.59-.23,1.16-0.51c0.29-.15.58-0.31,0.86-0.48l0.24-.14c0.32-.2.62-0.42,0.92-0.64l0.12-.08q0.5-.39,1-0.83c0.27-.26.53-0.53,0.77-0.81l0.24-.28q0.26-.32.51-0.65l0.2-.28q0.32-.46.6-0.95l0.12-.23q0.23-.42.43-0.86l0.08-.16L103,78.8l29.45,81.69,0,0.08q0.22,0.59.49,1.16l0.15,0.29c0.16,0.32.34,0.63,0.53,0.93l0.12,0.2c0.22,0.33.45,0.65,0.7,1l0.23,0.28c0.26,0.31.53,0.62,0.82,0.9a12.91,12.91,0,0,0,1,.88l0.06,0c0.33,0.26.66,0.5,1,.73l0.15,0.09c0.32,0.2.65,0.4,1,.57a13,13,0,0,0,1.2.54H140l0.07,0c0.25,0.09.5,0.16,0.76,0.23s0.47,0.16.71,0.22a12.87,12.87,0,0,0,1.52.28h0.52l0.79,0h0.5a12.85,12.85,0,0,0,1.51-.12h0.17a13,13,0,0,0,1.44-.31l0.46-.14,0.55-.17,0.69-.27h0a12.83,12.83,0,0,0,3.66-2.38c0.31-.29.6-0.6,0.88-0.92l0.23-.27c0.26-.32.52-0.64,0.75-1l0.15-.24q0.3-.46.56-0.94l0.14-.26a13,13,0,0,0,.53-1.19l0.05-.12L199,48.44A12.9,12.9,0,0,0,191.52,31.81Z" fill="#231f20"/></svg>