<svg id="Layer_1" data-name="Layer 1" xmlns="http://www.w3.org/2000/svg" width="128.99" height="200" viewBox="0 0 128.99 200"><title>_</title><path d="M5.68,148.2l-0.07.09-0.21.29c-0.11.15-.22,0.31-0.33,0.46l-0.14.22-0.16.27-0.2.34c-0.08.15-.16,0.31-0.24,0.46l-0.13.26-0.07.14q-0.2.44-.37,0.89v0l0,0.05,0,0v0c-0.13.36-.24,0.72-0.34,1.09,0,0.11,0,.23-0.08.35s-0.12.53-.17,0.8,0,0.33-.06.49S3,154.95,3,155.18s0,0.36,0,.54,0,0.27,0,.41,0,0.32,0,.48v0c0,0.43.06,0.86,0.12,1.29V158a13,13,0,0,0,.63,2.47h0v0A12.9,12.9,0,0,0,4.4,162l0,0h0l0.13,0.22c0.11,0.2.22,0.39,0.34,0.58l0.31,0.48c0.13,0.2.27,0.39,0.41,0.57l0.34,0.44c0.15,0.18.3,0.35,0.46,0.52l0.42,0.44,0.46,0.43L7.54,166,8,166.38l0.44,0.31,0.32,0.22L9,167l0.32,0.19c0.21,0.12.42,0.25,0.63,0.36l0,0,0,0h0l0.17,0.08q0.5,0.24,1,.45l0.33,0.12a12.9,12.9,0,0,0,2.64.64l0.3,0a12.94,12.94,0,0,0,1.4.09h85.71a12.9,12.9,0,0,0,0-25.8H42l69.8-91.42h0l0.07-.09a13,13,0,0,0,.79-1.17l0.07-.11c0.07-.11.12-0.23,0.18-0.34,0.16-.29.31-0.58,0.45-0.88l0.1-.19c0-.11.08-0.23,0.13-0.35s0.16-.41.24-0.63,0.12-.38.18-0.57,0.13-.45.18-0.68,0.08-.37.11-0.55,0.08-.49.12-0.74,0-.35.06-0.53,0-.52,0-0.78c0-.11,0-0.21,0-0.31s0-.21,0-0.32,0-.19,0-0.28V43.07c0-.14,0-0.27,0-0.41s0-.47-0.08-0.7h0c0-.19-0.07-0.38-0.1-0.56V41.32c0-.2-0.08-0.4-0.13-0.59v0c0-.19-0.1-0.37-0.16-0.56l0-.08c-0.06-.19-0.12-0.38-0.19-0.56v0c-0.07-.18-0.14-0.36-0.21-0.54l0,0c-0.08-.19-0.17-0.39-0.26-0.58l-0.12-.27c-0.05-.1-0.11-0.2-0.17-0.3l-0.28-.49c-0.11-.18-0.22-0.35-0.34-0.53s-0.22-.33-0.34-0.49-0.26-.33-0.39-0.49-0.24-.3-0.37-0.45-0.35-.37-0.53-0.55l-0.31-.32,0,0h0l0,0c-0.26-.23-0.53-0.46-0.81-0.68l-0.07-.06-0.1-.07c-0.31-.23-0.62-0.45-0.95-0.65l-0.06,0-0.11-.07h0c-0.29-.17-0.59-0.33-0.89-0.48L107,32.2l0,0-0.16-.08-0.74-.3L106,31.75l-0.29-.1-0.24-.08-0.54-.16-0.27-.07-0.4-.1h-0.13l-0.26,0-0.63-.09L102.6,31l-0.67,0-0.36,0H15.87a12.9,12.9,0,0,0,0,25.8H75.49L5.68,148.2h0Z" fill="#231f20"/></svg>