<svg id="Layer_1" data-name="Layer 1" xmlns="http://www.w3.org/2000/svg" width="127.12" height="200" viewBox="0 0 127.12 200"><title>_</title><path d="M114.22,138.56H57.09V111.47H94.59a12.9,12.9,0,1,0,0-25.8H57c0.22-12.31,1.64-23.54,6.4-28.44,1.08-1.11,4.37-4.5,15.89-4.5h0.41c3.61,0,12.6,1.51,14,5.41A12.9,12.9,0,1,0,118,49.66c-6.26-18-26.59-22.73-38.22-22.73H79.14c-15,0-26.24,4-34.28,12.31C34.63,49.78,31.5,65.07,31.17,85.67H23.11a12.9,12.9,0,1,0,0,25.8h8.17v27.09H25a12.9,12.9,0,0,0,0,25.8h89.2A12.9,12.9,0,0,0,114.22,138.56Z" fill="#231f20"/></svg>