<svg id="Layer_1" data-name="Layer 1" xmlns="http://www.w3.org/2000/svg" width="95.1" height="200" viewBox="0 0 95.1 200"><title>_</title><path d="M14.71,106.75A36.51,36.51,0,0,0,8.57,135a43.15,43.15,0,0,0,14.18,24,40.08,40.08,0,0,0,20.32,9.8,13.28,13.28,0,0,0,8.64.24c25-1.25,35.44-14.24,41.77-25.63a12.9,12.9,0,1,0-22.56-12.53c-3.63,6.53-7.5,11.64-20,12.37a12.62,12.62,0,0,0-5.24-.24c-4.49-1.3-10.53-6.41-11.79-12.91-2-10.23,11.28-17.29,19.56-20.64l0.25-.1,0.38-.17,0.52-.23q0.48-.24.93-0.51a12.91,12.91,0,0,0,6.08-8.88c0.06-.37.11-0.75,0.14-1.13,0-.2,0-0.39,0-0.59s0-.3,0-0.46V79.31a12.9,12.9,0,1,0-25.8,0V89.1C26.64,93.93,19.49,99.85,14.71,106.75Z" fill="#231f20"/><path d="M36,43.75v2.51a12.9,12.9,0,0,0,25.8,0V43.75A12.9,12.9,0,1,0,36,43.75Z" fill="#231f20"/></svg>