<svg id="Layer_1" data-name="Layer 1" xmlns="http://www.w3.org/2000/svg" width="138.54" height="200" viewBox="0 0 138.54 200"><title>_</title><path d="M80.19,58.45l-0.06-.12L80,58.12l-0.27-.48q-0.16-.28-0.34-0.55l-0.3-.44c-0.13-.19-0.27-0.37-0.42-0.54l-0.31-.38c-0.17-.2-0.35-0.39-0.53-0.57l-0.28-.28L77.5,54.8l0,0,0,0c-0.22-.21-0.45-0.4-0.68-0.58l-0.11-.1-0.48-.35L76,53.57l-0.29-.2-0.25-.15c-0.26-.16-0.53-0.32-0.81-0.46l-0.15-.08-0.57-.27-0.31-.12L72.94,52l-0.54-.18-0.74-.2-0.51-.11-0.77-.13-0.53-.06-0.74,0-0.34,0H68.45l-0.65,0h-0.1l-0.52,0h0l-0.58.09-0.22,0-0.45.08h0l-0.62.16-0.4.11-0.22.06h0q-0.6.2-1.19,0.45l0,0-0.62.29-0.23.13-0.4.23-0.61.38-0.35.23q-0.42.3-.81,0.62l-0.09.07q-0.38.32-.72,0.66h0l0,0,0,0h0l-0.06.06-0.2.21c-0.15.16-.29,0.31-0.43,0.47l-0.16.2-0.22.29-0.24.31L57.91,57l-0.19.28-0.12.18c-0.1.17-.2,0.35-0.3,0.53s-0.12.21-.18,0.32l-42.8,84.26a13.36,13.36,0,0,0-3.19,6.28l-11,21.7a12.9,12.9,0,1,0,23,11.69l8.79-17.31h0.56l0.25-.5h72.36l9,17.81a12.9,12.9,0,0,0,23-11.68ZM45.84,138.64l0.25-.5H45.53l23.1-45.48,23.35,46H45.84Z" fill="#231f20"/><path d="M50.45,25.91l19.79,14a8.39,8.39,0,1,0,9.69-13.69l-19.79-14A8.39,8.39,0,1,0,50.45,25.91Z" fill="#231f20"/></svg>