<svg id="Layer_1" data-name="Layer 1" xmlns="http://www.w3.org/2000/svg" width="142.42" height="200" viewBox="0 0 142.42 200"><title>_</title><path d="M135.36,187.92A12.9,12.9,0,0,0,141,170.57L84.07,58.45,84,58.33l-0.13-.24-0.21-.38c-0.13-.22-0.26-0.43-0.4-0.64l-0.21-.31c-0.21-.31-0.44-0.6-0.67-0.88l-0.12-.13c-0.16-.19-0.33-0.38-0.5-0.55l0,0h0L81.6,55l-0.29-.27-0.43-.39-0.22-.18L80.39,54,80,53.66l-0.34-.23-0.23-.15L79,53l-0.44-.25-0.21-.12-0.71-.33-0.26-.1L76.81,52l-0.59-.19-0.65-.18L75,51.53l-0.67-.12-0.57-.07-0.65,0-0.28,0H72.33l-0.64,0H71.57l-0.52,0h0l-0.58.09-0.23,0-0.44.08h0l-0.63.17-0.43.12-0.17,0h0q-0.61.2-1.2,0.46h0l-0.6.29-0.18.1c-0.25.13-.49,0.27-0.73,0.42l-0.41.25c-0.23.16-.46,0.32-0.68,0.49l-0.38.29c-0.21.17-.41,0.36-0.61,0.55l-0.36.33c-0.18.18-.34,0.37-0.51,0.56S62.6,55.9,62.5,56l0,0,0,0,0,0c-0.18.23-.35,0.47-0.52,0.72s-0.17.23-.25,0.35v0c-0.07.1-.12,0.21-0.18,0.32-0.16.27-.33,0.54-0.47,0.82l0,0.07h0L18.21,142.6A13.36,13.36,0,0,0,15,148.87L4,170.57a12.9,12.9,0,1,0,23,11.69l8.79-17.31h0.56l0.25-.5H109l9,17.81A12.89,12.89,0,0,0,135.36,187.92ZM49.72,138.64l0.25-.5H49.41l23.1-45.48,23.35,46H49.72Z" fill="#231f20"/><path d="M65.63,42a8.83,8.83,0,0,0,5.13-1.63l19.79-14A8.89,8.89,0,1,0,80.29,11.81l-19.79,14A8.89,8.89,0,0,0,65.63,42Z" fill="#231f20"/></svg>