<svg id="Layer_1" data-name="Layer 1" xmlns="http://www.w3.org/2000/svg" width="141.86" height="200" viewBox="0 0 141.86 200"><title>_</title><path d="M83.51,56.37l-0.07-.13L83.32,56l-0.23-.41c-0.12-.21-0.24-0.41-0.37-0.6l-0.24-.36c-0.18-.25-0.36-0.49-0.55-0.73l-0.14-.17Q81.45,53.34,81.1,53l0,0h0L81,52.88l-0.21-.19c-0.18-.17-0.35-0.33-0.54-0.49l-0.17-.14-0.25-.2-0.44-.33-0.32-.21-0.23-.15-0.38-.23L78,50.7l-0.23-.13-0.6-.29-0.3-.11-0.66-.25-0.54-.18-0.74-.2-0.51-.11-0.78-.13-0.52-.06-0.75,0-0.36,0H71.76l-0.62,0H71.06l-0.56,0h0l-0.56.08-0.16,0-0.52.09h0l-0.56.15-0.19.05L68,49.79h0c-0.27.09-.55,0.2-0.82,0.3l-0.35.13h0l-0.1,0-0.6.28-0.23.13-0.4.22-0.62.39-0.33.22c-0.3.21-.6,0.44-0.88,0.67l-0.12.11c-0.2.17-.39,0.34-0.57,0.52h0l0,0,0,0h0L62.77,53l-0.23.25c-0.13.14-.27,0.28-0.39,0.42L62,53.91l-0.23.3-0.23.3c-0.1.13-.18,0.27-0.27,0.41L61,55.19l-0.12.18c-0.11.18-.21,0.36-0.31,0.55s-0.12.21-.18,0.32l-0.07.14h0L17.64,140.5a13.35,13.35,0,0,0-3.19,6.28l-11,21.7a12.9,12.9,0,1,0,23,11.68l8.79-17.31h0.56l0.25-.5H108.4l9,17.81a12.9,12.9,0,1,0,23-11.68ZM49.15,136.55l0.25-.5H48.84l23.1-45.48,23.35,46H49.15Z" fill="#231f20"/><path d="M76.8,18.51a8.39,8.39,0,0,0-9.69,0l-19.79,14A8.39,8.39,0,1,0,57,46.21L72,35.63,86.9,46.21a8.39,8.39,0,0,0,9.69-13.69Z" fill="#231f20"/></svg>