<svg id="Layer_1" data-name="Layer 1" xmlns="http://www.w3.org/2000/svg" width="146.16" height="200" viewBox="0 0 146.16 200"><title>_</title><path d="M82.63,57.84l-0.09-.16a13,13,0,0,0-.68-1.15l-0.08-.14a12.79,12.79,0,0,0-.9-1.16l-0.07-.1h0l0,0,0,0,0,0,0-.05h0l-0.31-.32L80,54.33l-0.22-.21-0.34-.29-0.36-.31-0.27-.2L78.37,53l-0.31-.22-0.3-.18-0.5-.28L77,52.18l-0.61-.29h0L76,51.77l-0.64-.24-0.55-.18-0.71-.19L73.62,51l-0.74-.12-0.54-.06-0.71,0-0.34,0H70.94l-0.64,0H70.2l-0.53,0h0L69.07,51l-0.2,0-0.48.08h0l-0.59.16-0.3.08-0.33.09h0c-0.4.13-.8,0.28-1.2,0.46h0l-0.65.31-0.21.12-0.48.27L64,52.91l-0.44.3-0.55.42-0.37.3c-0.21.18-.41,0.38-0.61,0.57l-0.24.23,0,0h0l0,0,0,0h0c-0.23.25-.45,0.5-0.66,0.76L61,55.74l-0.35.47,0,0.06-0.2.3-0.16.25q-0.28.44-.52,0.9l-0.06.11L59.56,58h0L16.82,142.11a13.36,13.36,0,0,0-3.19,6.28l-11,21.7a12.9,12.9,0,1,0,23,11.69l8.79-17.31H35l0.25-.5h72.36l9,17.81a12.9,12.9,0,1,0,23-11.68l-57-112.16Zm-34.3,80.31,0.25-.5H48l23.1-45.48,23.35,46H48.33Z" fill="#231f20"/><path d="M97.13,13.25a8.41,8.41,0,0,0-7.63,4.87,5.22,5.22,0,0,1-3.12,2c-2.27.38-5.56-.94-9.24-3.74-6.91-5.25-13.38-5.62-17.6-5C49.41,12.87,43.15,21.07,42.47,22h0a8.41,8.41,0,1,0,13.76,9.62,13.27,13.27,0,0,1,3.84-3c1.71-.83,3.73-1.27,6.91,1.15C73.32,34.56,79.53,37,85.51,37a21.76,21.76,0,0,0,4.27-.42A22.16,22.16,0,0,0,104,26.62l0,0A8.41,8.41,0,0,0,97.13,13.25Z" fill="#231f20"/></svg>