<svg id="Layer_1" data-name="Layer 1" xmlns="http://www.w3.org/2000/svg" width="142.65" height="200" viewBox="0 0 142.65 200"><title>_</title><path d="M84.33,57.59l-0.08-.16-0.11-.2c-0.1-.18-0.2-0.36-0.31-0.54l-0.31-.51-0.33-.48-0.39-.51-0.35-.42c-0.15-.17-0.31-0.34-0.47-0.51l-0.35-.35-0.13-.13,0,0,0,0c-0.16-.15-0.33-0.29-0.5-0.43l-0.2-.17-0.53-.39L80,52.62l-0.25-.17-0.19-.12q-0.42-.26-0.85-0.49l-0.15-.09-0.47-.22-0.34-.13-0.72-.28L76.55,51l-0.81-.22-0.48-.11c-0.28-.06-0.56-0.1-0.85-0.14l-0.49-.06c-0.28,0-.55,0-0.83,0l-0.36,0h0a12.88,12.88,0,0,0-1.31.08H71.24l-0.17,0-0.86.14-0.27,0-0.14,0q-0.49.12-1,.27L68.7,51l-0.1,0-0.33.13c-0.28.1-.57,0.21-0.84,0.34l-0.13.05-0.4.19-0.16.09a13,13,0,0,0-1.13.67l-0.15.09a12.85,12.85,0,0,0-1.16.9l-0.09.07h0l0,0,0,0h0c-0.12.11-.23,0.23-0.35,0.35l-0.37.36-0.14.14c-0.12.13-.23,0.27-0.34,0.41h0l-0.32.38-0.1.13c-0.13.17-.25,0.36-0.38,0.54h0c-0.08.11-.16,0.22-0.24,0.34l-0.07.11c-0.13.2-.24,0.42-0.36,0.63s-0.15.24-.21,0.37l-0.08.16h0l-42.71,84.1A13.35,13.35,0,0,0,15.25,148l-11,21.7a12.9,12.9,0,1,0,23,11.68L36,164h0.56l0.25-.5H109.2l9,17.81a12.9,12.9,0,1,0,23-11.68ZM49.95,137.74l0.25-.5H49.64l23.1-45.48,23.36,46H49.95Z" fill="#231f20"/><path d="M38.58,24.49V27a12.9,12.9,0,0,0,25.8,0V24.49A12.9,12.9,0,0,0,38.58,24.49Z" fill="#231f20"/><path d="M94.69,39.9A12.9,12.9,0,0,0,107.6,27V24.49a12.9,12.9,0,1,0-25.8,0V27A12.9,12.9,0,0,0,94.69,39.9Z" fill="#231f20"/></svg>