<svg id="Layer_1" data-name="Layer 1" xmlns="http://www.w3.org/2000/svg" width="143.81" height="200" viewBox="0 0 143.81 200"><title>_</title><path d="M82.1,57.81l0.37-.2L82.3,57.2l0-.06a23.77,23.77,0,0,0,12.42-20.7c0-13.18-11.11-23.9-24.78-23.9S45.14,23.26,45.14,36.44A23.77,23.77,0,0,0,57.52,57.12v0l-0.19.47,0.41,0.21L15.61,140.74A13.36,13.36,0,0,0,12.43,147l-11,21.7a12.9,12.9,0,1,0,23,11.68l8.79-17.31h0.56l0.25-.5h72.36l9,17.81a12.9,12.9,0,1,0,23-11.68ZM69.91,29.31c4.41,0,8,3.2,8,7.13s-3.59,7.13-8,7.13-8-3.2-8-7.13S65.5,29.31,69.91,29.31ZM47.12,136.79l0.25-.5H46.81l23.1-45.48h0l23.36,46H47.12Z" fill="#231f20"/></svg>