<svg id="Layer_1" data-name="Layer 1" xmlns="http://www.w3.org/2000/svg" width="197.45" height="200" viewBox="0 0 197.45 200"><title>_</title><path d="M123.12,57.28v-0.5h61.43a12.9,12.9,0,1,0,0-25.8H113.3a13,13,0,0,0-7.15,0H83.93c-0.41,0-.81,0-1.21.06a12.88,12.88,0,0,0-9.08,5.05q-0.33.43-.62,0.9l-0.12.19L2,149.22A12.9,12.9,0,1,0,23.81,163l15.26-24.13H96.32v0.5h0.5v16.73a12.9,12.9,0,0,0,12.9,12.9h74.83a12.9,12.9,0,1,0,0-25.8H122.62V129.57a13.06,13.06,0,0,0,0-7.16v-9h0.5v-0.5h50.46a12.9,12.9,0,1,0,0-25.8H123.12V86.6h-0.5V57.28h0.5ZM96.82,96.42a13.06,13.06,0,0,0,0,7.16v9h-0.5v0.5H55.4L91,56.78h5.3v0.5h0.5V96.42Z" fill="#231f20"/></svg>