<svg id="Layer_1" data-name="Layer 1" xmlns="http://www.w3.org/2000/svg" width="109.79" height="200" viewBox="0 0 109.79 200"><title>_</title><path d="M26.3,77.58v-0.5H87.73a12.9,12.9,0,1,0,0-25.8H16.48A13.36,13.36,0,0,0,0,67.75v49a13.06,13.06,0,0,0,0,7.16v52.54a12.9,12.9,0,0,0,12.9,12.9H87.73a12.9,12.9,0,1,0,0-25.8H25.8V133.7h0.5v-0.5H76.76a12.9,12.9,0,1,0,0-25.8H26.3v-0.5H25.8V77.58h0.5Z" fill="#231f20"/><path d="M40.43,10.68a8.39,8.39,0,0,0-4.85,15.23l19.79,14a8.39,8.39,0,1,0,9.69-13.69l-19.79-14A8.35,8.35,0,0,0,40.43,10.68Z" fill="#231f20"/></svg>