<svg id="Layer_1" data-name="Layer 1" xmlns="http://www.w3.org/2000/svg" width="109.33" height="200" viewBox="0 0 109.33 200"><title>_</title><path d="M26.3,77.58v-0.5H87.73a12.9,12.9,0,0,0,0-25.8H16.48A13.36,13.36,0,0,0,0,67.75v49a13.06,13.06,0,0,0,0,7.16v52.54a12.9,12.9,0,0,0,12.9,12.9H87.73a12.9,12.9,0,0,0,0-25.8H25.8V133.7h0.5v-0.5H76.76a12.9,12.9,0,0,0,0-25.8H26.3v-0.5H25.8V77.58h0.5Z" fill="#231f20"/><path d="M60.2,10.18a8.83,8.83,0,0,0-5.13,1.63l-19.79,14A8.89,8.89,0,1,0,45.55,40.33l19.79-14A8.89,8.89,0,0,0,60.2,10.18Z" fill="#231f20"/></svg>