<svg id="Layer_1" data-name="Layer 1" xmlns="http://www.w3.org/2000/svg" width="154.81" height="200" viewBox="0 0 154.81 200"><title>_</title><path d="M25.74,113.4h0.5v42.72A12.9,12.9,0,0,0,39.15,169H90.31c35.48-.41,62.43-28,64.24-65a13.43,13.43,0,0,0,0-8c-1.74-35.7-26.81-62.57-60.36-64.87a13.59,13.59,0,0,0-3.84-.66H89.5a13.33,13.33,0,0,0-3.58.5H42.73A13.36,13.36,0,0,0,26.24,47.46V86.6h-0.5v0.5H12.9a12.9,12.9,0,1,0,0,25.8H25.74v0.5Zm26.3,0h0.5v-0.5H88.24a12.9,12.9,0,1,0,0-25.8H52.55V86.6H52V57.28h0.5v-0.5H85.92a13.34,13.34,0,0,0,3.58.5H90a13.36,13.36,0,0,0,3-.35c20,1.67,34.52,17.75,35.79,39.88a12.93,12.93,0,0,0,0,6.37c-1.34,23.38-17.43,40-39.25,40H52V113.4Z" fill="#231f20"/></svg>