<svg id="Layer_1" data-name="Layer 1" xmlns="http://www.w3.org/2000/svg" width="128" height="200" viewBox="0 0 128 200"><title>_</title><path d="M121.77,173.27v0c0.14-.4.26-0.81,0.36-1.22l0-.09c0.09-.4.17-0.8,0.23-1.2a13,13,0,0,0,.11-1.31h0v-0.1h0c0-.11,0-0.22,0-0.33V56.72a12.9,12.9,0,0,0-25.8,0v77.09L24.28,48.44l0-.06L24,48.13a13,13,0,0,0-1-1c-0.31-.28-0.64-0.54-1-0.79l-0.11-.09a12.85,12.85,0,0,0-1.11-.71l-0.07,0A12.87,12.87,0,0,0,16.23,44q-0.56-.08-1.12-0.11l-0.72,0a12.94,12.94,0,0,0-2,.16H12.23A12.9,12.9,0,0,0,9.11,45h0L9,45H9L9,45H9L8.92,45h0l0,0h0l0,0h0l-0.05,0h0l-0.31.16h0l-0.06,0h0l-0.06,0h0a12.94,12.94,0,0,0-1.21.75l-0.41.32c-0.2.15-.4,0.29-0.59,0.45L5.8,47.1h0l0,0a12.94,12.94,0,0,0-.95.95c-0.28.31-.54,0.63-0.79,1L4,49.12c-0.25.34-.48,0.7-0.7,1.07l0,0a12.79,12.79,0,0,0-1.61,4.62q-0.09.59-.12,1.18h0q0,0.33,0,.66V169a12.9,12.9,0,1,0,25.8,0V91.88l72.39,85.34,0.08,0.09,0.42,0.47,0,0,0,0q0.42,0.44.87,0.84a12.81,12.81,0,0,0,3.05,2h0l0,0a12.86,12.86,0,0,0,1.3.51l0.1,0c0.41,0.13.82,0.25,1.24,0.34l0.2,0c0.39,0.08.78,0.15,1.17,0.19s0.8,0.06,1.2.07h0.2q0.49,0,1,0h0.14c0.35,0,.69-0.08,1-0.14l0.38-.08,0.64-.14,0.43-.12,0.57-.18,0.44-.16,0.53-.22,0.43-.2,0.51-.26,0.42-.23,0.47-.29,0.42-.28,0.42-.31,0.42-.33,0.11-.09q0.29-.25.57-0.51A12.82,12.82,0,0,0,121.77,173.27Z" fill="#231f20"/><path d="M41.2,42.69a8.41,8.41,0,0,0,7.21-4.09,13.27,13.27,0,0,1,3.84-3c1.71-.83,3.73-1.27,6.91,1.15,6.33,4.81,12.54,7.23,18.52,7.23a21.77,21.77,0,0,0,4.27-.42,22.16,22.16,0,0,0,14.2-9.94l0,0a8.41,8.41,0,1,0-14.45-8.48,5.22,5.22,0,0,1-3.12,2c-2.27.38-5.56-.94-9.24-3.74-6.91-5.25-13.38-5.62-17.6-5C41.58,19.83,35.32,28,34.64,29h0A8.42,8.42,0,0,0,41.2,42.69Z" fill="#231f20"/></svg>