<svg id="Layer_1" data-name="Layer 1" xmlns="http://www.w3.org/2000/svg" width="152.86" height="200" viewBox="0 0 152.86 200"><title>_</title><path d="M73.09,45.17a73.18,73.18,0,0,0-73,69.08,13.39,13.39,0,0,0,0,8,73.19,73.19,0,0,0,69,69,13.39,13.39,0,0,0,8,0A73.09,73.09,0,0,0,73.09,45.17Zm3.13,120.27a12.94,12.94,0,0,0-6.26,0,47.35,47.35,0,0,1-44-44,12.94,12.94,0,0,0,0-6.27A47.29,47.29,0,1,1,76.23,165.44Z" fill="#231f20"/><path d="M63.21,39.92a8.83,8.83,0,0,0,5.13-1.63l19.79-14A8.89,8.89,0,0,0,83,8.15h0a8.84,8.84,0,0,0-5.13,1.63l-19.79,14A8.89,8.89,0,0,0,63.21,39.92Z" fill="#231f20"/></svg>