<svg id="Layer_1" data-name="Layer 1" xmlns="http://www.w3.org/2000/svg" width="153.74" height="200" viewBox="0 0 153.74 200"><title>_</title><path d="M73.09,44.26a73.18,73.18,0,0,0-73,69.08,13.4,13.4,0,0,0,0,8,73.19,73.19,0,0,0,69,69,13.39,13.39,0,0,0,8,0A73.09,73.09,0,0,0,73.09,44.26Zm3.13,120.27a12.94,12.94,0,0,0-6.26,0,47.35,47.35,0,0,1-44-44,12.94,12.94,0,0,0,0-6.27A47.29,47.29,0,1,1,76.23,164.53Z" fill="#231f20"/><path d="M36.5,22.45V25a13.4,13.4,0,0,0,26.8,0V22.45A13.4,13.4,0,0,0,36.5,22.45Z" fill="#231f20"/><path d="M80.21,22.45V25A12.9,12.9,0,0,0,106,25V22.45A12.9,12.9,0,1,0,80.21,22.45Z" fill="#231f20"/></svg>