<svg id="Layer_1" data-name="Layer 1" xmlns="http://www.w3.org/2000/svg" width="154.83" height="200" viewBox="0 0 154.83 200"><title>_</title><path d="M118,76.95a47.33,47.33,0,0,1-64.46,64.32L118,76.95a47.51,47.51,0,0,0-7.88-10.39,13.3,13.3,0,0,0,6.66,3.54,12.9,12.9,0,0,0,11.59-21.79h0a74.21,74.21,0,0,1,6.44,7.35q1,1.28,1.91,2.61l5.1-5.09a12.9,12.9,0,1,0-18.22-18.27L118.52,40A73.13,73.13,0,0,0,28,45.55a13.4,13.4,0,0,0-5.69,5.7,73.23,73.23,0,0,0-5.62,90.4L11.3,147a12.9,12.9,0,0,0,18.22,18.27l5.33-5.31a72.57,72.57,0,0,0,41.87,13.16h0a73.12,73.12,0,0,0,60-114.82Zm9.54-29.42q-1.65-1.6-3.37-3.08Q125.94,45.92,127.58,47.53Zm-0.16-.1a12.79,12.79,0,0,0-3.83-2.14A12.79,12.79,0,0,1,127.43,47.43Zm-21,10a12.88,12.88,0,0,0,3.53,8.82A12.88,12.88,0,0,1,106.39,57.46ZM41.14,68.87a13.48,13.48,0,0,0,2.5-2,13.35,13.35,0,0,0,1.94-2.49A47.33,47.33,0,0,1,99.8,58.7L35.38,123A47.39,47.39,0,0,1,41.14,68.87Z" fill="#231f20"/><path d="M128.41,48.32a12.9,12.9,0,0,1-18.25,18.24A47.51,47.51,0,0,1,118,76.95l18.72-18.68q-0.92-1.32-1.91-2.61A74.21,74.21,0,0,0,128.41,48.32Z" fill="#83613a"/></svg>