<svg id="Layer_1" data-name="Layer 1" xmlns="http://www.w3.org/2000/svg" width="127.72" height="200" viewBox="0 0 127.72 200"><title>_</title><path d="M59.89,187.84c32.56,0,60.06-25.1,60.06-54.82V60.56a12.9,12.9,0,0,0-25.8,0V133c0,7.26-3.53,14.33-9.95,19.9A37.58,37.58,0,0,1,59.89,162c-18.16,0-34.09-13.56-34.09-29V60.56a12.9,12.9,0,0,0-25.8,0V133C0,162.73,27.43,187.84,59.89,187.84Z" fill="#231f20"/><path d="M64.82,13.7a8.39,8.39,0,0,0-9.69,0l-19.79,14A8.39,8.39,0,1,0,45,41.4L60,30.82,74.93,41.4a8.39,8.39,0,1,0,9.69-13.69Z" fill="#231f20"/></svg>