<svg id="Layer_1" data-name="Layer 1" xmlns="http://www.w3.org/2000/svg" width="128" height="200" viewBox="0 0 128 200"><title>_</title><path d="M12.9,47.79A12.9,12.9,0,0,0,0,60.69v72.46C0,162.87,27.43,188,59.89,188S120,162.87,120,133.15V60.69a12.9,12.9,0,1,0-25.8,0v72.46c0,7.26-3.53,14.33-9.95,19.9a37.58,37.58,0,0,1-24.31,9.11c-18.16,0-34.09-13.56-34.09-29V60.69A12.9,12.9,0,0,0,12.9,47.79Z" fill="#231f20"/><path d="M38.37,41.78a12.9,12.9,0,0,0,12.9-12.9V26.36a12.9,12.9,0,0,0-25.8,0v2.51A12.9,12.9,0,0,0,38.37,41.78Z" fill="#231f20"/><path d="M94.49,28.88V26.36a12.9,12.9,0,0,0-25.8,0v2.51A12.9,12.9,0,1,0,94.49,28.88Z" fill="#231f20"/></svg>