<svg id="Layer_1" data-name="Layer 1" xmlns="http://www.w3.org/2000/svg" width="200" height="200" viewBox="0 0 200 200"><title>_</title><path d="M88.68,31a12.9,12.9,0,0,0-12.9,12.9V156.12a12.9,12.9,0,0,0,25.8,0V144h0l0.47,0v-0.51c12.42-.77,22.31-4.43,29.48-10.94,8.05-7.31,12.3-17.66,12.62-30.76,0.22-9-2.66-21.82-17.64-31.42-6.36-4.07-14.19-7.17-24.46-9.63V60.23l-0.38-.09-0.12,0V43.88A12.9,12.9,0,0,0,88.68,31Zm13.4,57V87.5c16.49,5.2,16.35,11.42,16.3,13.67-0.21,8.69-3.19,11.4-4.17,12.29-2.5,2.27-6.63,3.67-12.13,4.18v-0.49l-0.5,0V87.86Z" fill="#231f20"/></svg>