<svg id="Layer_1" data-name="Layer 1" xmlns="http://www.w3.org/2000/svg" width="140.41" height="200" viewBox="0 0 140.41 200"><title>_</title><path d="M13,148.87L2,170.57a12.9,12.9,0,1,0,23,11.69l8.79-17.31h0.56l0.25-.5H107l9,17.81a12.9,12.9,0,0,0,23-11.68L82.06,58.46,82,58.33l-0.13-.23-0.23-.42c-0.12-.2-0.24-0.4-0.37-0.6L81,56.72c-0.17-.24-0.35-0.48-0.54-0.7l-0.16-.2c-0.22-.26-0.46-0.52-0.7-0.76h0l0,0,0,0,0,0-0.05-.05h0c-0.25-.24-0.51-0.47-0.78-0.69l-0.13-.11L78.36,54l-0.48-.36-0.29-.2-0.22-.14L77,53l-0.42-.23-0.24-.13-0.53-.25h0l-0.32-.12L74.81,52l-0.54-.18-0.74-.2L73,51.53l-0.77-.13-0.53-.06-0.74,0-0.34,0H70.31l-0.62,0H69.59l-0.55,0h0l-0.56.09-0.18,0-0.51.09h0l-0.56.15L67,51.78l-0.42.12h0c-0.36.12-.72,0.25-1.07,0.4l-0.12,0h0l-0.66.31-0.2.11-0.57.32-0.49.31-0.51.36-0.49.37-0.45.38L61.47,55l-0.38.39-0.19.2h0l0,0,0,0v0l-0.16.2c-0.22.26-.43,0.53-0.63,0.82-0.07.1-.15,0.19-0.22,0.29l-0.09.13A13,13,0,0,0,59,58.33l-42.8,84.26A13.36,13.36,0,0,0,13,148.87ZM70.49,92.66l23.35,46H47.7l0.25-.5H47.39Z" fill="#231f20"/><path d="M72.11,39.92a8.39,8.39,0,1,0,9.69-13.69L62,12.22a8.39,8.39,0,1,0-9.69,13.69Z" fill="#231f20"/></svg>