<svg id="Layer_1" data-name="Layer 1" xmlns="http://www.w3.org/2000/svg" width="140.12" height="200" viewBox="0 0 140.12 200"><title>_</title><path d="M7.36,187.92a12.89,12.89,0,0,0,17.35-5.66l8.79-17.31h0.56l0.25-.5h72.36l9,17.81a12.9,12.9,0,1,0,23-11.68l-57-112.13-0.06-.12-0.12-.21-0.27-.48c-0.11-.19-0.22-0.37-0.34-0.55l-0.3-.44c-0.13-.19-0.27-0.37-0.41-0.54L80,55.72c-0.17-.2-0.35-0.38-0.53-0.57l-0.28-.29-0.07-.07,0,0,0,0,0,0h0l-0.06-.05h0c-0.17-.16-0.35-0.3-0.53-0.45l-0.17-.14-0.54-.4-0.17-.12-0.25-.17L77,53.23q-0.4-.25-0.82-0.47L76,52.67l-0.4-.19-0.37-.15L74.58,52l-0.51-.17c-0.26-.08-0.52-0.16-0.79-0.22l-0.49-.11L72,51.41l-0.51-.06-0.79-.05-0.32,0H70l-0.69,0H69.22l-0.48,0h0l-0.64.1-0.3.05-0.33.06h0c-0.33.07-.66,0.17-1,0.27l-0.05,0-0.5.17h0c-0.31.11-.62,0.23-0.93,0.36l-0.08,0-0.51.24-0.21.12-0.52.3-0.52.32-0.48.33-0.51.39-0.42.35-0.51.47-0.35.35-0.13.13h0l0,0,0,0h0l-0.17.22q-0.36.42-.7,0.88c-0.06.09-.14,0.17-0.2,0.26l-0.1.16a13,13,0,0,0-.77,1.31l-42.8,84.26a13.36,13.36,0,0,0-3.19,6.27l-11,21.7A12.9,12.9,0,0,0,7.36,187.92ZM70.21,92.66l23.35,46H47.41l0.25-.5H47.11Z" fill="#231f20"/><path d="M83.11,10.18A8.83,8.83,0,0,0,78,11.81l-19.79,14A8.89,8.89,0,1,0,68.46,40.33l19.79-14A8.89,8.89,0,0,0,83.11,10.18Z" fill="#231f20"/></svg>