<svg id="Layer_1" data-name="Layer 1" xmlns="http://www.w3.org/2000/svg" width="139.83" height="200" viewBox="0 0 139.83 200"><title>_</title><path d="M12.42,144.68l-11,21.7a12.9,12.9,0,1,0,23,11.68l8.79-17.31h0.56l0.25-.5h72.36l9,17.81a12.9,12.9,0,1,0,23-11.68L81.48,54.26l-0.06-.12-0.13-.24-0.2-.37c-0.13-.23-0.27-0.45-0.41-0.66l-0.19-.29q-0.32-.46-0.67-0.88l-0.15-.17c-0.14-.16-0.28-0.33-0.43-0.48l0,0,0,0,0,0h0L79,50.83l-0.29-.27-0.42-.39L78.08,50l-0.28-.22-0.4-.3L77,49.24l-0.24-.16-0.38-.23L76,48.6l-0.22-.13-0.66-.31-0.27-.1-0.65-.24-0.55-.18-0.73-.2-0.51-.11-0.76-.12-0.53-.06-0.73,0-0.36,0H69.73l-0.58,0H69.07l-0.58,0h0l-0.52.08-0.13,0-0.57.1h0l-0.52.13-0.13,0L66,47.69h0l-0.63.23-0.47.17-0.09,0-0.27.13-0.48.22-0.19.11-0.57.33-0.49.3-0.51.36-0.49.37-0.45.38-0.48.45-0.38.39-0.19.2h0l0,0,0,0h0l-0.16.2c-0.22.26-.43,0.53-0.63,0.81-0.07.1-.15,0.19-0.22,0.29l-0.09.14a13,13,0,0,0-.73,1.25l-0.06.12h0L15.61,138.4A13.36,13.36,0,0,0,12.42,144.68ZM69.91,88.47l23.35,46H47.12l0.25-.5H46.81Z" fill="#231f20"/><path d="M50.14,45.65A8.35,8.35,0,0,0,55,44.11L69.92,33.53,84.87,44.11a8.39,8.39,0,0,0,9.69-13.69l-19.79-14a8.39,8.39,0,0,0-9.69,0l-19.79,14A8.39,8.39,0,0,0,50.14,45.65Z" fill="#231f20"/></svg>