<svg id="Layer_1" data-name="Layer 1" xmlns="http://www.w3.org/2000/svg" width="139.83" height="200" viewBox="0 0 139.83 200"><title>_</title><path d="M24.41,181.77l8.79-17.31h0.56L34,164h72.36l9,17.81a12.9,12.9,0,1,0,23-11.68L81.48,58l-0.06-.12-0.13-.24-0.21-.38c-0.13-.22-0.26-0.43-0.4-0.64l-0.21-.31c-0.21-.31-0.44-0.6-0.67-0.88l-0.12-.13c-0.16-.19-0.33-0.38-0.5-0.55l0,0h0L79,54.54l-0.29-.27-0.43-.39-0.22-.18-0.28-.22-0.42-.31L77,52.94l-0.23-.15-0.41-.24L76,52.3l-0.21-.12-0.71-.33-0.26-.1-0.58-.22-0.59-.19L73,51.16,72.42,51l-0.68-.12-0.57-.07-0.65,0-0.28,0h-0.5l-0.66,0H69l-0.5,0h0l-0.6.1-0.27,0-0.39.07h0c-0.24.05-.48,0.13-0.72,0.19l-0.08,0-0.65.2h0c-0.34.12-.67,0.24-1,0.39l-0.06,0-0.55.26-0.22.12-0.46.26-0.56.35-0.42.28-0.57.44-0.34.28q-0.38.33-.74,0.69l-0.11.11h0l0,0,0,0h0c-0.24.26-.47,0.52-0.69,0.79l-0.13.17-0.3.4-0.05.07-0.21.32L59,56.84q-0.27.43-.51,0.89l-0.07.12-42.8,84.26a13.36,13.36,0,0,0-3.19,6.27l-11,21.7A12.9,12.9,0,1,0,24.41,181.77Zm45.51-89.6,23.35,46H47.12l0.25-.5H46.81Z" fill="#231f20"/><path d="M95.92,13.25a8.41,8.41,0,0,0-7.63,4.87,5.22,5.22,0,0,1-3.12,2c-2.27.38-5.56-.94-9.24-3.74-6.91-5.25-13.38-5.62-17.6-5C48.2,12.87,41.94,21.07,41.26,22h0A8.41,8.41,0,1,0,55,31.63a13.27,13.27,0,0,1,3.84-3c1.71-.83,3.73-1.27,6.91,1.15C72.11,34.56,78.32,37,84.3,37a21.78,21.78,0,0,0,4.27-.42,22.16,22.16,0,0,0,14.2-9.94l0,0A8.41,8.41,0,0,0,95.92,13.25Z" fill="#231f20"/></svg>