<svg id="Layer_1" data-name="Layer 1" xmlns="http://www.w3.org/2000/svg" width="139.83" height="200" viewBox="0 0 139.83 200"><title>_</title><path d="M81.48,57.56l-0.07-.13-0.13-.23-0.23-.41c-0.12-.2-0.24-0.4-0.37-0.6l-0.24-.37c-0.17-.24-0.35-0.48-0.54-0.71l-0.15-.19q-0.33-.39-0.69-0.76h0l0,0,0,0h0l0,0-0.14-.13c-0.2-.19-0.41-0.38-0.62-0.56L78,53.24l-0.24-.19-0.45-.33L77,52.51l-0.23-.15-0.36-.21L76,51.91l-0.26-.14-0.51-.25-0.32-.13-0.71-.28-0.52-.17-0.79-.22-0.48-.11c-0.28-.05-0.55-0.1-0.83-0.13l-0.49-.06c-0.27,0-.54,0-0.82,0l-0.37,0H69.74l-0.71,0h-0.1l-0.49,0h0l-0.67.11-0.28,0-0.33.06h0c-0.35.08-.7,0.18-1,0.28l0,0-0.45.16h0c-0.3.11-.6,0.22-0.9,0.35l-0.11,0-0.51.24-0.24.14-0.37.21-0.65.4-0.31.21c-0.31.21-.6,0.44-0.89,0.68l-0.11.1c-0.2.17-.4,0.34-0.58,0.52h0l0,0,0,0h0l-0.08.09-0.23.25c-0.13.14-.26,0.28-0.39,0.42l-0.18.22-0.23.3-0.23.29c-0.1.13-.18,0.27-0.27,0.41L59,56.38l-0.11.18c-0.11.18-.21,0.36-0.31,0.55s-0.12.21-.18,0.32l-42.8,84.26A13.36,13.36,0,0,0,12.43,148l-11,21.7a12.9,12.9,0,1,0,23,11.68L33.2,164h0.56l0.25-.5h72.36l9,17.81a12.9,12.9,0,1,0,23-11.68ZM47.12,137.74l0.25-.5H46.81l23.1-45.48,23.36,46H47.12Z" fill="#231f20"/><path d="M35.76,24.49V27a12.9,12.9,0,1,0,25.8,0V24.49A12.9,12.9,0,0,0,35.76,24.49Z" fill="#231f20"/><path d="M79,24.49V27a12.9,12.9,0,0,0,25.8,0V24.49A12.9,12.9,0,0,0,79,24.49Z" fill="#231f20"/></svg>