<svg id="Layer_1" data-name="Layer 1" xmlns="http://www.w3.org/2000/svg" width="140.36" height="200" viewBox="0 0 140.36 200"><title>_</title><path d="M82.63,57.81l0.38-.2-0.17-.42,0-.06a23.77,23.77,0,0,0,12.42-20.7c0-13.18-11.11-23.9-24.78-23.9S45.67,23.26,45.67,36.44A23.77,23.77,0,0,0,58.06,57.12v0l-0.19.45,0,0h0l0.37,0.19h0L16.14,140.74A13.36,13.36,0,0,0,13,147l-11,21.7a12.9,12.9,0,1,0,23,11.68l8.79-17.31h0.56l0.25-.5h72.36l9,17.81a12.9,12.9,0,1,0,23-11.68ZM70.44,29.31c4.41,0,8,3.2,8,7.13s-3.59,7.13-8,7.13-8-3.2-8-7.13S66,29.31,70.44,29.31ZM47.65,136.79l0.25-.5H47.34l23.1-45.48h0l23.35,46H47.65Z" fill="#231f20"/></svg>