<svg id="Layer_1" data-name="Layer 1" xmlns="http://www.w3.org/2000/svg" width="203.92" height="200" viewBox="0 0 203.92 200"><title>_</title><path d="M184.55,143.22H122.62V129.57a13.06,13.06,0,0,0,0-7.16v-9h0.5v-0.5h50.46a12.9,12.9,0,1,0,0-25.8H123.12V86.6h-0.5V57.28h0.5v-0.5h61.43a12.9,12.9,0,1,0,0-25.8H113.3a13,13,0,0,0-7.15,0H83.93q-0.56,0-1.12,0a12.89,12.89,0,0,0-9.32,5.26q-0.25.34-.48,0.7l-0.1.16L2,149.22A12.9,12.9,0,1,0,23.81,163l15.26-24.13H96.32v0.5h0.5v16.73a12.9,12.9,0,0,0,12.9,12.9h74.83A12.9,12.9,0,1,0,184.55,143.22ZM96.82,96.42a13.06,13.06,0,0,0,0,7.16v9h-0.5v0.5H55.4L91,56.78h5.3v0.5h0.5V96.42Z" fill="#231f20"/></svg>