<svg id="Layer_1" data-name="Layer 1" xmlns="http://www.w3.org/2000/svg" width="123.06" height="200" viewBox="0 0 123.06 200"><title>_</title><path d="M71.2,39.69a45.17,45.17,0,0,1,31.47,12.68,12.9,12.9,0,1,0,17.89-18.59A71.19,71.19,0,0,0,.12,81.06a13.37,13.37,0,0,0,0,8.07,71.34,71.34,0,0,0,48,63.33,54.58,54.58,0,0,0-6.06,23.94,12.9,12.9,0,0,0,12.69,13.1H55a12.9,12.9,0,0,0,12.9-12.7c0.15-9.56,5.42-17,8.75-20.73A70.89,70.89,0,0,0,119.91,137a12.9,12.9,0,1,0-17.66-18.82,45.21,45.21,0,0,1-29.76,12.26,13.14,13.14,0,0,0-2.66,0A45.45,45.45,0,0,1,25.92,88.21a12.94,12.94,0,0,0,0-6.23A45.45,45.45,0,0,1,71.2,39.69Z" fill="#231f20"/></svg>