<svg id="Layer_1" data-name="Layer 1" xmlns="http://www.w3.org/2000/svg" width="108.6" height="200" viewBox="0 0 108.6 200"><title>_</title><path d="M3,120.3a13.33,13.33,0,0,0,.5,3.58v52.54a12.9,12.9,0,0,0,12.9,12.9H91.18a12.9,12.9,0,0,0,0-25.8H29.26V133.7h0.5v-0.5H80.22a12.9,12.9,0,0,0,0-25.8H29.76v-0.5h-0.5V77.58h0.5v-0.5H91.18a12.9,12.9,0,0,0,0-25.8H19.93A13.36,13.36,0,0,0,3.45,67.75v49A13.33,13.33,0,0,0,3,120.3Z" fill="#231f20"/><path d="M48.71,12.22A8.39,8.39,0,1,0,39,25.91l19.79,14a8.39,8.39,0,0,0,9.69-13.69Z" fill="#231f20"/></svg>