<svg id="Layer_1" data-name="Layer 1" xmlns="http://www.w3.org/2000/svg" width="110.33" height="200" viewBox="0 0 110.33 200"><title>_</title><path d="M26.3,77.25v-0.5H87.73a12.9,12.9,0,1,0,0-25.8H16.48A13.36,13.36,0,0,0,0,67.43v49a13.06,13.06,0,0,0,0,7.16v52.54A12.9,12.9,0,0,0,12.9,189H87.73a12.9,12.9,0,1,0,0-25.8H25.8V133.38h0.5v-0.5H76.76a12.9,12.9,0,1,0,0-25.8H26.3v-0.5H25.8V77.25h0.5Z" fill="#231f20"/><path d="M30.53,41.78a8.35,8.35,0,0,0,4.84-1.54L50.31,29.66,65.26,40.24A8.39,8.39,0,0,0,75,26.55l-19.79-14a8.39,8.39,0,0,0-9.69,0l-19.79,14A8.39,8.39,0,0,0,30.53,41.78Z" fill="#231f20"/></svg>