<svg id="Layer_1" data-name="Layer 1" xmlns="http://www.w3.org/2000/svg" width="107.05" height="200" viewBox="0 0 107.05 200"><title>_</title><path d="M26.3,76.67v-0.5H87.73a12.9,12.9,0,1,0,0-25.8H16.48A13.36,13.36,0,0,0,0,66.85v49A13.06,13.06,0,0,0,0,123v52.54a12.9,12.9,0,0,0,12.9,12.9H87.73a12.9,12.9,0,1,0,0-25.8H25.8V132.79h0.5v-0.5H76.76a12.9,12.9,0,1,0,0-25.8H26.3V106H25.8V76.67h0.5Z" fill="#231f20"/><path d="M27.12,39.9A12.9,12.9,0,0,0,40,27V24.49a12.9,12.9,0,0,0-25.8,0V27A12.9,12.9,0,0,0,27.12,39.9Z" fill="#231f20"/><path d="M83.24,27V24.49a12.9,12.9,0,0,0-25.8,0V27A12.9,12.9,0,1,0,83.24,27Z" fill="#231f20"/></svg>