<svg id="Layer_1" data-name="Layer 1" xmlns="http://www.w3.org/2000/svg" width="128.29" height="200" viewBox="0 0 128.29 200"><title>_</title><path d="M108.11,43.82a12.9,12.9,0,0,0-12.9,12.9v77.09L22.82,48.48l-0.08-.1-0.47-.53Q21.85,47.41,21.4,47a12.8,12.8,0,0,0-3-2H18.3a12.89,12.89,0,0,0-1.21-.48h0q-0.61-.21-1.23-0.35H15.79c-0.4-.09-0.81-0.17-1.22-0.22s-0.86-.09-1.29-0.1H12.9a13,13,0,0,0-1.72.11H11q-0.46.07-.91,0.17l-0.57.15-0.33.09-0.62.21-0.26.09q-0.43.16-.86,0.36h0L7.42,45h0l-0.06,0h0l-0.06,0h0A12.88,12.88,0,0,0,6,45.83l-0.19.12a13,13,0,0,0-1.16.86l-0.1.07-0.37.33h0l0,0q-0.45.42-.86,0.88A12.8,12.8,0,0,0,.73,52.44v0a12.9,12.9,0,0,0-.37,1.25v0c-0.1.42-.18,0.84-0.23,1.26A13,13,0,0,0,0,56.34v0.05H0c0,0.11,0,.22,0,0.33V169a12.9,12.9,0,0,0,25.8,0V91.88l72.44,85.4,0,0,0.05,0.06h0l0,0,0,0h0a13,13,0,0,0,.95,1c0.31,0.29.64,0.56,1,.81l0.06,0a12.94,12.94,0,0,0,1.09.73l0,0a12.87,12.87,0,0,0,1.2.63l0,0h0a12.88,12.88,0,0,0,1.28.5l0.08,0c0.41,0.13.82,0.25,1.24,0.34l0.19,0c0.39,0.08.77,0.14,1.16,0.19s0.78,0.06,1.18.06h0.2q0.49,0,1,0h0.21q0.55-.05,1.09-0.15l0.6-.13,0.47-.1c0.24-.06.48-0.15,0.71-0.22l0.33-.1q0.51-.19,1-0.42h0l0.05,0h0l0.05,0h0l0.05,0h0l0.05,0h0l0.22-.11h0l0,0h0l0,0h0l0,0h0l0,0h0l0,0h0l0.05,0h0a12.9,12.9,0,0,0,1.11-.71l0.38-.29c0.18-.14.37-0.27,0.54-0.42l0.25-.22h0l0,0,0,0h0a13,13,0,0,0,.95-1c0.27-.3.53-0.63,0.77-1l0.07-.09c0.25-.34.47-0.69,0.68-1.06l0-.07a12.87,12.87,0,0,0,1.55-4.41q0.09-.55.13-1.1t0-.9V56.72A12.9,12.9,0,0,0,108.11,43.82Z" fill="#231f20"/><path d="M39.7,42.69a8.41,8.41,0,0,0,7.21-4.09,13.27,13.27,0,0,1,3.84-3c1.71-.83,3.73-1.27,6.91,1.15C64,41.52,70.2,43.95,76.18,43.95a21.76,21.76,0,0,0,4.27-.42,22.16,22.16,0,0,0,14.2-9.94l0,0a8.41,8.41,0,1,0-14.45-8.48,5.22,5.22,0,0,1-3.12,2c-2.27.38-5.56-.94-9.24-3.74-6.91-5.25-13.38-5.62-17.6-5C40.09,19.83,33.82,28,33.14,29h0A8.42,8.42,0,0,0,39.7,42.69Z" fill="#231f20"/></svg>