<svg id="Layer_1" data-name="Layer 1" xmlns="http://www.w3.org/2000/svg" width="147.53" height="200" viewBox="0 0 147.53 200"><title>_</title><path d="M74.43,45.17a73.18,73.18,0,0,0-73,69.08,13.4,13.4,0,0,0,0,8,73.19,73.19,0,0,0,69,69,13.4,13.4,0,0,0,8,0A73.09,73.09,0,0,0,74.43,45.17Zm3.13,120.27a12.94,12.94,0,0,0-6.26,0,47.35,47.35,0,0,1-44-44,12.94,12.94,0,0,0,0-6.26A47.29,47.29,0,1,1,77.56,165.44Z" fill="#231f20"/><path d="M69.38,10.19a8.39,8.39,0,1,0-9.69,13.69l19.79,14a8.39,8.39,0,0,0,9.69-13.69Z" fill="#231f20"/></svg>