<svg id="Layer_1" data-name="Layer 1" xmlns="http://www.w3.org/2000/svg" width="152.78" height="200" viewBox="0 0 152.78 200"><title>_</title><path d="M73.09,45.17a73.18,73.18,0,0,0-73,69.08,13.4,13.4,0,0,0,0,8,73.19,73.19,0,0,0,69,69,13.39,13.39,0,0,0,8,0A73.09,73.09,0,0,0,73.09,45.17Zm3.13,120.27a12.94,12.94,0,0,0-6.26,0,47.35,47.35,0,0,1-44-44,12.94,12.94,0,0,0,0-6.26A47.29,47.29,0,1,1,76.22,165.44Z" fill="#231f20"/><path d="M83,8.15h0a8.83,8.83,0,0,0-5.12,1.63l-19.79,14A8.89,8.89,0,1,0,68.33,38.29l19.79-14A8.89,8.89,0,0,0,83,8.15Z" fill="#231f20"/></svg>