<svg id="Layer_1" data-name="Layer 1" xmlns="http://www.w3.org/2000/svg" width="154.52" height="200" viewBox="0 0 154.52 200"><title>_</title><path d="M73.09,44.68a73.18,73.18,0,0,0-73,69.08,13.39,13.39,0,0,0,0,8,73.19,73.19,0,0,0,69,69,13.39,13.39,0,0,0,8,0A73.09,73.09,0,0,0,73.09,44.68ZM76.23,165A12.94,12.94,0,0,0,70,165a47.35,47.35,0,0,1-44-44,12.94,12.94,0,0,0,0-6.26A47.29,47.29,0,1,1,76.23,165Z" fill="#231f20"/><path d="M97.48,11.22a8.41,8.41,0,0,0-7.63,4.87,5.22,5.22,0,0,1-3.12,2c-2.27.38-5.56-.94-9.24-3.74-6.91-5.25-13.38-5.62-17.6-5C49.77,10.83,43.51,19,42.83,20h0A8.41,8.41,0,1,0,56.6,29.6a13.27,13.27,0,0,1,3.84-3c1.71-.83,3.73-1.27,6.91,1.15,6.33,4.81,12.54,7.23,18.52,7.23a21.77,21.77,0,0,0,4.27-.42,22.16,22.16,0,0,0,14.2-9.94l0,0A8.41,8.41,0,0,0,97.48,11.22Z" fill="#231f20"/></svg>