<svg id="Layer_1" data-name="Layer 1" xmlns="http://www.w3.org/2000/svg" width="127.71" height="200" viewBox="0 0 127.71 200"><title>_</title><path d="M107.06,48a12.9,12.9,0,0,0-12.9,12.9v72.46c0,7.26-3.53,14.33-9.95,19.9a37.58,37.58,0,0,1-24.32,9.11c-18.16,0-34.09-13.56-34.09-29V60.88a12.9,12.9,0,1,0-25.8,0v72.46c0,29.72,27.43,54.82,59.89,54.82S120,163.06,120,133.34V60.88A12.9,12.9,0,0,0,107.06,48Z" fill="#231f20"/><path d="M69.87,11.34h0A8.83,8.83,0,0,0,64.74,13L45,27A8.89,8.89,0,0,0,55.22,41.49L75,27.48A8.89,8.89,0,0,0,69.87,11.34Z" fill="#231f20"/></svg>