<svg id="Layer_1" data-name="Layer 1" xmlns="http://www.w3.org/2000/svg" width="127.76" height="200" viewBox="0 0 127.76 200"><title>_</title><path d="M107.06,47.07A12.9,12.9,0,0,0,94.15,60v72.46c0,7.26-3.53,14.33-9.95,19.9a37.58,37.58,0,0,1-24.31,9.11c-18.16,0-34.09-13.56-34.09-29V60A12.9,12.9,0,1,0,0,60v72.46c0,29.72,27.43,54.82,59.89,54.82S120,162.15,120,132.44V60A12.9,12.9,0,0,0,107.06,47.07Z" fill="#231f20"/><path d="M38.37,41.06a12.9,12.9,0,0,0,12.9-12.9V25.65a12.9,12.9,0,0,0-25.8,0v2.51A12.9,12.9,0,0,0,38.37,41.06Z" fill="#231f20"/><path d="M94.48,28.16V25.65a12.9,12.9,0,0,0-25.8,0v2.51A12.9,12.9,0,1,0,94.48,28.16Z" fill="#231f20"/></svg>