<svg id="Layer_1" data-name="Layer 1" xmlns="http://www.w3.org/2000/svg" width="129.92" height="200" viewBox="0 0 129.92 200"><title>_</title><path d="M124.61,48.55a12.9,12.9,0,0,0-18,2.85L65,108.65,23.34,51.4A12.9,12.9,0,1,0,2.47,66.58l49.59,68.21v36.44a12.9,12.9,0,0,0,25.8,0V134.79l49.59-68.21A12.9,12.9,0,0,0,124.61,48.55Z" fill="#231f20"/><path d="M56.26,31.28V28.77a12.9,12.9,0,1,0-25.8,0v2.51A12.9,12.9,0,1,0,56.26,31.28Z" fill="#231f20"/><path d="M99.47,31.28V28.77a12.9,12.9,0,1,0-25.8,0v2.51A12.9,12.9,0,1,0,99.47,31.28Z" fill="#231f20"/></svg>