<svg data-name="Layer 1" xmlns="http://www.w3.org/2000/svg" width="121.66" height="200" viewBox="0 0 121.66 200"><title>_</title><path d="M77.82 54.57a13 13 0 0 1-1.15-25.78c-18.32.58-33.69 8.14-44.55 22a67.15 67.15 0 0 0-10.05 18.1h28.78c5.58-8.31 14.28-14 26.97-14.32zM62.3 158.22a12.94 12.94 0 0 1 11.83-12.89C63.85 145 56.28 141.26 51 133.76a36.62 36.62 0 0 1-3.35-5.94h-27.3c7.58 27 26.92 43 54.17 43.31h-.22a12.93 12.93 0 0 1-12-12.91zM42.61 99.95c0-1.76.06-3.53.19-5.29H16.94q-.13 2.61-.13 5.29v2.07h25.82q-.02-1.02-.02-2.07z" fill="#faa61a"/><path d="M12.9 68.85a12.9 12.9 0 0 0 0 25.8h4a86.3 86.3 0 0 1 5.13-25.8H12.9zM77 94.66a12.9 12.9 0 1 0 0-25.8H50.85C46 76.1 43.46 85.34 42.8 94.66H77z" fill="#ed125f"/><path d="M50.85 68.85H22.07a86.3 86.3 0 0 0-5.13 25.8H42.8c.66-9.31 3.2-18.55 8.05-25.8z" fill="#ed1c24"/><path d="M77 127.82A12.9 12.9 0 1 0 77 102H42.63c.21 10.14 1.93 18.9 5.05 25.8H77zM12.9 102a12.9 12.9 0 0 0 0 25.8h7.45a101.64 101.64 0 0 1-3.53-25.8H12.9z" fill="#2584c5"/><path d="M42.63 102H16.82a101.64 101.64 0 0 0 3.53 25.8h27.33c-3.12-6.88-4.85-15.64-5.05-25.8z" fill="#57653f"/><path d="M91.87 41.65A12.9 12.9 0 0 1 79 54.55h-1.18 1.28C83.47 55 91.7 57 94 61.59a12.9 12.9 0 1 0 23-11.75C108.38 33 88.65 29.59 81.69 28.92a12.94 12.94 0 0 0-5-.13h2.29a12.9 12.9 0 0 1 12.89 12.86z" fill="#2584c5"/><path d="M65.86 41.61a13 13 0 0 0 12 13H79a12.9 12.9 0 1 0 0-25.8h-2.29a13 13 0 0 0-10.85 12.8z" fill="#57653f"/><path d="M119.56 149.27a12.9 12.9 0 1 0-21.62-14.09 22.14 22.14 0 0 1-18.84 10.39c-.58 0-1.06 0-1.41-.05a13 13 0 0 0-2.44-.24h-1.11 1.24a12.9 12.9 0 0 1 0 25.8h-.86a39 39 0 0 0 4.57.26 48 48 0 0 0 40.47-22.07z" fill="#72bf44"/><path d="M88.27 158.24a12.9 12.9 0 0 0-12.9-12.9h-1.24a12.93 12.93 0 0 0 .17 25.79h1.07a12.9 12.9 0 0 0 12.9-12.89z" fill="#7e883f"/></svg>