<svg data-name="Layer 1" xmlns="http://www.w3.org/2000/svg" width="136.49" height="200" viewBox="0 0 136.49 200"><title>_</title><path fill="none" d="M63.08 95.41h12.98v12.98H63.08z"/><path fill="#72bf44" d="M63.08 69.61h12.98v25.8H63.08zM25.21 69.61a12.9 12.9 0 0 0 0 25.8h12.07v-25.8H25.21zM113.94 95.41a12.9 12.9 0 0 0 0-25.8h-12.08v25.8h12.07z"/><path d="M113.94 134.19a12.9 12.9 0 1 0 0-25.8h-12.08v25.8h12.07zM63.08 108.39h12.98v25.8H63.08zM25.21 108.39a12.9 12.9 0 1 0 0 25.8h12.07v-25.8H25.21z" fill="#ed125f"/><path d="M101.86 57.54a12.9 12.9 0 1 0-25.8 0v12.07h25.8V57.54zM76.06 95.41h25.8v12.98h-25.8zM76.06 146.27a12.9 12.9 0 0 0 25.8 0v-12.08h-25.8v12.07z" fill="#faa61a"/><path fill="#7e883f" d="M76.06 69.61h25.8v25.8h-25.8z"/><path fill="#ed1c24" d="M76.06 108.39h25.8v25.8h-25.8z"/><path fill="#2584c5" d="M37.28 95.41h25.8v12.98h-25.8zM37.28 146.27a12.9 12.9 0 0 0 25.8 0v-12.08h-25.8v12.07zM63.08 57.54a12.9 12.9 0 0 0-25.8 0v12.07h25.8V57.54z"/><path fill="#107c47" d="M37.28 69.61h25.8v25.8h-25.8z"/><path fill="#5f3267" d="M37.28 108.39h25.8v25.8h-25.8z"/></svg>