<svg data-name="Layer 1" xmlns="http://www.w3.org/2000/svg" width="137.88" height="200" viewBox="0 0 137.88 200"><title>_</title><path d="M95.88 127.59c0-2.54 0-8.36-14.05-13.94v29.22a20.89 20.89 0 0 0 9.86-5 14.07 14.07 0 0 0 4.19-10.28zM48.06 55.13c-1 .89-3.86 3.6-4.07 12.19 0 2-.18 7.32 12 12.17v-28a16.64 16.64 0 0 0-7.93 3.64z" fill="none"/><path d="M20.7 153.52c1.32.68 2.8 1.5 4.36 2.36 7.33 4 17.58 9.68 31 12.37v-26.56c-7.09-2.12-13-5.4-18.52-8.42-1.72-.94-3.34-1.84-5-2.67a12.9 12.9 0 1 0-11.84 22.92z" fill="#faa61a"/><path d="M56 95.73V79.49c-12.19-4.85-12.06-10.14-12-12.17.21-8.59 3.11-11.3 4.07-12.19a16.64 16.64 0 0 1 8-3.65V25.37c-10.63 1.3-19.2 4.94-25.57 10.89-7.87 7.3-11.99 17.54-12.3 30.43-.22 9 2.67 21.82 17.67 31.43A73 73 0 0 0 56 106.64v-9.45a12.81 12.81 0 0 1 0-1.46z" fill="#ed125f"/><path d="M81.83 38.15v15.16a105.11 105.11 0 0 1 14.57 6.34 12.9 12.9 0 0 0 11.86-22.92c-9.71-5-18.44-8.4-26.42-10.2v10.93c0 .23 0 .46-.01.69zM81.83 97.1v16.56c14 5.58 14.05 11.39 14.05 13.94a14.07 14.07 0 0 1-4.19 10.28 20.89 20.89 0 0 1-9.86 5v26.22c13.92-1.93 22.68-7.68 27.87-12.74a39.78 39.78 0 0 0 12-28.76c0-26-23.9-36.6-39.85-41.22v9.42a12.8 12.8 0 0 1-.02 1.3z" fill="#2584c5"/><path d="M68.27 50.7q-1.57-.07-3-.07a44.52 44.52 0 0 0-9.19.85v28a84.39 84.39 0 0 0 13.08 3.82l2 .45.51.1c2.51.56 6.06 1.35 10.12 2.52V53.31a46.59 46.59 0 0 0-11.21-2.47zM69.29 24.92h.41l2.54.15h.16a63.35 63.35 0 0 1 9.43 1.43v-4.37a12.9 12.9 0 1 0-25.8 0v3.24a76.83 76.83 0 0 1 9.33-.54q1.93 0 3.93.09zM69.6 169.74h-1.18a78.61 78.61 0 0 1-12.42-1.5v4.85a12.9 12.9 0 1 0 25.8 0v-4a73.68 73.68 0 0 1-10.14.67zM70 143.94h1.7a43.39 43.39 0 0 0 10.12-1.08v-29.2a103.19 103.19 0 0 0-15.22-4.5l-.43-.09-2.52-.55c-2.7-.58-5.24-1.21-7.63-1.87v35a53.73 53.73 0 0 0 13.23 2.24H70z" fill="#72bf44"/><path d="M68.42 169.72h.33a12.9 12.9 0 0 1 .18-25.8h.32A53.73 53.73 0 0 1 56 141.69v26.55a78.61 78.61 0 0 0 12.42 1.48z" fill="#7e883f"/><path d="M65.22 50.63q1.48 0 3 .07h-.1a12.9 12.9 0 0 1 .71-25.78h.4q-2-.08-3.93-.08a76.83 76.83 0 0 0-9.33.54v26.1a44.52 44.52 0 0 1 9.25-.85zM66.18 109.07l.43.09-.5-.11A12.91 12.91 0 0 1 56 97.19v9.46c2.4.66 4.94 1.29 7.63 1.87zM68.9 83.55a12.91 12.91 0 0 1 2.31.21l-2-.45A84.39 84.39 0 0 1 56 79.49v16.24a12.92 12.92 0 0 1 12.9-12.18z" fill="#853135"/><path d="M81.82 38.39A12.9 12.9 0 0 1 69 50.72h-.73l2.35.14a46.59 46.59 0 0 1 11.21 2.47V38.15c0 .08 0 .16-.01.24zM72.24 25.09l-2.54-.15h-.17a12.9 12.9 0 0 1 12.3 12.52V26.53a63.35 63.35 0 0 0-9.43-1.43h-.16z" fill="#107c47"/><path d="M69 50.72a12.9 12.9 0 0 0 12.82-12.33v-.24-.69a12.9 12.9 0 0 0-12.29-12.53h-.65a12.9 12.9 0 0 0-.71 25.78H69z" fill="#483639"/><path d="M71.21 83.75l.5.11A12.91 12.91 0 0 1 81.83 95.8v-9.42c-4.06-1.18-7.61-2-10.12-2.52zM81.82 157.34a12.9 12.9 0 0 1-12.88 12.39h2.75a73.68 73.68 0 0 0 10.14-.67v-12q0 .16-.01.28zM81.55 99.23a12.89 12.89 0 0 1-14.93 9.93 103.19 103.19 0 0 1 15.22 4.5V97.1a13 13 0 0 1-.29 2.13zM81.83 156.55v-13.67A43.39 43.39 0 0 1 71.71 144h-2.27a12.9 12.9 0 0 1 12.39 12.55z" fill="#107c47"/><path d="M68.93 169.74a12.9 12.9 0 0 0 12.88-12.39v-.24-.55a12.9 12.9 0 0 0-12.39-12.61h-.5a12.9 12.9 0 0 0-.18 25.8h.17z" fill="#346241"/><path d="M81.55 99.23a13 13 0 0 0 .29-2.13 12.89 12.89 0 0 0-10.13-13.24l-.5-.11a12.9 12.9 0 0 0-5.1 25.25l.5.11a12.89 12.89 0 0 0 14.94-9.88z" fill="#483639"/></svg>