<svg data-name="Layer 1" xmlns="http://www.w3.org/2000/svg" width="200" height="200" viewBox="0 0 200 200"><title>_</title><path d="M139.67 130.66c0 7.5 4.49 13.83 9.8 13.83s9.8-6.33 9.8-13.83-4.49-13.83-9.8-13.83-9.8 6.34-9.8 13.83zM60.33 64.57c0-7.5-4.49-13.83-9.8-13.83s-9.8 6.33-9.8 13.83 4.49 13.83 9.8 13.83 9.8-6.34 9.8-13.83z" fill="none"/><path d="M49.91 166.93a12.9 12.9 0 0 0 18-3.09L147.24 51.6a12.9 12.9 0 1 0-21.07-14.9L46.83 148.94a12.9 12.9 0 0 0 3.08 17.99z" fill="#faa61a"/><path d="M149.47 91a12.9 12.9 0 0 1 0 25.8c5.31 0 9.8 6.33 9.8 13.83s-4.49 13.83-9.8 13.83a12.9 12.9 0 0 1 0 25.8c19.63 0 35.6-17.78 35.6-39.63S169.1 91 149.47 91z" fill="#72bf44"/><path d="M136.57 157.39a12.9 12.9 0 0 1 12.9-12.9c-5.31 0-9.8-6.33-9.8-13.83s4.49-13.83 9.8-13.83a12.9 12.9 0 0 1 0-25.8c-19.63 0-35.6 17.78-35.6 39.63s16 39.63 35.6 39.63a12.9 12.9 0 0 1-12.9-12.9z" fill="#2584c5"/><circle cx="149.47" cy="103.94" r="12.9" fill="#107c47"/><circle cx="149.47" cy="157.39" r="12.9" fill="#107c47"/><path d="M37.63 91.3a12.9 12.9 0 0 1 12.9-12.9c-5.31 0-9.8-6.33-9.8-13.83s4.49-13.83 9.8-13.83a12.9 12.9 0 1 1 0-25.8c-19.63 0-35.6 17.78-35.6 39.63s16 39.63 35.6 39.63a12.9 12.9 0 0 1-12.9-12.9z" fill="#ed125f"/><path d="M63.43 37.84a12.9 12.9 0 0 1-12.9 12.9c5.31 0 9.8 6.33 9.8 13.83s-4.49 13.83-9.8 13.83a12.9 12.9 0 1 1 0 25.8c19.63 0 35.6-17.78 35.6-39.63s-16-39.63-35.6-39.63a12.9 12.9 0 0 1 12.9 12.9z" fill="#2584c5"/><circle cx="50.53" cy="37.84" r="12.9" fill="#5f3267"/><circle cx="50.53" cy="91.3" r="12.9" fill="#5f3267"/></svg>