<svg data-name="Layer 1" xmlns="http://www.w3.org/2000/svg" width="119.36" height="200" viewBox="0 0 119.36 200"><title>_</title><path d="M54.17 79.17a12.86 12.86 0 0 1 1.21 1.12l.2.21c11.73-1.33 14.34-8.3 14.34-14.24 0-3.89-.6-9-3.46-11.52-2.35-2-6.1-2.3-7.85-2.3h-1c-.32 0-.63.08-1 .1-3.5.25-10 .71-10.08 11.53.04 7.28 5.67 13.5 7.64 15.1zM25.8 125.61c0 10.35 11.65 19.09 25.43 19.09 6.18 0 13.19-3.8 20.36-10.72l-26.25-26.92c-11.15 2.03-19.54 9.66-19.54 18.55z" fill="none"/><path d="M38.33 157.59a12.9 12.9 0 0 1 12.9-12.9c-13.79 0-25.43-8.74-25.43-19.09 0-8.89 8.39-16.52 19.54-18.55l-3.9-4-.44-.41v-.06c-.16-.17-.33-.33-.48-.5l-3.32-3.47a48.7 48.7 0 0 1-10.28-12.55 51.38 51.38 0 0 0-11.5 7.4C5.47 102 0 113.38 0 125.61c0 24.75 23 44.89 51.23 44.89a12.9 12.9 0 0 1-12.9-12.91z" fill="#faa61a"/><path d="M51.23 144.69a12.9 12.9 0 1 1 0 25.8c13.1 0 26-6.07 38.39-18L71.59 134c-7.17 6.89-14.18 10.69-20.36 10.69zM119.36 109.71A12.9 12.9 0 1 0 96.3 98.14c-2.78 5.55-5.68 10.69-8.62 15.37l18.47 18.94a201.45 201.45 0 0 0 13.21-22.74z" fill="#ed125f"/><circle cx="51.23" cy="157.59" r="12.9" fill="#ed1c24"/><path d="M49.94 80.74h.33a12.86 12.86 0 0 1 9.24 3.89l16 16.43c13.8-7.37 20.19-21.14 20.19-34.79 0-16.8-6.74-26.15-12.38-31-8.49-7.34-18.7-8.58-24.63-8.58a37.36 37.36 0 0 0-4.19.22C34.17 28.47 21 43 20.82 63.94a43.91 43.91 0 0 0 6.1 22.13 57 57 0 0 1 22.74-5.32h.28zm6.76-28.16c.32 0 .64-.06 1-.1h1c1.75 0 5.49.26 7.85 2.3 2.86 2.47 3.46 7.63 3.46 11.52 0 5.93-2.61 12.91-14.34 14.24l-.2-.21a12.86 12.86 0 0 0-1.21-1.12c-2-1.61-7.6-7.82-7.56-15.07-.01-10.85 6.5-11.31 10-11.56z" fill="#2584c5"/><path d="M37.2 98.61l3.29 3.46c.15.18.32.33.48.5a12.9 12.9 0 0 1 8.68-21.83 57 57 0 0 0-22.74 5.32A48.7 48.7 0 0 0 37.2 98.61z" fill="#57653f"/><path d="M106.15 132.45a129.62 129.62 0 0 1-15.21 18.71l-1.32 1.3L100 163.13a12.9 12.9 0 0 0 18.47-18zM51.34 106.53h-.84a32.86 32.86 0 0 0-5.16.52L71.59 134a110 110 0 0 0 16.09-20.46l-12.15-12.48c-6.35 3.39-14.27 5.43-23.86 5.47h-.33z" fill="#72bf44"/><path d="M50.61 106.53h-.43a12.85 12.85 0 0 1-8.74-3.47l3.9 4a32.86 32.86 0 0 1 5.16-.52h.1z" fill="#7e883f"/><path d="M106.15 132.45l-18.47-18.94A110 110 0 0 1 71.59 134l18 18.49 1.32-1.3a129.62 129.62 0 0 0 15.24-18.74z" fill="#853135"/><path d="M50.27 80.73h-.08a12.9 12.9 0 0 1 .42 25.8h1.06c9.59 0 17.51-2.08 23.86-5.47l-16-16.43a12.86 12.86 0 0 0-9.26-3.9z" fill="#107c47"/><path d="M50.21 106.53h.4a12.9 12.9 0 0 0-.42-25.8h-.53A12.9 12.9 0 0 0 41 102.58v.06l.41.42a12.85 12.85 0 0 0 8.74 3.47z" fill="#346241"/></svg>