<svg data-name="Layer 1" xmlns="http://www.w3.org/2000/svg" width="124.35" height="200" viewBox="0 0 124.35 200"><title>_</title><path d="M43.69 87.37a12.9 12.9 0 0 1 12.9 12.9A45.45 45.45 0 0 1 102 54.88a12.9 12.9 0 0 0 0-25.8 71.28 71.28 0 0 0-71.2 71.2 12.9 12.9 0 0 1 12.89-12.91z" fill="#2584c5"/><path d="M102 171.47a12.9 12.9 0 0 0 0-25.8 45.45 45.45 0 0 1-45.39-45.39 12.9 12.9 0 1 1-25.8 0A71.28 71.28 0 0 0 102 171.47z" fill="#faa61a"/><circle cx="43.69" cy="100.27" r="12.9" fill="#57653f"/></svg>