<svg data-name="Layer 1" xmlns="http://www.w3.org/2000/svg" width="138.04" height="200" viewBox="0 0 138.04 200"><title>_</title><path d="M56.12 67.6L38.46 49.94a12.9 12.9 0 0 0-18.24 18.24l17.65 17.66h18.25V67.6zM81.92 129.89l17.66 17.66a12.9 12.9 0 0 0 18.24-18.25l-17.66-17.66H81.92v18.25z" fill="#72bf44"/><path d="M37.88 111.65l-17.66 17.66a12.9 12.9 0 0 0 18.25 18.25l17.66-17.66v-18.25H37.88zM100.17 85.84l17.66-17.66a12.9 12.9 0 1 0-18.25-18.24L81.92 67.6v18.24h18.24z" fill="#ed125f"/><path d="M75.05 111.65a12.93 12.93 0 0 1-11.12 0h-7.81v43.22a12.9 12.9 0 1 0 25.8 0v-43.22h-6.87zM63.94 85.84a12.93 12.93 0 0 1 11.11 0h6.87V42.62a12.9 12.9 0 0 0-25.8 0v43.22h7.82z" fill="#faa61a"/><path d="M100.17 111.65h25a12.9 12.9 0 0 0 0-25.8h-25l-12.9 12.9z" fill="#2584c5"/><path fill="#107c47" d="M81.92 104.09v7.56h18.25l-12.9-12.9-5.35 5.34z"/><path fill="#5f3267" d="M81.92 93.4l5.35 5.35 12.9-12.91H81.92v7.56z"/><path d="M81.92 94v-8.16h-6.87A12.93 12.93 0 0 1 81.92 94zM75.05 111.65h6.87v-8.18a12.94 12.94 0 0 1-6.87 8.18z" fill="#57653f"/><path d="M12.9 111.65h25l12.9-12.9-12.9-12.9h-25a12.9 12.9 0 1 0 0 25.8z" fill="#2584c5"/><path fill="#107c47" d="M56.12 93.4v-7.56H37.88l12.9 12.91 5.34-5.35z"/><path fill="#5f3267" d="M56.12 104.09l-5.34-5.34-12.9 12.9h18.24v-7.56z"/><path fill="#3d3639" d="M56.12 93.4l-5.34 5.35 5.34 5.34V93.4z"/><path d="M56.12 111.65h7.81A12.9 12.9 0 0 1 56.59 100v-2.51a12.9 12.9 0 0 1 7.34-11.65h-7.81v25.8z" fill="#57653f"/><path d="M69.49 84.59a12.85 12.85 0 0 0-5.56 1.25h11.12a12.85 12.85 0 0 0-5.56-1.25zM69.49 112.9a12.85 12.85 0 0 0 5.56-1.26H63.94a12.85 12.85 0 0 0 5.55 1.26z" fill="#ed1c24"/><path fill="#3d3639" d="M81.92 103.47v.62l5.35-5.34-5.35-5.35V103.47z"/><path d="M56.59 97.49V100a12.9 12.9 0 0 0 7.34 11.65h11.12a12.94 12.94 0 0 0 6.87-8.18V94a12.93 12.93 0 0 0-6.87-8.18H63.94a12.9 12.9 0 0 0-7.35 11.67z" fill="#613438"/></svg>