<svg data-name="Layer 1" xmlns="http://www.w3.org/2000/svg" width="127.17" height="200" viewBox="0 0 127.17 200"><title>_</title><path d="M92.27 101c0-27.73-16.85-46.36-32.59-46.36-16 0-33.88 19.83-33.88 46.36 0 25.74 14.25 44.43 33.88 44.43 19.19-.04 32.59-18.31 32.59-44.43z" fill="none"/><path d="M72.58 41.7a12.9 12.9 0 0 1-12.9 12.9c15.74 0 32.59 18.63 32.59 46.36 0 26.16-13.4 44.43-32.59 44.43a12.9 12.9 0 0 1 0 25.8c33.84 0 58.39-29.54 58.39-70.23 0-39.79-26.2-72.16-58.39-72.16a12.9 12.9 0 0 1 12.9 12.9z" fill="#ed125f"/><path d="M59.68 171.2a12.9 12.9 0 1 1 0-25.8c-19.63 0-33.88-18.68-33.88-44.43 0-26.53 17.89-46.36 33.88-46.36a12.9 12.9 0 1 1 0-25.8c-15.39 0-30.75 7.9-42.13 21.68S0 82.11 0 101c0 19.16 5.82 36.75 16.4 49.53 11.05 13.31 26.42 20.67 43.28 20.67z" fill="#2584c5"/><circle cx="59.68" cy="41.7" r="12.9" fill="#5f3267"/><circle cx="59.68" cy="158.3" r="12.9" fill="#5f3267"/></svg>