<svg data-name="Layer 1" xmlns="http://www.w3.org/2000/svg" width="66.83" height="200" viewBox="0 0 66.83 200"><title>_</title><path d="M40.54 31.07a12.82 12.82 0 0 0-3.26.8l.78-.25a13 13 0 0 1 2.48-.55zM42 169a12.9 12.9 0 0 0 12.9-12.9v-111a12.9 12.9 0 0 1-8.86 11l-16.96 5.55v94.48A12.9 12.9 0 0 0 42 169z" fill="#ed125f"/><path d="M37.28 31.86l-28.36 9.2a12.9 12.9 0 1 0 8 24.54l12.2-4V43.88a12.91 12.91 0 0 1 8.16-12.02zM54.89 43.88v1.28A12.91 12.91 0 0 0 42 31h-.64.64a12.9 12.9 0 0 1 12.89 12.88z" fill="#72bf44"/><path d="M54.89 45.16v-1.28A12.9 12.9 0 0 0 42 31h-.59c-.29 0-.58 0-.87.07a13 13 0 0 0-2.48.54l-.78.25a12.91 12.91 0 0 0-8.2 12v17.79L46 56.15a12.9 12.9 0 0 0 8.89-10.99z" fill="#853135"/></svg>