<svg data-name="Layer 1" xmlns="http://www.w3.org/2000/svg" width="112.2" height="200" viewBox="0 0 112.2 200"><title>_</title><path d="M2.52 148.6l.23-.31zM1.91 149.5l.22-.34zM12.9 169.15zM3.4 147.51l-.14.17.22-.25zM8.09 168.22a12.84 12.84 0 0 1-1.4-.67 12.8 12.8 0 0 0 1.4.67zM3.54 165.13a12.93 12.93 0 0 1-2.3-3.35 12.83 12.83 0 0 0 2.3 3.35zM1.39 150.42l.17-.31zM77.61 116.1A12.9 12.9 0 0 1 59.8 97.43c-4.18 4-9.45 8.2-15.55 13.07-11.42 9.13-25.63 20.5-40.76 36.92a12.87 12.87 0 0 1 9.41-4.07h32c5.41-4.64 10.58-8.77 15.46-12.68 6.57-5.26 12.25-9.79 17.25-14.57z" fill="#72bf44"/><path d="M38.08 43.81a12.9 12.9 0 0 1 12.85-13C31.51 30.94 14 40.8 5.22 56.59a12.9 12.9 0 1 0 22.56 12.53C31 63.4 39 56.71 51 56.66a12.9 12.9 0 0 1-12.92-12.85z" fill="#ed125f"/><path d="M78 97.86a12.9 12.9 0 0 1-.43 18.24C95.2 99.32 101.07 79.22 93.7 61c-6.93-17.19-25.23-30.1-42.63-30.1H51a12.9 12.9 0 0 1 0 25.76c6.19 0 15.37 5.71 18.69 13.94 4.17 10.34-3.12 20.3-10 26.83a12.9 12.9 0 0 1 18.31.43z" fill="#faa61a"/><path d="M59.37 115.68a12.9 12.9 0 1 0 .43-18.24 12.86 12.86 0 0 0-.43 18.24z" fill="#7e883f"/><path d="M63.88 43.7A12.9 12.9 0 0 0 51 30.85h-.08A12.9 12.9 0 0 0 51 56.66 12.9 12.9 0 0 0 63.88 43.7z" fill="#ed1c24"/><path d="M.1 157.83v-.59c-.03.2-.02.39 0 .59zM.05 155.17c0-.26.06-.51.09-.76-.03.24-.07.5-.09.76zM.51 152.67zM0 156.25v-.52.52zM22.4 165a12.87 12.87 0 0 1-9.5 4.17h74.92a12.9 12.9 0 0 0 0-25.8H44.89A261.14 261.14 0 0 0 22.4 165zM11 169l-.64-.12zM.22 153.91c.05-.29.12-.57.19-.85-.07.27-.14.56-.19.85zM9.1 168.58q-.47-.15-.94-.33.46.18.94.33zM5.37 166.72a13.05 13.05 0 0 1-1.09-.89 13 13 0 0 0 1.09.89zM.34 159.18c0-.2-.08-.41-.11-.61.03.2.06.43.11.61zM10.05 168.83c-.25-.06-.5-.13-.74-.2.25.07.49.14.74.2zM.72 160.49c-.07-.2-.12-.4-.18-.6.06.2.11.4.18.6z" fill="#2584c5"/><path d="M3.49 147.42l-.22.25c-.18.2-.35.4-.52.61l-.23.31q-.2.28-.39.56l-.22.34c-.12.2-.24.4-.35.61l-.17.31c-.16.31-.3.62-.43.95H1c-.16.4-.29.8-.41 1.21 0 .13-.06.26-.09.39-.07.28-.14.57-.19.85s0 .33-.07.5-.07.51-.09.76 0 .38 0 .57v2.1c0 .2.08.5.12.74s.07.41.11.61.13.47.2.7.11.4.18.6a12.84 12.84 0 0 0 .51 1.25 12.93 12.93 0 0 0 2.3 3.35q.28.29.59.57l.11.09a13.05 13.05 0 0 0 1.09.89 12.92 12.92 0 0 0 2.72 1.5q.46.18.94.33l.21.06c.25.07.49.14.74.2l.34.06.69.31q.49.07 1 .11h.9a12.87 12.87 0 0 0 9.5-4.11 261.14 261.14 0 0 1 22.49-21.63h-32a12.87 12.87 0 0 0-9.4 4.05z" fill="#107c47"/></svg>