<svg data-name="Layer 1" xmlns="http://www.w3.org/2000/svg" width="106.83" height="200" viewBox="0 0 106.83 200"><title>_</title><path d="M10 93.48a13 13 0 0 0 .26 1.44c0-.08 0-.16-.06-.24q-.09-.6-.2-1.2zM41.39 56.78L14.18 82.41a12.84 12.84 0 0 1 6-3.06 114.15 114.15 0 0 1 23.93-2.79 73.57 73.57 0 0 1 12.82 1.07l25.81-24.36.12-.12a12.85 12.85 0 0 1-9 3.63H41.39zM83.66 52.3l-.15.16zM19.85 104.51a13 13 0 0 1-6-3.3 12.83 12.83 0 0 0 6 3.3zM85.15 50.17l-.15.32zM84.54 51.15l-.21.3zM80.15 32.59q.47.26.91.55-.45-.3-.91-.55zM84.92 37.17q.32.52.59 1.08-.27-.55-.59-1.08zM10.66 96.16c0-.13-.09-.27-.13-.4.04.13.09.24.13.4zM10.54 88.11a13 13 0 0 1 2.64-4.68 12.82 12.82 0 0 0-2.64 4.68zM81.11 33.18zM79.14 32.08q.5.22 1 .49-.5-.26-1-.49zM11.08 97.22l-.15-.36z" fill="#72bf44"/><path d="M76.58 31.25zM77.88 31.6a12.84 12.84 0 0 1 1.26.48 12.83 12.83 0 0 0-1.26-.48zM83.37 35.13zM85.51 38.25a12.82 12.82 0 0 1 1.06 3.29 12.82 12.82 0 0 0-1.06-3.29zM75.25 31c.32 0 .64.09 1 .15-.36-.01-.68-.07-1-.15zM73.89 31h-61a12.9 12.9 0 1 0 0 25.8h28.5L65 34.48A12.86 12.86 0 0 1 73.89 31zM86.73 45.19c0 .3-.09.61-.14.91.05-.3.1-.6.14-.91zM86.15 47.9a12.84 12.84 0 0 1-.51 1.3 12.86 12.86 0 0 0 .51-1.3zM86.51 46.56zM86.7 42.34v.53c.03-.17.02-.35 0-.53zM86.8 43.87v-.08.77c-.03-.23 0-.45 0-.69z" fill="#faa61a"/><path d="M76.58 31.25l-.37-.06c-.32-.06-.63-.12-1-.15s-.76-.04-1.15-.04h-.17A12.86 12.86 0 0 0 65 34.48l-23.61 22.3h32.5a12.85 12.85 0 0 0 9-3.63q.34-.33.65-.68l.15-.16c.24-.27.46-.56.67-.85l.21-.3q.22-.32.42-.65l.19-.32c.18-.32.35-.64.5-1a12.84 12.84 0 0 0 .51-1.3c0-.1.05-.21.08-.31.1-.34.2-.69.27-1 0-.15 0-.31.08-.46s.11-.6.14-.91 0-.42 0-.63v-.77c0-.26 0-.62-.05-.93s0-.35 0-.53-.09-.53-.14-.8a12.82 12.82 0 0 0-1.06-3.29q-.27-.55-.59-1.08t-.69-1v-.06c-.25-.33-.53-.66-.82-1l-.13-.12q-.26-.28-.53-.53t-.82-.71c-.26-.21-.54-.41-.82-.6h-.06q-.44-.29-.91-.55-.48-.26-1-.49a12.84 12.84 0 0 0-1.26-.48l-.21-.06c-.37-.15-.73-.25-1.09-.33z" fill="#7e883f"/><path d="M25.78 104.53a87.4 87.4 0 0 1 18.07-2.12c8.85 0 15.79 1.92 20.2 5.7 6.1 5.22 6.16 12.74 6 14.92a12.89 12.89 0 0 1 12.84-12.15h.79a12.9 12.9 0 0 1 12.13 13.63 44.17 44.17 0 0 0-15-36 49.23 49.23 0 0 0-24-10.88L31.7 101.35a12.84 12.84 0 0 1-5.92 3.18zM10.53 88.15a12.82 12.82 0 0 0-.53 5.33 13 13 0 0 1 .53-5.33zM19.85 104.51a12.83 12.83 0 0 0 4.31.29q-.65.06-1.3.06a13 13 0 0 1-3.01-.35zM12.94 100.18c-.14-.16-.28-.32-.41-.49.13.17.28.31.41.49z" fill="#2584c5"/><path d="M20.13 79.35a12.84 12.84 0 0 0-6 3.06l-.13.16q-.42.4-.81.83a13 13 0 0 0-2.64 4.68 13 13 0 0 0-.55 5.4q.07.6.2 1.2c0 .08 0 .16.06.24.07.28.14.56.22.84s.09.27.13.4.17.47.26.7l.15.36c.15.34.31.68.49 1a12.91 12.91 0 0 0 .94 1.43c.13.17.27.33.41.49s.33.43.52.63l.36.37a12.88 12.88 0 0 0 9 3.66q.65 0 1.3-.06a13.08 13.08 0 0 0 1.42-.22h.2a12.84 12.84 0 0 0 5.93-3.18l25.29-23.71a73.57 73.57 0 0 0-12.82-1.07 114.15 114.15 0 0 0-23.93 2.79z" fill="#107c47"/><path d="M83 136.67h-.76A12.9 12.9 0 0 1 70.08 123c-.64 11-13.54 20.21-28.19 20.21a12.9 12.9 0 1 1 0 25.8 58.66 58.66 0 0 0 36.22-12.26c10.69-8.42 17-19.86 17.72-32.2A12.9 12.9 0 0 1 83 136.67z" fill="#ed125f"/><path d="M83.71 110.89h-.79a12.9 12.9 0 0 0-.71 25.78h.76a12.9 12.9 0 0 0 12.86-12.1 12.9 12.9 0 0 0-12.12-13.68z" fill="#5f3267"/><path d="M29 156.13a12.9 12.9 0 0 1 12.9-12.9 21.32 21.32 0 0 1-18.14-9.56 12.9 12.9 0 1 0-21.7 14A47 47 0 0 0 41.89 169 12.9 12.9 0 0 1 29 156.13z" fill="#2584c5"/><circle cx="41.89" cy="156.13" r="12.9" fill="#5f3267"/></svg>