<svg data-name="Layer 1" xmlns="http://www.w3.org/2000/svg" width="124.66" height="200" viewBox="0 0 124.66 200"><title>_</title><path fill="none" d="M72.27 78.47L41.2 114.22h31.07V78.47z"/><path d="M72.27 156.12a12.9 12.9 0 1 0 25.8 0V140h-25.8v16.1zM72.27 78.47v35.75h25.8V45.15A12.84 12.84 0 0 1 95 52.34zM81.22 31.62a12.91 12.91 0 0 0-6.48 4.66l.75-.86a12.84 12.84 0 0 1 5.73-3.8zM85.28 31h-.58.53zM81.27 31.6zM82.75 31.23z" fill="#2584c5"/><path d="M12.9 114.22h28.3l31.07-35.75V43.88a12.84 12.84 0 0 1 2.48-7.6l-71.52 82.3a12.87 12.87 0 0 1 9.67-4.36zM98.07 43.88v1.27a12.89 12.89 0 0 0-11.45-14.09 12.9 12.9 0 0 1 11.45 12.82zM1.66 133.45a12.82 12.82 0 0 1-.58-1.16 12.81 12.81 0 0 0 .58 1.16zM12.9 140h-.74zM0 127a13.07 13.07 0 0 1 .07-1.32A13 13 0 0 0 0 127zM85.28 31q.66 0 1.3.08a13 13 0 0 0-1.3-.08zM2.35 134.55c-.24-.34-.46-.69-.67-1.06q.32.51.67 1.06zM3.14 135.56z" fill="#faa61a"/><path d="M72.27 78.47L95 52.34a12.84 12.84 0 0 0 3.1-7.19v-1.27a12.9 12.9 0 0 0-11.48-12.82q-.68-.06-1.34-.06h-.58c-.3 0-.59 0-.89.05s-.71.1-1.06.17h-.26c-.41.09-.82.2-1.22.33a12.84 12.84 0 0 0-5.73 3.8l-.75.86a12.84 12.84 0 0 0-2.48 7.6v34.66z" fill="#32513e"/><path d="M2.58 119.39c.12-.17.26-.33.39-.49-.13.16-.27.32-.39.49zM2 120.19c.1-.16.21-.31.32-.46-.08.15-.19.27-.32.46zM105.54 140a12.9 12.9 0 1 0 0-25.8h-7.47V140h7.47zM1.54 121c.08-.15.17-.29.26-.44-.09.16-.18.31-.26.44zM.75 122.78c.05-.15.12-.3.17-.44-.05.14-.11.29-.17.44zM.46 123.7c0-.15.09-.3.14-.45-.05.15-.1.3-.14.45zM1.11 121.88c.07-.15.14-.29.21-.44-.07.15-.14.29-.21.44zM10.71 139.84l-.61-.13zM.33 130c-.08-.37-.15-.74-.2-1.11.04.38.11.75.2 1.11zM41.2 114.22l-18.56 21.36A12.87 12.87 0 0 1 12.9 140h59.37v-25.8H41.2zM.65 131.16c-.12-.36-.22-.73-.31-1.1q.13.55.31 1.1zM9.67 139.61c-.24-.06-.47-.14-.7-.21.23.08.46.15.7.21zM.24 124.64c0-.14.06-.27.09-.41l-.09.41zM8.65 139.31q-.5-.17-1-.39.5.21 1 .39zM1.08 132.29q-.24-.54-.42-1.11.18.57.42 1.11zM5.16 137.44l-.32-.26z" fill="#ed125f"/><path fill="#5f3267" d="M72.27 114.22h25.8v25.8h-25.8z"/><path d="M0 127.68q0 .59.11 1.17c.05.37.12.74.2 1.11.09.37.19.74.31 1.1q.19.56.42 1.11a12.82 12.82 0 0 0 .58 1.16c.21.36.43.72.67 1.06.24.34.49.66.76 1s.58.64.89.93l.41.37.4.32.32.26c.33.25.67.48 1 .7h.06q.41.23.83.44h.33q.49.22 1 .39l.71.6c.23.07.47.15.7.21l.43.09.61.13q.53.09 1.06.14h1.12a12.87 12.87 0 0 0 9.74-4.44l18.54-21.31H12.9a12.87 12.87 0 0 0-9.67 4.36l-.07.08-.16.24c-.13.16-.27.32-.39.49l-.23.33c-.11.15-.22.31-.32.46l-.23.39c-.09.15-.18.29-.26.44s-.14.29-.21.43-.15.29-.21.44l-.18.45c-.06.15-.12.29-.17.44s-.1.32-.15.47-.1.3-.14.45-.09.35-.13.53-.07.27-.09.41c-.06.32-.11.63-.15 1A13.07 13.07 0 0 0 0 127v.68z" fill="#ed1c24"/></svg>