<svg data-name="Layer 1" xmlns="http://www.w3.org/2000/svg" width="104.16" height="200" viewBox="0 0 104.16 200"><title>_</title><path d="M9.69 106.55a13 13 0 0 1-5.61-2.78 12.84 12.84 0 0 0 5.61 2.78zM.34 98.38c-.12-.32-.22-.64-.32-1 .09.36.2.68.32 1zM.86 99.62q-.26-.53-.47-1.08c.14.37.29.73.47 1.08zM15 31h-.12a12.9 12.9 0 0 0-2.51.25 13 13 0 0 1 2.52-.25H15zM9 81.5a150.63 150.63 0 0 1 17.15-3.7l1-21H14.89A12.9 12.9 0 0 1 2 43.87v-.5L-.43 93A12.91 12.91 0 0 1 9 81.5zM15.52 106.46l-.51.12z" fill="#72bf44"/><path d="M2.07 42.6c0-.24 0-.49.08-.73-.04.24-.06.49-.08.73zM27.77 44.5l-.6 12.27h49.48a12.9 12.9 0 1 0 0-25.8H15.52A12.9 12.9 0 0 1 27.77 44.5zM12.3 31.23A12.91 12.91 0 0 0 4 36.89a12.94 12.94 0 0 1 8.3-5.66zM2.68 39.75c.06-.19.11-.38.19-.56-.08.18-.13.37-.19.56zM2.28 41.21c0-.24.09-.47.15-.7-.06.22-.1.49-.15.7z" fill="#faa61a"/><path d="M14.89 56.78h12.28l.6-12.27A12.9 12.9 0 0 0 15.52 31h-.63a13 13 0 0 0-2.52.25h-.07A12.94 12.94 0 0 0 4 36.89V37a12.8 12.8 0 0 0-.56 1.25c-.07.18-.12.38-.19.56s-.18.49-.24.75-.1.47-.15.7-.1.44-.14.67-.05.49-.08.73S2 43 2 43.24v.63a12.9 12.9 0 0 0 12.89 12.91z" fill="#7e883f"/><path d="M80.59 110.87h.78a12.9 12.9 0 0 1 12.13 13.6 44 44 0 0 0-15.92-36.72c-9.21-7.46-21.21-11.19-35.87-11.19a103.89 103.89 0 0 0-15.56 1.24l-.82 16.77a12.91 12.91 0 0 1-9.23 11.74 99.23 99.23 0 0 1 25.5-3.92c8.56 0 15.3 1.81 19.74 5.41 6.44 5.22 6.53 12.94 6.4 15.21a12.91 12.91 0 0 1 12.85-12.14zM.86 99.62A12.83 12.83 0 0 0 4 103.74a13 13 0 0 1-3.14-4.12zM11.38 106.79h-.49zM12.31 106.84h.13a12.83 12.83 0 0 0 1.64-.11 12.93 12.93 0 0 1-1.63.1h-.14z" fill="#ed125f"/><path d="M25.33 94.57l.82-16.77A150.63 150.63 0 0 0 9 81.5 12.91 12.91 0 0 0-.43 93V94.26c0 .36 0 .71.07 1.06s.09.69.16 1 .09.4.14.61.06.3.06.42v.06c.09.33.2.66.32 1l.05.15q.21.56.47 1.09A13 13 0 0 0 4 103.74a13 13 0 0 0 5.61 2.78c.39.09.79.15 1.2.2H12.38a12.93 12.93 0 0 0 1.63-.1c.31 0 .62-.09.93-.16l.51-.12.33-.08.25-.07a12.91 12.91 0 0 0 9.3-11.62z" fill="#853135"/><path d="M93.5 124.47a12.9 12.9 0 0 1-12.87 12.15h-.76A12.9 12.9 0 0 1 67.73 123c-.64 11-13.55 20.21-28.19 20.21a12.9 12.9 0 1 1 0 25.8 58.65 58.65 0 0 0 36.22-12.26c10.71-8.43 17-19.89 17.72-32.25z" fill="#72bf44"/><path d="M79.86 136.65h.76a12.9 12.9 0 0 0 12.87-12.15 12.9 12.9 0 0 0-12.13-13.58h-.78A12.91 12.91 0 0 0 67.74 123a12.9 12.9 0 0 0 12.12 13.65z" fill="#853135"/><path d="M26.65 156.13a12.9 12.9 0 0 1 12.9-12.9 21.32 21.32 0 0 1-18.14-9.56 12.9 12.9 0 1 0-21.71 14A47 47 0 0 0 39.55 169a12.9 12.9 0 0 1-12.9-12.87z" fill="#2584c5"/><circle cx="39.55" cy="156.13" r="12.9" fill="#107c47"/></svg>