<svg data-name="Layer 1" xmlns="http://www.w3.org/2000/svg" width="115.65" height="200" viewBox="0 0 115.65 200"><title>_</title><path d="M54.24 144.92c13.78 0 25.43-8.74 25.43-19.09 0-12.54-9.27-19.73-25.43-19.73-13.79 0-25.43 9-25.43 19.73 0 10.35 11.64 19.09 25.43 19.09z" fill="none"/><path d="M28.44 122.75l.08.41v.28a12.88 12.88 0 0 1 .24 2.39c0-10.69 11.65-19.73 25.43-19.73 16.16 0 25.43 7.19 25.43 19.73a12.9 12.9 0 1 1 25.8 0 43.64 43.64 0 0 0-13.61-32.38c-9.23-8.61-22.22-13.16-37.57-13.16a55.66 55.66 0 0 0-27.66 7.22c-1.47 9.88-.87 21.73 1.86 35.24z" fill="#ed125f"/><path d="M41.34 157.82a12.9 12.9 0 0 1 12.9-12.9c-13.79 0-25.43-8.74-25.43-19.09a12.9 12.9 0 0 1-25.43 3.09q-.08-.3-.14-.6l-.21-1c.88 24.08 23.51 43.44 51.21 43.44a12.9 12.9 0 0 1-12.9-12.94z" fill="#faa61a"/><path d="M18.46 138.38a12.89 12.89 0 0 1-15.09-9.46 12.89 12.89 0 0 0 25.19-5.48 12.89 12.89 0 0 1-10.1 14.94z" fill="#ed1c24"/><path d="M92.57 138.73a12.9 12.9 0 0 1-12.9-12.9c0 10.35-11.65 19.09-25.43 19.09a12.9 12.9 0 0 1 0 25.8c28.25 0 51.23-20.14 51.23-44.89a12.9 12.9 0 0 1-12.9 12.9z" fill="#2584c5"/><circle cx="92.57" cy="125.83" r="12.9" fill="#5f3267"/><circle cx="54.24" cy="157.82" r="12.9" fill="#57653f"/><path d="M3 125.83c0-16.06 9.4-30.2 23.57-38.31 1.28-8.59 4.13-15.69 8.54-21.08a31 31 0 0 1 23.65-11.36c7.43 0 15 2.51 19.7 6.56A12.9 12.9 0 0 0 95.24 42c-9.47-8.11-22.77-12.76-36.48-12.76a56.93 56.93 0 0 0-43.63 20.88C8.12 58.7 3.49 69.38 1.35 81.87-.9 95-.34 110.32 3 127.28v-1.45z" fill="#2584c5"/><path d="M3 125.83a12.9 12.9 0 0 1 25.43-3.08c-2.72-13.51-3.33-25.36-1.86-35.23C12.41 95.62 3 109.77 3 125.83z" fill="#5f3267"/><path d="M3.38 128.92a12.93 12.93 0 0 1-.38-3.09v1.45l.21 1 .17.64z" fill="#57653f"/><path d="M15.87 138.64a12.9 12.9 0 0 0 12.7-15.21v-.28l-.08-.41a12.9 12.9 0 1 0-12.62 15.9z" fill="#613438"/></svg>