<svg data-name="Layer 1" xmlns="http://www.w3.org/2000/svg" width="106.21" height="200" viewBox="0 0 106.21 200"><title>_</title><path d="M86.29 31h-.79zM85.55 56.78H64.18l-48.83 93.36a12.9 12.9 0 1 0 22.86 12L96.38 50.89a12.89 12.89 0 0 1-10.83 5.89z" fill="#ed125f"/><path d="M13.19 56.78h51l9.87-18.88A12.9 12.9 0 0 1 85.2 31h-72a12.9 12.9 0 1 0-.01 25.78zM96.92 49.86l-.54 1A12.9 12.9 0 0 0 86.29 31a12.91 12.91 0 0 1 10.63 18.86z" fill="#72bf44"/><path d="M74.06 37.9l-9.88 18.88h21.37a12.89 12.89 0 0 0 10.83-5.89l.54-1A12.91 12.91 0 0 0 86.29 31H85.2a12.9 12.9 0 0 0-11.14 6.9z" fill="#853135"/></svg>