<svg data-name="Layer 1" xmlns="http://www.w3.org/2000/svg" width="125.6" height="200" viewBox="0 0 125.6 200"><title>_</title><path d="M63.06 55.54c-13.39 0-22.72 7.48-22.72 14.19s9.33 14.19 22.72 14.19 22.72-7.48 22.72-14.19-9.33-14.19-22.72-14.19zM90.56 127.29c0-8.12-11.3-17.17-27.51-17.17s-27.51 9-27.51 17.17 11.3 17.17 27.51 17.17 27.51-9.05 27.51-17.17z" fill="none"/><path d="M66.6 109.63a12.91 12.91 0 0 1-3.54.49c16.21 0 27.51 9 27.51 17.17s-11.3 17.17-27.51 17.17a12.9 12.9 0 1 1 0 25.8c13.55 0 26.43-4 36.28-11.36 10.83-8.06 17-19.58 17-31.61 0-11.87-6-23.25-16.6-31.28a43.83 43.83 0 0 1-3.71 3.16 54 54 0 0 1-29.43 10.46z" fill="#2584c5"/><path d="M9.75 127.29c0 12 6.21 23.56 17 31.61 9.84 7.32 22.73 11.36 36.27 11.36a12.9 12.9 0 0 1 0-25.8c-16.21 0-27.51-9-27.51-17.17s11.3-17.17 27.51-17.17a12.91 12.91 0 0 1-3.54-.49 54 54 0 0 1-29.42-10.46A43.88 43.88 0 0 1 26.34 96c-10.55 8-16.59 19.42-16.59 31.29z" fill="#faa61a"/><path d="M63.06 109.73q-1.78 0-3.54-.1a13 13 0 0 0 7.08 0q-1.76.1-3.54.1z" fill="#57653f"/><circle cx="63.06" cy="157.36" r="12.9" fill="#57653f"/><path d="M63.06 84.32c13.55 0 26.43 4 36.28 11.36l.43.32c7.56-7.21 11.81-16.56 11.81-26.27a12.9 12.9 0 1 1-25.8 0c0 6.71-9.33 14.19-22.72 14.19s-22.73-7.47-22.73-14.18a12.9 12.9 0 0 1-25.8 0c0 9.71 4.25 19.06 11.82 26.27l.44-.33c9.83-7.33 22.72-11.36 36.27-11.36z" fill="#ed125f"/><path d="M63.06 84.32a12.9 12.9 0 0 1 3.54 25.31 54 54 0 0 0 29.46-10.46A43.83 43.83 0 0 0 99.77 96l-.44-.33c-9.84-7.32-22.72-11.35-36.27-11.35z" fill="#5f3267"/><path d="M59.52 109.63a12.9 12.9 0 0 1 3.54-25.31c-13.55 0-26.43 4-36.27 11.36l-.45.32a43.88 43.88 0 0 0 3.71 3.16 54 54 0 0 0 29.47 10.47z" fill="#ed1c24"/><path d="M66.6 109.63a12.9 12.9 0 1 0-7.08 0q1.76.1 3.54.1t3.54-.1z" fill="#613438"/><path d="M27.43 56.84a12.9 12.9 0 0 1 12.9 12.9c0-6.71 9.33-14.19 22.72-14.19S85.78 63 85.78 69.74a12.9 12.9 0 0 1 25.8 0c0-11.2-5.66-21.92-15.53-29.43-9-6.82-20.68-10.57-33-10.57s-24 3.75-33 10.57c-9.87 7.5-15.53 18.23-15.53 29.43a12.9 12.9 0 0 1 12.91-12.9z" fill="#72bf44"/><circle cx="27.43" cy="69.74" r="12.9" fill="#853135"/><circle cx="98.68" cy="69.74" r="12.9" fill="#853135"/></svg>