<svg data-name="Layer 1" xmlns="http://www.w3.org/2000/svg" width="120.17" height="200" viewBox="0 0 120.17 200"><title>_</title><path d="M52.57 93.9c13.79 0 25.43-9 25.43-19.73 0-10.35-11.65-19.09-25.43-19.09s-25.43 8.75-25.43 19.09c0 12.54 9.26 19.73 25.43 19.73z" fill="none"/><path d="M39.67 106.8a12.9 12.9 0 0 1 12.9-12.9c-16.16 0-25.43-7.19-25.43-19.73a12.9 12.9 0 1 1-25.8 0A43.65 43.65 0 0 0 15 106.55c9.23 8.61 22.22 13.16 37.57 13.16a12.9 12.9 0 0 1-12.9-12.91z" fill="#72bf44"/><path d="M78.37 77.25l-.08-.41v-.28a12.9 12.9 0 0 1-.29-2.39c0 10.7-11.65 19.73-25.43 19.73a12.9 12.9 0 1 1 0 25.8 55.66 55.66 0 0 0 27.66-7.22c1.47-9.87.86-21.72-1.86-35.23z" fill="#ed125f"/><circle cx="52.57" cy="106.8" r="12.9" fill="#853135"/><path d="M1.33 74.17a12.9 12.9 0 1 1 25.8 0c0-10.35 11.65-19.09 25.43-19.09S78 63.83 78 74.17a12.9 12.9 0 0 1 25.43-3.07q.07.29.13.58l.21 1c-.88-24.08-23.51-43.44-51.21-43.44-28.24.04-51.23 20.18-51.23 44.93z" fill="#faa61a"/><circle cx="14.23" cy="74.17" r="12.9" fill="#7e883f"/><path d="M88.34 61.62a12.89 12.89 0 0 1 15.09 9.48 12.89 12.89 0 0 0-25.19 5.47 12.89 12.89 0 0 1 10.1-14.95z" fill="#ed1c24"/><path d="M80.23 112.48c-1.28 8.59-4.13 15.69-8.54 21.08a31 31 0 0 1-23.64 11.35c-7.43 0-15-2.51-19.7-6.56A12.9 12.9 0 1 0 11.57 158c9.47 8.11 22.77 12.76 36.48 12.76a56.93 56.93 0 0 0 43.63-20.84c7-8.58 11.64-19.26 13.77-31.75 2.25-13.18 1.69-28.45-1.68-45.42v1.45c.03 16.03-9.37 30.18-23.54 38.28z" fill="#2584c5"/><path d="M103.8 74.17a12.9 12.9 0 0 1-25.43 3.08c2.72 13.51 3.33 25.36 1.86 35.23 14.17-8.1 23.57-22.25 23.57-38.31z" fill="#5f3267"/><path d="M103.43 71.1a12.94 12.94 0 0 1 .37 3.07v-1.45l-.21-1q-.09-.33-.16-.62z" fill="#57653f"/><path d="M90.94 61.36a12.9 12.9 0 0 0-12.7 15.21v.28l.08.41a12.9 12.9 0 1 0 12.62-15.9z" fill="#613438"/></svg>