<svg data-name="Layer 1" xmlns="http://www.w3.org/2000/svg" width="64.43" height="200" viewBox="0 0 64.43 200"><title>_</title><path d="M32.65 76.87A12.9 12.9 0 0 0 45.55 64v-2.54a12.9 12.9 0 0 0-25.8 0V64a12.9 12.9 0 0 0 12.9 12.87z" fill="#ed125f"/><path d="M22.72 150.39a12.89 12.89 0 0 0 16.94-6.78c3-6.92 2.83-15.68 2.66-18.84v.37a12.9 12.9 0 0 1-25.77.92 25.59 25.59 0 0 1-.61 7.39 12.9 12.9 0 0 0 6.78 16.94z" fill="#2584c5"/><path d="M28.6 112.27h.82a12.91 12.91 0 0 1 12.88 12.05v.45-2.14a12.9 12.9 0 1 0-25.8 0v2.43a12.9 12.9 0 0 1 12.1-12.79z" fill="#ed125f"/><path d="M29.42 138a12.9 12.9 0 0 0 12.9-12.9v-.37-.45a12.91 12.91 0 0 0-12.87-12.08h-.82a12.9 12.9 0 0 0-12.08 12.79V126a12.9 12.9 0 0 0 12.87 12z" fill="#5f3267"/></svg>