<svg data-name="Layer 1" xmlns="http://www.w3.org/2000/svg" width="144.67" height="200" viewBox="0 0 144.67 200"><title>_</title><path d="M7 99.41c0-.2.09-.4.15-.59-.07.18-.15.39-.15.59zM7.36 98.16c.06-.16.11-.33.18-.49-.07.16-.13.33-.18.49zM8.71 95.38c-.09.14-.17.28-.25.42v-.06c.11-.11.17-.24.25-.36zM6.76 100.62c0-.21.06-.41.1-.62-.04.21-.07.41-.1.62zM8.18 96.3c0 .09-.11.18-.15.27 0-.09.1-.17.15-.26zM10.79 92.93c.19-.17.38-.35.57-.51-.19.16-.36.34-.57.51zM12.4 113.16a13 13 0 0 0 1.28.75c-.26-.13-.5-.29-.74-.44s-.37-.19-.54-.31zM12 92l.44-.3zM6.65 101.81v-.59c.02.2 0 .39 0 .59zM10.39 93.3l-.12.12.1-.09zM10.18 93.52c-.12.12-.22.25-.34.38l.16-.17zM12 112.85q-.45-.32-.86-.68.38.36.86.68zM9.5 94.29l-.2.26.06-.07zM13 91.31l.47-.31zM9 95zM7.06 105.69zM7.77 107.72l-.09-.19zM7.53 107.12c-.11-.27-.21-.55-.3-.82.08.27.19.54.3.82zM8.44 109c-.11-.18-.21-.36-.31-.54.1.18.21.36.31.54zM10.67 111.79l-.37-.36zM9.84 110.92l-.36-.43zM9.1 110l-.34-.49zM25.37 113.91a12.88 12.88 0 0 1-11.55.07l-.13-.07 112.24 57a12.9 12.9 0 1 0 11.69-23L48 102.41zM6.79 104.39c0-.21-.06-.42-.09-.63.02.24.05.42.09.63zM6.65 103.11v-.68c-.02.23-.01.46 0 .68z" fill="#2584c5"/><path d="M144.67 45.39a12.9 12.9 0 0 0-18.75-11.49l-112.17 57a12.88 12.88 0 0 1 11.61 0L48 102.41l89.61-45.51a12.9 12.9 0 0 0 7.06-11.51zM9.36 94.48l-.06.07c-.11.14-.2.29-.3.45.11-.18.23-.35.36-.52zM10.37 93.33l-.1.09-.09.1-.18.21c.13-.14.24-.27.37-.4zM8.5 95.75v.06c-.1.16-.19.33-.28.5.05-.19.16-.38.28-.56zM12.25 113.06l.16.1c.17.11.36.21.54.31a8.02 8.02 0 0 1-.7-.41zM6.62 102.13v1.62c0 .21.05.42.09.63s.07.44.11.65.1.43.16.65.1.4.17.61.19.55.3.82c0 .12.08.23.13.35a13 13 0 0 1-.96-5.33z" fill="#72bf44"/><path d="M19.53 115.32a12.84 12.84 0 0 0 5.83-1.4L48 102.41l-22.63-11.5a12.88 12.88 0 0 0-11.61 0h-.07l-.22.09-.47.31-.55.34L12 92l-.25.17-.08.06h-.06l-.14.12c-.2.16-.39.33-.57.51l-.4.37-.36.39-.16.17c-.11.13-.23.26-.34.39l-.14.19c-.27.28-.39.45-.5.63-.08.12-.18.24-.26.36s-.14.25-.21.37-.22.37-.33.57-.1.17-.15.26q-.24.48-.45 1v.12c-.06.16-.12.33-.18.49s-.15.44-.22.66-.2.38-.2.58-.09.39-.13.59-.07.41-.1.62-.05.4-.07.61 0 .39 0 .59v.32a13 13 0 0 0 1 5.33v.06l.09.19c.08.18.16.36.25.53l.11.2c.1.19.2.37.31.54l.31.51.33.5.38.5.36.43.46.5.37.36.16.16.22.17q.41.36.86.68l.28.21c.22.15.46.27.69.41s.48.31.74.44l.19.14a13 13 0 0 0 5.72 1.32z" fill="#107c47"/></svg>