<svg data-name="Layer 1" xmlns="http://www.w3.org/2000/svg" width="139.62" height="200" viewBox="0 0 139.62 200"><title>_</title><path d="M134.57 108.81l-.29.31zM133.81 90.46c.16.14.31.28.46.43-.15-.15-.27-.29-.46-.43zM119.3 88.5a12.88 12.88 0 0 1 11.6 0l-112.16-57a12.9 12.9 0 1 0-11.69 23L96.66 100zM135.11 108.18l.23-.29-.17.21zM135.46 92.27c.15.19.29.39.42.59-.13-.19-.27-.39-.42-.59zM135.88 107.15l.16-.25-.13.19zM133.85 109.51a12.84 12.84 0 0 1-1.11.91 12.84 12.84 0 0 0 1.11-.91zM136.17 93.31c.13.22.26.43.38.66-.13-.22-.25-.44-.38-.66zM132.17 89.18a13.06 13.06 0 0 0-1.17-.68c.22.11.43.25.65.38s.35.19.52.3zM132.56 110.56a13 13 0 0 1-1.43.86 12.89 12.89 0 0 0 1.43-.86zM132.57 89.47c.25.18.5.36.74.55-.23-.19-.48-.37-.74-.55zM134.68 91.32c.15.17.3.33.45.51-.13-.17-.3-.34-.45-.51zM137.08 104.88c.08-.19.15-.38.22-.58-.07.2-.15.39-.22.58zM138 100.62v0zM137.67 103.07q-.08.33-.18.65.1-.33.18-.65zM137 94.82a12.92 12.92 0 0 1 .47 1.25 13 13 0 0 0-.47-1.25zM137.91 101.84q0 .34-.12.68c.04-.23.08-.46.12-.68zM138 99.29v0zM137.88 98c0 .23.07.46.09.69-.02-.25-.06-.48-.09-.69zM137.58 96.62z" fill="#2584c5"/><path d="M136.52 106.07l-.25.45zM135.63 107.5l.24-.36v-.05zM138 100.34v-.31-.74-.62c0-.21-.06-.46-.09-.69s-.07-.42-.11-.63-.12-.49-.18-.73-.09-.37-.15-.55a12.92 12.92 0 0 0-.47-1.25 13 13 0 0 1 1 5.52zM134.92 108.42l.19-.24.07-.09zM125.14 112.9a12.85 12.85 0 0 1-5.83-1.4L96.66 100l-89.6 45.51a12.9 12.9 0 1 0 11.68 23l112.13-57a13 13 0 0 1-5.73 1.39zM132.24 89.23h-.07c-.17-.11-.36-.2-.54-.31.21.08.37.18.61.31z" fill="#72bf44"/><path d="M137.49 103.72q.1-.32.18-.65c0-.18.09-.37.12-.55s.08-.45.12-.68 0-.38.07-.57 0-.43 0-.65v-.27a13 13 0 0 0-.98-5.54q-.14-.33-.31-.65l-.15-.16c-.12-.23-.25-.44-.38-.66s-.18-.3-.28-.45-.28-.4-.42-.59l-.34-.44c-.14-.18-.3-.34-.45-.51l-.41-.44c-.15-.15-.31-.29-.46-.43s-.22-.21-.33-.31l-.15-.17c-.24-.19-.49-.37-.74-.55l-.33-.24c-.19-.13-.41-.24-.61-.35s-.42-.26-.65-.38h-.08a12.88 12.88 0 0 0-11.6 0L96.66 100l22.65 11.5a12.88 12.88 0 0 0 11.58.06l.11-.06.14-.08a13 13 0 0 0 1.43-.86l.18-.13a12.84 12.84 0 0 0 1.11-.91l.18-.15.15-.15.29-.31.36-.39.26-.32.17-.21.29-.39.28-.41.13-.19.23-.38.25-.45.13-.23q.17-.33.32-.67c0-.09.07-.18.1-.27s.15-.38.22-.58.21-.5.27-.7z" fill="#107c47"/></svg>