<svg data-name="Layer 1" xmlns="http://www.w3.org/2000/svg" width="89.1" height="200" viewBox="0 0 89.1 200"><title>_</title><path d="M86.54 65a43.16 43.16 0 0 0-14.18-24c-7.49-6.55-16.36-10.15-25-10.15a12.9 12.9 0 0 1 0 25.8c4.43 0 12.36 5.69 13.82 13.24 2 10.23-11.29 17.29-19.56 20.64a12.91 12.91 0 0 1 17.45 12.08v8.29c9.38-4.83 16.52-10.75 21.3-17.65A36.51 36.51 0 0 0 86.54 65zM39.56 91.54a12.83 12.83 0 0 0-4.07 3.85 13 13 0 0 1 4.07-3.85zM33.31 102.16v-.6c.01.2.01.44 0 .6z" fill="#ed125f"/><path d="M40.49 91l.51-.2zM33.47 100.42a13 13 0 0 1 2-5 12.83 12.83 0 0 0-2 5zM46.19 115.51a12.92 12.92 0 0 1-12.9-12.59v17.77a12.9 12.9 0 1 0 25.8 0v-9.79q-3.81 2-8.1 3.68a12.89 12.89 0 0 1-4.8.93z" fill="#72bf44"/><path d="M46.19 89.71a12.88 12.88 0 0 0-4.55.83l-.25.1-.39.16-.51.2q-.48.24-.93.5a13 13 0 0 0-4.07 3.85 13 13 0 0 0-2 5c-.06.37-.11.75-.14 1.14v1.36A12.9 12.9 0 0 0 51 114.59q4.29-1.72 8.1-3.68v-8.29a12.9 12.9 0 0 0-12.91-12.91z" fill="#853135"/><path d="M34.48 43.75a12.9 12.9 0 0 1 12.9-12.9c-27.88 0-39.1 13.75-45.76 25.74a12.9 12.9 0 1 0 22.56 12.53c3.92-7.06 8.13-12.47 23.2-12.47a12.9 12.9 0 0 1-12.9-12.9z" fill="#2584c5"/><circle cx="47.38" cy="43.75" r="12.9" fill="#5f3267"/><path d="M59.09 156.25v-2.51a12.9 12.9 0 1 0-25.8 0v2.51a12.9 12.9 0 0 0 25.8 0z" fill="#faa61a"/></svg>