<svg data-name="Layer 1" xmlns="http://www.w3.org/2000/svg" width="129.34" height="200" viewBox="0 0 129.34 200"><title>_</title><path d="M68.9 109.87H25.8v33.43h49.51a16.71 16.71 0 0 0 0-33.43H68.9zM25.8 56.86v27.21h43.1a13.68 13.68 0 0 0 1.42-27.29 13 13 0 0 1-1.42.08H25.8z" fill="none"/><path d="M12.9 84.07h12.9V56.86H12.9A12.9 12.9 0 0 1 0 44v53a12.9 12.9 0 0 1 12.9-12.93zM12.9 143.3h12.9v-33.43H12.9A12.9 12.9 0 0 1 0 97v59.2a12.9 12.9 0 0 1 12.9-12.9z" fill="#2584c5"/><path d="M25.8 44v12.9h43.1a13 13 0 0 0 1.42-.08 13.77 13.77 0 0 0-1.42-.07 12.9 12.9 0 0 1-2-25.65h-54A12.9 12.9 0 0 1 25.8 44z" fill="#ed125f"/><path d="M12.9 56.86h12.9V44a12.9 12.9 0 1 0-12.9 12.86z" fill="#5f3267"/><path d="M62.41 156.2a12.9 12.9 0 0 1 12.9-12.9H25.8v12.9a12.9 12.9 0 0 1-12.9 12.9h62.41a12.9 12.9 0 0 1-12.9-12.9z" fill="#72bf44"/><path d="M25.8 156.2v-12.9H12.9a12.9 12.9 0 1 0 12.9 12.9z" fill="#107c47"/><path d="M68.9 30.9a13 13 0 0 0-2 .15h2a12.9 12.9 0 0 1 1.42 25.73 13.68 13.68 0 0 1-1.42 27.29h6.41a42.32 42.32 0 0 1 26 8.88A39.47 39.47 0 0 0 68.9 30.9z" fill="#8e53a1"/><path d="M56 43.8a12.9 12.9 0 0 0 12.9 12.9 13.77 13.77 0 0 1 1.42.07 12.9 12.9 0 0 0-1.42-25.72h-2A12.91 12.91 0 0 0 56 43.8z" fill="#942c65"/><path d="M68.91 109.87h6.41a16.71 16.71 0 0 1 0 33.43 12.9 12.9 0 1 1 0 25.8 42.5 42.5 0 0 0 26-76.16 39.46 39.46 0 0 1-32.41 16.93z" fill="#faa61a"/><circle cx="75.31" cy="156.2" r="12.9" fill="#7e883f"/><path d="M68.9 84.07a12.9 12.9 0 0 1 0 25.8 39.46 39.46 0 0 0 32.38-16.93 42.32 42.32 0 0 0-26-8.88H68.9z" fill="#954635"/><path d="M25.8 109.87h43.1a12.9 12.9 0 1 1 0-25.8H25.8v25.8z" fill="#f37021"/><path d="M12.9 109.87h12.9v-25.8H12.9a12.9 12.9 0 0 0 0 25.8z" fill="#5d4e3b"/><path d="M56 97a12.9 12.9 0 0 0 12.9 12.9 12.9 12.9 0 0 1 0-25.8A12.9 12.9 0 0 0 56 97z" fill="#963b34"/><path d="M56 97a12.9 12.9 0 0 0 12.9 12.9 12.9 12.9 0 0 0 0-25.8A12.9 12.9 0 0 0 56 97z" fill="#963634"/></svg>