<svg data-name="Layer 1" xmlns="http://www.w3.org/2000/svg" width="108.81" height="200" viewBox="0 0 108.81 200"><title>_</title><path d="M12.9 56.78A12.9 12.9 0 0 1 0 43.88V100a12.9 12.9 0 0 1 12.9-12.9h12.9V56.78H12.9zM0 100v56.12a12.9 12.9 0 0 1 12.9-12.9h12.9V112.9H12.9A12.9 12.9 0 0 1 0 100z" fill="#2584c5"/><path d="M25.8 43.88v12.9h61.93a12.9 12.9 0 1 0 0-25.8H12.9a12.9 12.9 0 0 1 12.9 12.9z" fill="#ed125f"/><path d="M12.9 56.78h12.9v-12.9a12.9 12.9 0 1 0-12.9 12.9z" fill="#5f3267"/><path d="M12.9 169h74.83a12.9 12.9 0 1 0 0-25.8H25.8v12.9A12.9 12.9 0 0 1 12.9 169z" fill="#72bf44"/><path d="M0 156.12a12.9 12.9 0 1 0 25.8 0v-12.9H12.9A12.9 12.9 0 0 0 0 156.12z" fill="#107c47"/><path d="M76.76 112.9a12.9 12.9 0 0 0 0-25.8h-51v25.8h51z" fill="#faa61a"/><path d="M0 100a12.9 12.9 0 0 0 12.9 12.9h12.9V87.1H12.9A12.9 12.9 0 0 0 0 100z" fill="#57653f"/></svg>