<svg data-name="Layer 1" xmlns="http://www.w3.org/2000/svg" width="113.23" height="200" viewBox="0 0 113.23 200"><title>_</title><path d="M0 100v56.12a12.9 12.9 0 1 0 25.8 0V112.9H12.9A12.9 12.9 0 0 1 0 100zM0 43.88V100a12.9 12.9 0 0 1 12.9-12.9h12.9V56.78H12.9A12.9 12.9 0 0 1 0 43.88z" fill="#72bf44"/><path d="M87.73 31H12.9a12.9 12.9 0 0 1 12.9 12.9v12.9h61.93a12.9 12.9 0 1 0 0-25.8z" fill="#ed125f"/><path d="M12.9 31a12.9 12.9 0 0 0 0 25.8h12.9V43.88A12.9 12.9 0 0 0 12.9 31z" fill="#853135"/><path d="M76.76 112.9a12.9 12.9 0 0 0 0-25.8h-51v25.8h51z" fill="#faa61a"/><path d="M0 100a12.9 12.9 0 0 0 12.9 12.9h12.9V87.1H12.9A12.9 12.9 0 0 0 0 100z" fill="#7e883f"/></svg>