<svg data-name="Layer 1" xmlns="http://www.w3.org/2000/svg" width="138.1" height="200" viewBox="0 0 138.1 200"><title>_</title><path d="M14.05 87.1A12.9 12.9 0 0 1 27 100a45.45 45.45 0 0 1 45.35-45.39 12.9 12.9 0 1 1 0-25.8A71.28 71.28 0 0 0 1.15 100a12.9 12.9 0 0 1 12.9-12.9z" fill="#2584c5"/><path d="M72.35 171.2a12.9 12.9 0 0 1 0-25.8A45.44 45.44 0 0 1 27 100a12.9 12.9 0 0 1-25.8 0 71.28 71.28 0 0 0 71.15 71.2z" fill="#faa61a"/><circle cx="14.05" cy="100" r="12.9" fill="#57653f"/><path d="M85.25 158.3a12.9 12.9 0 0 1-12.9 12.9c18.39 0 37-7.16 49.88-19.16a12.9 12.9 0 0 1-21.61-9.52v-6.06a49.21 49.21 0 0 1-28.27 8.94 12.9 12.9 0 0 1 12.9 12.9z" fill="#ed125f"/><circle cx="72.35" cy="158.3" r="12.9" fill="#ed1c24"/><path d="M125.21 148a12.93 12.93 0 0 1-2.08 3.14 12.83 12.83 0 0 0 2.08-3.14z" fill="#ed125f"/><path d="M85.25 41.7a12.9 12.9 0 0 1-12.9 12.9 45.18 45.18 0 0 1 31.47 12.68 12.9 12.9 0 0 0 17.89-18.59A70.86 70.86 0 0 0 72.35 28.8a12.9 12.9 0 0 1 12.9 12.9z" fill="#72bf44"/><circle cx="72.35" cy="41.71" r="12.9" fill="#107c47"/><path d="M113.51 129.62a12.89 12.89 0 0 1 12.9 13v-41.47a12.9 12.9 0 0 1-12.9 12.9h-12.9v22.4a40.62 40.62 0 0 0 4.07-3.34 12.85 12.85 0 0 1 8.83-3.49zM126.35 143.77v.34a1.29 1.29 0 0 1 0-.34zM125.79 146.49l-.12.35zM126.12 145.29c0 .08 0 .16-.06.24.02-.08.04-.15.06-.24z" fill="#8e53a1"/><path d="M113.52 155.42a12.85 12.85 0 0 0 8.71-3.38l.12-.11q.39-.37.75-.76a12.93 12.93 0 0 0 2.08-3.14c.17-.37.32-.74.45-1.12l.12-.35q.15-.48.27-1c0-.08 0-.16.06-.24.09-.39.15-.79.2-1.19v-.34c0-.38.06-.76.06-1.14a12.9 12.9 0 0 0-21.72-9.51 40.62 40.62 0 0 1-4.07 3.34v6.06a12.9 12.9 0 0 0 12.97 12.88z" fill="#942c65"/><path d="M113.52 88.25H67.58a12.9 12.9 0 0 0 0 25.8h33v-12.9a12.9 12.9 0 0 1 12.94-12.9z" fill="#f37021"/><path d="M126.42 101.15a12.9 12.9 0 1 0-25.8 0v12.9h12.9a12.9 12.9 0 0 0 12.9-12.9z" fill="#963b34"/></svg>