<svg data-name="Layer 1" xmlns="http://www.w3.org/2000/svg" width="146.03" height="200" viewBox="0 0 146.03 200"><title>_</title><path d="M60.49 128.76zM67.3 130.7a12.84 12.84 0 0 0 5.29-1.14 13 13 0 0 1-5.3 1.14zM61.91 129.53a12.87 12.87 0 0 1-1.18-.62 12.84 12.84 0 0 0 1.18.62zM77.48 125.7a13 13 0 0 1-1.12 1.3 12.78 12.78 0 0 0 1.12-1.3zM13.93 31h-1a12.91 12.91 0 0 0-2.34.21A13 13 0 0 1 12.9 31h1.03zM22.7 35.48a12.81 12.81 0 0 0-4.19-3.23 13 13 0 0 1 4.19 3.23zM1.38 38.07a12.94 12.94 0 0 1 2.49-3.41 12.81 12.81 0 0 0-2.49 3.41zM9.43 31.45c.25-.07.5-.12.75-.17-.25.05-.5.1-.75.17zM25.8 83.19l30.91 42A12.91 12.91 0 0 1 57 110l10.47-13.73-44.06-59.88a12.84 12.84 0 0 1 2.4 7.49v39.31zM59.36 128a13 13 0 0 1-1.28-1.13 12.76 12.76 0 0 0 1.28 1.13z" fill="#faa61a"/><path d="M126.32 31.28c.23 0 .46.1.69.16-.23-.07-.46-.11-.69-.16zM58.08 126.84a13 13 0 0 1-1.08-1.31 12.78 12.78 0 0 0 1.08 1.31zM74.82 128.27zM73.75 129c-.37.21-.74.41-1.12.58.37-.21.75-.4 1.12-.58zM118.15 32.18a12.81 12.81 0 0 0-4.26 3.19 13 13 0 0 1 4.26-3.19zM125.9 31.18a12.9 12.9 0 0 0-2.3-.21h-1 1a13 13 0 0 1 2.3.21zM67.28 130.7a13 13 0 0 1-5.38-1.17 12.84 12.84 0 0 0 5.38 1.17zM76.36 127a13 13 0 0 1-1.36 1.1 12.78 12.78 0 0 0 1.36-1.1zM132.84 34.88a12.93 12.93 0 0 1 2.41 3.46 12.81 12.81 0 0 0-2.41-3.46zM77.73 125.38l33-43.27V43.88a12.84 12.84 0 0 1 2.53-7.67L67.47 96.27l10.21 13.88a12.91 12.91 0 0 1 .05 15.23z" fill="#2584c5"/><path d="M56.71 125.2l.18.25.11.08a11.85 11.85 0 0 0 2.36 2.47l.11.1.13.09c.29.22.59.42.89.6l.24.15a12.9 12.9 0 0 0 11.86.66c.38-.17.75-.37 1.12-.58l.22-.13c.29-.18.58-.36.86-.57l.11-.07.1-.15a11.89 11.89 0 0 0 2.44-2.41l.07-.08.18-.24a12.91 12.91 0 0 0-.05-15.22L67.47 96.27 57 110a12.91 12.91 0 0 0-.29 15.2z" fill="#57653f"/><path d="M110.69 82.11v74a12.9 12.9 0 1 0 25.8 0V44a12.84 12.84 0 0 1-2.64 7.66zM129.11 32.22l.33.17zM135.25 38.34a13 13 0 0 1 1.21 4.66 12.82 12.82 0 0 0-1.21-4.66zM118.15 32.18a13 13 0 0 1 4.42-1.18 12.82 12.82 0 0 0-4.42 1.18zM130.81 33.19l.37.26zM130 32.67l.37.23z" fill="#72bf44"/><path d="M110.69 82.11l23.17-30.41a12.84 12.84 0 0 0 2.63-7.7v-.12V43a12.91 12.91 0 0 0-4.66-9.07l-.39-.31-.23-.16-.37-.26-.46-.29-.38-.24-.54-.29-.33-.17c-.3-.14-.59-.27-.9-.39h-.06q-.53-.2-1.08-.35c-.23-.06-.46-.11-.69-.16l-.42-.09a13 13 0 0 0-2.31-.21h-1a12.87 12.87 0 0 0-8.67 4.35q-.28.33-.55.68l-.11.15a12.84 12.84 0 0 0-2.53 7.67v38.25z" fill="#107c47"/><path d="M13.93 31a13 13 0 0 1 4.52 1.21A12.82 12.82 0 0 0 13.93 31zM12.9 169a12.9 12.9 0 0 0 12.9-12.9V83.19L2.51 51.53A12.84 12.84 0 0 1 0 44v112.12A12.9 12.9 0 0 0 12.9 169zM6.82 32.51a12.87 12.87 0 0 1 1.4-.66 12.8 12.8 0 0 0-1.4.66zM.12 42.15a12.94 12.94 0 0 1 1.24-4 12.82 12.82 0 0 0-1.24 4zM5.37 33.42a13.05 13.05 0 0 1 1.27-.81 12.89 12.89 0 0 0-1.27.81z" fill="#ed125f"/><path d="M25.8 83.19V43.88a12.84 12.84 0 0 0-2.4-7.49l-.11-.16q-.29-.38-.59-.75a13 13 0 0 0-4.19-3.23h-.06A13 13 0 0 0 13.93 31h-1a13 13 0 0 0-2.35.21l-.38.09c-.25.05-.51.11-.75.17s-.74.22-1.1.36h-.08a12.87 12.87 0 0 0-1.4.66l-.17.09a13.05 13.05 0 0 0-1.27.81l-.11.07-.33.25a13 13 0 0 0-3.55 4.34A13 13 0 0 0 0 43.55V44a12.84 12.84 0 0 0 2.51 7.56z" fill="#ed1c24"/></svg>