<svg data-name="Layer 1" xmlns="http://www.w3.org/2000/svg" width="132.05" height="200" viewBox="0 0 132.05 200"><title>_</title><path d="M20.63 33.56c.33.25.65.5 1 .78-.35-.28-.63-.54-1-.78zM8.4 31.79l.38-.13zM9.39 31.47l.41-.11zM7.43 32.19l.28-.12zM6.27 32.82l.25-.15zM18 32a12.85 12.85 0 0 1 1.27.64A12.82 12.82 0 0 0 18 32zM5.32 33.45l.3-.21zM10.42 31.23l.41-.08zM99.37 165.6l-.25-.23zM11.47 31.07h.4zM101.55 167.22l-.3-.19zM108.12 169h1-1zM19.38 32.72a12.93 12.93 0 0 1 1.11.72 12.78 12.78 0 0 0-1.11-.72zM118.44 163.85c-.25.33-.51.66-.79 1 .28-.35.54-.67.79-1zM119.87 161.43a12.9 12.9 0 0 1-.62 1.21 12.84 12.84 0 0 0 .62-1.21zM4.56 34l-.08.07.26-.21zM119.23 162.67a12.92 12.92 0 0 1-.72 1.1 12.8 12.8 0 0 0 .72-1.1zM100.38 166.45l-.19-.14zM25.8 79l72.47 85.43a12.85 12.85 0 0 1-3.09-8.37V121L22.77 35.57a12.85 12.85 0 0 1 3 8.31V79zM14 31h-1.07H14zM3.35 35.22l.22-.22zM1.67 37.54l.18-.31zM2.51 36.23l.16-.23z" fill="#faa61a"/><path d="M114.5 167.32l-.44.24zM112.67 168.18l-.44.16zM113.6 167.79l-.44.2zM120.89 157.93a12.92 12.92 0 0 1-1 3.51 12.81 12.81 0 0 0 1-3.51zM121 156V43.88a12.9 12.9 0 0 0-25.8 0V121l22.74 26.81A12.85 12.85 0 0 1 121 156zM116.18 166.17l-.43.34zM115.36 166.78l-.44.29zM110.69 168.76l-.39.08zM105.31 168.71a12.93 12.93 0 0 1-1.29-.36 12.78 12.78 0 0 0 1.29.36zM106.7 168.94c-.41 0-.81-.12-1.21-.2.39.09.8.16 1.21.2zM103.94 168.33a12.88 12.88 0 0 1-1.32-.53 12.83 12.83 0 0 0 1.32.53zM108.11 169zM111.71 168.5l-.44.13z" fill="#72bf44"/><path d="M98.3 164.5c.26.3.54.59.83.87l.25.23c.27.25.54.48.83.71l.19.14c.28.21.57.4.86.59l.3.19c.33.2.67.39 1 .55a12.88 12.88 0 0 0 1.32.53h.08a12.93 12.93 0 0 0 1.29.36h.18c.4.08.8.15 1.21.2s.76.06 1.15.06h1.47c.33 0 .66-.08 1-.13l.39-.08.58-.13.44-.13.51-.16.44-.16.49-.19.44-.2.46-.22.44-.24.43-.25.44-.29.39-.27.43-.34.27-.22.18-.16a13 13 0 0 0 1-1c.28-.31.54-.63.79-1l.06-.08a12.92 12.92 0 0 0 .72-1.1 12.8 12.8 0 0 0 1.64-4.71q.08-.6.11-1.21V156a12.85 12.85 0 0 0-3.06-8.24L95.21 121v35.15a12.85 12.85 0 0 0 3.09 8.35z" fill="#7e883f"/><path d="M14 31a12.93 12.93 0 0 1 4 1 12.82 12.82 0 0 0-4-1zM.12 42.12a12.92 12.92 0 0 1 1-3.48 12.81 12.81 0 0 0-1 3.48zM0 44v112.12a12.9 12.9 0 1 0 25.8 0V79L3.06 52.23A12.85 12.85 0 0 1 0 44z" fill="#ed125f"/><path d="M3.35 35.22q-.35.39-.68.78l-.15.2c-.24.32-.45.66-.66 1l-.18.31c-.2.36-.39.72-.56 1.1a12.92 12.92 0 0 0-1 3.48Q0 42.72 0 43.32V44a12.85 12.85 0 0 0 3.06 8.24L25.8 79V43.88a12.85 12.85 0 0 0-3-8.31l-.12-.13a13 13 0 0 0-1-1c-.3-.28-.63-.53-1-.78l-.14-.11a12.93 12.93 0 0 0-1.11-.72l-.08-.05A12.82 12.82 0 0 0 14 31h-2.53l-.64.08-.41.08-.62.13-.41.11-.61.19-.38.13-.68.28-.28.12q-.47.22-.91.47l-.25.15-.65.41-.3.21-.59.45-.26.21q-.48.51-.91.98z" fill="#ed1c24"/></svg>