<svg data-name="Layer 1" xmlns="http://www.w3.org/2000/svg" width="116.55" height="200" viewBox="0 0 116.55 200"><title>_</title><path d="M82.32 79.92a23.16 23.16 0 0 0-23.13-23.14H25.8v46.27h33.39a23.16 23.16 0 0 0 23.13-23.13z" fill="none"/><path d="M12.9 103.05h12.9V56.78H12.9A12.9 12.9 0 0 1 0 43.88V116a12.9 12.9 0 0 1 12.9-12.95zM12.9 169a12.9 12.9 0 0 0 12.9-12.9v-27.25H12.9A12.9 12.9 0 0 1 0 116v40.17A12.9 12.9 0 0 0 12.9 169z" fill="#ed125f"/><path d="M72.09 43.88a12.9 12.9 0 0 1-12.9 12.9 23.14 23.14 0 1 1 0 46.27 12.9 12.9 0 1 1 0 25.8 48.94 48.94 0 0 0 0-97.88 12.9 12.9 0 0 1 12.9 12.91z" fill="#2584c5"/><path d="M46.28 116a12.9 12.9 0 0 1 12.9-12.9H25.8v25.8h33.39A12.9 12.9 0 0 1 46.28 116z" fill="#72bf44"/><path d="M12.9 128.85h12.9v-25.8H12.9a12.9 12.9 0 0 0 0 25.8z" fill="#853135"/><circle cx="59.19" cy="115.95" r="12.9" fill="#107c47"/><path d="M25.8 43.88v12.9h33.39a12.9 12.9 0 0 1 0-25.8H12.9a12.9 12.9 0 0 1 12.9 12.9z" fill="#faa61a"/><path d="M12.9 56.78h12.9v-12.9a12.9 12.9 0 1 0-12.9 12.9z" fill="#ed1c24"/><circle cx="59.19" cy="43.88" r="12.9" fill="#57653f"/></svg>