<svg data-name="Layer 1" xmlns="http://www.w3.org/2000/svg" width="118.75" height="200" viewBox="0 0 118.75 200"><title>_</title><path d="M95.06 117.39a12.9 12.9 0 0 1 12.9 12.9c0-8.92-3-21.58-17.48-31.31C82.17 93.39 71 89.25 55.31 86h.07a12.9 12.9 0 0 1-5.26 25.26c32 6.71 32 15.66 32 19a12.9 12.9 0 0 1 12.94-12.87z" fill="#72bf44"/><path d="M5.83 155.54c12.25 8 27.77 16.33 50 16.9a12.9 12.9 0 0 1 .28-25.8h.38c-15.71-.4-26.83-6.33-36.49-12.64a12.9 12.9 0 1 0-14.17 21.54z" fill="#faa61a"/><path d="M69 159.87a12.9 12.9 0 0 1-12.89 12.57h-.32 2.18c20 0 31.66-7.23 38-13.42a39.78 39.78 0 0 0 12-28.76 12.9 12.9 0 0 1-25.8 0A14.07 14.07 0 0 1 78 140.57c-4.1 4-11 6.09-20 6.09h-1.52A12.9 12.9 0 0 1 69 159.87z" fill="#2584c5"/><circle cx="95.06" cy="130.29" r="12.9" fill="#107c47"/><path d="M43.22 159.21a12.9 12.9 0 0 0 12.57 13.23h.34a12.9 12.9 0 0 0 .32-25.8h-.38a12.89 12.89 0 0 0-12.85 12.57z" fill="#57653f"/><path d="M40 96a12.88 12.88 0 0 1 15.29-10c-25.3-5.5-25.11-13.37-25-16 .21-8.69 3.19-11.4 4.17-12.29 3.2-2.91 9-4.4 17-4.4q2.53 0 5.34.2a12.9 12.9 0 0 1 .92-25.77h.95q-3.63-.26-7-.26c-14.84 0-26.44 3.72-34.56 11.1S4.79 56.29 4.47 69.39c-.22 9 2.66 21.82 17.64 31.42 7 4.51 15.87 7.81 27.81 10.4h.21-.11A12.9 12.9 0 0 1 40 96z" fill="#2584c5"/><path d="M65.26 101.34A12.9 12.9 0 0 0 55.38 86h-.07A12.9 12.9 0 1 0 50 111.23h.11a12.89 12.89 0 0 0 15.15-9.89z" fill="#107c47"/><path d="M70.62 41.59a12.9 12.9 0 0 1-12.86 12h-.93c6.78.41 15.48 3.41 25.85 8.76a12.9 12.9 0 1 0 11.85-22.92c-13.69-7.08-25.41-10.89-35.85-11.64a12.9 12.9 0 0 1 11.94 13.8z" fill="#ed125f"/><path d="M44.89 39.74a12.9 12.9 0 0 0 11.92 13.79h.93a12.9 12.9 0 0 0 .91-25.77h-.95a12.89 12.89 0 0 0-12.81 11.98z" fill="#5f3267"/></svg>