<svg data-name="Layer 1" xmlns="http://www.w3.org/2000/svg" width="130.1" height="200" viewBox="0 0 130.1 200"><title>_</title><path d="M12.9 102.37a12.9 12.9 0 0 1 12.9 12.9V42.81a12.9 12.9 0 1 0-25.8 0v72.46a12.9 12.9 0 0 1 12.9-12.9z" fill="#ed125f"/><path d="M107.06 102.37a12.9 12.9 0 0 1 12.9 12.9V42.81a12.9 12.9 0 1 0-25.8 0v72.46a12.9 12.9 0 0 1 12.9-12.9z" fill="#2584c5"/><path d="M59.89 170.09c32.56 0 60.06-25.1 60.06-54.82a12.9 12.9 0 1 1-25.8 0c0 7.26-3.53 14.33-9.95 19.9a37.58 37.58 0 0 1-24.32 9.11c-18.16 0-34.09-13.56-34.09-29a12.9 12.9 0 1 1-25.8 0C0 145 27.43 170.09 59.89 170.09z" fill="#72bf44"/><circle cx="12.9" cy="115.27" r="12.9" fill="#853135"/><circle cx="107.06" cy="115.27" r="12.9" fill="#107c47"/></svg>