<svg data-name="Layer 1" xmlns="http://www.w3.org/2000/svg" width="200" height="200" viewBox="0 0 200 200"><title>_</title><path d="M44.34 163q-.27-.43-.51-.89c.17.28.34.57.51.89zM64.26 165.39a12.86 12.86 0 0 1-1 .86 12.81 12.81 0 0 0 1-.86zM62 167.15c-.28.17-.57.34-.86.49.26-.15.54-.32.86-.49zM63.14 166.35c-.3.23-.6.45-.91.65.31-.21.61-.43.91-.65zM53.66 168.92a12.79 12.79 0 0 0 4.74-.29 12.86 12.86 0 0 1-4.74.29zM44.95 163.85q-.31-.42-.59-.86.27.44.59.86zM45.61 164.67q-.35-.4-.66-.82.32.43.66.82zM43.45 151l13-29.78L27 39.51a12.9 12.9 0 1 0-24.31 8.74l40.42 112.17a12.86 12.86 0 0 1 .34-9.42z" fill="#faa61a"/><path d="M46.89 165.91l-.35-.3zM49 167.4l-.43-.25zM53.6 168.92c-.35 0-.69-.11-1-.18.31.07.66.13 1 .18zM50.13 168h.09l-.35-.16zM47.94 166.72l-.43-.3zM52.27 168.66l-.73-.2zM104.26 31a12.86 12.86 0 0 1 1.3.08 12.8 12.8 0 0 0-1.3-.08zM110.7 32.79a12.89 12.89 0 0 1 2.88 2.31 12.82 12.82 0 0 0-2.88-2.31zM110.08 32.45l.43.22zM109.27 32c-.19-.08-.38-.14-.57-.22.2.08.41.15.61.24zM107.29 31.39c.27.07.53.13.79.22-.26-.09-.52-.15-.79-.22zM92.23 38.87L56.41 121.2l11 30.55a12.86 12.86 0 0 1-.33 9.58v-.06L103 78.8 92 48.25a12.85 12.85 0 0 1 .23-9.38zM65.84 163.53zM105.87 31.11c.32 0 .65.09 1 .16-.35-.07-.68-.12-1-.16zM51.22 168.36l-.72-.27zM65.1 164.49q-.4.46-.84.89.44-.38.84-.89zM93.62 36.39q.36-.5.76-1-.38.49-.76 1zM66.49 162.5c-.16.28-.33.54-.51.8.18-.3.36-.52.51-.8z" fill="#72bf44"/><path d="M67.42 151.75l-11-30.55L43.45 151a12.86 12.86 0 0 0-.34 9.44v.08q.1.27.21.54.2.48.45.95t.57.99q.28.44.59.86.31.42.66.82c.28.31.58.61.88.89l.35.3c.2.18.41.35.63.51l.43.3.66.43.46.29c.27.15.56.29.84.42l.39.18.27.11.72.27.33.1.73.2.3.07c.34.07.68.14 1 .18h.06a12.86 12.86 0 0 0 4.74-.29q.51-.13 1-.3h.24l.15-.06a13 13 0 0 0 1.19-.53c.29-.15.58-.32.86-.49l.26-.15c.31-.2.62-.42.91-.65l.15-.1a12.86 12.86 0 0 0 1-.86q.44-.43.84-.89l.08-.11c.23-.28.45-.56.66-.86l.28-.34c.18-.26.35-.53.51-.8s.39-.72.55-1.09v-.06a12.86 12.86 0 0 0 .36-9.6z" fill="#7e883f"/><path d="M133.76 163.15l-.12-.2zM134.69 164.39l-.23-.28zM96.62 33.39l.55-.39zM115.14 37.17c.18.29.35.58.5.88-.16-.3-.33-.59-.5-.88zM133.12 162l-.15-.29zM95.46 34.32c.14-.13.29-.24.43-.36-.14.12-.29.24-.43.36zM132.51 151.56l12.35-32.71-28.59-79.31A12.86 12.86 0 0 1 116 49l-13 29.8 29.45 81.69v.08a12.85 12.85 0 0 1 .06-9.01zM97.92 32.58l.58-.3zM99.75 31.74l-.37.16.59-.23zM113.58 35.1q.41.44.78.92-.36-.48-.78-.92zM100.32 31.56zM101.59 31.24zM104.12 31c-.42 0-.84 0-1.26.07.42 0 .84-.07 1.27-.07zM114.41 36.1c.22.29.43.6.63.91-.19-.31-.4-.61-.63-.91z" fill="#2584c5"/><path d="M116.27 39.54l-.07-.18v-.21q-.22-.56-.49-1.1c-.15-.3-.32-.59-.5-.88L115 37c-.2-.31-.41-.61-.63-.91l-.01-.09q-.37-.48-.78-.92a12.89 12.89 0 0 0-2.88-2.31l-.19-.12-.43-.22c-.25-.13-.51-.27-.77-.38s-.41-.16-.61-.24-.4-.16-.61-.23-.53-.15-.79-.22l-.46-.12c-.32-.07-.64-.12-1-.16l-.31-.05a12.86 12.86 0 0 0-1.3-.08h-.13c-.43 0-.85 0-1.27.07h-.35c-.31 0-.61.09-.92.15l-.4.09c-.29.07-.59.15-.87.24l-.36.11-.59.23c-.3.12-.59.24-.88.38l-.58.3c-.25.14-.5.29-.75.45l-.55.36c-.25.18-.49.38-.73.57s-.29.23-.43.36a12.79 12.79 0 0 0-1 1.06q-.41.47-.76 1t-.67 1a13 13 0 0 0-.63 1.25l-.06.13a12.85 12.85 0 0 0-.3 9.55l11 30.55L116 49a12.86 12.86 0 0 0 .27-9.46z" fill="#107c47"/><path d="M153.24 165.68a12.94 12.94 0 0 1-3.54 2.32 12.83 12.83 0 0 0 3.54-2.32zM141.48 168.65c-.23-.06-.46-.14-.69-.22.21.07.46.16.69.22z" fill="#2584c5"/><path d="M148.42 168.42l-.46.14zM138.69 167.6c-.34-.17-.66-.37-1-.57.31.2.66.4 1 .57zM136.49 166.18a12.88 12.88 0 0 1-1-.88 12.78 12.78 0 0 0 1 .88zM155.34 163.23l-.16.25zM154.41 164.46l-.23.27zM191.52 31.81a12.89 12.89 0 0 0-16.63 7.51l-30 79.53 11.86 32.89a12.84 12.84 0 0 1-.13 9.06l.06-.13L199 48.44a12.9 12.9 0 0 0-7.48-16.63zM156 162l-.14.25zM137.56 166.95z" fill="#ed125f"/><path d="M156.72 151.75l-11.86-32.89-12.35 32.71a12.85 12.85 0 0 0 0 9q.22.59.49 1.16l.15.29c.16.32.34.63.53.93l.12.2c.22.33.45.65.7 1l.23.28c.26.31.53.62.82.9a12.88 12.88 0 0 0 1 .88h.06c.33.26.66.5 1 .73l.15.09c.32.2.65.4 1 .57a13 13 0 0 0 1.2.54H140.07c.26.1.51.16.77.24s.46.16.69.22a12.85 12.85 0 0 0 1.52.28h1.81a12.86 12.86 0 0 0 1.5-.12h.17a13 13 0 0 0 1.46-.32l.46-.14.53-.16.75-.3a12.94 12.94 0 0 0 3.54-2.28 12.85 12.85 0 0 0 .9-.92l.23-.27c.27-.32.52-.64.76-1l.16-.25q.31-.47.57-1l.11-.12a13 13 0 0 0 .54-1.21 12.84 12.84 0 0 0 .18-9.04z" fill="#5f3267"/></svg>