<svg data-name="Layer 1" xmlns="http://www.w3.org/2000/svg" width="132.05" height="200" viewBox="0 0 132.05 200"><title>_</title><path d="M24.46 35.7a12.9 12.9 0 1 0-20 16.36L43.82 100l16.69-20.34zM96.56 164.3a12.9 12.9 0 0 0 20-16.36L77.19 100l-16.68 20.34z" fill="#faa61a"/><path d="M116.51 52.06a12.9 12.9 0 1 0-20-16.36l-36.05 44L77.19 100zM6.3 166.1a12.9 12.9 0 0 0 18.16-1.79l36.05-44L43.82 100 4.5 147.94a12.9 12.9 0 0 0 1.8 18.16z" fill="#72bf44"/><path fill="#7e883f" d="M77.19 100L60.51 79.66 43.82 100l16.69 20.34L77.19 100z"/></svg>