<svg data-name="Layer 1" xmlns="http://www.w3.org/2000/svg" width="142.71" height="200" viewBox="0 0 142.71 200"><title>_</title><path d="M52.06 120.71v-.35-.56-.41c0-.14 0-.35.06-.53s.06-.33.09-.5 0-.28.08-.42q.1-.46.23-.91.16-.52.36-1c.06-.15.13-.3.2-.45s.16-.36.24-.54.19-.36.29-.53.15-.29.24-.43.24-.37.36-.55.14-.23.22-.34l.07-.09L65 98.77 23.34 41.52A12.9 12.9 0 1 0 2.47 56.69l49.59 68.21v-4.2z" fill="#faa61a"/><path d="M124.61 38.67a12.9 12.9 0 0 0-18 2.85L65 98.77 75.29 113l.11.15c.1.13.17.27.26.41s.31.45.45.69.19.37.29.55.23.43.34.66.19.47.28.7.15.37.22.56a12.82 12.82 0 0 1 .36 1.31v.17q.12.62.18 1.27v5.44l49.59-68.21a12.9 12.9 0 0 0-2.76-18.03z" fill="#72bf44"/><path d="M52.09 119.8v.56c-.01-.18-.01-.36 0-.56zM52.36 117.94c0 .14-.05.28-.08.42.03-.13.05-.28.08-.42zM77.8 119.46v.6c.02-.2.02-.4 0-.6zM52.19 118.87c0 .18 0 .35-.06.53.02-.18.04-.4.06-.53zM65 107.81A12.88 12.88 0 0 1 75.29 113L65 98.77 54.59 113A12.88 12.88 0 0 1 65 107.81z" fill="#7e883f"/><path d="M75.4 128.3l-.07.08a12.8 12.8 0 0 1-1.13 1.34c-.26.27-.54.52-.82.77s-.34.27-.51.41l-.31.25h-.06c-.3.22-.61.42-.93.6l-.16.1c-.37.21-.75.41-1.14.59a12.84 12.84 0 0 1-5.27 1.17 12.84 12.84 0 0 1-5.24-1.11 12.84 12.84 0 0 1-1.16-.6h-.08q-.53-.31-1-.67l-.27-.22c-.22-.17-.44-.33-.64-.52s-.59-.54-.86-.83a12.81 12.81 0 0 1-1-1.22l-.06-.08-.15-.21-2.31-3.18v36.44a12.9 12.9 0 0 0 25.8 0V124.9l-2.29 3.15z" fill="#ed125f"/><path d="M52.06 120.82v4.08l2.31 3.18a12.93 12.93 0 0 1-2.31-7.26zM53.16 115.51c-.07.15-.14.3-.2.45.04-.15.14-.3.2-.45zM57.41 131.17q.5.36 1 .67c-.33-.21-.67-.43-1-.67zM70.26 132.48a13 13 0 0 1-5.3 1.14 12.84 12.84 0 0 0 5.3-1.14zM54.3 113.46c-.12.18-.25.36-.36.55.11-.19.24-.37.36-.55zM74.19 129.72a12.8 12.8 0 0 0 1.13-1.34 13 13 0 0 1-1.13 1.34zM56.46 130.42c.21.18.43.35.64.52-.21-.18-.43-.35-.64-.52zM58.51 131.88a12.84 12.84 0 0 0 1.16.6 12.85 12.85 0 0 1-1.16-.6zM53.7 114.43c-.1.18-.2.35-.29.53.09-.17.19-.35.29-.53z" fill="#ed1c24"/><path d="M77.86 120.71v-.65-.6q-.06-.64-.18-1.27V118a12.82 12.82 0 0 0-.36-1.31c-.06-.19-.14-.37-.22-.56s-.17-.47-.28-.7-.22-.44-.34-.66-.18-.37-.29-.55-.29-.46-.45-.69-.17-.27-.26-.41l-.19-.12a12.9 12.9 0 0 0-20.7.06l-.07.09c-.08.11-.15.22-.22.34s-.25.36-.36.55-.16.28-.24.43-.2.35-.29.53-.16.36-.24.54-.14.3-.2.45q-.2.51-.36 1-.13.45-.23.91c0 .14-.05.28-.08.42s-.06.33-.09.5 0 .35-.06.53 0 .27 0 .41v1.02a12.93 12.93 0 0 0 2.31 7.27l.15.21.06.08a12.81 12.81 0 0 0 1 1.22q.41.43.86.83c.21.18.43.35.64.52l.27.22c.33.24.68.46 1 .67h.08a12.85 12.85 0 0 0 1.16.6 12.84 12.84 0 0 0 5.32 1.21 13 13 0 0 0 5.3-1.14c.39-.17.77-.37 1.14-.59l.16-.1c.32-.19.62-.39.93-.6h.06l.31-.25c.17-.13.35-.26.51-.41s.56-.5.82-.77a13 13 0 0 0 1.13-1.34l.07-.08.17-.24 2.29-3.15v-4.19z" fill="#853135"/></svg>