<svg data-name="Layer 1" xmlns="http://www.w3.org/2000/svg" width="117.59" height="200" viewBox="0 0 117.59 200"><title>_</title><path d="M2.63 163.91l-.42-.57c.14.2.28.39.42.57zM3.43 164.87c-.16-.17-.31-.34-.46-.52.15.18.31.35.46.52zM4.32 165.74l-.46-.43zM6.94 167.56c-.21-.11-.42-.24-.63-.36.21.12.42.25.63.36zM5.07 166.38l.45.31zM0 155.8v-.78.78zM.35 153.18c.05-.23.12-.46.18-.69-.07.23-.13.51-.18.69zM.77 160.49c-.08-.22-.15-.44-.21-.66.07.23.14.45.21.66zM.39 159.22zM.12 154.48c0-.25.07-.5.12-.74-.05.26-.09.49-.12.74zM.71 151.93c.07-.22.16-.43.24-.64-.09.22-.17.43-.24.64zM1.18 150.75zM1.3 161.74q-.16-.33-.3-.66.14.33.3.66zM1.91 162.86c-.12-.19-.23-.38-.34-.58.11.2.23.39.34.58zM2.65 148.29a13 13 0 0 0-.79 1.17c.11-.18.24-.35.36-.53s.27-.43.43-.64zM.13 157.93c-.06-.43-.13-.86-.13-1.29 0 .43.07.86.13 1.29zM107.39 34.44l.29.3zM109.66 37.24l.27.48zM105.33 32.87h.06zM109 36.23l.33.48zM8.22 168.14q-.52-.2-1-.45.49.25 1 .45zM99 31h.67zM104.08 32.2l.22.11zM11.49 168.94a12.94 12.94 0 0 0 1.4.09 13 13 0 0 1-1.4-.09zM101.65 31.35l.28.07zM100.23 31.09l.63.09zM103 31.75l.13.05zM108.23 35.3l.36.43zM111.38 45.55c0 .29-.09.58-.15.86.07-.28.12-.57.15-.86zM111.14 46.9c-.07.29-.15.57-.24.84.1-.28.17-.56.24-.84zM110.76 48.19zM110.24 49.45c-.12.26-.27.51-.42.77.18-.22.29-.51.42-.77zM11.2 168.9a12.82 12.82 0 0 1-2.64-.64 12.82 12.82 0 0 0 2.64.64zM111.49 44.17q0 .45-.05.9.04-.45.05-.9zM111.1 40.73c0 .2.09.4.13.6-.04-.21-.08-.41-.13-.6zM110.23 38.31c.09.19.18.38.26.58q-.12-.29-.26-.58zM110.73 39.51c.07.19.13.38.19.57-.06-.2-.12-.39-.19-.57zM111.35 42c0 .23.06.47.08.71-.02-.28-.04-.51-.08-.71zM111.48 43.28v.28c.01-.1.01-.19 0-.28zM5.83 166.91L6 167l-.14-.1zM108.86 51.71c.17-.23.32-.46.48-.7l-.08.12c-.14.19-.26.39-.4.58zM106.43 33.63l-.1-.07zM109.59 50.63zM12.9 143.22H39l69.87-91.51-.07.09a12.88 12.88 0 0 1-10.19 5H72.52L2.7 148.23a12.88 12.88 0 0 1 10.2-5.01z" fill="#2584c5"/><path d="M13.05 169H98.6a12.9 12.9 0 0 0 0-25.8H39L23.16 164a12.88 12.88 0 0 1-10.11 5zM2.22 148.93c-.12.18-.25.35-.36.53l-.06.1c.12-.22.28-.42.42-.63zM5.5 166.67l.31.22zM.14 158c0 .16.07.32.1.48s.09.49.15.73.11.41.17.61.14.44.21.66.15.39.23.58.19.45.3.66.08.2.13.29A12.93 12.93 0 0 1 .14 158z" fill="#72bf44"/><path d="M2.7 148.23v.06c-.16.21-.29.42-.43.64s-.29.41-.42.62-.12.23-.18.34c-.16.28-.31.57-.44.86l-.09.17c-.14.08-.14.25-.19.37s-.17.42-.24.64-.12.37-.17.56-.13.46-.18.69-.08.37-.11.55-.09.49-.12.74 0 .36-.06.54 0 .52 0 .78v.8c0 .43.06.86.12 1.29v.08a12.93 12.93 0 0 0 1.29 4l.13.22c.11.2.22.39.34.58l.3.48c.13.2.27.39.42.57l.33.54c.15.18.3.35.46.52l.42.43.46.43.23.27.5.41.42.3.36.25.15.04.32.19c.21.13.42.25.63.36H7l.17.08q.5.24 1 .45l.33.12a12.82 12.82 0 0 0 2.64.64h.3a13 13 0 0 0 1.41.08H13A12.88 12.88 0 0 0 23.16 164L39 143.22H12.9a12.88 12.88 0 0 0-10.2 5.01z" fill="#107c47"/><path d="M106.5 33.68zM106.34 33.57c-.31-.23-.62-.45-.95-.65h-.06l-.11-.07a13 13 0 0 1 1.12.72zM102.47 31.57l-.54-.16-.28-.07-.4-.1c.41.09.81.21 1.22.33zM111.48 43.07v-.41c0-.14 0-.47-.08-.71s-.07-.43-.12-.64-.08-.4-.13-.6-.12-.44-.19-.65-.12-.38-.19-.57-.15-.41-.24-.61-.17-.39-.26-.58-.08-.19-.13-.28a12.94 12.94 0 0 1 1.34 5.05zM98.53 31H12.9a12.9 12.9 0 0 0 0 25.8h59.62L88.35 36a12.88 12.88 0 0 1 10.18-5zM103.87 32.1l-.74-.3-.13-.05-.29-.1c.39.13.78.28 1.16.45zM105.19 32.79c-.29-.17-.59-.33-.9-.48l-.22-.11a12.82 12.82 0 0 1 1.12.59zM109.25 51.13l.08-.12c.09-.13.18-.25.26-.38-.09.16-.22.37-.34.5z" fill="#ed125f"/><path d="M108.79 51.8l.07-.09c.14-.19.27-.39.4-.58s.24-.33.35-.51c.08-.13.14-.26.21-.39s.29-.51.42-.77v-.08c.05-.11.09-.23.14-.34.12-.28.24-.56.35-.85s.09-.3.14-.45.17-.56.24-.84.07-.32.1-.48.11-.57.15-.86 0-.32.05-.49 0-.6.05-.9v-.29-.32-.28-.21a12.94 12.94 0 0 0-1.37-5l-.15-.27-.27-.48c-.11-.18-.22-.36-.34-.54l-.33-.55c-.13-.17-.26-.34-.4-.5l-.36-.43c-.17-.19-.36-.38-.54-.56l-.29-.3v-.05c-.26-.23-.53-.46-.81-.68l-.07-.06-.09-.06a13 13 0 0 0-1.13-.77 12.82 12.82 0 0 0-1.16-.61l-.16-.08c-.38-.17-.77-.32-1.17-.45l-.24-.08c-.4-.13-.81-.24-1.22-.33h-.39l-.63-.09-.71-.18h-1.1a12.88 12.88 0 0 0-10.18 5L72.52 56.78H98.6a12.88 12.88 0 0 0 10.19-4.98z" fill="#5f3267"/></svg>