<svg data-name="Layer 1" xmlns="http://www.w3.org/2000/svg" width="86.6" height="200" viewBox="0 0 86.6 200"><title>_</title><path d="M14.92 56.78A12.9 12.9 0 0 1 2 43.88v112.24a12.9 12.9 0 0 1 12.9-12.9h12.9V56.78H14.92z" fill="#2584c5"/><path d="M27.82 43.88v12.9h37.93a12.9 12.9 0 0 0 0-25.8H14.92a12.9 12.9 0 0 1 12.9 12.9z" fill="#ed125f"/><path d="M14.92 56.78h12.9v-12.9a12.9 12.9 0 1 0-12.9 12.9z" fill="#5f3267"/><path d="M14.92 169h50.81a12.9 12.9 0 1 0 0-25.8H27.82v12.9a12.9 12.9 0 0 1-12.9 12.9z" fill="#72bf44"/><path d="M2 156.12a12.9 12.9 0 0 0 25.8 0v-12.9H14.92A12.9 12.9 0 0 0 2 156.12z" fill="#107c47"/></svg>