<svg data-name="Layer 1" xmlns="http://www.w3.org/2000/svg" width="88.44" height="200" viewBox="0 0 88.44 200"><title>_</title><path d="M63.71 56.78h-12.9v86.44h12.9a12.9 12.9 0 0 1 12.9 12.9V43.88a12.9 12.9 0 0 1-12.9 12.9z" fill="#2584c5"/><path d="M50.81 156.12v-12.9H12.88a12.9 12.9 0 1 0 0 25.8h50.83a12.9 12.9 0 0 1-12.9-12.9z" fill="#ed125f"/><path d="M63.71 143.22h-12.9v12.9a12.9 12.9 0 1 0 12.9-12.9z" fill="#5f3267"/><path d="M63.71 31H12.9a12.9 12.9 0 1 0 0 25.8h37.91V43.88A12.9 12.9 0 0 1 63.71 31z" fill="#72bf44"/><path d="M63.71 31a12.9 12.9 0 0 0-12.9 12.9v12.9h12.9a12.9 12.9 0 1 0 0-25.8z" fill="#107c47"/></svg>