<svg data-name="Layer 1" xmlns="http://www.w3.org/2000/svg" width="152.61" height="200" viewBox="0 0 152.61 200"><title>_</title><path fill="none" d="M96.59 118.35L73.24 72.37l-23.36 45.98h46.71z"/><path d="M68.8 31.78l.49-.18zM71.44 31.11h.23zM67.94 32.12l.18-.12zM70.13 31.37l.34-.09zM63.82 35.07l.27-.29zM72.75 31zM64.59 34.32a12.8 12.8 0 0 1 1.12-.91 12.83 12.83 0 0 0-1.12.91zM65.84 33.31a13 13 0 0 1 1.41-.85 12.88 12.88 0 0 0-1.41.85zM83.62 36.24c.13.17.26.35.38.53-.13-.18-.25-.36-.38-.53zM84.29 37.25zM73.58 31h.85-.85zM63.28 35.68L63 36l.15-.19zM79.18 32.44l-.1-.06.09.05zM82.86 35.3l.4.46zM28.88 144.15a12.9 12.9 0 0 1 0-25.8h21l23.35-46-11.5-22.63a12.88 12.88 0 0 1-.07-11.55l.07-.17-57 112.24a12.9 12.9 0 1 0 23 11.68l9-17.81h-7.9zM62.53 36.69l-.2.29.15-.23zM77.55 31.73l.71.27zM76.23 31.34l.77.22zM74.9 31.1c.29 0 .57.08.86.14a9.04 9.04 0 0 0-.86-.14zM80.21 33h.07zM81.15 33.7l.24.19zM82 34.43l.41.4z" fill="#2584c5"/><path d="M84.81 38.18a12.88 12.88 0 0 1-.07 11.55l-11.5 22.64 23.35 46h21a12.9 12.9 0 1 1 0 25.8h-7.89l9 17.81a12.9 12.9 0 0 0 23-11.68zM61.92 37.71c.1-.19.2-.38.31-.56-.11.18-.23.37-.31.56zM72.91 31h-.16c-.36 0-.72 0-1.08.08h-.23c-.32 0-.65.1-1 .17l-.34.09c-.28.07-.56.14-.83.23l-.49.18c-.19.07-.38.13-.56.21a13 13 0 0 1 4.69-.96zM62.83 36.26c-.1.14-.2.29-.29.43v.06c.06-.16.17-.33.29-.49zM81.63 34.07l-.23-.18-.24-.19-.63-.46a12.89 12.89 0 0 1 1.1.83zM63.49 35.43l-.21.26-.1.12zM80.34 33.12h-.13c-.33-.21-.68-.41-1-.59a13 13 0 0 1 1.13.59z" fill="#72bf44"/><path d="M61.73 49.72l11.5 22.65 11.5-22.65a12.88 12.88 0 0 0 .07-11.55l-.06-.17-.11-.19c-.11-.2-.22-.4-.34-.59l-.29-.45c-.12-.18-.25-.36-.38-.53l-.36-.48-.4-.46-.44-.47-.42-.4-.25-.24-.06-.06a12.89 12.89 0 0 0-1.1-.83l-.18-.13a13 13 0 0 0-1.17-.69l-.09-.05-.49-.23-.4-.2-.71-.28-.55-.16-.81-.22-.47-.1c-.28-.06-.57-.1-.86-.14l-.43-.1h-1.52a13 13 0 0 0-4.67 1h-.11l-.18.08-.55.26-.14.08a13 13 0 0 0-1.41.85l-.13.1a12.8 12.8 0 0 0-1.12.91l-.17.14-.07.07-.13.13-.27.29-.33.35-.3.38L63 36l-.2.26c-.12.16-.22.33-.33.5l-.13.24-.11.17c-.11.18-.21.37-.31.56s-.13.22-.19.33l-.07.14a12.88 12.88 0 0 0 .07 11.52z" fill="#107c47"/><path fill="#ed125f" d="M49.88 118.35l-13.1 25.8h72.92l-13.11-25.8H49.88z"/><path d="M16 131.25a12.9 12.9 0 0 0 12.9 12.9h7.9l13.11-25.8h-21A12.9 12.9 0 0 0 16 131.25z" fill="#5f3267"/><path d="M130.51 131.25a12.9 12.9 0 0 0-12.9-12.9h-21l13.11 25.8h7.91a12.9 12.9 0 0 0 12.88-12.9z" fill="#853135"/></svg>