<svg data-name="Layer 1" xmlns="http://www.w3.org/2000/svg" width="138.18" height="200" viewBox="0 0 138.18 200"><title>_</title><path d="M71.2 54.61a12.9 12.9 0 1 1 0-25.8A71.28 71.28 0 0 0 0 100a12.9 12.9 0 1 1 25.8 0 45.45 45.45 0 0 1 45.4-45.39z" fill="#2584c5"/><path d="M12.9 112.9A12.9 12.9 0 0 1 0 100a71.28 71.28 0 0 0 71.2 71.2 12.9 12.9 0 1 1 0-25.8A45.45 45.45 0 0 1 25.8 100a12.9 12.9 0 0 1-12.9 12.9z" fill="#faa61a"/><circle cx="12.9" cy="100" r="12.9" fill="#57653f"/><path d="M84.1 158.3a12.9 12.9 0 0 1-12.9 12.9 70.93 70.93 0 0 0 48.71-19.27 12.9 12.9 0 1 0-17.66-18.82 45.22 45.22 0 0 1-31.05 12.28 12.9 12.9 0 0 1 12.9 12.91z" fill="#ed125f"/><circle cx="71.2" cy="158.3" r="12.9" fill="#ed1c24"/><path d="M84.1 41.7a12.9 12.9 0 0 1-12.9 12.9 45.17 45.17 0 0 1 31.47 12.68 12.9 12.9 0 0 0 17.89-18.59A70.86 70.86 0 0 0 71.2 28.8a12.9 12.9 0 0 1 12.9 12.9z" fill="#72bf44"/><circle cx="71.2" cy="41.7" r="12.9" fill="#107c47"/></svg>