<svg data-name="Layer 1" xmlns="http://www.w3.org/2000/svg" width="140.03" height="200" viewBox="0 0 140.03 200"><title>_</title><path d="M106.25 100c0-25-16.55-43.22-39.35-43.22H29.45v86.44H66.9c22.8 0 39.35-18.22 39.35-43.22z" fill="none"/><path d="M16.55 143.22h12.9V56.78h-12.9a12.9 12.9 0 0 1-12.9-12.9v112.24a12.9 12.9 0 0 1 12.9-12.9z" fill="#2584c5"/><path d="M29.45 43.88v12.9H66.9a12.9 12.9 0 0 1 0-25.8H16.55a12.9 12.9 0 0 1 12.9 12.9zM67.38 31z" fill="#ed125f"/><path d="M16.55 56.78h12.9v-12.9a12.9 12.9 0 1 0-12.9 12.9z" fill="#5f3267"/><path d="M54 156.12a12.9 12.9 0 0 1 12.9-12.9H29.45v12.9A12.9 12.9 0 0 1 16.55 169H66.9A12.9 12.9 0 0 1 54 156.12zM67.36 169z" fill="#72bf44"/><path d="M16.55 169a12.9 12.9 0 0 0 12.9-12.9v-12.9h-12.9a12.9 12.9 0 1 0 0 25.8z" fill="#107c47"/><path d="M80.28 43.88a12.9 12.9 0 0 1-12.9 12.9h-.48c22.8 0 39.35 18.18 39.35 43.22a12.9 12.9 0 0 1 25.8 0c0-39-27.58-68.57-64.31-69a12.9 12.9 0 0 1 12.54 12.88z" fill="#f37021"/><path d="M54 43.88a12.9 12.9 0 0 0 12.9 12.9h.48A12.9 12.9 0 0 0 67.75 31h-.85A12.9 12.9 0 0 0 54 43.88z" fill="#ed1c24"/><path d="M119.15 112.9a12.9 12.9 0 0 1-12.9-12.9c0 25-16.55 43.22-39.35 43.22h.46a12.9 12.9 0 0 1 .35 25.8c36.74-.43 64.34-30 64.34-69a12.9 12.9 0 0 1-12.9 12.88z" fill="#faa61a"/><path d="M80.26 156.12a12.9 12.9 0 0 0-12.9-12.9h-.46a12.9 12.9 0 0 0 0 25.8h.81a12.9 12.9 0 0 0 12.55-12.9z" fill="#7e883f"/><circle cx="119.15" cy="100" r="12.9" fill="#f15623"/></svg>