<svg data-name="Layer 1" xmlns="http://www.w3.org/2000/svg" width="138.08" height="200" viewBox="0 0 138.08 200"><title>_</title><path d="M14.05 87.1A12.9 12.9 0 0 1 27 100a45.44 45.44 0 0 1 45.35-45.39 12.9 12.9 0 0 1 0-25.8A71.28 71.28 0 0 0 1.15 100a12.9 12.9 0 0 1 12.9-12.9z" fill="#2584c5"/><path d="M72.35 171.2a12.9 12.9 0 1 1 0-25.8A45.45 45.45 0 0 1 27 100a12.9 12.9 0 1 1-25.8 0 71.28 71.28 0 0 0 71.15 71.2z" fill="#faa61a"/><circle cx="14.05" cy="100" r="12.9" fill="#57653f"/><path d="M125.23 147.95a12.91 12.91 0 0 1-1.64 2.64 12.81 12.81 0 0 0 1.64-2.64zM85.25 158.3a12.9 12.9 0 0 1-12.9 12.9c18.41 0 37.05-7.17 49.91-19.18a12.9 12.9 0 0 1-21.64-9.49v-6.06a49.2 49.2 0 0 1-28.27 8.94 12.9 12.9 0 0 1 12.9 12.89z" fill="#ed125f"/><circle cx="72.35" cy="158.3" r="12.9" fill="#ed1c24"/><path d="M85.25 41.7a12.9 12.9 0 0 1-12.9 12.9 45.17 45.17 0 0 1 31.47 12.68 12.9 12.9 0 0 0 17.89-18.59A70.86 70.86 0 0 0 72.35 28.8a12.9 12.9 0 0 1 12.9 12.9z" fill="#72bf44"/><circle cx="72.35" cy="41.7" r="12.9" fill="#107c47"/><path d="M113.51 129.62a12.89 12.89 0 0 1 12.9 13V101.15a12.9 12.9 0 0 1-12.9 12.9h-12.9v22.4a40.64 40.64 0 0 0 4.07-3.34 12.85 12.85 0 0 1 8.83-3.49zM126.35 143.75v.35c-.02-.1-.01-.23 0-.35zM126.12 145.28c0 .09 0 .17-.07.26.03-.09.05-.17.07-.26zM125.79 146.48l-.12.36z" fill="#8e53a1"/><path d="M113.52 155.42a12.85 12.85 0 0 0 8.74-3.41l.09-.09.47-.47v-.05q.35-.38.68-.78a12.91 12.91 0 0 0 1.64-2.64c.17-.36.31-.74.45-1.11l.12-.36q.15-.46.26-.94c0-.09 0-.17.07-.26.08-.39.15-.78.2-1.17v-.35c0-.37.06-.74.06-1.11a12.9 12.9 0 0 0-21.72-9.53 40.64 40.64 0 0 1-4.07 3.34v6.06a12.9 12.9 0 0 0 13.01 12.87z" fill="#942c65"/><path d="M113.52 88.25H67.58a12.9 12.9 0 1 0 0 25.8h33v-12.9a12.9 12.9 0 0 1 12.94-12.9z" fill="#f37021"/><path d="M126.42 101.15a12.9 12.9 0 1 0-25.8 0v12.9h12.9a12.9 12.9 0 0 0 12.9-12.9z" fill="#963b34"/></svg>