<svg data-name="Layer 1" xmlns="http://www.w3.org/2000/svg" width="124.78" height="200" viewBox="0 0 124.78 200"><title>_</title><path d="M0 100v56.12a12.9 12.9 0 0 0 25.8 0V112.9H12.9A12.9 12.9 0 0 1 0 100zM0 100a12.9 12.9 0 0 1 12.9-12.9h12.9V43.88a12.9 12.9 0 1 0-25.8 0V100z" fill="#72bf44"/><path d="M116.3 100V43.88a12.9 12.9 0 1 0-25.8 0V87.1h12.9a12.9 12.9 0 0 1 12.9 12.9zM103.39 112.9h-12.9v43.22a12.9 12.9 0 0 0 25.8 0V100a12.9 12.9 0 0 1-12.9 12.9z" fill="#2584c5"/><path fill="#ed125f" d="M25.8 87.1h64.69v25.8H25.8z"/><path d="M0 100a12.9 12.9 0 0 0 12.9 12.9h12.9V87.1H12.9A12.9 12.9 0 0 0 0 100z" fill="#853135"/><path d="M103.39 112.9a12.9 12.9 0 0 0 0-25.8h-12.9v25.8h12.9z" fill="#5f3267"/></svg>