<svg data-name="Layer 1" xmlns="http://www.w3.org/2000/svg" width="107.54" height="200" viewBox="0 0 107.54 200"><title>_</title><path d="M82.2 108.39a12.9 12.9 0 0 1 12.9 12.9V42.8a12.9 12.9 0 0 0-25.8 0v78.48a12.9 12.9 0 0 1 12.9-12.89z" fill="#2584c5"/><path d="M22.36 133.18a12.9 12.9 0 1 0-18.92 17.54c11.92 12.86 25 19.38 38.75 19.38a13 13 0 0 0 2.58-.26 12.9 12.9 0 0 1 0-25.29 13 13 0 0 0-2.58-.26c-6.41.01-12.89-3.63-19.83-11.11z" fill="#72bf44"/><path d="M55.09 157.2a12.91 12.91 0 0 1-10.32 12.64 13 13 0 0 0 2.58.26c29.46 0 47.76-18.7 47.76-48.81a12.9 12.9 0 1 1-25.8 0c0 15.91-6.77 23-22 23a13 13 0 0 0-2.58.26 12.91 12.91 0 0 1 10.36 12.65z" fill="#faa61a"/><circle cx="82.2" cy="121.29" r="12.9" fill="#57653f"/><path d="M34.45 157.2a12.9 12.9 0 0 0 10.32 12.64 12.9 12.9 0 0 0 0-25.29 12.91 12.91 0 0 0-10.32 12.65z" fill="#7e883f"/></svg>