<svg data-name="Layer 1" xmlns="http://www.w3.org/2000/svg" width="122.73" height="200" viewBox="0 0 122.73 200"><title>_</title><path d="M12.9 138.89A12.9 12.9 0 0 1 0 126v30.08a12.9 12.9 0 0 0 25.8 0V131.2l-3.61 3.75a12.87 12.87 0 0 1-9.29 3.94zM12.9 31A12.9 12.9 0 0 0 0 43.88v82A12.86 12.86 0 0 1 3.61 117L25.8 94V43.88A12.9 12.9 0 0 0 12.9 31z" fill="#72bf44"/><path d="M45.77 110.49L36.59 99.3a12.9 12.9 0 1 1 19.94-16.37l7.27 8.86 37.56-39a12.9 12.9 0 1 0-18.57-17.87L25.8 94v37.2z" fill="#2584c5"/><path d="M0 125.93v.07a12.9 12.9 0 0 0 22.19 8.9l3.61-3.75V94L3.61 117A12.86 12.86 0 0 0 0 125.93z" fill="#107c47"/><path d="M89.94 164.31a12.9 12.9 0 1 0 19.95-16.37L63.8 91.79l-18 18.7z" fill="#faa61a"/><path d="M46.55 78.21a12.9 12.9 0 0 0-10 21.09l9.18 11.19 18-18.7-7.27-8.86a12.87 12.87 0 0 0-9.91-4.72z" fill="#57653f"/></svg>