<svg data-name="Layer 1" xmlns="http://www.w3.org/2000/svg" width="146.03" height="200" viewBox="0 0 146.03 200"><title>_</title><path d="M61.91 129.53a12.89 12.89 0 0 1-1.18-.62 12.82 12.82 0 0 0 1.18.62zM4.87 33.78A12.83 12.83 0 0 0 1.42 38a13 13 0 0 1 3.45-4.22zM77.48 125.7a13 13 0 0 1-1.12 1.3 12.79 12.79 0 0 0 1.12-1.3zM67.3 130.7a12.84 12.84 0 0 0 5.29-1.14 13 13 0 0 1-5.3 1.14zM22.65 35.43a12.82 12.82 0 0 0-4.14-3.17 13 13 0 0 1 4.14 3.17zM25.8 83.19l30.91 42A12.91 12.91 0 0 1 57 110l10.47-13.72L23.41 36.4a12.84 12.84 0 0 1 2.39 7.48v39.31zM13.93 31h-1a12.9 12.9 0 0 0-2.3.21A13 13 0 0 1 12.9 31h1.03zM9.48 31.44c.24-.07.48-.11.73-.17-.21.05-.49.1-.73.17zM60.49 128.76c-.3-.19-.6-.39-.89-.6q.4.32.89.6zM59.36 128a13 13 0 0 1-1.28-1.13 12.78 12.78 0 0 0 1.28 1.13z" fill="#faa61a"/><path d="M73.75 129c-.37.21-.74.41-1.12.58.37-.21.75-.4 1.12-.58zM67.28 130.7a13 13 0 0 1-5.38-1.17 12.84 12.84 0 0 0 5.38 1.17zM125.87 31.18a12.9 12.9 0 0 0-2.26-.2h-1 1a13 13 0 0 1 2.26.2zM77.73 125.38l33-43.27V43.88a12.84 12.84 0 0 1 2.52-7.66L67.47 96.28l10.21 13.88a12.91 12.91 0 0 1 .05 15.22zM58.08 126.84a13 13 0 0 1-1.08-1.31 12.78 12.78 0 0 0 1.08 1.31zM118.14 32.18a12.82 12.82 0 0 0-4.2 3.13 12.94 12.94 0 0 1 4.2-3.13zM74.82 128.27zM76.36 127a13 13 0 0 1-1.36 1.1 12.78 12.78 0 0 0 1.36-1.1zM132.86 34.9a12.93 12.93 0 0 1 2.35 3.35 12.81 12.81 0 0 0-2.35-3.35zM126.25 31.26c.24 0 .47.1.71.16-.23-.06-.47-.11-.71-.16z" fill="#2584c5"/><path d="M56.71 125.2l.18.25.11.08a11.85 11.85 0 0 0 2.36 2.47l.11.1.13.09c.29.22.59.42.89.6l.24.15a12.9 12.9 0 0 0 11.86.66c.38-.17.75-.37 1.12-.58l.21-.13c.29-.18.58-.37.86-.57l.11-.07.11-.15a11.89 11.89 0 0 0 2.44-2.41l.07-.08.18-.24a12.91 12.91 0 0 0-.05-15.22L67.47 96.28 57 110a12.91 12.91 0 0 0-.29 15.2z" fill="#57653f"/><path d="M118.14 32.18a13 13 0 0 1 4.43-1.18 12.82 12.82 0 0 0-4.43 1.18zM135.2 38.25a13 13 0 0 1 1.27 4.82 12.83 12.83 0 0 0-1.27-4.82zM130 32.68l.37.22zM110.69 82.11v74a12.9 12.9 0 1 0 25.8 0V44a12.84 12.84 0 0 1-2.64 7.66zM130.83 33.21l.37.26zM129.12 32.22l.32.16z" fill="#72bf44"/><path d="M110.69 82.11l23.17-30.41a12.84 12.84 0 0 0 2.63-7.7v-.12-.81a12.91 12.91 0 0 0-4.63-9.07l-.45-.35-.21-.15-.37-.26-.47-.3-.36-.26-.55-.29-.32-.16c-.3-.14-.6-.27-.91-.39h-.11q-.52-.19-1.07-.34c-.23-.06-.47-.11-.71-.16l-.39-.09a13 13 0 0 0-2.27-.2h-1a12.87 12.87 0 0 0-8.63 4.3q-.32.36-.61.74l-.12.16a12.84 12.84 0 0 0-2.52 7.66v38.2z" fill="#107c47"/><path d="M18.46 32.23A12.82 12.82 0 0 0 13.93 31a13 13 0 0 1 4.53 1.23zM.12 42.13A12.94 12.94 0 0 1 1.4 38a12.81 12.81 0 0 0-1.28 4.13zM5.37 33.42a13 13 0 0 1 1.29-.82 13 13 0 0 0-1.29.82zM0 44v112.12a12.9 12.9 0 1 0 25.8 0V83.19L2.51 51.53A12.84 12.84 0 0 1 0 44zM6.85 32.49a12.85 12.85 0 0 1 1.42-.66 12.81 12.81 0 0 0-1.42.66z" fill="#ed125f"/><path d="M12.9 31a13 13 0 0 0-2.31.21l-.38.09c-.24.05-.49.1-.73.17s-.73.22-1.09.35H8.27a12.85 12.85 0 0 0-1.42.66l-.2.1a13 13 0 0 0-1.29.82l-.11.07-.39.3A13 13 0 0 0 1.42 38 13 13 0 0 0 0 43.56V44a12.84 12.84 0 0 0 2.51 7.56L25.8 83.19V43.88a12.84 12.84 0 0 0-2.39-7.48l-.12-.16q-.29-.4-.61-.77a13 13 0 0 0-4.14-3.17 13 13 0 0 0-4.61-1.3H12.9z" fill="#ed1c24"/></svg>