<svg data-name="Layer 1" xmlns="http://www.w3.org/2000/svg" width="132.05" height="200" viewBox="0 0 132.05 200"><title>_</title><path d="M119.34 162.46l-.18.31zM117.67 164.78l-.22.24zM18.6 32.3a12.92 12.92 0 0 1 2.86 1.93 12.81 12.81 0 0 0-2.86-1.93zM116.46 166l.08-.07-.26.21zM118.5 163.77l-.16.2zM1.76 37.36a12.92 12.92 0 0 1 .73-1.11 12.78 12.78 0 0 0-.73 1.11zM25.8 79l72.44 85.4a12.85 12.85 0 0 1-3-8.31V121L22.81 35.62a12.85 12.85 0 0 1 3 8.26V79zM1.14 38.57a12.89 12.89 0 0 1 .62-1.2 12.89 12.89 0 0 0-.62 1.2zM2.51 36.23a13 13 0 0 1 .82-1 12.82 12.82 0 0 0-.82 1zM107 169q.57.05 1.14.05-.6-.05-1.14-.05zM100.4 166.46c-.33-.25-.65-.5-1-.78.35.32.67.53 1 .78zM109.55 168.93h-.4zM115.69 166.55l-.3.21zM101.66 167.29a12.92 12.92 0 0 1-1.1-.71 12.79 12.79 0 0 0 1.1.71zM110.6 168.77l-.41.08zM103.08 168a12.86 12.86 0 0 1-1.3-.64 12.81 12.81 0 0 0 1.3.64zM114.73 167.19l-.24.15zM113.58 167.81l-.27.12zM112.61 168.21l-.37.13zM111.62 168.53l-.4.11z" fill="#faa61a"/><path d="M121 156V43.88a12.9 12.9 0 1 0-25.8 0V121l22.74 26.81A12.85 12.85 0 0 1 121 156zM120.89 157.91a12.91 12.91 0 0 1-1 3.45 12.81 12.81 0 0 0 1-3.45zM106.92 169a12.93 12.93 0 0 1-3.81-1 12.82 12.82 0 0 0 3.81 1z" fill="#72bf44"/><path d="M98.24 164.43l.11.13a13 13 0 0 0 1 1c.3.28.63.53 1 .78l.16.13a12.92 12.92 0 0 0 1.1.71l.12.07a12.86 12.86 0 0 0 1.3.64 12.93 12.93 0 0 0 3.81 1H109.56l.64-.08.41-.08.62-.13.4-.11.62-.19.37-.13.69-.28.27-.12q.47-.22.91-.47l.24-.15c.22-.13.44-.27.66-.42l.3-.21.59-.45.26-.21q.48-.41.91-.87l.22-.24q.36-.39.68-.82l.16-.2c.24-.32.45-.66.66-1l.18-.31c.2-.36.39-.72.56-1.1a12.91 12.91 0 0 0 1-3.45q.08-.59.11-1.19V156a12.85 12.85 0 0 0-3.06-8.24L95.21 121v35.15a12.85 12.85 0 0 0 3.03 8.28z" fill="#7e883f"/><path d="M14.38 31.06c.4 0 .8.12 1.19.2-.4-.08-.79-.15-1.19-.2zM10 31.32l.6-.13zM.12 42.1a12.93 12.93 0 0 1 1-3.53 12.82 12.82 0 0 0-1 3.53zM15.82 31.31a13 13 0 0 1 1.27.37 12.73 12.73 0 0 0-1.27-.37zM17.24 31.73a12.89 12.89 0 0 1 1.36.58 12.84 12.84 0 0 0-1.36-.58zM5.11 33.62l.39-.3zM8.86 31.63c.23-.08.46-.15.69-.22-.23.07-.46.15-.69.22zM7.55 32.14q.49-.22 1-.4-.55.18-1 .4zM13.31 31h-.4zM0 44v112.12a12.9 12.9 0 0 0 25.8 0V79L3.06 52.23A12.85 12.85 0 0 1 0 44z" fill="#ed125f"/><path d="M0 44a12.85 12.85 0 0 0 3.06 8.24L25.8 79V43.88a12.85 12.85 0 0 0-3-8.26l-.07-.08-.37-.41v-.05q-.39-.42-.83-.8a12.79 12.79 0 0 0-4.22-2.5h-.14a13 13 0 0 0-1.27-.37h-.26c-.39-.08-.79-.16-1.19-.2s-.79-.21-1.14-.21h-1.66q-.53.05-1.06.15l-.6.13-.44.1c-.23.06-.46.14-.69.22l-.32.1q-.5.18-1 .4H7a12.88 12.88 0 0 0-1.09.69l-.39.3c-.18.14-.37.27-.55.43l-.18.16a12.85 12.85 0 0 0-1.77 2 12.92 12.92 0 0 0-.73 1.11A12.8 12.8 0 0 0 .12 42.1Q0 42.71 0 43.32V44z" fill="#ed1c24"/></svg>