<svg data-name="Layer 1" xmlns="http://www.w3.org/2000/svg" width="155.66" height="200" viewBox="0 0 155.66 200"><title>_</title><path d="M120.39 100a47.29 47.29 0 1 0-47.29 47.29A47.35 47.35 0 0 0 120.39 100z" fill="none"/><path d="M12.9 87.1A12.9 12.9 0 0 1 25.8 100a47.35 47.35 0 0 1 47.29-47.29 12.9 12.9 0 0 1 0-25.8A73.18 73.18 0 0 0 0 100a12.9 12.9 0 0 1 12.9-12.9z" fill="#ed125f"/><path d="M73.09 173.09a12.9 12.9 0 0 1 0-25.8A47.34 47.34 0 0 1 25.8 100 12.9 12.9 0 1 1 0 100a73.18 73.18 0 0 0 73.09 73.09z" fill="#2584c5"/><circle cx="12.9" cy="100" r="12.9" fill="#5f3267"/><path d="M133.29 112.9a12.9 12.9 0 0 1-12.9-12.9 47.34 47.34 0 0 1-47.29 47.29 12.9 12.9 0 0 1 0 25.8A73.18 73.18 0 0 0 146.19 100a12.9 12.9 0 0 1-12.9 12.9z" fill="#faa61a"/><circle cx="73.09" cy="160.19" r="12.9" fill="#57653f"/><path d="M86 39.81a12.9 12.9 0 0 1-12.9 12.9A47.35 47.35 0 0 1 120.39 100a12.9 12.9 0 1 1 25.8 0 73.18 73.18 0 0 0-73.1-73.09A12.9 12.9 0 0 1 86 39.81z" fill="#72bf44"/><circle cx="73.09" cy="39.81" r="12.9" fill="#853135"/><circle cx="133.29" cy="100" r="12.9" fill="#7e883f"/></svg>