<svg data-name="Layer 1" xmlns="http://www.w3.org/2000/svg" width="116.55" height="200" viewBox="0 0 116.55 200"><title>_</title><path d="M25.8 103.05h33.39a23.14 23.14 0 1 0 0-46.27H25.8v46.27z" fill="none"/><path d="M12.9 103.05h12.9V56.78H12.9A12.9 12.9 0 0 1 0 43.88V116a12.9 12.9 0 0 1 12.9-12.95zM0 116v40.17a12.9 12.9 0 0 0 25.8 0v-27.32H12.9A12.9 12.9 0 0 1 0 116z" fill="#ed125f"/><path d="M59.19 31a12.9 12.9 0 1 1 0 25.8 23.14 23.14 0 1 1 0 46.27 12.9 12.9 0 1 1 0 25.8 48.94 48.94 0 0 0 0-97.87z" fill="#2584c5"/><path d="M46.28 116a12.9 12.9 0 0 1 12.9-12.9H25.8v25.8h33.39A12.9 12.9 0 0 1 46.28 116z" fill="#72bf44"/><path d="M12.9 103.05a12.9 12.9 0 0 0 0 25.8h12.9v-25.8H12.9z" fill="#853135"/><circle cx="59.19" cy="115.95" r="12.9" fill="#107c47"/><path d="M25.8 43.88v12.9h33.39a12.9 12.9 0 0 1 0-25.8H12.9a12.9 12.9 0 0 1 12.9 12.9z" fill="#faa61a"/><path d="M12.9 56.78h12.9v-12.9a12.9 12.9 0 1 0-12.9 12.9z" fill="#ed1c24"/><circle cx="59.19" cy="43.88" r="12.9" fill="#57653f"/></svg>