<svg data-name="Layer 1" xmlns="http://www.w3.org/2000/svg" width="159.64" height="200" viewBox="0 0 159.64 200"><title>_</title><path d="M39.65 66.54a47.3 47.3 0 0 0 52.88 76.56L72.4 123a12.9 12.9 0 1 1 18.25-18.25l21.68 21.68a47.3 47.3 0 0 0-72.68-59.89z" fill="none"/><path d="M81.52 101a12.9 12.9 0 0 0-9.12 22l20.13 20.1a47.41 47.41 0 0 0 19.8-16.69l-21.68-21.68a12.86 12.86 0 0 0-9.13-3.73zM111.58 162.16l5.14 5.14A12.9 12.9 0 1 0 135 149.05l-4.18-4.18a74.27 74.27 0 0 1-19.24 17.29z" fill="#faa61a"/><path d="M39.65 48.3a12.9 12.9 0 0 1 0 18.24 47.35 47.35 0 0 1 66.88 0 12.9 12.9 0 0 1 18.25-18.24 73.18 73.18 0 0 0-103.37 0 12.9 12.9 0 0 1 18.24 0z" fill="#ed125f"/><path d="M21.41 133.42a12.9 12.9 0 0 1 18.24 0 47.29 47.29 0 0 1 0-66.88A12.9 12.9 0 1 1 21.41 48.3a73.1 73.1 0 0 0 0 103.37 12.9 12.9 0 0 1 0-18.25z" fill="#2584c5"/><path d="M21.41 66.54a12.9 12.9 0 1 0 0-18.25 12.86 12.86 0 0 0 0 18.25z" fill="#5f3267"/><path d="M73.09 147.25a47.15 47.15 0 0 1-33.44-13.83 12.9 12.9 0 0 1-18.24 18.25 73.17 73.17 0 0 0 90.17 10.49L92.53 143.1a47.42 47.42 0 0 1-19.44 4.15zM124.78 48.3a12.9 12.9 0 1 1-18.25 18.25 47.37 47.37 0 0 1 5.79 59.86l18.47 18.47a73.12 73.12 0 0 0-6.01-96.58z" fill="#72bf44"/><path d="M106.54 133.42a47.07 47.07 0 0 1-14 9.68l19.06 19.06a74.27 74.27 0 0 0 19.21-17.28l-18.47-18.47a47.35 47.35 0 0 1-5.8 7.01z" fill="#7e883f"/><path d="M106.54 48.3a12.9 12.9 0 1 0 9.12-3.78 12.9 12.9 0 0 0-9.12 3.78z" fill="#853135"/><path d="M39.65 151.67a12.9 12.9 0 1 0-9.12 3.78 12.9 12.9 0 0 0 9.12-3.78z" fill="#107c47"/></svg>