<svg data-name="Layer 1" xmlns="http://www.w3.org/2000/svg" width="124.78" height="200" viewBox="0 0 124.78 200"><title>_</title><path d="M26.73 96.6h41.13a19.91 19.91 0 0 0 0-39.82H26.73V96.6z" fill="none"/><path d="M13.83 96.6h12.9V56.78h-12.9a12.9 12.9 0 0 1-12.9-12.9v65.62a12.9 12.9 0 0 1 12.9-12.9zM.93 109.5v46.62a12.9 12.9 0 1 0 25.8 0V122.4h-12.9a12.9 12.9 0 0 1-12.9-12.9z" fill="#ed125f"/><path d="M54.42 117.39l-.22-.31c-.12-.16-.24-.32-.35-.49s-.16-.26-.24-.39-.2-.32-.29-.48-.17-.33-.25-.5-.14-.27-.21-.41q-.21-.47-.38-.95v-.05c-.13-.37-.23-.74-.33-1.12 0-.13-.06-.26-.08-.4s-.1-.49-.14-.75 0-.32-.06-.48 0-.45-.06-.68 0-.34 0-.51v-.27-.73a12.87 12.87 0 0 1 4.37-9q.3-.27.62-.51l.19-.13.41-.29.58-.38.42-.25.6-.41.37-.18c.36-.16.72-.31 1.08-.43h.06q.47-.15 1-.27h.05c.31-.07.61-.13.92-.18h.18c.27 0 .54-.07.82-.1h.91-37.66v25.8H58.3l-3.79-4.9z" fill="#f37021"/><path d="M13.83 96.6a12.9 12.9 0 0 0 0 25.8h12.9V96.6h-12.9z" fill="#ed1c24"/><path d="M26.73 43.88v12.9h41.13a12.9 12.9 0 1 1 0-25.8h-54a12.9 12.9 0 0 1 12.87 12.9z" fill="#faa61a"/><path d="M13.83 56.78h12.9v-12.9a12.9 12.9 0 1 0-12.9 12.9z" fill="#ed1c24"/><path d="M64.48 96.6z" fill="#72bf44"/><path d="M52.11 112.59c0-.13-.06-.27-.08-.4.02.14.05.27.08.4zM51.88 111.45c0-.16 0-.32-.06-.48l.06.48zM62.75 96.74c.27 0 .54-.07.82-.1-.27.03-.57.06-.82.1zM64.48 96.6h-.66.81-.15zM61.66 96.95c.3-.07.61-.13.92-.18-.31.04-.58.11-.92.18zM56.12 99.81a12.83 12.83 0 0 0-3.07 4 13 13 0 0 1 3.07-4zM60.65 97.23q.47-.15 1-.27-.53.11-1 .27zM51.76 110.29v-.51c-.01.17-.01.34 0 .51z" fill="#83613a"/><path d="M64.63 122.4H58.3L90.46 164a12.9 12.9 0 0 0 20.41-15.78L87.49 118a45.44 45.44 0 0 1-19.63 4.43h-3.23z" fill="#72bf44"/><path d="M54.51 117.5l3.79 4.9h6.33a12.88 12.88 0 0 1-10.12-4.9z" fill="#83613a"/><path d="M113.57 76.69A45.76 45.76 0 0 0 67.86 31a12.9 12.9 0 1 1 0 25.8 19.91 19.91 0 0 1 0 39.82h-3.1H65.36a12.87 12.87 0 0 1 8.93 4.38q.28.32.55.66l.1.13L87.49 118a45.77 45.77 0 0 0 26.08-41.31z" fill="#2584c5"/><path d="M65.36 96.62a12.94 12.94 0 0 1 5 1.32 12.83 12.83 0 0 0-5-1.32z" fill="#5d4e3b"/><circle cx="67.86" cy="43.88" r="12.9" fill="#57653f"/><path d="M57.92 98.49l.42-.25zM54.21 117.09c-.12-.16-.24-.33-.35-.49.14.16.23.32.35.49zM53.07 115.22c-.07-.14-.14-.27-.21-.41.07.13.14.27.21.41zM53.61 116.2c-.1-.16-.2-.32-.29-.48.1.16.2.28.29.48zM51.75 108.77a12.94 12.94 0 0 1 1.3-5 12.82 12.82 0 0 0-1.3 5zM56.93 99.16l.41-.29zM59 97.9l.37-.18z" fill="#5d4e3b"/><path d="M65.29 96.62h-.66zM74.29 101a12.82 12.82 0 0 0-3.93-3 12.94 12.94 0 0 1 3.93 3zM77.53 109.5a12.9 12.9 0 0 1-12.9 12.9h3.22a45.44 45.44 0 0 0 19.64-4.4l-12.55-16.26a12.85 12.85 0 0 1 2.59 7.76z" fill="#107c47"/><path d="M63.83 96.63h-.26c-.28 0-.55.06-.82.1h-.18c-.31 0-.62.11-.92.18h-.05q-.48.12-1 .27h-.08c-.37.13-.73.27-1.08.43l-.44.29-.67.35-.42.25-.58.38-.41.29-.19.13q-.32.25-.62.51a12.87 12.87 0 0 0-4.37 9v1.51c0 .17 0 .46.06.68s0 .32.06.48.09.5.14.75.05.27.08.4c.09.38.2.75.33 1.12v.05q.17.48.38.95c.06.14.14.28.21.41s.16.34.25.5.19.32.29.48.16.27.24.39.23.33.35.49l.22.31.08.11a12.9 12.9 0 0 0 20.43-15.76l-.1-.13q-.26-.34-.55-.66a12.87 12.87 0 0 0-8.94-4.33h.02-.66c-.27.04-.54.06-.8.07z" fill="#404d3d"/></svg>