<svg data-name="Layer 1" xmlns="http://www.w3.org/2000/svg" width="122.59" height="200" viewBox="0 0 122.59 200"><title>_</title><path d="M98.9 117.39a12.9 12.9 0 0 1 12.9 12.9c0-8.92-3-21.58-17.48-31.31C86 93.39 74.83 89.25 59.15 86h.07A12.9 12.9 0 0 1 54 111.25c32 6.71 32 15.66 32 19a12.9 12.9 0 0 1 12.9-12.86z" fill="#72bf44"/><path d="M47.06 159.21a12.89 12.89 0 0 1 12.84-12.57h.38c-15.68-.4-26.79-6.33-36.48-12.68a12.9 12.9 0 1 0-14.14 21.58c12.25 8 27.77 16.33 50 16.9a12.9 12.9 0 0 1-12.6-13.23z" fill="#faa61a"/><path d="M61.81 146.66h-1.52a12.9 12.9 0 0 1-.32 25.8h-.35 2.18c20 0 31.66-7.23 38-13.42a39.78 39.78 0 0 0 12-28.76 12.9 12.9 0 0 1-25.8 0 14.07 14.07 0 0 1-4.19 10.28c-4.11 4.01-10.99 6.1-20 6.1z" fill="#2584c5"/><circle cx="98.9" cy="130.29" r="12.9" fill="#107c47"/><path d="M72.85 159.87a12.9 12.9 0 0 0-12.57-13.23h-.38a12.9 12.9 0 0 0-.28 25.8H60a12.9 12.9 0 0 0 12.85-12.57z" fill="#57653f"/><path d="M43.85 96a12.88 12.88 0 0 1 15.27-10c-25.3-5.5-25.11-13.37-25-16 .21-8.69 3.19-11.4 4.17-12.29 3.2-2.91 9-4.4 17-4.4q2.53 0 5.34.2a12.9 12.9 0 0 1 .92-25.77h.95q-3.63-.26-7-.26c-14.84 0-26.44 3.72-34.56 11.1S8.63 56.29 8.31 69.39c-.22 9 2.66 21.82 17.64 31.42 7 4.51 15.87 7.81 27.81 10.4h.21-.11A12.9 12.9 0 0 1 43.85 96z" fill="#2584c5"/><path d="M69.09 101.34A12.9 12.9 0 0 0 59.22 86h-.07a12.9 12.9 0 1 0-5.27 25.26h.11a12.89 12.89 0 0 0 15.1-9.92z" fill="#107c47"/><path d="M74.46 41.59a12.9 12.9 0 0 1-12.86 12h-.93c6.77.41 15.47 3.41 25.84 8.76a12.9 12.9 0 1 0 11.85-22.92C84.68 32.35 73 28.54 62.51 27.79a12.9 12.9 0 0 1 11.95 13.8z" fill="#ed125f"/><path d="M48.72 39.74a12.9 12.9 0 0 0 11.93 13.79h.93a12.9 12.9 0 0 0 .91-25.77h-.95a12.89 12.89 0 0 0-12.82 11.98z" fill="#5f3267"/></svg>