<svg data-name="Layer 1" xmlns="http://www.w3.org/2000/svg" width="139.83" height="200" viewBox="0 0 139.83 200"><title>_</title><path d="M61.83 167.47l-.5-.27zM67.94 169a12.81 12.81 0 0 0 3.59-.51 12.92 12.92 0 0 1-3.6.51zM59.14 165.57q-.4-.37-.77-.78.37.41.77.78zM4.17 49.31l52 112.14a12.87 12.87 0 0 1 0-10.75l11.7-25.23-40.35-87A12.9 12.9 0 1 0 4.17 49.31z" fill="#faa61a"/><path d="M76.55 165.71l-.36.31zM77.3 165l-.33.33zM79.62 161.59l52.07-112.28a12.9 12.9 0 1 0-23.41-10.86l-40.36 87 11.7 25.23a12.87 12.87 0 0 1 0 10.91zM78 164.2l-.29.34zM56.77 162.58a7.5 7.5 0 0 1-.25-.49c.08.17.15.34.25.49zM78.61 163.36l-.23.32zM74.9 167l-.43.27zM74 167.49l-.47.24zM67.92 169a12.92 12.92 0 0 1-3.75-.56 12.81 12.81 0 0 0 3.75.56zM75.75 166.38l-.39.29z" fill="#2584c5"/><path d="M56.18 161.44v.11c.09.19.19.37.29.55s.16.33.25.49q.3.53.65 1l.06.08.08.1q.33.43.7.84t.77.78l.06.05.1.09h.05l.11.09.16.13h.05l.12.09h.06a12.92 12.92 0 0 0 1.33.9l.5.27c.22.12.44.25.67.36l.81.63q.58.24 1.19.42a12.83 12.83 0 0 0 7.34 0q.58-.17 1.14-.39h.08l.61-.26.18-.09.47-.24.46-.26.43-.18.46-.3.39-.29.44-.35.36-.31.42-.4.33-.35.39-.44.31-.36c.14-.17.26-.35.39-.52l.23-.32c.2-.29.38-.59.55-.89v-.67a12.87 12.87 0 0 0 0-10.9l-11.7-25.23-11.7 25.23a12.87 12.87 0 0 0 .41 10.54z" fill="#57653f"/></svg>