<svg data-name="Layer 1" xmlns="http://www.w3.org/2000/svg" width="200" height="200" viewBox="0 0 200 200"><title>_</title><path d="M45 163.94a12.9 12.9 0 0 1-1-1.59 12.8 12.8 0 0 0 1 1.59zM63.08 166.39zM61.93 167.17c-.28.17-.57.34-.86.48.29-.15.58-.31.86-.48zM45.66 164.72L45 164q.34.36.66.72zM51.55 168.47a13 13 0 0 1-1.31-.48 12.93 12.93 0 0 0 1.31.48zM53.66 168.92a12.79 12.79 0 0 0 4.75-.28 12.86 12.86 0 0 1-4.75.28zM64.17 165.48q-.46.44-1 .83.54-.4 1-.83zM43.45 151l13-29.78L27 39.51a12.9 12.9 0 1 0-24.31 8.74L43.1 160.38a12.86 12.86 0 0 1 .35-9.38z" fill="#faa61a"/><path d="M92.23 38.87L56.41 121.2l11 30.55a12.85 12.85 0 0 1-.39 9.68l.08-.16L103 78.8 92 48.25a12.85 12.85 0 0 1 .23-9.38zM66.6 162.29l-.12.23zM53.53 168.91q-.49-.07-1-.17.47.1 1 .17zM46.49 165.57q-.42-.39-.8-.81.38.42.8.81zM93.62 36.39q.36-.5.76-1-.38.49-.76 1zM47.36 166.31c-.27-.21-.54-.44-.8-.68.26.23.52.46.8.68zM104.43 31q.63 0 1.25.09c-.42-.09-.83-.09-1.25-.09zM65.18 164.39l-.24.28zM48.28 167c-.3-.19-.59-.4-.87-.62.28.18.59.38.87.62zM106 31.12c.32 0 .64.1.95.16-.35-.07-.67-.11-.95-.16zM107.34 31.4c.26.07.52.13.78.22-.26-.09-.52-.15-.78-.22zM109.27 32c-.18-.08-.37-.14-.55-.21.19.07.39.14.58.22zM65.89 163.46l-.2.28zM110.05 32.44a12.9 12.9 0 0 1 3.37 2.49 12.84 12.84 0 0 0-3.37-2.49z" fill="#72bf44"/><path d="M67.42 151.75l-11-30.55L43.45 151a12.86 12.86 0 0 0-.35 9.41v.11q.18.49.39 1v.05q.2.44.43.86a12.9 12.9 0 0 0 1 1.59q.29.38.62.75.38.42.8.81l.07.06c.26.24.52.46.8.68h.05c.28.22.57.42.87.62s.64.39 1 .57.58.29.88.42h.1a13 13 0 0 0 1.31.48h.18q.47.14 1 .24t1 .17h.13a12.86 12.86 0 0 0 4.75-.28q.51-.13 1-.3h.24l.15-.06q.59-.23 1.16-.51c.29-.15.58-.31.86-.48l.24-.14c.32-.2.62-.42.92-.64l.12-.08q.5-.39 1-.83c.27-.26.53-.53.77-.81l.24-.28q.26-.32.51-.65l.2-.28q.32-.46.6-.95l.12-.23q.23-.42.43-.86a12.85 12.85 0 0 0 .38-9.69z" fill="#7e883f"/><path d="M99.75 31.74l-.37.16.59-.23zM95.46 34.32c.14-.13.29-.24.44-.36-.15.12-.3.24-.44.36zM133.12 162l-.15-.29zM97.92 32.58l.58-.3zM104.37 31h-.25c-.42 0-.84 0-1.26.07.42 0 .85-.07 1.27-.07h.24zM133.76 163.15l-.12-.2zM132.51 151.56l12.35-32.71-28.59-79.31A12.86 12.86 0 0 1 116 49l-13 29.8 29.45 81.69v.08a12.85 12.85 0 0 1 .06-9.01zM134.69 164.39l-.23-.28zM96.62 33.39l.55-.39zM113.42 34.93q.45.46.84 1a12.8 12.8 0 0 0-.84-1zM100.32 31.56zM115.14 37.19c.17.28.34.56.49.85-.15-.29-.32-.57-.49-.85zM114.35 36c.23.3.45.6.65.91-.2-.29-.42-.59-.65-.91zM101.59 31.24z" fill="#2584c5"/><path d="M116.27 39.54l-.06-.18v-.14q-.23-.6-.52-1.17c-.15-.29-.32-.57-.49-.85l-.2-.26c-.2-.31-.42-.62-.65-.91l-.09-.13q-.39-.5-.84-1a12.9 12.9 0 0 0-3.37-2.49c-.25-.13-.5-.26-.76-.38s-.38-.15-.58-.22-.4-.16-.6-.23-.52-.15-.78-.22l-.42-.11c-.31-.07-.63-.12-.95-.16h-.29q-.61-.09-1.24-.09h-.3c-.43 0-.85 0-1.27.07h-.34c-.31 0-.62.09-.92.15l-.39.09c-.3.07-.59.15-.88.24l-.36.11-.59.23c-.3.12-.59.24-.88.38l-.58.3c-.25.14-.5.29-.75.45l-.55.36c-.25.18-.49.37-.73.57s-.3.23-.44.36a12.8 12.8 0 0 0-1 1.06q-.41.47-.76 1t-.67 1a13.07 13.07 0 0 0-.63 1.25l-.06.13a12.85 12.85 0 0 0-.33 9.5l11 30.55L116 49a12.86 12.86 0 0 0 .27-9.46z" fill="#107c47"/><path d="M153.35 165.59a12.94 12.94 0 0 1-3.66 2.38 12.83 12.83 0 0 0 3.66-2.38zM141.49 168.65c-.24-.06-.47-.15-.71-.22.22.07.46.16.71.22zM144.58 169z" fill="#2584c5"/><path d="M154.46 164.41l-.23.27zM144.58 169zM138.69 167.6c-.34-.17-.66-.37-1-.57.31.2.66.4 1 .57zM148.4 168.43l-.46.14zM137.56 166.95zM136.49 166.18a12.91 12.91 0 0 1-1-.88 12.83 12.83 0 0 0 1 .88zM191.52 31.81a12.89 12.89 0 0 0-16.63 7.51l-30 79.53 11.86 32.89a12.84 12.84 0 0 1-.12 9l.05-.12L199 48.44a12.9 12.9 0 0 0-7.48-16.63zM156.06 162l-.14.26zM155.36 163.19l-.15.24z" fill="#ed125f"/><path d="M156.72 151.75l-11.86-32.89-12.35 32.71a12.85 12.85 0 0 0 0 9q.22.59.49 1.16l.15.29c.16.32.34.63.53.93l.12.2c.22.33.45.65.7 1l.23.28c.26.31.53.62.82.9a12.91 12.91 0 0 0 1 .88h.06c.33.26.66.5 1 .73l.15.09c.32.2.65.4 1 .57a13 13 0 0 0 1.2.54H140.07c.25.09.5.16.76.23s.47.16.71.22a12.87 12.87 0 0 0 1.52.28h1.81a12.85 12.85 0 0 0 1.51-.12h.17a13 13 0 0 0 1.44-.31l.46-.14.55-.17.69-.27a12.94 12.94 0 0 0 3.66-2.38c.31-.29.6-.6.88-.92l.23-.27c.26-.32.52-.64.75-1l.15-.24q.3-.46.56-.94l.14-.26a13 13 0 0 0 .66-10.1z" fill="#5f3267"/></svg>