<svg data-name="Layer 1" xmlns="http://www.w3.org/2000/svg" width="145.08" height="200" viewBox="0 0 145.08 200"><title>_</title><path d="M54.43 115.48v-.34-.55-.4c0-.13 0-.34.06-.52s.05-.32.08-.48 0-.28.08-.43q.1-.45.22-.89.16-.53.36-1.05c.06-.16.14-.31.2-.46s.16-.37.25-.55.2-.37.3-.55.15-.29.24-.43.25-.38.37-.56.14-.23.22-.34l.08-.11 10.44-14.28-41.62-57.25A12.9 12.9 0 1 0 4.84 51.47l49.59 68.21v-4.19z" fill="#faa61a"/><path d="M127 33.44a12.9 12.9 0 0 0-18 2.85L67.33 93.54l10.32 14.19.12.16c.1.13.17.27.26.4s.31.45.45.69.19.37.29.55.23.47.33.67.19.47.28.7.15.37.22.56a12.83 12.83 0 0 1 .36 1.32v.22q.12.62.18 1.27v5.44l49.59-68.21A12.9 12.9 0 0 0 127 33.44z" fill="#72bf44"/><path d="M67.33 102.58a12.88 12.88 0 0 1 10.32 5.16l-10.32-14.2L57 107.79a12.88 12.88 0 0 1 10.33-5.21zM54.72 112.77c0 .14-.05.28-.08.43.03-.15.05-.29.08-.43zM80.17 114.23v.6c.02-.2.02-.4 0-.6zM54.56 113.68c0 .17 0 .34-.06.52.02-.2.03-.35.06-.52zM54.46 114.59v.55a5.03 5.03 0 0 1 0-.55z" fill="#7e883f"/><path d="M77.77 123.07l-.22.28c-.12.15-.23.3-.35.45s-.45.52-.69.76-.51.49-.78.72-.37.29-.55.44l-.25.2q-.44.32-.91.6l-.1.06c-.35.2-.7.39-1.06.56a12.83 12.83 0 0 1-5.47 1.22 12.83 12.83 0 0 1-5.41-1.19 12.83 12.83 0 0 1-2.11-1.25l-.13-.1c-.26-.19-.52-.39-.76-.61s-.56-.51-.82-.78a12.77 12.77 0 0 1-1.16-1.28l-.07-.08-.16-.22-2.31-3.17v36.44a12.9 12.9 0 1 0 25.8 0v-36.45l-2.29 3.14z" fill="#ed125f"/><path d="M77.2 123.8c.12-.15.24-.3.35-.45-.12.15-.23.3-.35.45zM54.43 115.59v4.08l2.31 3.17a12.93 12.93 0 0 1-2.31-7.25zM56.06 109.22c-.1.18-.21.36-.3.55.1-.19.24-.37.3-.55zM58.86 125.21c.25.22.5.41.76.61-.26-.2-.52-.4-.76-.61zM59.76 125.92a12.83 12.83 0 0 0 2.11 1.25 13 13 0 0 1-2.11-1.25zM56.68 108.23a18 18 0 0 0-.37.56c.11-.19.24-.37.37-.56zM55.52 110.32c-.07.15-.14.31-.2.46.06-.15.13-.3.2-.46zM72.81 127.17a13 13 0 0 1-5.48 1.22 12.83 12.83 0 0 0 5.48-1.22z" fill="#ed1c24"/><path d="M80.24 115.48v-.65-.6q-.13-.64-.24-1.23v-.17a12.83 12.83 0 0 0-.36-1.32c-.06-.19-.14-.37-.22-.56s-.17-.47-.28-.7-.22-.44-.34-.66-.18-.37-.29-.55-.29-.46-.45-.69-.17-.27-.26-.4l-.12-.16a12.9 12.9 0 0 0-20.68 0l-.08.11c-.08.11-.15.22-.22.34s-.26.37-.37.56-.16.29-.24.43-.21.36-.3.55-.17.37-.25.55-.14.31-.2.46q-.2.52-.36 1.05-.13.44-.22.89c0 .14-.05.28-.08.43s-.06.32-.08.48 0 .34-.06.52 0 .27 0 .4V115.56a12.93 12.93 0 0 0 2.31 7.26l.16.22-.01.11a12.77 12.77 0 0 0 1 1.27q.39.41.82.78c.24.21.5.41.76.61l.13.1a13 13 0 0 0 2.11 1.25 12.83 12.83 0 0 0 5.41 1.19 13 13 0 0 0 5.48-1.22c.36-.17.71-.36 1.06-.56l.1-.06q.47-.28.91-.6l.25-.2c.19-.14.37-.28.55-.44s.53-.47.78-.72.47-.5.69-.76.24-.3.35-.45l.22-.28.18-.25 2.29-3.14v-4.19z" fill="#853135"/></svg>