<svg data-name="Layer 1" xmlns="http://www.w3.org/2000/svg" width="127.12" height="200" viewBox="0 0 127.12 200"><title>_</title><path d="M57.09 111.47h-10.6a13 13 0 0 1-1.94.2h-.37a12.92 12.92 0 0 1-2.3-.21h-10.6v27.09h25.8v-27.08z" fill="#ed125f"/><path d="M63.37 57.23c1.08-1.11 4.37-4.5 15.89-4.5h.41c3.61 0 12.6 1.51 14 5.41A12.9 12.9 0 1 0 118 49.66c-6.26-18-26.59-22.73-38.22-22.73h-.64c-15 0-26.24 4-34.28 12.31C34.63 49.78 31.5 65.07 31.17 85.67H57c.19-12.31 1.61-23.54 6.37-28.44z" fill="#2584c5"/><path d="M44.18 111.68h.37a13 13 0 0 0 1.94-.2h-4.62a12.92 12.92 0 0 0 2.31.2z" fill="#5f3267"/><path d="M31.28 151.47v-12.9H25a12.9 12.9 0 0 0 0 25.8h19.19a12.9 12.9 0 0 1-12.91-12.9zM114.22 138.56H57.09v12.9a12.9 12.9 0 0 1-12.9 12.9h70a12.9 12.9 0 0 0 .03-25.8z" fill="#faa61a"/><path d="M57.09 151.47v-12.9H31.28v12.9a12.9 12.9 0 0 0 25.81 0z" fill="#ed1c24"/><path d="M31.17 85.67h-8.06a12.9 12.9 0 1 0 0 25.8h8.17V99c-.13-4.7-.18-9.13-.11-13.33zM57.08 98.34v13.11h37.51a12.9 12.9 0 1 0 0-25.8H57c-.1 4.19 0 8.48.08 12.69z" fill="#72bf44"/><path d="M57.08 98.43a12.9 12.9 0 0 1-10.59 13h10.6V98.78c0-.12-.01-.23-.01-.35zM31.29 99.14v12.33h10.58a12.91 12.91 0 0 1-10.58-12.33z" fill="#853135"/><path d="M31.28 99v-.22a12.9 12.9 0 0 1 25.8-.43c-.08-4.22-.18-8.51-.08-12.68H31.17c-.07 4.2-.02 8.63.11 13.33z" fill="#107c47"/><path d="M57.08 98.43v-.09a12.9 12.9 0 0 0-25.8.43v.37a12.91 12.91 0 0 0 10.59 12.33h4.62a12.9 12.9 0 0 0 10.59-13.04z" fill="#483639"/></svg>