<svg data-name="Layer 1" xmlns="http://www.w3.org/2000/svg" width="138.04" height="200" viewBox="0 0 138.04 200"><title>_</title><path d="M125.14 150.18a12.9 12.9 0 1 0 0-25.8H81.92v25.8h43.22zM12.9 124.38a12.9 12.9 0 1 0 0 25.8h43.22v-25.8H12.9zM125.14 114.05a12.9 12.9 0 1 0 0-25.8h-21.41L85 114.05h40.17zM12.9 88.25a12.9 12.9 0 1 0 0 25.8h40.17l-18.76-25.8H12.9zM71.83 88.25h-5.62l2.81 3.86 2.81-3.86z" fill="#2584c5"/><path d="M56.12 114.05h-3l3 4.19v-4.19zM27.4 34.86A12.9 12.9 0 1 0 6.53 50l27.78 38.25h31.9z" fill="#faa61a"/><path d="M56.19 112.66a12.88 12.88 0 0 1 .22-1.35v-.1a12.81 12.81 0 0 1 .36-1.27c.06-.19.15-.37.22-.56s.17-.45.27-.66.22-.43.33-.65.17-.35.28-.52.29-.45.43-.67.17-.27.26-.4l.09-.13L69 92.11l-2.81-3.86H34.31l18.76 25.8h3a12.9 12.9 0 0 1 .12-1.39z" fill="#57653f"/><path d="M81.92 114.14v4.11l3-4.19h-3v.09zM131.51 50a12.9 12.9 0 1 0-20.87-15.17L71.83 88.25h31.9z" fill="#72bf44"/><path d="M79.37 106.34l.09.13c.09.13.17.27.26.4s.3.44.43.67.19.35.28.53.23.42.33.64.19.45.27.68.15.36.21.54a12.8 12.8 0 0 1 .36 1.27v.12a13 13 0 0 1 .29 2.74h3l18.76-25.8H71.83L69 92.11z" fill="#107c47"/><path d="M56.12 114.05zM81.92 114.14v-.09.09z" fill="#7e883f"/><path d="M81.92 114.05a12.9 12.9 0 0 0-.07-1.39 13 13 0 0 1 .07 1.39zM69 101.15a12.88 12.88 0 0 1 10.34 5.19L69 92.11l-10.32 14.23A12.88 12.88 0 0 1 69 101.15zM56.19 112.66a12.9 12.9 0 0 0-.07 1.39 13 13 0 0 1 .07-1.39z" fill="#346241"/><path d="M61.28 124.38a12.83 12.83 0 0 1-1.43-1.25c-.24-.24-.47-.5-.69-.76s-.24-.3-.35-.45l-.22-.28-.18-.25-2.29-3.14v6.13h5.16zM79.46 121.64l-.22.28c-.12.15-.23.3-.35.45s-.45.52-.69.76a12.82 12.82 0 0 1-1.43 1.25h5.16v-6.13l-2.29 3.14zM56.12 154.69a12.9 12.9 0 1 0 25.8 0v-4.51h-25.8v4.51z" fill="#ed125f"/><path d="M76.7 124.42l-.09.07c-.14.1-.28.18-.42.28s-.44.31-.68.44A12.78 12.78 0 0 1 69 127a12.79 12.79 0 0 1-6.48-1.75c-.23-.13-.45-.29-.67-.44s-.29-.18-.43-.28l-.09-.07h-5.21v25.8h25.8v-25.8h-5.16z" fill="#5f3267"/><path d="M56.12 114.14v4.1l2.29 3.14a12.93 12.93 0 0 1-2.29-7.24z" fill="#ed1c24"/><path d="M57.89 107.53c.13-.23.29-.45.43-.67-.14.23-.32.44-.43.67zM57.28 108.7c.1-.22.22-.43.33-.65-.11.22-.22.43-.33.65zM56.8 109.92c.06-.19.15-.37.22-.56-.08.19-.16.37-.22.56z" fill="#613438"/><path d="M78.88 122.37c.12-.15.24-.3.35-.45-.11.15-.23.3-.35.45zM59.85 123.13a12.83 12.83 0 0 0 1.43 1.25 13 13 0 0 1-1.43-1.25z" fill="#ed1c24"/><path d="M69 127a12.84 12.84 0 0 0 5.29-1.14A13 13 0 0 1 69 127zM61.29 124.38h.06zM62.54 125.2c-.23-.13-.45-.29-.67-.44.22.15.44.31.67.44z" fill="#613438"/><path d="M81.92 114.05h-25.8v.09a12.93 12.93 0 0 0 2.29 7.25l.18.25.22.28c.12.15.23.3.35.45s.45.52.69.76a13 13 0 0 0 1.43 1.25h15.48a12.82 12.82 0 0 0 1.43-1.25c.24-.24.47-.5.69-.76s.24-.3.35-.45l.22-.28.18-.25 2.29-3.14v-4.19z" fill="#853135"/><path d="M61.44 124.49c.14.1.29.18.43.28s.44.3.67.44A12.79 12.79 0 0 0 69 127a12.78 12.78 0 0 0 6.49-1.75c.23-.13.45-.29.68-.44s.29-.18.42-.28l.09-.07h.07-15.46.06zM81.92 114.05a13 13 0 0 0-.07-1.39 12.87 12.87 0 0 0-.22-1.35v-.12a12.8 12.8 0 0 0-.36-1.27c-.06-.18-.14-.36-.21-.54s-.17-.46-.27-.68-.22-.43-.33-.64-.18-.35-.28-.53-.29-.45-.43-.67-.17-.27-.26-.4l-.09-.13a12.9 12.9 0 0 0-20.69 0l-.09.13c-.09.13-.17.27-.26.4s-.3.44-.43.67-.18.35-.28.52-.23.43-.33.65-.18.44-.27.66-.16.37-.22.56a12.81 12.81 0 0 0-.36 1.27v.1a12.88 12.88 0 0 0-.22 1.35 13 13 0 0 0-.07 1.39h25.8z" fill="#483639"/></svg>