<svg data-name="Layer 1" xmlns="http://www.w3.org/2000/svg" width="95.1" height="200" viewBox="0 0 95.1 200"><title>_</title><path d="M61.8 97.85v.59c-.01-.2-.01-.44 0-.59zM14.71 106.75A36.51 36.51 0 0 0 8.57 135a43.15 43.15 0 0 0 14.18 24c7.49 6.55 16.36 10.15 25 10.15a12.9 12.9 0 0 1 0-25.8c-4.43 0-12.36-5.69-13.82-13.24-2-10.23 11.28-17.29 19.56-20.64A12.91 12.91 0 0 1 36 97.39V89.1c-9.36 4.83-16.51 10.75-21.29 17.65zM55.55 108.46a12.83 12.83 0 0 0 4.1-3.9 13 13 0 0 1-4.1 3.9z" fill="#ed125f"/><path d="M48.91 84.49a12.92 12.92 0 0 1 12.91 12.6V79.31a12.9 12.9 0 1 0-25.8 0v9.79q3.81-2 8.1-3.68a12.88 12.88 0 0 1 4.79-.93zM54.61 109l-.52.23zM61.63 99.57a13 13 0 0 1-2 5 12.83 12.83 0 0 0 2-5z" fill="#72bf44"/><path d="M48.91 110.29a12.87 12.87 0 0 0 4.55-.83l.25-.1.38-.17.52-.23q.48-.24.93-.51a12.91 12.91 0 0 0 6.08-8.88c.06-.37.11-.75.14-1.13v-.59-.77a12.9 12.9 0 0 0-17.7-11.67Q39.82 87.14 36 89.1v8.29a12.9 12.9 0 0 0 12.91 12.9z" fill="#853135"/><path d="M60.62 156.25a12.9 12.9 0 0 1-12.9 12.9c27.88 0 39.1-13.75 45.76-25.74a12.9 12.9 0 1 0-22.56-12.53c-3.92 7.06-8.12 12.47-23.2 12.47a12.9 12.9 0 0 1 12.9 12.9z" fill="#2584c5"/><circle cx="47.72" cy="156.25" r="12.9" fill="#5f3267"/><path d="M36 43.75v2.51a12.9 12.9 0 0 0 25.8 0v-2.51a12.9 12.9 0 1 0-25.8 0z" fill="#faa61a"/></svg>