<svg data-name="Layer 1" xmlns="http://www.w3.org/2000/svg" width="138.54" height="200" viewBox="0 0 138.54 200"><title>_</title><path fill="none" d="M45.27 138.64h46.71L68.63 92.66l-23.36 45.98z"/><path d="M11.37 151.54a12.9 12.9 0 0 1 12.9-12.9h21l23.35-46L57.13 70a12.88 12.88 0 0 1-.06-11.56l.06-.12-57 112.24a12.9 12.9 0 1 0 23 11.69l9-17.81h-7.9a12.9 12.9 0 0 1-12.86-12.9zM69.12 51.29h.74zM67.8 51.31h.65zM70.39 51.4l.77.13zM66.57 51.45l.58-.09zM71.66 51.64l.74.2zM75.43 53.22l.25.15zM72.94 52l.65.25zM59.23 55.34l.2-.21zM61.19 53.63l.35-.23zM60.3 54.32l.09-.07zM76.66 54.07l.11.1zM65.26 51.74l.62-.16zM62.15 53l.4-.23zM63.43 52.37q.59-.26 1.2-.46c-.4.09-.8.28-1.2.46zM58.64 56l-.22.29.09-.11zM74.62 52.75l-.15-.08.11.06zM77.57 54.87l.28.28zM57.91 57l-.19.28.12-.19zM79.74 57.64l.26.48zM78.38 55.73l.31.38zM79.1 56.65l.3.44z" fill="#2584c5"/><path d="M57.31 58c.1-.18.19-.36.3-.53-.11.18-.2.36-.3.53zM80.19 58.45A12.88 12.88 0 0 1 80.13 70l-11.5 22.66 23.35 46h21a12.9 12.9 0 1 1 0 25.8h-7.91l9 17.81a12.9 12.9 0 0 0 23-11.68zM77.45 54.76c-.22-.21-.45-.4-.68-.58l-.11-.1-.48-.35a12.86 12.86 0 0 1 1.27 1.03zM76 53.57l-.29-.2-.25-.15c-.26-.16-.53-.32-.81-.46a13 13 0 0 1 1.35.81zM58.17 56.62l-.26.38-.06.09c.15-.15.21-.32.32-.47zM58.8 55.81l-.16.2-.14.18zM68.64 51.27H67.15l-.58.09c-.23 0-.46.07-.69.12l-.62.16c-.21.06-.42.1-.62.17q-.61.2-1.2.46a13 13 0 0 1 5.2-1z" fill="#72bf44"/><path d="M57.13 70l11.5 22.65L80.13 70a12.88 12.88 0 0 0 .06-11.56l-.06-.12-.13-.2-.27-.48q-.16-.28-.34-.55l-.3-.44c-.13-.19-.27-.37-.42-.54l-.31-.38c-.17-.2-.35-.39-.53-.57l-.28-.28-.05-.08a12.86 12.86 0 0 0-1.27-1l-.23-.23a13 13 0 0 0-1.39-.83l-.11-.06-.57-.27-.31-.12-.68-.29-.54-.18-.74-.2-.51-.11-.77-.13-.53-.06h-1.21a13 13 0 0 0-5.24 1.11l-.62.29-.23.13-.4.23-.61.38-.35.23q-.42.3-.81.62l-.09.07q-.38.32-.72.66l-.06.06-.2.21c-.15.16-.29.31-.43.47l-.3.38-.09.11-.24.31c-.11.16-.22.32-.32.49l-.12.19-.12.18c-.1.17-.2.35-.3.53s-.12.21-.18.32l-.06.12A12.88 12.88 0 0 0 57.13 70z" fill="#107c47"/><path fill="#ed125f" d="M45.27 138.64l-13.1 25.81h72.92l-13.11-25.81H45.27z"/><path d="M45.28 138.64h-21a12.9 12.9 0 1 0 0 25.8h7.9l13.11-25.8z" fill="#5f3267"/><path d="M125.9 151.54a12.9 12.9 0 0 0-12.9-12.9H92l13.11 25.8H113a12.9 12.9 0 0 0 12.9-12.9z" fill="#853135"/><path d="M50.45 25.91l19.79 14a8.39 8.39 0 1 0 9.69-13.69l-19.79-14a8.39 8.39 0 1 0-9.69 13.69z" fill="#72bf44"/></svg>