<svg data-name="Layer 1" xmlns="http://www.w3.org/2000/svg" width="142.42" height="200" viewBox="0 0 142.42 200"><title>_</title><path fill="none" d="M49.15 138.64h46.71L72.51 92.66l-23.36 45.98z"/><path d="M70.44 51.45l.56-.09zM69.13 51.74l.63-.17zM79.63 53.43l-.23-.15.17.11zM71.68 51.31h.64zM81.31 54.75l.29.25zM61.67 57.17zM74.34 51.41l.66.12zM15.25 151.55a12.9 12.9 0 0 1 12.9-12.9h21l23.35-46L61 70a12.88 12.88 0 0 1 0-11.6L4 170.57a12.9 12.9 0 1 0 23 11.69l9-17.81h-7.9a12.9 12.9 0 0 1-12.85-12.9zM75.57 51.65l.65.18zM73.12 51.29h.65zM61.92 56.82c.17-.24.34-.49.52-.72-.18.23-.35.48-.52.72zM63.69 54.77c.2-.19.39-.37.61-.55-.21.18-.41.37-.61.55zM64.67 53.94c.22-.17.44-.34.68-.49-.23.15-.45.32-.68.49zM67.31 52.37q.6-.26 1.2-.46c-.41.09-.81.29-1.2.46zM65.76 53.19c.24-.15.48-.29.73-.42-.25.13-.49.23-.73.42zM83.67 57.72l.21.38zM80.67 54.18l-.28-.18.17.14zM83.06 56.76l.21.31zM76.81 52l.58.22zM82.27 55.74l.12.13zM62.82 55.67c.17-.19.33-.38.51-.56-.17.17-.33.37-.51.56zM61.48 57.51c-.16.27-.33.54-.47.82.1-.2.22-.39.34-.59z" fill="#2584c5"/><path d="M135.36 187.92a12.9 12.9 0 0 0 5.64-17.35L84.07 58.45A12.88 12.88 0 0 1 84 70L72.51 92.66l23.35 46h21a12.9 12.9 0 0 1 0 25.8H109l9 17.81a12.89 12.89 0 0 0 17.36 5.65zM78.56 52.79L79 53zM80.88 54.36l-.22-.18-.1-.08zM80 53.66l-.34-.23h-.06zM72.52 51.27H71.03l-.58.09c-.23 0-.46.07-.69.12l-.63.17c-.2.06-.41.1-.61.17q-.61.2-1.2.46a13 13 0 0 1 5.2-1.01zM61.67 57.17c-.07.1-.12.21-.18.32l-.13.24c.09-.18.19-.37.31-.56z" fill="#72bf44"/><path d="M61 70l11.5 22.65L84 70a12.88 12.88 0 0 0 .06-11.56l-.06-.11-.13-.24-.21-.38c-.13-.22-.26-.43-.4-.64l-.21-.31c-.21-.31-.44-.6-.67-.88l-.12-.13c-.16-.19-.33-.38-.5-.55l-.16-.2-.29-.27-.43-.39-.32-.26-.17-.08-.39-.34-.4-.27-.17-.11L79 53l-.44-.25-.21-.12-.71-.33-.26-.1-.57-.2-.59-.19-.65-.18-.57-.1-.67-.12-.57-.07h-1.24a13 13 0 0 0-5.25 1.11l-.6.29-.18.1c-.25.13-.49.27-.73.42l-.41.25c-.23.16-.46.32-.68.49l-.38.29c-.21.17-.41.36-.61.55l-.36.33c-.18.18-.34.37-.51.56s-.21.17-.31.27c-.18.23-.35.47-.52.72s-.17.23-.25.35c-.12.18-.22.38-.33.57s-.23.38-.34.59v.07A12.88 12.88 0 0 0 61 70z" fill="#107c47"/><path fill="#ed125f" d="M49.15 138.64l-13.1 25.81h72.92l-13.11-25.81H49.15z"/><path d="M49.15 138.64h-21a12.9 12.9 0 1 0 0 25.8H36l13.11-25.8z" fill="#5f3267"/><path d="M129.78 151.55a12.9 12.9 0 0 0-12.9-12.9h-21l13.12 25.8h7.91a12.9 12.9 0 0 0 12.87-12.9z" fill="#853135"/><path d="M65.63 41.46a8.35 8.35 0 0 0 4.84-1.54l19.79-14a8.39 8.39 0 1 0-9.69-13.69l-19.79 14a8.39 8.39 0 0 0 4.85 15.23z" fill="#8e53a1"/></svg>