<svg data-name="Layer 1" xmlns="http://www.w3.org/2000/svg" width="141.86" height="200" viewBox="0 0 141.86 200"><title>_</title><path fill="none" d="M48.59 136.55H95.3L71.94 90.57l-23.35 45.98z"/><path d="M27.59 162.35a12.9 12.9 0 1 1 0-25.8h21l23.36-46-11.51-22.63a12.88 12.88 0 0 1-.07-11.54L3.43 168.48a12.9 12.9 0 1 0 23 11.68l9-17.81h-7.9zM61.23 54.91l-.23.28.14-.2zM79.06 51.32l-.23-.15.17.1zM62.53 53.26l.24-.26zM62 53.91l-.23.3.12-.15zM80.07 52.06l-.25-.2.11.14zM83.09 55.6l.23.4zM67.18 50.1c.27-.11.54-.22.82-.3-.28.09-.55.2-.82.3zM68.66 49.62l.56-.15zM63.52 52.31l.12-.11zM66.71 50.29h.1zM69.92 49.35l.56-.08zM64.52 51.53l.33-.22zM82.47 54.63l.25.37zM71.14 49.21h.62zM80.78 52.69l.22.19zM76.23 49.92l.66.25zM81.78 53.73l.14.17zM73.67 49.3l.78.13zM72.4 49.19h.75zM65.48 50.92l.4-.22zM74.95 49.54l.74.2z" fill="#2584c5"/><path d="M60.62 55.92c.1-.18.2-.37.31-.55-.11.18-.21.36-.31.55zM78 50.7l.43.24zM83.51 56.37a12.88 12.88 0 0 1-.07 11.55l-11.5 22.65 23.35 46h21a12.9 12.9 0 1 1 0 25.8h-7.89l9 17.81a12.9 12.9 0 1 0 23-11.68zM61.5 54.5c-.1.13-.18.27-.27.41l-.05.09c.1-.18.21-.34.32-.5zM72 49.17h-.86l-.66.05-.56.08-.7.12-.56.15c-.22.06-.44.11-.66.18s-.55.2-.82.3l-.35.13A13 13 0 0 1 72 49.17zM62.14 53.68l-.14.23-.11.14zM80.24 52.2l-.17-.14-.14-.06zM79.37 51.53l-.32-.21h-.08z" fill="#72bf44"/><path d="M60.44 67.92l11.5 22.65 11.5-22.65a12.88 12.88 0 0 0 .07-11.55l-.07-.13-.12-.24-.23-.41c-.12-.21-.24-.41-.37-.6l-.24-.36c-.18-.25-.36-.49-.55-.73l-.14-.17q-.34-.39-.69-.73l-.1-.12-.21-.19c-.18-.17-.35-.33-.54-.49l-.32-.2-.12-.09-.44-.33-.37-.31-.15-.1-.38-.23-.47-.24-.23-.13-.6-.29-.3-.11-.66-.25-.54-.18-.74-.2-.51-.11-.78-.13-.52-.06H72a13 13 0 0 0-5.12 1.06h-.1l-.6.28-.23.13-.4.22-.62.39-.33.22c-.3.21-.6.44-.88.67l-.12.11c-.2.17-.39.34-.57.52l-.26.16-.23.25c-.13.14-.27.28-.39.42l-.29.37-.12.15-.23.3c-.11.16-.22.32-.33.49l-.14.2-.12.18c-.11.18-.21.36-.31.55s-.12.21-.18.32l-.07.14a12.88 12.88 0 0 0 .08 11.55z" fill="#107c47"/><path fill="#ed125f" d="M48.59 136.55l-13.11 25.8h72.92l-13.1-25.8H48.59z"/><path d="M27.59 136.55a12.9 12.9 0 1 0 0 25.8h7.9l13.11-25.8h-21z" fill="#5f3267"/><path d="M129.22 149.45a12.9 12.9 0 0 0-12.9-12.9h-21l13.11 25.8h7.91a12.9 12.9 0 0 0 12.88-12.9z" fill="#853135"/><path d="M76.8 18.51a8.39 8.39 0 0 0-9.69 0l-19.79 14A8.39 8.39 0 1 0 57 46.21l15-10.58 14.9 10.58a8.39 8.39 0 0 0 9.69-13.69z" fill="#faa61a"/></svg>