<svg data-name="Layer 1" xmlns="http://www.w3.org/2000/svg" width="146.16" height="200" viewBox="0 0 146.16 200"><title>_</title><path fill="none" d="M94.48 138.16L71.12 92.18l-23.35 45.98h46.71z"/><path d="M69.07 51l.58-.09zM70.3 50.82h.64zM67.78 51.24l.59-.16zM74.14 51.15l.71.19zM65.94 51.87c.4-.17.8-.32 1.2-.46q-.61.2-1.2.46zM71.62 50.81h.71zM72.87 50.91l.75.09zM60.2 56.83l.16-.25zM61 55.74l.09-.12zM75.41 51.53l.59.24zM64.59 52.57l.48-.27zM61.84 54.73l.24-.23zM63.61 53.21l.44-.3zM62.69 53.93l.37-.3zM13.86 151.06a12.9 12.9 0 0 1 12.9-12.9h21l23.35-46-11.49-22.63A12.88 12.88 0 0 1 59.56 58l-57 112.13a12.9 12.9 0 1 0 23 11.69l9-17.81h-7.9a12.9 12.9 0 0 1-12.8-12.95zM78.37 53l-.31-.22.3.22zM81.85 56.54a13 13 0 0 1 .68 1.15 12.91 12.91 0 0 0-.68-1.15zM59.68 57.73l-.06.11v-.06zM79.44 53.83l-.36-.31.36.3zM80 54.33l.36.36zM80.87 55.24a12.79 12.79 0 0 1 .9 1.16 12.83 12.83 0 0 0-.9-1.16z" fill="#2584c5"/><path d="M82.63 69.53L71.12 92.18l23.35 46h21a12.9 12.9 0 1 1 0 25.8h-7.91l9 17.81a12.9 12.9 0 1 0 23-11.68l-57-112.16a12.88 12.88 0 0 1 .07 11.58zM77.26 52.35l.5.28zM71.13 50.78h-1.48l-.58.22c-.23 0-.46.07-.69.12l-.59.16c-.21.06-.43.11-.64.18-.4.13-.8.28-1.2.46a13 13 0 0 1 5.18-1.14zM79.78 54.12l-.34-.29zM61.71 54.86c-.23.25-.45.5-.66.76l-.05.12-.35.47a12.82 12.82 0 0 1 1.06-1.35zM78.81 53.33l-.44-.33zM60.56 56.28l-.2.3-.16.25q-.28.44-.52.9v.05a13 13 0 0 1 .88-1.5z" fill="#72bf44"/><path d="M59.62 69.53l11.5 22.65 11.5-22.65a12.88 12.88 0 0 0 0-11.6v-.08l-.09-.16a13 13 0 0 0-.68-1.15l-.08-.14a12.79 12.79 0 0 0-.9-1.16l-.07-.1v-.05l-.31-.32-.49-.44-.22-.21-.35-.29-.36-.3-.27-.2-.44-.33-.3-.21-.3-.18-.5-.28-.26-.15-.61-.29-.39-.12-.64-.24-.55-.18-.71-.19-.48-.16-.74-.12-.54-.06h-1.21a13 13 0 0 0-5.21 1.09l-.65.31-.21.12-.48.27-.58.3-.44.3-.55.42-.37.3c-.21.18-.41.38-.61.57l-.24.23a12.82 12.82 0 0 0-1.1 1.36v.06a13 13 0 0 0-.9 1.51v.06l-.23.28a12.88 12.88 0 0 0 .06 11.53z" fill="#107c47"/><path fill="#ed125f" d="M47.77 138.16l-13.11 25.8h72.92l-13.1-25.8H47.77z"/><path d="M47.77 138.16h-21a12.9 12.9 0 1 0 0 25.8h7.9z" fill="#5f3267"/><path d="M128.4 151.06a12.9 12.9 0 0 0-12.9-12.9h-21L107.58 164h7.91a12.9 12.9 0 0 0 12.91-12.94z" fill="#853135"/><path d="M97.13 13.25a8.41 8.41 0 0 0-7.63 4.87 5.22 5.22 0 0 1-3.12 2c-2.27.38-5.56-.94-9.24-3.74-6.91-5.25-13.38-5.62-17.6-5C49.41 12.87 43.15 21.07 42.47 22a8.41 8.41 0 1 0 13.76 9.62 13.27 13.27 0 0 1 3.84-3c1.71-.83 3.73-1.27 6.91 1.15C73.32 34.56 79.53 37 85.51 37a21.76 21.76 0 0 0 4.27-.42A22.16 22.16 0 0 0 104 26.62a8.41 8.41 0 0 0-6.87-13.37z" fill="#72bf44"/></svg>