<svg data-name="Layer 1" xmlns="http://www.w3.org/2000/svg" width="142.65" height="200" viewBox="0 0 142.65 200"><title>_</title><path fill="none" d="M96.09 137.74L72.74 91.76l-23.36 45.98h46.71z"/><path d="M62.59 55.3l.32-.38zM70.48 50.58c.25 0 .51-.09.76-.12-.24.03-.51.08-.76.12zM83.18 55.7l.33.48zM68.7 51q.61-.2 1.23-.34c-.41.11-.82.22-1.23.34zM71.81 50.41h.76c-.25-.03-.51-.01-.76 0zM82.44 54.77l.35.42zM77.06 51.12l.72.28zM61.87 56.32c.07-.12.16-.22.24-.34-.11.12-.16.22-.24.34zM79.58 52.34l.19.12zM75.74 50.73l.81.27zM73.1 50.38h.83c-.28.02-.55.01-.83 0zM83.83 56.69c.1.18.21.36.31.54-.14-.23-.21-.36-.31-.54zM67.43 51.52c.28-.12.56-.23.84-.34-.27.11-.56.21-.84.34zM78.73 51.85l-.15-.09.11.07zM80.74 53.14l.2.17zM65.6 52.53a13 13 0 0 1 1.13-.67 12.91 12.91 0 0 0-1.13.67zM81.62 53.91l.38.36zM63.4 54.37l.37-.37zM74.42 50.49c.28 0 .57.08.85.14-.27-.06-.57-.1-.85-.14zM28.38 163.54a12.9 12.9 0 1 1 0-25.8h21l23.36-46-11.5-22.63a12.88 12.88 0 0 1-.08-11.52L4.23 169.67a12.9 12.9 0 1 0 23 11.68l9-17.81h-7.9zM64.3 53.52a12.85 12.85 0 0 1 1.16-.9 12.86 12.86 0 0 0-1.16.9z" fill="#2584c5"/><path d="M61.45 57.06c.12-.21.23-.43.36-.63-.13.2-.25.42-.36.63zM62.11 56c.12-.18.24-.37.38-.54-.13.15-.25.33-.38.54zM62.92 54.92c.11-.14.22-.28.34-.41-.12.13-.26.27-.34.41zM84.33 57.59a12.88 12.88 0 0 1-.08 11.52L72.74 91.76l23.36 46h21a12.9 12.9 0 1 1 0 25.8h-7.9l9 17.81a12.9 12.9 0 1 0 23-11.68zM80 52.62l-.25-.17-.19-.12q-.42-.26-.85-.49a13 13 0 0 1 1.29.78zM72.74 50.36h-1.5c-.25 0-.51.08-.76.12l-.54.09q-.62.14-1.23.34h-.1a13 13 0 0 1 4.13-.55zM81.44 53.74c-.16-.15-.33-.29-.5-.43l-.2-.17-.53-.39a12.87 12.87 0 0 1 1.23.99z" fill="#72bf44"/><path d="M61.24 69.11l11.5 22.65 11.5-22.65a12.88 12.88 0 0 0 .08-11.52l-.08-.16-.11-.2c-.1-.18-.2-.36-.31-.54l-.31-.51-.33-.48-.39-.51-.35-.42c-.15-.17-.31-.34-.47-.51l-.35-.35-.13-.13a12.87 12.87 0 0 0-1.23-1l-.26-.16a13 13 0 0 0-1.33-.79l-.11-.07-.47-.22-.34-.13-.72-.28-.48-.13-.81-.22-.48-.11c-.28-.06-.56-.1-.85-.14l-.49-.06h-1.19a13 13 0 0 0-4.13.53l-.33.13c-.28.1-.57.21-.84.34l-.13.05-.4.19-.16.09a13 13 0 0 0-1.13.67l-.15.09a12.85 12.85 0 0 0-1.16.9l-.09.07c-.12.11-.23.23-.35.35l-.37.36-.14.14c-.12.13-.23.27-.34.41l-.32.38-.1.13c-.13.17-.25.36-.38.54-.08.11-.16.22-.24.34l-.07.11c-.13.2-.24.42-.36.63s-.15.24-.21.37l-.08.16a12.88 12.88 0 0 0-.01 11.66z" fill="#107c47"/><path fill="#ed125f" d="M49.38 137.74l-13.1 25.8h72.92l-13.11-25.8H49.38z"/><path d="M15.48 150.64a12.9 12.9 0 0 0 12.9 12.9h7.9l13.11-25.8h-21a12.9 12.9 0 0 0-12.91 12.9z" fill="#5f3267"/><path d="M130 150.64a12.9 12.9 0 0 0-12.9-12.9h-21l13.11 25.8h7.91a12.9 12.9 0 0 0 12.88-12.9z" fill="#853135"/><path d="M38.58 24.49V27a12.9 12.9 0 0 0 25.8 0v-2.51a12.9 12.9 0 0 0-25.8 0z" fill="#ed125f"/><path d="M94.69 39.9A12.9 12.9 0 0 0 107.6 27v-2.51a12.9 12.9 0 1 0-25.8 0V27a12.9 12.9 0 0 0 12.89 12.9z" fill="#faa61a"/></svg>