<svg data-name="Layer 1" xmlns="http://www.w3.org/2000/svg" width="143.81" height="200" viewBox="0 0 143.81 200"><title>_</title><path fill="none" d="M46.56 136.79h46.71L69.91 90.81l-23.35 45.98z"/><ellipse cx="69.91" cy="36.44" rx="8.01" ry="7.13" fill="none"/><path d="M12.66 149.69a12.9 12.9 0 0 1 12.9-12.9h21l23.36-46-11.51-22.63A12.87 12.87 0 0 1 58 57.39L1.4 168.72a12.9 12.9 0 1 0 23 11.68l9-17.81h-7.9a12.9 12.9 0 0 1-12.84-12.9z" fill="#2584c5"/><path d="M81.87 57.37a12.87 12.87 0 0 1-.42 10.77L69.91 90.81l23.36 46h21a12.9 12.9 0 1 1 0 25.8h-7.91l9 17.81a12.9 12.9 0 1 0 23-11.68z" fill="#72bf44"/><path d="M69.91 60.34a25.34 25.34 0 0 1-11.92-3 12.87 12.87 0 0 0 .42 10.77l11.5 22.65 11.5-22.65a12.87 12.87 0 0 0 .42-10.77 25.33 25.33 0 0 1-11.92 3z" fill="#107c47"/><path fill="#ed125f" d="M46.56 136.79l-13.11 25.8h72.93l-13.11-25.8H46.56z"/><path d="M46.56 136.79h-21a12.9 12.9 0 0 0 0 25.8h7.9z" fill="#5f3267"/><path d="M127.19 149.69a12.9 12.9 0 0 0-12.9-12.9h-21l13.11 25.8h7.91a12.9 12.9 0 0 0 12.88-12.9z" fill="#853135"/><path d="M58.35 56.6l.06-.12c.06-.12.14-.24.2-.36s.21-.39.33-.58.19-.28.28-.42.23-.34.35-.51.26-.32.38-.48.21-.26.32-.39q.37-.42.78-.8a12.79 12.79 0 0 1 1.29-1l.18-.13a12.9 12.9 0 0 1 1.39-.84l.12-.07.41-.2a12.84 12.84 0 0 1 5.42-1.2 12.83 12.83 0 0 1 5.28 1.14l.55.26.31.1.46.26.54.32.41.28c.2.14.39.29.58.45l.33.26c.29.25.57.51.84.79a12.84 12.84 0 0 1 1.12 1.37l.05.07a12.9 12.9 0 0 1 .92 1.52v.06l.06.12.39.77a23.81 23.81 0 0 0 12.99-20.83c0-13.18-11.11-23.9-24.78-23.9s-24.77 10.72-24.77 23.9A23.81 23.81 0 0 0 58 57.37zm11.56-27.29c4.41 0 8 3.2 8 7.13s-3.59 7.13-8 7.13-8-3.2-8-7.13 3.59-7.13 8-7.13z" fill="#faa61a"/><path d="M63.95 50.89a12.9 12.9 0 0 0-1.39.84 13 13 0 0 1 1.39-.84zM80.41 54.82a12.84 12.84 0 0 0-1.12-1.37 12.85 12.85 0 0 1 1.12 1.37zM62.38 51.86a12.79 12.79 0 0 0-1.29 1 12.85 12.85 0 0 1 1.29-1zM58.35 56.6l-.35.77q.16-.37.35-.77zM81.38 56.41a12.9 12.9 0 0 0-.92-1.52 13 13 0 0 1 .92 1.52zM75.2 50.55a12.83 12.83 0 0 0-5.28-1.14 13 13 0 0 1 5.28 1.14z" fill="#57653f"/><path d="M58.61 56.12c.11-.2.21-.39.33-.58-.12.19-.22.38-.33.58zM76 51l.46.26zM78.35 52.56L78 52.3zM77.45 51.85l-.45-.27zM60.27 53.75c-.11.13-.21.26-.32.39.11-.14.21-.27.32-.39zM59.57 54.61c-.12.17-.23.34-.35.51.11-.12.23-.34.35-.51zM81.84 57.39l-.39-.77q.22.38.39.77zM69.91 49.42a12.84 12.84 0 0 0-5.42 1.2 13 13 0 0 1 5.42-1.2z" fill="#7e883f"/><path d="M81.48 56.6l-.06-.12v-.06a13 13 0 0 0-.92-1.52l-.05-.07a12.85 12.85 0 0 0-1.12-1.37c-.26-.27-.55-.53-.84-.79L78 52.3c-.19-.15-.38-.3-.58-.45l-.42-.27-.55-.35L76 51l-.28-.16-.55-.26a12.88 12.88 0 0 0-10.72.07l-.41.2-.12.07a13 13 0 0 0-1.39.84l-.18.13a12.85 12.85 0 0 0-1.29 1q-.4.38-.78.8c-.11.12-.21.26-.32.39s-.26.31-.38.48-.23.34-.35.51-.19.27-.28.42-.22.38-.33.58-.14.23-.2.36l-.06.12q-.2.45-.36.84a25.54 25.54 0 0 0 23.84 0q-.17-.39-.36-.79z" fill="#346241"/></svg>