<svg data-name="Layer 1" xmlns="http://www.w3.org/2000/svg" width="197.45" height="200" viewBox="0 0 197.45 200"><title>_</title><path fill="none" d="M55.4 113.09h41.42V56.78h-5.8L55.4 113.09z"/><path d="M96.82 100v13.09h12.9a12.9 12.9 0 0 1 12.9 12.9V112.9h-12.9a12.9 12.9 0 0 1-12.9-12.9zM96.82 56.78V100a12.9 12.9 0 0 1 12.9-12.9h12.9V56.78h-25.8zM109.72 138.89h-12.9v17.23a12.9 12.9 0 0 1 12.9-12.9h12.9V126a12.9 12.9 0 0 1-12.9 12.89z" fill="#2584c5"/><path d="M122.62 43.88v12.9h61.93a12.9 12.9 0 1 0 0-25.8h-74.83a12.9 12.9 0 0 1 12.9 12.9zM94.82 50.78l-3.8 6h5.8V44.1a12.84 12.84 0 0 1-2 6.68zM96.82 43.74A12.9 12.9 0 0 1 109.72 31H84.14a12.91 12.91 0 0 1 12.68 12.74zM77.74 32.55a13 13 0 0 1 5-1.51 12.82 12.82 0 0 0-5 1.51z" fill="#ed125f"/><path d="M96.82 43.74v13.04h25.8v-12.9a12.9 12.9 0 0 0-25.8-.14z" fill="#5f3267"/><path d="M109.72 169h74.83a12.9 12.9 0 1 0 0-25.8h-61.93v12.9a12.9 12.9 0 0 1-12.9 12.9z" fill="#72bf44"/><path d="M96.82 156.12a12.9 12.9 0 0 0 25.8 0v-12.9h-12.9a12.9 12.9 0 0 0-12.9 12.9z" fill="#107c47"/><path d="M173.58 112.9a12.9 12.9 0 1 0 0-25.8h-51v25.8h51z" fill="#faa61a"/><path d="M96.82 100a12.9 12.9 0 0 0 12.9 12.9h12.9V87.1h-12.9a12.9 12.9 0 0 0-12.9 12.9z" fill="#57653f"/><path d="M26 126a12.9 12.9 0 0 1 12.9-12.9h16.5L91 56.78h-7.1a12.9 12.9 0 0 1-11-19.61L2 149.22A12.9 12.9 0 1 0 23.81 163l15.26-24.13h-.16A12.9 12.9 0 0 1 26 126zM84.14 31h-.21c-.41 0-.81 0-1.21.06q.59-.06 1.2-.06h.23zM77.74 32.55a12.82 12.82 0 0 0-4.11 3.54 13 13 0 0 1 4.11-3.54z" fill="#f37021"/><path d="M83.92 56.78H91l3.8-6a12.84 12.84 0 0 0 2-6.68v-.22-.14A12.91 12.91 0 0 0 84.14 31h-.22q-.61 0-1.2.06a12.88 12.88 0 0 0-9.08 5.05q-.33.43-.62.9l-.12.19a12.9 12.9 0 0 0 11.02 19.58z" fill="#ed1c24"/><path d="M96.82 43.74v0z" fill="#613438"/><path fill="#ed125f" d="M55.4 113.09l-16.33 25.8h57.75v-25.8H55.4z"/><path d="M109.72 113.09h-12.9v25.8h12.9a12.9 12.9 0 0 0 0-25.8z" fill="#5f3267"/><path d="M38.91 113.09a12.9 12.9 0 1 0 0 25.8h.16l16.32-25.8H38.91z" fill="#ed1c24"/></svg>