<svg data-name="Layer 1" xmlns="http://www.w3.org/2000/svg" width="141.51" height="200" viewBox="0 0 141.51 200"><title>_</title><path d="M68.86 34.09a12.9 12.9 0 0 1 12.9-12.9 71.28 71.28 0 0 0-71.2 71.2 12.9 12.9 0 1 1 25.8 0A45.45 45.45 0 0 1 81.76 47a12.9 12.9 0 0 1-12.9-12.91z" fill="#2584c5"/><path d="M23.46 105.29a12.9 12.9 0 0 1-12.9-12.9 71.32 71.32 0 0 0 48.17 67.38 64.6 64.6 0 0 1 13.18-17.59 13 13 0 0 1 8.48-4.42 45.45 45.45 0 0 1-44-45.37 12.9 12.9 0 0 1-12.93 12.9z" fill="#faa61a"/><circle cx="23.46" cy="92.39" r="12.9" fill="#57653f"/><path d="M94.69 150.68A13 13 0 0 1 89.54 161a32.65 32.65 0 0 0-2.31 2.37 70.89 70.89 0 0 0 43.24-19.06 12.9 12.9 0 1 0-17.66-18.82 45.2 45.2 0 0 1-29.76 12.26 13 13 0 0 1 11.64 12.93z" fill="#ed125f"/><path d="M94.66 34.09A12.9 12.9 0 0 1 81.76 47a45.17 45.17 0 0 1 31.47 12.68 12.9 12.9 0 0 0 17.89-18.59 70.85 70.85 0 0 0-49.36-19.9 12.9 12.9 0 0 1 12.9 12.9z" fill="#72bf44"/><circle cx="81.76" cy="34.09" r="12.9" fill="#107c47"/><path d="M58.73 159.77a54.58 54.58 0 0 0-6.06 23.94 12.9 12.9 0 0 0 12.69 13.1h.21a12.9 12.9 0 0 0 12.9-12.7c.15-9.56 5.42-17 8.75-20.73q-2.72.21-5.47.21a70.91 70.91 0 0 1-23.02-3.82zM83.05 137.76a13.13 13.13 0 0 0-2.66 0h1.37z" fill="#72bf44"/><path d="M71.91 142.18a64.6 64.6 0 0 0-13.18 17.59 70.91 70.91 0 0 0 23 3.82 12.9 12.9 0 0 1 0-25.8h-1.37a13 13 0 0 0-8.45 4.39z" fill="#7e883f"/><path d="M68.86 150.68a12.9 12.9 0 0 0 12.9 12.9q2.75 0 5.47-.21a32.65 32.65 0 0 1 2.31-2.37 13 13 0 0 0-6.49-23.25h-1.3a12.9 12.9 0 0 0-12.89 12.93z" fill="#853135"/></svg>