<svg data-name="Layer 1" xmlns="http://www.w3.org/2000/svg" width="154.81" height="200" viewBox="0 0 154.81 200"><title>_</title><path d="M89.5 143.22c22.8 0 39.35-18.18 39.35-43.22S112.3 56.78 89.5 56.78H52V87.1h36.24a12.9 12.9 0 1 1 0 25.8H52v30.32h37.5z" fill="none"/><path d="M52 56.78H39.15a12.9 12.9 0 0 1-12.9-12.9V87.1H52V56.78zM39.15 143.22H52V112.9H26.24v43.22a12.9 12.9 0 0 1 12.91-12.9z" fill="#2584c5"/><path d="M52 43.88v12.9h37.5a12.9 12.9 0 0 1 0-25.8H39.15A12.9 12.9 0 0 1 52 43.88zM90 31z" fill="#ed125f"/><path d="M39.15 56.78H52v-12.9a12.9 12.9 0 1 0-12.85 12.9z" fill="#5f3267"/><path d="M90 169zM76.6 156.12a12.9 12.9 0 0 1 12.9-12.9H52v12.9A12.9 12.9 0 0 1 39.15 169H89.5a12.9 12.9 0 0 1-12.9-12.88z" fill="#72bf44"/><path d="M52 156.12v-12.9H39.15A12.9 12.9 0 1 0 52 156.12z" fill="#107c47"/><path d="M102.88 43.88A12.9 12.9 0 0 1 90 56.78h-.5c22.8 0 39.35 18.18 39.35 43.22a12.9 12.9 0 1 1 25.8 0c0-39-27.59-68.57-64.31-69a12.9 12.9 0 0 1 12.54 12.88z" fill="#2584c5"/><path d="M76.6 43.88a12.9 12.9 0 0 0 12.9 12.9h.5A12.9 12.9 0 0 0 90.34 31h-.84a12.9 12.9 0 0 0-12.9 12.88z" fill="#5f3267"/><path d="M141.75 112.9a12.9 12.9 0 0 1-12.9-12.9c0 25-16.55 43.22-39.35 43.22h.5a12.9 12.9 0 0 1 .35 25.8c36.74-.43 64.34-30 64.34-69a12.9 12.9 0 0 1-12.94 12.88z" fill="#faa61a"/><path d="M102.86 156.12A12.9 12.9 0 0 0 90 143.22h-.5a12.9 12.9 0 0 0 0 25.8h.81a12.9 12.9 0 0 0 12.55-12.9z" fill="#7e883f"/><circle cx="141.75" cy="100" r="12.9" fill="#57653f"/><path d="M101.14 100a12.9 12.9 0 0 0-12.9-12.9H52v25.8h36.24a12.9 12.9 0 0 0 12.9-12.9zM26.24 87.1H12.9a12.9 12.9 0 1 0 0 25.8h13.34V87.1z" fill="#ed125f"/><path fill="#5f3267" d="M26.24 87.1h25.8v25.8h-25.8z"/></svg>