<svg data-name="Layer 1" xmlns="http://www.w3.org/2000/svg" width="128" height="200" viewBox="0 0 128 200"><title>_</title><path d="M96.7 133.81L24.28 48.44a12.85 12.85 0 0 1 3 8.29v35.15l72.39 85.34a12.85 12.85 0 0 1-3-8.25v-35.16zM15.11 43.84h-.72a12.94 12.94 0 0 0-2 .16 13 13 0 0 1 2-.16zM118.52 178.3a12.83 12.83 0 0 0 2.75-3.8 12.94 12.94 0 0 1-2.75 3.8zM104.15 180.66a12.91 12.91 0 0 1-3.05-2 12.81 12.81 0 0 0 3.05 2zM22 46.34c.34.25.67.51 1 .79-.3-.29-.63-.55-1-.79zM2.63 51.44a12.86 12.86 0 0 1 .61-1.19 12.81 12.81 0 0 0-.61 1.19zM109.61 181.87h1-1zM3.27 50.19c.22-.37.45-.73.7-1.07a12.8 12.8 0 0 0-.7 1.07zM20.82 45.54a12.85 12.85 0 0 1 1.11.71 12.78 12.78 0 0 0-1.11-.71zM19.48 44.86a12.86 12.86 0 0 1 1.27.63 12.79 12.79 0 0 0-1.27-.63zM4 49.06c.25-.34.51-.66.79-1-.26.34-.52.66-.79 1z" fill="#faa61a"/><path d="M114.22 181l-.44.16zM117 179.53l-.42.28zM116.11 180.1l-.42.23zM117.84 178.9l-.42.33zM121.77 173.27a12.91 12.91 0 0 1-.5 1.22 12.85 12.85 0 0 0 .5-1.22zM122.39 170.72zM122.51 168.89V56.72a12.9 12.9 0 0 0-25.8 0v77.09l22.74 26.81a12.85 12.85 0 0 1 3.06 8.27zM122.14 172c-.1.41-.22.82-.36 1.22.14-.38.22-.79.36-1.22zM108.21 181.79c-.39 0-.78-.11-1.17-.19.39.08.78.15 1.17.19zM109.61 181.87zM115.18 180.6l-.43.2zM105.5 181.2a12.86 12.86 0 0 1-1.3-.51 12.82 12.82 0 0 0 1.3.51zM112.15 181.61l-.38.08zM106.85 181.57c-.42-.09-.83-.21-1.24-.34a12.8 12.8 0 0 0 1.24.34zM113.22 181.35l-.43.12z" fill="#72bf44"/><path d="M121.77 173.27c.14-.4.26-.81.36-1.22v-.09c.09-.4.17-.8.23-1.2a13 13 0 0 0 .11-1.31v-.1V168.94a12.85 12.85 0 0 0-3.06-8.27L96.7 133.81V169a12.85 12.85 0 0 0 3 8.25l.08.09.42.47q.42.44.87.84a12.91 12.91 0 0 0 3.05 2 12.86 12.86 0 0 0 1.3.51h.1c.41.13.82.25 1.24.34h.2c.39.08.78.15 1.17.19s.8.06 1.2.07H110.67c.35 0 .69-.08 1-.14l.38-.08.64-.14.43-.12.57-.18.44-.16.53-.22.43-.2.51-.26.42-.23.47-.29.42-.28.42-.31.42-.33.11-.09q.29-.25.57-.51a12.82 12.82 0 0 0 3.34-4.95z" fill="#7e883f"/><path d="M1.63 54.86a12.92 12.92 0 0 1 1-3.43 12.81 12.81 0 0 0-1 3.43zM16.23 44a12.92 12.92 0 0 1 3.25.91 12.82 12.82 0 0 0-3.25-.91zM6.65 46.43l.41-.32zM9.11 45a12.78 12.78 0 0 1 1.53-.57 12.81 12.81 0 0 0-1.53.57zM1.5 56.84V169a12.9 12.9 0 1 0 25.8 0V91.88L4.56 65.07a12.85 12.85 0 0 1-3.06-8.23z" fill="#ed125f"/><path d="M24.28 48.44v-.06l-.28-.25a13 13 0 0 0-1-1c-.31-.28-.64-.54-1-.79l-.11-.09a12.85 12.85 0 0 0-1.11-.71h-.07A12.79 12.79 0 0 0 16.23 44q-.56-.08-1.12-.11h-.71a13 13 0 0 0-2 .16h-.17a12.9 12.9 0 0 0-3.12.95h-.24l-.31.16h-.12a12.94 12.94 0 0 0-1.21.75l-.41.32c-.2.15-.4.29-.59.45l-.43.42a12.94 12.94 0 0 0-.95.95c-.28.31-.54.63-.79 1l-.06.07c-.25.34-.48.7-.7 1.07a12.79 12.79 0 0 0-1.61 4.62q-.09.59-.12 1.18v.78A12.85 12.85 0 0 0 4.63 65L27.3 91.88V56.72a12.85 12.85 0 0 0-3.02-8.28z" fill="#ed1c24"/><path d="M41.2 42.69a8.41 8.41 0 0 0 7.21-4.09 13.27 13.27 0 0 1 3.84-3c1.71-.83 3.73-1.27 6.91 1.15 6.33 4.81 12.54 7.23 18.52 7.23a21.77 21.77 0 0 0 4.27-.42 22.16 22.16 0 0 0 14.2-9.94 8.41 8.41 0 1 0-14.45-8.48 5.22 5.22 0 0 1-3.12 2c-2.27.38-5.56-.94-9.24-3.74-6.91-5.25-13.38-5.62-17.6-5C41.58 19.83 35.32 28 34.64 29a8.42 8.42 0 0 0 6.56 13.69z" fill="#72bf44"/></svg>