<svg data-name="Layer 1" xmlns="http://www.w3.org/2000/svg" width="152.86" height="200" viewBox="0 0 152.86 200"><title>_</title><path d="M25.8 118.26A47.29 47.29 0 1 0 73.09 71a47.34 47.34 0 0 0-47.29 47.26z" fill="none"/><path d="M12.9 105.36a12.9 12.9 0 0 1 12.9 12.9A47.35 47.35 0 0 1 73.09 71a12.9 12.9 0 0 1 0-25.8A73.18 73.18 0 0 0 0 118.26a12.9 12.9 0 0 1 12.9-12.9z" fill="#ed125f"/><path d="M60.19 178.45a12.9 12.9 0 0 1 12.9-12.9 47.34 47.34 0 0 1-47.29-47.29 12.9 12.9 0 0 1-25.8 0 73.18 73.18 0 0 0 73.09 73.09 12.9 12.9 0 0 1-12.9-12.9z" fill="#2584c5"/><circle cx="12.9" cy="118.26" r="12.9" fill="#5f3267"/><path d="M133.29 131.16a12.9 12.9 0 0 1-12.9-12.9 47.35 47.35 0 0 1-47.29 47.29 12.9 12.9 0 1 1 0 25.8 73.18 73.18 0 0 0 73.1-73.09 12.9 12.9 0 0 1-12.91 12.9z" fill="#faa61a"/><circle cx="73.09" cy="178.45" r="12.9" fill="#57653f"/><path d="M73.09 45.17a12.9 12.9 0 1 1 0 25.8 47.35 47.35 0 0 1 47.29 47.29 12.9 12.9 0 1 1 25.8 0 73.18 73.18 0 0 0-73.09-73.09z" fill="#72bf44"/><circle cx="73.09" cy="58.07" r="12.9" fill="#853135"/><circle cx="133.29" cy="118.26" r="12.9" fill="#7e883f"/><path d="M63.21 39.42A8.35 8.35 0 0 0 68 37.88l19.79-14a8.39 8.39 0 1 0-9.69-13.69l-19.79 14a8.39 8.39 0 0 0 4.9 15.23z" fill="#8e53a1"/></svg>