<svg data-name="Layer 1" xmlns="http://www.w3.org/2000/svg" width="99.91" height="200" viewBox="0 0 99.91 200"><title>_</title><path d="M34.22 100.3l-30 44.78a12.9 12.9 0 1 0 21.38 14.38l24.78-36.95zM65.69 99.7l30-44.78a12.9 12.9 0 0 0-21.38-14.38L49.52 77.49z" fill="#2584c5"/><path d="M12.89 36.21a12.9 12.9 0 0 0-10.42 20.5l31.75 43.59 15.3-22.81-26.19-36a12.88 12.88 0 0 0-10.44-5.28zM50.39 122.51l26.19 36a12.9 12.9 0 0 0 20.86-15.19L65.69 99.7z" fill="#72bf44"/><path fill="#107c47" d="M65.69 99.7L49.52 77.49l-15.3 22.81 16.17 22.21 15.3-22.81z"/></svg>