<svg data-name="Layer 1" xmlns="http://www.w3.org/2000/svg" width="154.83" height="200" viewBox="0 0 154.83 200"><title>_</title><path d="M127.58 47.53q-1.65-1.6-3.37-3.08 1.73 1.47 3.37 3.08zM128.41 48.31a74.21 74.21 0 0 1 6.44 7.35 74.21 74.21 0 0 0-6.44-7.35zM76.72 147.29A47.33 47.33 0 0 0 118 76.95l-64.43 64.31a47 47 0 0 0 23.15 6.03zM127.43 47.43a12.79 12.79 0 0 0-3.83-2.14 12.79 12.79 0 0 1 3.83 2.14zM76.72 52.71A47.3 47.3 0 0 0 35.38 123L99.8 58.7a47 47 0 0 0-23.08-5.99zM115.2 69.66a12.91 12.91 0 0 0 1.62.44 12.89 12.89 0 0 1-1.62-.44zM106.76 54.31a12.89 12.89 0 0 0 3.4 12.25 12.89 12.89 0 0 1-3.4-12.25zM128.41 48.31z" fill="none"/><path d="M43.28 48.31a12.9 12.9 0 0 1 0 18.25A47.35 47.35 0 0 1 99.8 58.7l9.76-9.7q.29-.33.6-.64t.67-.62l7.7-7.68A73.14 73.14 0 0 0 25 48.31a12.9 12.9 0 0 1 18.28 0z" fill="#ed125f"/><path d="M43.28 66.56A12.9 12.9 0 0 1 25 48.31a73.21 73.21 0 0 0-8.39 93.34L35.38 123a47.38 47.38 0 0 1 7.9-56.44z" fill="#2584c5"/><path d="M25 66.56a12.9 12.9 0 1 0 0-18.25 12.86 12.86 0 0 0 0 18.25z" fill="#5f3267"/><path d="M110.16 151.69a12.9 12.9 0 0 1 0-18.25 47.35 47.35 0 0 1-56.59 7.82l-9.19 9.17A13 13 0 0 1 42 152.8l-7.15 7.14a72.57 72.57 0 0 0 41.87 13.16 72.62 72.62 0 0 0 51.69-21.41 12.9 12.9 0 0 1-18.25 0z" fill="#faa61a"/><path d="M43.28 151.68a13 13 0 0 0 1.1-1.25L42 152.8a13 13 0 0 0 1.28-1.12z" fill="#57653f"/><path d="M110.16 48.31q-.31.31-.6.64l1.27-1.26q-.34.31-.67.62z" fill="#ed1c24"/><path d="M118 76.95a47.36 47.36 0 0 1-7.88 56.49 12.9 12.9 0 1 1 18.25 18.25 73.14 73.14 0 0 0 8.35-93.42z" fill="#f37021"/><path d="M128.41 133.44a12.9 12.9 0 1 0 0 18.25 12.86 12.86 0 0 0 0-18.25z" fill="#f15623"/><path d="M124.21 44.44q1.73 1.48 3.38 3.08c.27.27.55.52.82.79a74.21 74.21 0 0 1 6.44 7.35q1 1.28 1.91 2.61l5.1-5.09a12.9 12.9 0 1 0-18.22-18.27L118.52 40q1.31.92 2.59 1.9c1.05.82 2.08 1.67 3.1 2.54zM128.41 48.31zM110.16 66.56A47.51 47.51 0 0 0 99.8 58.7L35.38 123a47.16 47.16 0 0 0 7.9 10.47l.06.06a47.51 47.51 0 0 0 10.23 7.76L118 76.95a47.51 47.51 0 0 0-7.88-10.39zM25 151.68a73.26 73.26 0 0 1-8.39-10L11.3 147a12.9 12.9 0 0 0 18.22 18.27l5.33-5.31a73.94 73.94 0 0 1-9.74-8.18z" fill="#72bf44"/><path d="M25.11 151.76l-.11-.08a12.9 12.9 0 0 1 18.25-18.24l.06.06-.06-.06A47.16 47.16 0 0 1 35.38 123l-18.73 18.66a73.26 73.26 0 0 0 8.39 10z" fill="#107c47"/><path d="M34.16 155.46a12.86 12.86 0 0 1-9-3.7 73.94 73.94 0 0 0 9.74 8.18l7.1-7.14a12.87 12.87 0 0 1-7.84 2.66zM44.38 150.44l9.19-9.17a47.51 47.51 0 0 1-10.23-7.76 12.91 12.91 0 0 1 1.04 16.93z" fill="#7e883f"/><path d="M43.34 133.5l-.06-.06A12.9 12.9 0 0 0 25 151.68l.08.08a12.91 12.91 0 0 0 16.9 1l2.37-2.37a12.91 12.91 0 0 0-1.01-16.89z" fill="#346241"/><path d="M128.41 48.32a12.9 12.9 0 0 1-18.25 18.24A47.51 47.51 0 0 1 118 76.95l18.72-18.68q-.92-1.32-1.91-2.61a74.21 74.21 0 0 0-6.4-7.34zM110.16 66.56z" fill="#83613a"/><circle cx="128.41" cy="48.31" transform="rotate(-50.19 128.422 48.31)" fill="#83613a"/><path d="M109.56 49l-9.76 9.7a47.51 47.51 0 0 1 10.36 7.86 12.89 12.89 0 0 1-3.4-12.25 12.89 12.89 0 0 0 3.4 12.25 13.3 13.3 0 0 0 6.66 3.54 12.9 12.9 0 0 0 11.59-21.79c-.27-.27-.55-.52-.82-.79q-1.65-1.6-3.37-3.08c-1-.87-2-1.72-3.1-2.53q-1.27-1-2.59-1.9l-7.7 7.68zm14-3.67a12.79 12.79 0 0 1 3.83 2.14 12.79 12.79 0 0 0-3.8-2.18z" fill="#853135"/><path d="M128.41 48.31" fill="none"/></svg>