<svg data-name="Layer 1" xmlns="http://www.w3.org/2000/svg" width="131.81" height="200" viewBox="0 0 131.81 200"><title>_</title><path d="M12.9 48A12.9 12.9 0 0 0 0 60.88v72.46a12.9 12.9 0 1 1 25.8 0V60.88A12.9 12.9 0 0 0 12.9 48z" fill="#ed125f"/><path d="M107.06 120.44a12.9 12.9 0 0 1 12.9 12.9V60.88a12.9 12.9 0 0 0-25.8 0v72.46a12.9 12.9 0 0 1 12.9-12.9z" fill="#2584c5"/><path d="M12.9 146.24A12.9 12.9 0 0 1 0 133.34c0 29.71 27.43 54.82 59.89 54.82S120 163.06 120 133.34a12.9 12.9 0 0 1-25.8 0c0 7.26-3.53 14.33-9.95 19.9a37.58 37.58 0 0 1-24.32 9.11c-18.16 0-34.09-13.56-34.09-29a12.9 12.9 0 0 1-12.94 12.89z" fill="#72bf44"/><circle cx="12.9" cy="133.34" r="12.9" fill="#853135"/><circle cx="107.06" cy="133.34" r="12.9" fill="#107c47"/><path d="M43.24 15.38a8.39 8.39 0 0 0 2 11.69L65 41.08a8.39 8.39 0 1 0 9.69-13.69l-19.79-14a8.39 8.39 0 0 0-11.66 1.99z" fill="#72bf44"/></svg>