<svg data-name="Layer 1" xmlns="http://www.w3.org/2000/svg" width="127.72" height="200" viewBox="0 0 127.72 200"><title>_</title><path d="M12.9 120.12A12.9 12.9 0 0 1 25.8 133V60.56a12.9 12.9 0 0 0-25.8 0V133a12.9 12.9 0 0 1 12.9-12.88z" fill="#ed125f"/><path d="M107.06 120.12A12.9 12.9 0 0 1 120 133V60.56a12.9 12.9 0 0 0-25.8 0V133a12.9 12.9 0 0 1 12.86-12.88z" fill="#2584c5"/><path d="M59.89 187.84c32.56 0 60.06-25.1 60.06-54.82a12.9 12.9 0 0 1-25.8 0c0 7.26-3.53 14.33-9.95 19.9A37.58 37.58 0 0 1 59.89 162c-18.16 0-34.09-13.56-34.09-29A12.9 12.9 0 0 1 0 133c0 29.73 27.43 54.84 59.89 54.84z" fill="#72bf44"/><circle cx="12.9" cy="133.02" r="12.9" fill="#853135"/><circle cx="107.06" cy="133.02" r="12.9" fill="#107c47"/><path d="M64.82 13.7a8.39 8.39 0 0 0-9.69 0l-19.79 14A8.39 8.39 0 1 0 45 41.4l15-10.58L74.93 41.4a8.39 8.39 0 1 0 9.69-13.69z" fill="#faa61a"/></svg>