<svg data-name="Layer 1" xmlns="http://www.w3.org/2000/svg" width="128" height="200" viewBox="0 0 128 200"><title>_</title><path d="M12.9 47.79A12.9 12.9 0 0 0 0 60.69v72.46a12.9 12.9 0 0 1 25.8 0V60.69a12.9 12.9 0 0 0-12.9-12.9z" fill="#ed125f"/><path d="M107.06 120.25a12.9 12.9 0 0 1 12.9 12.9V60.69a12.9 12.9 0 1 0-25.8 0v72.46a12.9 12.9 0 0 1 12.9-12.9z" fill="#2584c5"/><path d="M12.9 146.06A12.9 12.9 0 0 1 0 133.15C0 162.87 27.43 188 59.89 188S120 162.87 120 133.15a12.9 12.9 0 1 1-25.8 0c0 7.26-3.53 14.33-9.95 19.9a37.58 37.58 0 0 1-24.31 9.11c-18.16 0-34.09-13.56-34.09-29a12.9 12.9 0 0 1-12.95 12.9z" fill="#72bf44"/><circle cx="12.9" cy="133.15" r="12.9" fill="#853135"/><circle cx="107.06" cy="133.15" r="12.9" fill="#107c47"/><path d="M38.37 41.78a12.9 12.9 0 0 0 12.9-12.9v-2.52a12.9 12.9 0 0 0-25.8 0v2.51a12.9 12.9 0 0 0 12.9 12.91z" fill="#ed125f"/><path d="M94.49 28.88v-2.52a12.9 12.9 0 0 0-25.8 0v2.51a12.9 12.9 0 1 0 25.8.01z" fill="#faa61a"/></svg>