<svg data-name="Layer 1" xmlns="http://www.w3.org/2000/svg" width="200" height="200" viewBox="0 0 200 200"><title>_</title><path d="M90.09 131.67v-.17-.43-.74c0-.25 0-.36.07-.53s.05-.45.1-.68.1-.43.15-.65.08-.36.13-.54q.17-.59.39-1.16a12.86 12.86 0 0 1 .7-1.45c.12-.22.27-.42.41-.64s.27-.46.43-.68l.08-.11L103 109.56 61.37 52.31A12.9 12.9 0 1 0 40.5 67.48l49.59 68.21v-4z" fill="#faa61a"/><path d="M113.43 123.91c.08.11.15.22.22.33s.26.38.38.57.16.29.25.44.21.37.3.56.17.38.25.56.14.31.21.47c.14.35.26.71.36 1.08q.12.43.21.87c0 .15.05.3.08.45s.05.29.07.44 0 .36.06.53 0 .24 0 .37V135.64l49.59-68.21a12.9 12.9 0 1 0-20.87-15.17L103 109.56l10.33 14.21z" fill="#72bf44"/><path d="M115.62 128.84c0 .15.05.3.08.45-.02-.15-.05-.29-.08-.45zM115.78 129.73c0 .18 0 .36.06.53-.03-.18-.04-.35-.06-.53zM115.87 130.63v.55c.01-.18.01-.37 0-.55zM90.47 128.47c0-.18.08-.36.13-.54-.06.18-.09.36-.13.54zM90.12 131.07v-.74c.01.24 0 .49 0 .74zM90.22 129.79c0-.23.06-.45.1-.68-.05.23-.07.46-.1.68zM103 118.6a12.88 12.88 0 0 1 10.33 5.18L103 109.56 92.64 123.8a12.88 12.88 0 0 1 10.36-5.2z" fill="#7e883f"/><path d="M113.43 139.08l-.23.29c-.11.15-.22.29-.34.44s-.45.52-.69.76-.52.5-.79.73-.33.26-.5.39l-.3.24h-.06c-.29.21-.59.4-.89.58l-.14.09c-.35.21-.71.4-1.08.57a12.84 12.84 0 0 1-5.41 1.23 12.84 12.84 0 0 1-5.46-1.22c-.36-.17-.71-.36-1.05-.56l-.15-.09c-.29-.18-.58-.36-.85-.56h-.06l-.3-.23-.47-.37c-.27-.23-.53-.46-.77-.71s-.48-.51-.71-.78-.24-.3-.35-.45l-.24-.31-.17-.24-2.29-3.16v36.44a12.9 12.9 0 1 0 25.8 0v-36.47l-2.3 3.16z" fill="#ed125f"/><path d="M108.41 143.21a13 13 0 0 1-5.41 1.19 12.84 12.84 0 0 0 5.41-1.19zM96.47 142.63c.34.2.69.39 1.05.56q-.52-.26-1.05-.56zM112.86 139.81c.12-.14.23-.29.34-.44zM90.09 131.67v4l2.29 3.16a12.93 12.93 0 0 1-2.29-7.16zM94.64 141.33l.47.37zM91.72 125.23c.12-.22.27-.42.41-.64-.13.22-.29.41-.41.64zM95.47 142c.28.2.56.38.85.56-.32-.2-.57-.39-.85-.56z" fill="#ed1c24"/><path d="M115.9 131.5v-.32-.55-.37c0-.13 0-.36-.06-.53s0-.29-.07-.44 0-.3-.08-.45-.13-.59-.21-.87c-.1-.36-.23-.72-.36-1.08-.06-.16-.14-.32-.21-.47s-.16-.38-.25-.56-.2-.37-.3-.56-.16-.3-.25-.44-.25-.38-.38-.57-.14-.22-.22-.33l-.1-.14a12.9 12.9 0 0 0-20.69 0l-.08.11c-.16.22-.29.45-.43.68s-.28.42-.41.64a12.86 12.86 0 0 0-.7 1.45q-.22.57-.39 1.16c-.05.18-.09.36-.13.54s-.11.43-.15.65-.07.45-.1.68-.05.35-.07.53 0 .49 0 .74v.6a12.93 12.93 0 0 0 2.29 7.18l.17.24.24.31c.12.15.23.3.35.45s.47.53.71.78.5.48.77.71l.47.37.3.23h.06c.28.2.56.38.85.56l.15.09q.52.3 1.05.56a12.84 12.84 0 0 0 5.33 1.32 13 13 0 0 0 5.42-1.19c.37-.17.73-.36 1.08-.57l.14-.09c.3-.18.6-.37.89-.58h.06l.3-.24c.17-.13.34-.26.5-.39s.54-.48.79-.73.47-.49.69-.76l.34-.44.23-.29.17-.23 2.3-3.16v-4.23z" fill="#853135"/><path d="M112.88 15a8.35 8.35 0 0 0-4.88 1.5l-19.79 14a8.39 8.39 0 1 0 9.73 13.7l19.79-14a8.39 8.39 0 0 0-4.85-15.2z" fill="#8e53a1"/></svg>