<svg data-name="Layer 1" xmlns="http://www.w3.org/2000/svg" width="200" height="200" viewBox="0 0 200 200"><title>_</title><path d="M118.38 101.17c.06-2.27.21-8.6-16.8-13.83v30.35c5.76-.46 10-1.89 12.63-4.23.98-.89 3.96-3.6 4.17-12.29z" fill="none"/><path d="M88.68 31a12.9 12.9 0 0 0-12.9 12.9v112.22a12.9 12.9 0 0 0 25.8 0v-12.59q-2.24.12-4.59.12-3.4 0-7-.26a12.9 12.9 0 0 1 .91-25.77h.93q2.82.2 5.36.2 2.32 0 4.4-.17V87.34c-2.41-.74-5.17-1.46-8.32-2.14A12.9 12.9 0 1 1 98.73 60l2.85.65V43.88A12.9 12.9 0 0 0 88.68 31z" fill="#ed125f"/><path d="M118.38 101.17c-.21 8.69-3.19 11.4-4.17 12.29-2.58 2.34-6.87 3.77-12.63 4.23v25.84c12.66-.7 22.72-4.38 30-11 8.05-7.31 12.3-17.66 12.62-30.76.22-9-2.66-21.82-17.64-31.42-6.46-4.14-14.44-7.27-25-9.76v26.75c17.03 5.23 16.87 11.56 16.82 13.83z" fill="#2584c5"/><path d="M97.18 117.86q-2.54 0-5.36-.2h-.93a12.9 12.9 0 0 0-.89 25.73q3.63.26 7 .26 2.35 0 4.59-.12v-25.84q-2.09.17-4.41.17zM96 59.68a12.9 12.9 0 0 0-2.72 25.51c3.15.68 5.91 1.4 8.32 2.14V60.62L98.73 60a13 13 0 0 0-2.73-.32z" fill="#5f3267"/></svg>