<svg data-name="Layer 1" xmlns="http://www.w3.org/2000/svg" width="140.41" height="200" viewBox="0 0 140.41 200"><title>_</title><path fill="none" d="M70.49 92.66l-23.35 45.98h46.71L70.49 92.66z"/><path d="M67.19 51.72l.56-.15zM69.69 51.31h.62zM68.47 51.45l.53-.09zM62.88 53.77l.51-.36zM65.31 52.36zM61.09 55.35l.38-.35zM60 56.66c.2-.28.41-.55.63-.82-.19.26-.4.53-.63.82zM63.89 53.1l.57-.32zM71 51.29h.74zM65.46 52.3c.35-.15.71-.29 1.07-.4-.36.1-.72.25-1.07.4zM81.64 57.69l.23.42zM78.58 54.12l-.22-.12zM77.59 53.4l-.22-.14.13.08zM7.64 187.92A12.9 12.9 0 0 0 25 182.26l9-17.81h-7.9a12.9 12.9 0 1 1 0-25.8h21l23.35-46L59 70a12.88 12.88 0 0 1-.06-11.57l.06-.1L2 170.57a12.9 12.9 0 0 0 5.64 17.35zM59.72 57.08a13 13 0 0 0-.72 1.25c.13-.25.28-.48.42-.71s.19-.37.3-.54zM80.33 55.82l.15.18zM81 56.72l.25.37zM74.81 52l.65.25zM73.53 51.65l.74.2zM72.25 51.4l.75.13zM61.95 54.52l.45-.38z" fill="#2584c5"/><path d="M76.57 52.8l.43.2zM82 70L70.49 92.66l23.35 46h21a12.9 12.9 0 1 1 0 25.8H107l9 17.81a12.9 12.9 0 0 0 23-11.68L82.06 58.46A12.88 12.88 0 0 1 82 70zM70.5 51.27h-.81l-.69.09-.56.09c-.24 0-.47.07-.71.12l-.56.15c-.22.06-.44.11-.66.18s-.72.25-1.07.4h-.12a13 13 0 0 1 5.18-1.03zM59.81 56.94l-.09.13c-.11.17-.21.36-.31.54.13-.22.25-.45.4-.67zM77.88 53.6l-.29-.2-.09-.06zM78.71 54.23l-.13-.11-.17-.12z" fill="#72bf44"/><path d="M59 70l11.5 22.65L82 70a12.88 12.88 0 0 0 .07-11.55l-.07-.12-.13-.23-.23-.42c-.12-.2-.24-.4-.37-.6l-.27-.36c-.17-.24-.35-.48-.54-.7l-.16-.2c-.22-.26-.46-.52-.7-.76l-.05-.05c-.25-.24-.51-.47-.78-.69l-.36-.32-.48-.36-.38-.25-.13-.08L77 53l-.42-.23-.24-.13-.53-.25-.32-.12-.68-.27-.54-.18-.74-.2-.53-.09-.77-.13-.53-.06H70.5a13 13 0 0 0-5.16 1.07l-.66.31-.2.11-.57.32-.49.31-.51.36-.49.37-.45.38-.5.43-.38.39-.19.2-.16.2c-.22.26-.43.53-.63.82-.07.1-.15.19-.22.29s-.26.45-.4.67-.29.46-.42.71l-.06.11A12.88 12.88 0 0 0 59 70z" fill="#107c47"/><path fill="#ed125f" d="M47.14 138.64l-13.11 25.81h72.92l-13.1-25.81H47.14z"/><path d="M26.14 138.64a12.9 12.9 0 1 0 0 25.8H34l13.11-25.8h-21z" fill="#5f3267"/><path d="M127.77 151.54a12.9 12.9 0 0 0-12.9-12.9h-21L107 164.45h7.91a12.9 12.9 0 0 0 12.86-12.91z" fill="#853135"/><path d="M72.11 39.92a8.39 8.39 0 1 0 9.69-13.69L62 12.22a8.39 8.39 0 1 0-9.69 13.69z" fill="#72bf44"/></svg>