<svg data-name="Layer 1" xmlns="http://www.w3.org/2000/svg" width="140.12" height="200" viewBox="0 0 140.12 200"><title>_</title><path fill="none" d="M93.56 138.64L70.21 92.66l-23.36 45.98h46.71z"/><path d="M68.07 51.46l.64-.1zM72 51.41l.82.14zM77 53.23l.22.14zM78.21 54.06l.17.14zM73.29 51.65c.26.07.53.14.79.22-.27-.07-.53-.15-.79-.22zM69.34 51.31h.69zM74.58 52l.7.28zM70.69 51.29l.79.05zM81.32 57.63l.27.48zM80 55.72l.31.38zM76.21 52.76l-.21-.09.12.07zM61.71 54.47l.42-.35zM62.64 53.73l.48-.33zM59.48 57a13 13 0 0 0-.77 1.31c.13-.26.29-.49.43-.73s.21-.37.34-.58zM59.77 56.61q.33-.46.7-.88-.36.42-.7.88zM60.85 55.3l.35-.35zM66.44 51.84zM80.68 56.65l.32.44zM79.14 54.87l.28.29zM65 52.39c.31-.14.62-.25.93-.36-.36.11-.67.23-.93.36zM7.36 187.92a12.89 12.89 0 0 0 17.35-5.66l9-17.81h-7.9a12.9 12.9 0 0 1 0-25.8h21l23.35-46L58.7 70a12.88 12.88 0 0 1 0-11.6v-.09l-57 112.24a12.9 12.9 0 0 0 5.66 17.37zM63.64 53.08l.52-.3z" fill="#2584c5"/><path d="M70.22 51.27H68.69l-.64.1c-.22 0-.43.06-.65.11s-.66.17-1 .27l-.52.25c-.31.11-.62.23-.93.36h-.08a13 13 0 0 1 5.35-1.09zM59.57 56.87l-.1.16c-.12.19-.22.38-.34.58.15-.25.29-.51.44-.74zM77.5 53.54l-.25-.17-.25-.14q-.4-.25-.82-.47a13 13 0 0 1 1.32.78zM81.71 70l-11.5 22.66 23.35 46h21a12.9 12.9 0 0 1 0 25.8h-7.91l9 17.81a12.9 12.9 0 1 0 23-11.68l-57-112.13A12.88 12.88 0 0 1 81.71 70zM78.92 54.65c-.17-.16-.35-.3-.53-.45l-.17-.14-.54-.4a12.87 12.87 0 0 1 1.24.99z" fill="#72bf44"/><path d="M58.7 70l11.5 22.65L81.71 70a12.88 12.88 0 0 0 .06-11.57l-.06-.12-.12-.21-.27-.48c-.11-.19-.22-.37-.34-.55l-.3-.44c-.13-.19-.27-.37-.41-.54l-.27-.37c-.17-.2-.35-.38-.53-.57l-.28-.29-.07-.07-.06-.05a12.87 12.87 0 0 0-1.24-1l-.17-.12a13 13 0 0 0-1.34-.8l-.31-.15-.4-.19-.37-.15-.65-.33-.51-.17c-.26-.08-.52-.16-.79-.22l-.49-.11-.79-.09-.51-.06-.79-.05h-.48a13 13 0 0 0-5.34 1.16l-.51.24-.21.12-.52.3-.52.32-.48.33-.51.39-.42.35-.51.47-.35.35-.13.13-.17.22q-.36.42-.7.88c-.06.09-.14.17-.2.26s-.29.49-.44.73-.3.47-.43.73v.09A12.88 12.88 0 0 0 58.7 70z" fill="#107c47"/><path fill="#ed125f" d="M46.85 138.64l-13.1 25.81h72.92l-13.11-25.81H46.85z"/><path d="M46.85 138.64h-21a12.9 12.9 0 0 0 0 25.8h7.9z" fill="#5f3267"/><path d="M127.48 151.55a12.9 12.9 0 0 0-12.9-12.9h-21l13.11 25.8h7.91a12.9 12.9 0 0 0 12.88-12.9z" fill="#853135"/><path d="M83.11 10.68a8.35 8.35 0 0 0-4.84 1.54l-19.79 14a8.39 8.39 0 1 0 9.69 13.69l19.83-14a8.39 8.39 0 0 0-4.89-15.23z" fill="#8e53a1"/></svg>