<svg data-name="Layer 1" xmlns="http://www.w3.org/2000/svg" width="139.83" height="200" viewBox="0 0 139.83 200"><title>_</title><path fill="none" d="M93.27 134.45L69.91 88.47l-23.35 45.98h46.71z"/><path d="M70.38 47.1h.73zM78.72 50.56l.28.27zM79.65 51.53l.15.17zM77 49.24l-.24-.16.24.12zM65.38 47.92l.62-.23zM80.48 52.58l.19.29zM69.15 47.11h.58zM71.63 47.21l.76.12zM72.9 47.44l.73.2zM74.18 47.82l.65.24zM67.94 47.24l.52-.08zM63.31 48.91l.57-.33zM59.14 52.89a13 13 0 0 0-.73 1.25c.13-.25.28-.48.42-.72s.17-.36.31-.53zM61.37 50.32l.45-.38zM60.51 51.16l.38-.39zM62.3 49.57l.51-.36zM81.08 53.53l.2.37zM64.55 48.25l.27-.13zM7.06 183.73a12.89 12.89 0 0 0 17.34-5.66l9-17.81h-7.9a12.9 12.9 0 1 1 0-25.8h21l23.35-46-11.44-22.64a12.88 12.88 0 0 1-.06-11.56L1.4 166.38a12.9 12.9 0 0 0 5.66 17.35zM78.08 50l-.28-.22.2.14zM66.7 47.5l.52-.13zM59.45 52.46z" fill="#2584c5"/><path d="M76 48.6l.44.25zM77.39 49.47l-.39-.23v-.04zM69.92 47.08h-.77l-.69.05-.52.08-.72.13-.52.13-.7.22-.63.23-.47.17a13 13 0 0 1 5.02-1.01zM78.3 50.17l-.22-.17-.08-.08zM81.42 65.82L69.91 88.47l23.35 46h21a12.9 12.9 0 1 1 0 25.8h-7.91l9 17.81a12.9 12.9 0 1 0 23-11.68L81.48 54.26a12.88 12.88 0 0 1-.06 11.56zM59.23 52.75l-.09.14c-.11.17-.2.36-.31.53.17-.22.26-.42.4-.67z" fill="#72bf44"/><path d="M58.41 65.82l11.5 22.65 11.5-22.65a12.88 12.88 0 0 0 .06-11.56l-.06-.12-.13-.24-.2-.37c-.13-.23-.27-.45-.41-.66l-.19-.29q-.32-.46-.67-.88l-.15-.17c-.14-.16-.28-.33-.43-.48l-.23-.22-.29-.27-.42-.39-.29-.25-.18-.15-.4-.3-.42-.27-.18-.12-.38-.23-.44-.25-.22-.13-.66-.31-.27-.1-.65-.24-.55-.18-.73-.2-.51-.11-.76-.12-.53-.06h-1.2a13 13 0 0 0-5 1h-.09l-.27.13-.48.22-.19.11-.57.33-.49.3-.51.36-.49.37-.45.38-.48.45-.38.39-.19.2-.16.2c-.22.26-.43.53-.63.81-.07.1-.15.19-.22.29s-.26.45-.39.67-.3.47-.42.72l-.06.12a12.88 12.88 0 0 0-.04 11.62z" fill="#107c47"/><path fill="#ed125f" d="M46.56 134.45l-13.11 25.8h72.93l-13.11-25.8H46.56z"/><path d="M46.56 134.45h-21a12.9 12.9 0 1 0 0 25.8h7.9l13.11-25.8z" fill="#5f3267"/><path d="M127.19 147.35a12.9 12.9 0 0 0-12.9-12.9h-21l13.11 25.8h7.91a12.9 12.9 0 0 0 12.88-12.9z" fill="#853135"/><path d="M50.14 45.65A8.35 8.35 0 0 0 55 44.11l14.92-10.58 14.95 10.58a8.39 8.39 0 0 0 9.69-13.69l-19.79-14a8.39 8.39 0 0 0-9.69 0l-19.79 14a8.39 8.39 0 0 0 4.85 15.23z" fill="#faa61a"/></svg>