<svg data-name="Layer 1" xmlns="http://www.w3.org/2000/svg" width="139.83" height="200" viewBox="0 0 139.83 200"><title>_</title><path fill="none" d="M93.27 138.16L69.92 92.18l-23.36 45.98h46.71z"/><path d="M79.68 55.26l.12.13zM77 52.94l-.23-.15.23.11zM78.07 53.7l-.28-.22.21.14zM81.07 57.23l.21.38zM58.48 57.72l-.07.12v-.06zM80.47 56.27l.21.31zM67.82 51l.6-.1zM63.4 52.56l.46-.26zM64.68 51.9c.33-.15.66-.27 1-.39-.33.12-.68.24-1 .39zM62.42 53.19l.42-.28zM66.43 51.28c.24-.07.48-.14.72-.19-.25.05-.49.12-.72.19zM59.73 55.78l.13-.17zM61.5 53.91l.34-.28zM78.72 54.27l.28.27zM74.21 51.53l.58.22zM59 56.84l.17-.27zM73 51.16l.65.18zM69.07 50.83h.66zM70.52 50.81h.65zM60.66 54.7l.11-.11zM71.74 50.92l.68.08zM24.41 181.77l9-17.81h-7.9a12.9 12.9 0 0 1 0-25.8h21l23.35-46-11.45-22.63A12.88 12.88 0 0 1 58.36 58l.06-.11L1.4 170.09a12.9 12.9 0 1 0 23.01 11.68z" fill="#2584c5"/><path d="M76 52.3l.44.25zM81.42 69.53L69.91 92.18l23.35 46h21a12.9 12.9 0 0 1 0 25.8h-7.91l9 17.81a12.9 12.9 0 1 0 23-11.68L81.48 58a12.88 12.88 0 0 1-.06 11.53zM78.29 53.87l-.22-.18-.07-.07zM59.37 56.25l-.21.32-.16.27q-.27.43-.51.89v.06a13 13 0 0 1 .88-1.54zM77.38 53.17l-.38-.23v-.04zM69.92 50.78H68.43l-.6.1c-.23 0-.45.07-.68.12s-.48.13-.72.19-.5.14-.74.23-.67.24-1 .39h-.06a13 13 0 0 1 5.29-1.03zM60.55 54.81c-.24.26-.47.52-.69.79l-.13.17-.3.4a12.83 12.83 0 0 1 1.12-1.36z" fill="#72bf44"/><path d="M58.41 69.53l11.5 22.65 11.5-22.65A12.88 12.88 0 0 0 81.48 58l-.06-.12-.13-.24-.21-.38c-.13-.22-.26-.43-.4-.64l-.21-.31c-.21-.31-.44-.6-.67-.88l-.12-.13c-.16-.19-.33-.38-.5-.55l-.18-.21-.29-.27-.43-.39-.28-.26-.17-.14-.42-.31-.41-.27-.17-.11-.41-.24-.42-.25-.21-.12-.71-.33-.26-.1-.58-.22-.59-.19-.65-.18-.58-.16-.68-.12-.57-.07h-1.25a13 13 0 0 0-5.3 1.14l-.55.26-.22.12-.46.26-.56.35-.42.28-.57.44-.34.28q-.38.33-.74.69l-.11.11a12.83 12.83 0 0 0-1.13 1.37l-.05.07a13 13 0 0 0-.92 1.53v.06l-.19.23a12.88 12.88 0 0 0 .05 11.53z" fill="#107c47"/><path fill="#ed125f" d="M46.56 138.16l-13.11 25.8h72.93l-13.11-25.8H46.56z"/><path d="M46.56 138.16h-21a12.9 12.9 0 0 0 0 25.8h7.9z" fill="#5f3267"/><path d="M127.19 151.06a12.9 12.9 0 0 0-12.9-12.9h-21L106.37 164h7.91a12.9 12.9 0 0 0 12.91-12.94z" fill="#853135"/><path d="M95.92 13.25a8.41 8.41 0 0 0-7.63 4.87 5.22 5.22 0 0 1-3.12 2c-2.27.38-5.56-.94-9.24-3.74-6.91-5.25-13.38-5.62-17.6-5C48.2 12.87 41.94 21.07 41.26 22A8.41 8.41 0 1 0 55 31.63a13.27 13.27 0 0 1 3.84-3c1.71-.83 3.73-1.27 6.91 1.15C72.11 34.56 78.32 37 84.3 37a21.78 21.78 0 0 0 4.27-.42 22.16 22.16 0 0 0 14.2-9.94 8.41 8.41 0 0 0-6.85-13.39z" fill="#72bf44"/></svg>