<svg data-name="Layer 1" xmlns="http://www.w3.org/2000/svg" width="139.83" height="200" viewBox="0 0 139.83 200"><title>_</title><path fill="none" d="M46.56 137.74h46.71L69.91 91.76l-23.35 45.98z"/><path d="M72.9 50.73l.79.22zM69 50.41h.71zM81.06 56.78l.23.41zM74.21 51.12l.71.28zM78 53.24l-.24-.19.09.07zM70.28 50.38h.82c-.28.02-.55.01-.82 0zM77 52.51l-.23-.15.16.1zM12.66 150.64a12.9 12.9 0 0 1 12.9-12.9h21l23.36-46-11.51-22.63a12.88 12.88 0 0 1-.07-11.55l.07-.13L1.4 169.67a12.9 12.9 0 1 0 23 11.68l9-17.81h-7.9a12.9 12.9 0 0 1-12.84-12.9zM71.59 50.49c.28 0 .56.08.83.13zM59.94 55.1l-.23.3.11-.14zM60.5 54.45l.23-.25zM59.2 56.1l-.2.28.13-.2zM64.66 51.49c.3-.14.61-.25.92-.36-.31.11-.58.22-.92.36zM62.5 52.72l.31-.21zM63.46 52.11l.37-.21zM61.5 53.49l.11-.1zM66.09 51c.35-.11.7-.21 1-.28-.31.03-.66.13-1 .28zM80.44 55.82l.24.37zM79.75 54.92l.15.19zM67.75 50.56l.67-.11zM78.8 53.92l.14.08z" fill="#2584c5"/><path d="M76 51.91l.42.24zM58.59 57.1c.1-.18.2-.37.31-.55-.11.19-.21.37-.31.55zM81.48 57.56a12.88 12.88 0 0 1-.07 11.55l-11.5 22.65 23.36 46h21a12.9 12.9 0 0 1 0 25.8h-7.91l9 17.81a12.9 12.9 0 1 0 23-11.68zM78.18 53.36l-.18-.12-.15-.11zM69.91 50.36h-1.48l-.67.11-.62.11c-.35.08-.7.18-1 .28l-.51.17c-.31.11-.62.22-.92.36h-.09a13 13 0 0 1 5.29-1.03zM59.47 55.69c-.1.13-.18.27-.27.41l-.05.08c.1-.18.21-.33.32-.49zM77.34 52.72l-.34-.21h-.08zM60.11 54.88l-.18.22-.12.15z" fill="#72bf44"/><path d="M58.41 69.11l11.5 22.65 11.5-22.65a12.88 12.88 0 0 0 .07-11.55l-.07-.13-.13-.23-.23-.41c-.12-.2-.24-.4-.37-.6l-.24-.37c-.17-.24-.35-.48-.54-.71l-.15-.19q-.33-.39-.69-.76l-.14-.13c-.2-.19-.41-.38-.62-.56l-.31-.24-.09-.07-.45-.33-.39-.26-.16-.1-.36-.21-.54-.35-.26-.14-.51-.25-.32-.13-.71-.28-.52-.17-.79-.22-.48-.11c-.28-.05-.55-.1-.83-.13l-.49-.06H69.9a13 13 0 0 0-5.34 1.16l-.51.24-.24.14-.37.21-.65.4-.31.21c-.31.21-.6.44-.89.68l-.11.1c-.2.17-.4.34-.58.52l-.08.09-.23.25-.39.42-.3.38-.11.14-.23.29c-.11.16-.22.32-.33.49l-.13.2-.11.18c-.11.18-.21.36-.31.55s-.12.21-.18.32l-.07.13a12.88 12.88 0 0 0-.02 11.59z" fill="#107c47"/><path fill="#ed125f" d="M46.56 137.74l-13.11 25.8h72.93l-13.11-25.8H46.56z"/><path d="M46.56 137.74h-21a12.9 12.9 0 0 0 0 25.8h7.9l13.11-25.8z" fill="#5f3267"/><path d="M127.19 150.64a12.9 12.9 0 0 0-12.9-12.9h-21l13.11 25.8h7.91a12.9 12.9 0 0 0 12.88-12.9z" fill="#853135"/><path d="M35.76 24.49V27a12.9 12.9 0 1 0 25.8 0v-2.51a12.9 12.9 0 0 0-25.8 0z" fill="#ed125f"/><path d="M79 24.49V27a12.9 12.9 0 0 0 25.8 0v-2.51a12.9 12.9 0 0 0-25.8 0z" fill="#faa61a"/></svg>