<svg data-name="Layer 1" xmlns="http://www.w3.org/2000/svg" width="140.36" height="200" viewBox="0 0 140.36 200"><title>_</title><path fill="none" d="M47.09 136.79H93.8L70.44 90.81l-23.35 45.98z"/><ellipse cx="70.44" cy="36.44" rx="8.01" ry="7.13" fill="none"/><path d="M13.19 149.69a12.9 12.9 0 0 1 12.9-12.9h21l23.36-46-11.51-22.63a12.87 12.87 0 0 1-.42-10.78L1.93 168.72a12.9 12.9 0 1 0 23 11.68l9-17.81h-7.9a12.9 12.9 0 0 1-12.84-12.9z" fill="#2584c5"/><path d="M82.4 57.37a12.87 12.87 0 0 1-.42 10.78L70.44 90.81l23.35 46h21a12.9 12.9 0 1 1 0 25.8h-7.91l9 17.81a12.9 12.9 0 1 0 23-11.68z" fill="#72bf44"/><path d="M70.44 60.34a25.34 25.34 0 0 1-11.92-3 12.87 12.87 0 0 0 .42 10.78l11.5 22.65 11.5-22.65a12.87 12.87 0 0 0 .42-10.78 25.34 25.34 0 0 1-11.92 3z" fill="#107c47"/><path fill="#ed125f" d="M47.09 136.79l-13.11 25.8h72.93l-13.11-25.8H47.09z"/><path d="M47.09 136.79h-21a12.9 12.9 0 0 0 0 25.8H34l13.11-25.8z" fill="#5f3267"/><path d="M127.72 149.69a12.9 12.9 0 0 0-12.9-12.9h-21l13.11 25.8h7.91a12.9 12.9 0 0 0 12.88-12.9z" fill="#853135"/><path d="M58.94 56.48c.06-.13.14-.24.21-.36s.23-.42.35-.62.2-.29.29-.43.24-.36.37-.54.27-.33.41-.49.22-.28.34-.41q.4-.44.83-.83h.05A12.84 12.84 0 0 1 63 51.76l.18-.13a12.93 12.93 0 0 1 1.27-.75l.11-.06.44-.22a12.84 12.84 0 0 1 5.38-1.18 12.83 12.83 0 0 1 5.24 1.12l.57.27.11.06a12.92 12.92 0 0 1 1.38.83l.32.17a12.8 12.8 0 0 1 1.27 1q.41.38.78.81c.11.13.22.26.32.4s.26.31.38.47.25.45.4.58.19.27.27.41.23.4.34.6.13.22.19.33l.05.16.37.74a23.81 23.81 0 0 0 12.85-20.93c0-13.18-11.11-23.9-24.78-23.9s-24.77 10.72-24.77 23.9a23.81 23.81 0 0 0 12.82 20.93l.38-.75zm11.5-27.17c4.41 0 8 3.2 8 7.13s-3.59 7.13-8 7.13-8-3.2-8-7.13 3.56-7.13 8-7.13z" fill="#faa61a"/><path d="M64.5 50.88a12.93 12.93 0 0 0-1.27.75 13.08 13.08 0 0 1 1.27-.75zM80.41 54.14c-.11-.13-.21-.27-.32-.4.11.13.21.26.32.4zM75.69 50.53a12.83 12.83 0 0 0-5.24-1.12 13 13 0 0 1 5.24 1.12zM58.87 56.62l-.38.75q.19-.37.38-.75zM81.15 55.13c-.15-.13-.23-.35-.36-.52.13.17.21.39.36.52zM63 51.76a12.84 12.84 0 0 0-1.19.93 12.86 12.86 0 0 1 1.19-.93zM81.76 56.14c-.11-.2-.22-.4-.34-.6.12.2.23.4.34.6z" fill="#57653f"/><path d="M59.15 56.11c.11-.21.23-.42.35-.62-.13.2-.24.41-.35.62zM77.78 51.71a12.92 12.92 0 0 0-1.38-.83 13 13 0 0 1 1.38.83zM60.92 53.61c-.12.13-.23.27-.34.41.11-.13.22-.27.34-.41zM82.37 57.39l-.37-.76q.21.37.37.76zM60.17 54.52c-.13.18-.25.36-.37.54.12-.18.2-.37.37-.54zM79.26 52.9a12.8 12.8 0 0 0-1.27-1 12.89 12.89 0 0 1 1.27 1zM70.44 49.42A12.84 12.84 0 0 0 65 50.6a13 13 0 0 1 5.44-1.18z" fill="#7e883f"/><path d="M82 56.63l-.08-.15c-.06-.12-.13-.22-.19-.33s-.22-.41-.34-.6-.18-.27-.27-.41-.23-.35-.36-.52-.25-.32-.38-.47-.21-.27-.32-.4q-.37-.42-.78-.81a12.89 12.89 0 0 0-1.27-1l-.22-.16a13 13 0 0 0-1.38-.83l-.11-.06-.57-.27A12.88 12.88 0 0 0 65 50.6l-.44.21-.11.06a13.08 13.08 0 0 0-1.27.75l-.18.14a12.86 12.86 0 0 0-1.19.93h-.05q-.43.39-.83.83c-.12.13-.23.27-.34.41s-.28.32-.41.49-.25.36-.37.54-.2.28-.29.43-.24.41-.35.62-.14.24-.21.36l-.07.14q-.19.38-.35.77a25.54 25.54 0 0 0 23.84 0q-.17-.28-.38-.65z" fill="#346241"/></svg>