<svg data-name="Layer 1" xmlns="http://www.w3.org/2000/svg" width="203.92" height="200" viewBox="0 0 203.92 200"><title>_</title><path fill="none" d="M96.82 56.78h-5.8L55.4 113.09h41.42V56.78z"/><path d="M109.72 143.22h12.9V126a12.9 12.9 0 0 1-12.9 12.9h-12.9v17.23a12.9 12.9 0 0 1 12.9-12.91zM96.82 100v13.09h12.9a12.9 12.9 0 0 1 12.9 12.9V112.9h-12.9a12.9 12.9 0 0 1-12.9-12.9zM96.82 100a12.9 12.9 0 0 1 12.9-12.9h12.9V56.78h-25.8V100z" fill="#2584c5"/><path d="M96.82 44.1a12.84 12.84 0 0 1-2 6.68l-3.8 6h5.8V44.1zM122.62 43.88v12.9h61.93a12.9 12.9 0 1 0 0-25.8h-74.83a12.9 12.9 0 0 1 12.9 12.9zM96.82 43.74A12.9 12.9 0 0 1 109.72 31H84.13a12.91 12.91 0 0 1 12.69 12.74z" fill="#ed125f"/><path d="M96.82 43.74v13.04h25.8v-12.9a12.9 12.9 0 0 0-25.8-.14z" fill="#5f3267"/><path d="M77.68 32.58A13 13 0 0 1 82.81 31a12.82 12.82 0 0 0-5.13 1.58z" fill="#ed125f"/><path d="M184.55 143.22h-61.93v12.9a12.9 12.9 0 0 1-12.9 12.9h74.83a12.9 12.9 0 1 0 0-25.8z" fill="#72bf44"/><path d="M122.62 156.12v-12.9h-12.9a12.9 12.9 0 1 0 12.9 12.9z" fill="#107c47"/><path d="M173.58 112.9a12.9 12.9 0 1 0 0-25.8h-51v25.8h51z" fill="#faa61a"/><path d="M96.82 100a12.9 12.9 0 0 0 12.9 12.9h12.9V87.1h-12.9a12.9 12.9 0 0 0-12.9 12.9z" fill="#57653f"/><path d="M84.13 31h-1.32 1.33zM77.68 32.58a12.83 12.83 0 0 0-4.19 3.7 13 13 0 0 1 4.19-3.7zM26 126a12.9 12.9 0 0 1 12.9-12.9h16.5L91 56.78h-7.1a12.9 12.9 0 0 1-11-19.64L2 149.22A12.9 12.9 0 1 0 23.81 163l15.26-24.13h-.16A12.9 12.9 0 0 1 26 126z" fill="#f37021"/><path d="M83.91 56.78H91l3.8-6a12.84 12.84 0 0 0 2-6.68v-.22-.14A12.91 12.91 0 0 0 84.13 31H82.8a12.89 12.89 0 0 0-9.32 5.26q-.25.34-.48.7l-.1.16a12.9 12.9 0 0 0 11.01 19.66z" fill="#ed1c24"/><path d="M96.82 43.74v0z" fill="#613438"/><path fill="#ed125f" d="M55.4 113.09l-16.33 25.8h57.75v-25.8H55.4z"/><path d="M122.62 126a12.9 12.9 0 0 0-12.9-12.9h-12.9v25.8h12.9a12.9 12.9 0 0 0 12.9-12.9z" fill="#5f3267"/><path d="M38.91 113.09a12.9 12.9 0 1 0 0 25.8h.16l16.32-25.8H38.91z" fill="#ed1c24"/></svg>