<svg data-name="Layer 1" xmlns="http://www.w3.org/2000/svg" width="123.06" height="200" viewBox="0 0 123.06 200"><title>_</title><path d="M71.2 39.69a12.9 12.9 0 1 1 0-25.8A71.28 71.28 0 0 0 0 85.09a12.9 12.9 0 1 1 25.8 0 45.45 45.45 0 0 1 45.4-45.4z" fill="#2584c5"/><path d="M12.9 98A12.9 12.9 0 0 1 0 85.09a71.32 71.32 0 0 0 48.17 67.38 64.59 64.59 0 0 1 13.18-17.59 13 13 0 0 1 8.48-4.42 45.45 45.45 0 0 1-44-45.37A12.9 12.9 0 0 1 12.9 98z" fill="#faa61a"/><circle cx="12.9" cy="85.09" r="12.9" fill="#57653f"/><path d="M84.13 143.38A12.94 12.94 0 0 1 79 153.71a32.63 32.63 0 0 0-2.31 2.37A70.89 70.89 0 0 0 119.91 137a12.9 12.9 0 1 0-17.66-18.82 45.21 45.21 0 0 1-29.76 12.26 13 13 0 0 1 11.64 12.94z" fill="#ed125f"/><path d="M84.1 26.79a12.9 12.9 0 0 1-12.9 12.9 45.17 45.17 0 0 1 31.47 12.68 12.9 12.9 0 1 0 17.89-18.59A70.85 70.85 0 0 0 71.2 13.89a12.9 12.9 0 0 1 12.9 12.9z" fill="#72bf44"/><circle cx="71.2" cy="26.79" r="12.9" fill="#107c47"/><path d="M48.17 152.47a54.58 54.58 0 0 0-6.06 23.94 12.9 12.9 0 0 0 12.69 13.1h.2a12.9 12.9 0 0 0 12.9-12.7c.15-9.56 5.42-17 8.75-20.73q-2.72.21-5.47.21a70.91 70.91 0 0 1-23.01-3.82zM72.49 130.47a13.14 13.14 0 0 0-2.66 0h1.37z" fill="#72bf44"/><path d="M61.35 134.88a64.59 64.59 0 0 0-13.18 17.59 70.91 70.91 0 0 0 23 3.82 12.9 12.9 0 1 1 0-25.8H69.8a13 13 0 0 0-8.45 4.39z" fill="#7e883f"/><path d="M58.3 143.39a12.9 12.9 0 0 0 12.9 12.9q2.75 0 5.47-.21a32.63 32.63 0 0 1 2.33-2.37 13 13 0 0 0-6.49-23.25h-1.3a12.9 12.9 0 0 0-12.91 12.93z" fill="#853135"/></svg>