<svg data-name="Layer 1" xmlns="http://www.w3.org/2000/svg" width="108.6" height="200" viewBox="0 0 108.6 200"><title>_</title><path d="M3.45 64.17v56.13a12.9 12.9 0 0 1 12.9-12.9h12.9V77.08h-12.9a12.9 12.9 0 0 1-12.9-12.91z" fill="#2584c5"/><path d="M3.45 120.3v56.12a12.9 12.9 0 0 1 12.9-12.9h12.9V133.2h-12.9a12.9 12.9 0 0 1-12.9-12.9z" fill="#2584c5"/><path d="M29.26 64.17v12.9h61.92a12.9 12.9 0 0 0 0-25.8H16.35a12.9 12.9 0 0 1 12.91 12.9z" fill="#ed125f"/><path d="M16.35 51.27a12.9 12.9 0 0 0 0 25.8h12.9v-12.9a12.9 12.9 0 0 0-12.9-12.9z" fill="#5f3267"/><path d="M16.35 189.32h74.83a12.9 12.9 0 0 0 0-25.8H29.26v12.9a12.9 12.9 0 0 1-12.91 12.9z" fill="#72bf44"/><path d="M3.45 176.42a12.9 12.9 0 1 0 25.8 0v-12.9h-12.9a12.9 12.9 0 0 0-12.9 12.9z" fill="#107c47"/><path d="M80.22 133.2a12.9 12.9 0 0 0 0-25.8h-51v25.8h51z" fill="#faa61a"/><path d="M3.45 120.3a12.9 12.9 0 0 0 12.9 12.9h12.9v-25.8h-12.9a12.9 12.9 0 0 0-12.9 12.9z" fill="#57653f"/><path d="M48.71 12.22A8.39 8.39 0 1 0 39 25.91l19.79 14a8.39 8.39 0 0 0 9.69-13.69z" fill="#72bf44"/></svg>