<svg data-name="Layer 1" xmlns="http://www.w3.org/2000/svg" width="110.24" height="200" viewBox="0 0 110.24 200"><title>_</title><path d="M0 120.3v56.12a12.9 12.9 0 0 1 12.9-12.9h12.9V133.2H12.9A12.9 12.9 0 0 1 0 120.3z" fill="#2584c5"/><path d="M12.9 77.08A12.9 12.9 0 0 1 0 64.18v56.12a12.9 12.9 0 0 1 12.9-12.9h12.9V77.08H12.9z" fill="#2584c5"/><path d="M25.8 64.18v12.9h61.93a12.9 12.9 0 1 0 0-25.8H12.9a12.9 12.9 0 0 1 12.9 12.9z" fill="#ed125f"/><path d="M12.9 77.08h12.9v-12.9a12.9 12.9 0 1 0-12.9 12.9z" fill="#5f3267"/><path d="M12.9 189.32h74.83a12.9 12.9 0 1 0 0-25.8H25.8v12.9a12.9 12.9 0 0 1-12.9 12.9z" fill="#72bf44"/><path d="M0 176.42a12.9 12.9 0 0 0 25.8 0v-12.9H12.9A12.9 12.9 0 0 0 0 176.42z" fill="#107c47"/><path d="M76.76 133.2a12.9 12.9 0 0 0 0-25.8h-51v25.8h51z" fill="#faa61a"/><path d="M0 120.3a12.9 12.9 0 0 0 12.9 12.9h12.9v-25.8H12.9A12.9 12.9 0 0 0 0 120.3z" fill="#57653f"/><path d="M40.43 41.46a8.35 8.35 0 0 0 4.84-1.54l19.79-14a8.39 8.39 0 1 0-9.69-13.69l-19.79 14a8.39 8.39 0 0 0 4.85 15.23z" fill="#8e53a1"/></svg>