<svg data-name="Layer 1" xmlns="http://www.w3.org/2000/svg" width="110.33" height="200" viewBox="0 0 110.33 200"><title>_</title><path d="M12.9 76.75A12.9 12.9 0 0 1 0 63.85V120a12.9 12.9 0 0 1 12.9-12.9h12.9V76.75H12.9zM0 120v56.12a12.9 12.9 0 0 1 12.9-12.9h12.9v-30.35H12.9A12.9 12.9 0 0 1 0 120z" fill="#2584c5"/><path d="M25.8 63.85v12.9h61.93a12.9 12.9 0 1 0 0-25.8H12.9a12.9 12.9 0 0 1 12.9 12.9z" fill="#ed125f"/><path d="M12.9 76.75h12.9v-12.9a12.9 12.9 0 1 0-12.9 12.9z" fill="#5f3267"/><path d="M12.9 189h74.83a12.9 12.9 0 1 0 0-25.8H25.8v12.9A12.9 12.9 0 0 1 12.9 189z" fill="#72bf44"/><path d="M0 176.09a12.9 12.9 0 1 0 25.8 0v-12.9H12.9A12.9 12.9 0 0 0 0 176.09z" fill="#107c47"/><path d="M76.76 132.87a12.9 12.9 0 1 0 0-25.8h-51v25.8h51z" fill="#faa61a"/><path d="M0 120a12.9 12.9 0 0 0 12.9 12.9h12.9v-25.8H12.9A12.9 12.9 0 0 0 0 120z" fill="#57653f"/><path d="M30.53 41.78a8.35 8.35 0 0 0 4.84-1.54l14.94-10.58 14.95 10.58A8.39 8.39 0 0 0 75 26.55l-19.79-14a8.39 8.39 0 0 0-9.69 0l-19.79 14a8.39 8.39 0 0 0 4.8 15.23z" fill="#faa61a"/></svg>