<svg data-name="Layer 1" xmlns="http://www.w3.org/2000/svg" width="107.05" height="200" viewBox="0 0 107.05 200"><title>_</title><path d="M0 119.39v56.12a12.9 12.9 0 0 1 12.9-12.9h12.9v-30.32H12.9A12.9 12.9 0 0 1 0 119.39zM12.9 76.17A12.9 12.9 0 0 1 0 63.27v56.12a12.9 12.9 0 0 1 12.9-12.9h12.9V76.17H12.9z" fill="#2584c5"/><path d="M25.8 63.27v12.9h61.93a12.9 12.9 0 1 0 0-25.8H12.9a12.9 12.9 0 0 1 12.9 12.9z" fill="#ed125f"/><path d="M12.9 76.17h12.9v-12.9a12.9 12.9 0 1 0-12.9 12.9z" fill="#5f3267"/><path d="M12.9 188.41h74.83a12.9 12.9 0 1 0 0-25.8H25.8v12.9a12.9 12.9 0 0 1-12.9 12.9z" fill="#72bf44"/><path d="M0 175.51a12.9 12.9 0 0 0 25.8 0v-12.9H12.9A12.9 12.9 0 0 0 0 175.51z" fill="#107c47"/><path d="M76.76 132.29a12.9 12.9 0 1 0 0-25.8h-51v25.8h51z" fill="#faa61a"/><path d="M0 119.39a12.9 12.9 0 0 0 12.9 12.9h12.9v-25.8H12.9A12.9 12.9 0 0 0 0 119.39z" fill="#57653f"/><path d="M40 27v-2.51a12.9 12.9 0 0 0-25.8 0V27A12.9 12.9 0 1 0 40 27z" fill="#ed125f"/><path d="M83.24 27v-2.51a12.9 12.9 0 0 0-25.8 0V27a12.9 12.9 0 1 0 25.8 0z" fill="#faa61a"/></svg>