<svg data-name="Layer 1" xmlns="http://www.w3.org/2000/svg" width="128.29" height="200" viewBox="0 0 128.29 200"><title>_</title><path d="M101.49 180a12.94 12.94 0 0 1-1.09-.73 12.76 12.76 0 0 0 1.09.73zM102.72 180.69a12.87 12.87 0 0 1-1.2-.63 12.8 12.8 0 0 0 1.2.63zM108.12 181.87h1-1zM119.26 175.46c-.21.36-.44.72-.68 1.06.24-.35.42-.7.68-1.06zM119.92 174.18a12.83 12.83 0 0 1-.61 1.2 12.83 12.83 0 0 0 .61-1.2zM118.5 176.6c-.24.33-.5.65-.77 1 .27-.35.53-.67.77-1zM100.33 179.26c-.34-.26-.67-.53-1-.81.34.28.67.55 1 .81zM13.28 43.83h-.38a13 13 0 0 0-1.72.11 13 13 0 0 1 1.72-.11h.38zM95.21 133.81L22.82 48.48a12.85 12.85 0 0 1 3 8.25v35.15l72.44 85.4a12.85 12.85 0 0 1-3-8.31v-35.16zM18.36 45a12.91 12.91 0 0 1 3 2 12.8 12.8 0 0 0-3-2zM1.24 51.2a12.92 12.92 0 0 1 2-3.08 12.82 12.82 0 0 0-2 3.08z" fill="#faa61a"/><path d="M115.92 179.22l-.38.29zM111 181.53l-.6.13zM112.18 181.2c-.24.08-.47.16-.71.22.24-.06.47-.14.71-.22zM120.86 171a12.91 12.91 0 0 1-.94 3.21 12.82 12.82 0 0 0 .94-3.21zM113.52 180.68q-.5.23-1 .42.48-.19 1-.42zM108.11 181.87zM105.39 181.58c-.42-.09-.83-.2-1.24-.34a12.79 12.79 0 0 0 1.24.34zM106.74 181.79c-.39 0-.78-.11-1.16-.19.42.08.76.15 1.16.19zM104.07 181.22a12.88 12.88 0 0 1-1.28-.5 12.8 12.8 0 0 0 1.28.5zM108.11 43.82a12.9 12.9 0 0 0-12.9 12.9v77.09l22.74 26.81a12.85 12.85 0 0 1 3.06 8.2V56.72a12.9 12.9 0 0 0-12.9-12.9z" fill="#72bf44"/><path d="M95.21 133.81V169a12.85 12.85 0 0 0 3 8.31l.05.06a13 13 0 0 0 .95 1c.31.29.64.56 1 .81h.06a12.94 12.94 0 0 0 1.09.73 12.87 12.87 0 0 0 1.2.63 12.88 12.88 0 0 0 1.28.5h.08c.41.13.82.25 1.24.34h.19c.39.08.77.14 1.16.19s.78.06 1.18.06h1.41q.55-.05 1.09-.15l.6-.13.47-.1c.24-.06.48-.15.71-.22l.33-.1q.51-.19 1-.42h.2l.22-.11h.05a12.9 12.9 0 0 0 1.11-.71l.38-.29c.18-.14.37-.27.54-.42l.25-.22a13 13 0 0 0 .95-1c.27-.3.53-.63.77-1l.07-.09c.25-.34.47-.69.68-1.06v-.07a12.79 12.79 0 0 0 1.55-4.41q.09-.55.13-1.1t0-.9v-.14a12.85 12.85 0 0 0-3.06-8.2z" fill="#7e883f"/><path d="M.11 55zM0 56.81V169a12.9 12.9 0 0 0 25.8 0V91.88L3.06 65.07A12.85 12.85 0 0 1 0 56.81zM15.85 44.16q.62.15 1.23.35a12.81 12.81 0 0 0-1.23-.35zM17.09 44.52a12.89 12.89 0 0 1 1.21.48 12.83 12.83 0 0 0-1.21-.48zM9.55 44.27l.57-.15zM14.58 43.93c.41.05.82.13 1.22.22-.4-.09-.8-.15-1.22-.22zM8.6 44.57l.62-.21zM7.48 45q.42-.2.86-.36-.44.18-.86.36zM.36 53.71a12.9 12.9 0 0 1 .37-1.25 12.78 12.78 0 0 0-.37 1.25zM.73 52.44a12.85 12.85 0 0 1 .51-1.24 12.81 12.81 0 0 0-.51 1.24zM6 45.83a12.88 12.88 0 0 1 1.28-.72 12.89 12.89 0 0 0-1.28.72zM4.65 46.81a13 13 0 0 1 1.16-.86 12.91 12.91 0 0 0-1.16.86z" fill="#ed125f"/><path d="M22.82 48.48l-.08-.1-.47-.53q-.42-.44-.87-.85a12.91 12.91 0 0 0-3-2h-.1a12.89 12.89 0 0 0-1.21-.48q-.61-.21-1.23-.35h-.07a12.46 12.46 0 0 0-2.51-.32h-.38a13 13 0 0 0-1.72.11H11q-.46.07-.91.17l-.57.15-.33.09-.62.21-.26.09q-.43.16-.86.36L7.42 45H7.3a12.88 12.88 0 0 0-1.3.83l-.19.12a13 13 0 0 0-1.16.86l-.1.07-.37.33q-.45.42-.86.88a12.8 12.8 0 0 0-2.59 4.35 12.9 12.9 0 0 0-.37 1.25c-.1.42-.18.84-.23 1.26A13 13 0 0 0 0 56.34v.46a12.85 12.85 0 0 0 3.06 8.26L25.8 91.88V56.72a12.85 12.85 0 0 0-2.98-8.24z" fill="#ed1c24"/><path d="M39.7 42.69a8.41 8.41 0 0 0 7.21-4.09 13.27 13.27 0 0 1 3.84-3c1.71-.83 3.73-1.27 6.91 1.15 6.34 4.77 12.54 7.2 18.52 7.2a21.76 21.76 0 0 0 4.27-.42 22.16 22.16 0 0 0 14.2-9.94 8.41 8.41 0 1 0-14.45-8.48 5.22 5.22 0 0 1-3.12 2c-2.27.38-5.56-.94-9.24-3.74-6.91-5.25-13.38-5.62-17.6-5C40.09 19.83 33.82 28 33.14 29a8.42 8.42 0 0 0 6.56 13.69z" fill="#72bf44"/></svg>