<svg data-name="Layer 1" xmlns="http://www.w3.org/2000/svg" width="147.53" height="200" viewBox="0 0 147.53 200"><title>_</title><path d="M27.14 118.26A47.29 47.29 0 1 0 74.43 71a47.35 47.35 0 0 0-47.29 47.26z" fill="none"/><path d="M14.24 105.36a12.9 12.9 0 0 1 12.9 12.9A47.34 47.34 0 0 1 74.43 71a12.9 12.9 0 1 1 0-25.8 73.18 73.18 0 0 0-73.09 73.06 12.9 12.9 0 0 1 12.9-12.9z" fill="#ed125f"/><path d="M61.53 178.45a12.9 12.9 0 0 1 12.9-12.9 47.35 47.35 0 0 1-47.29-47.29 12.9 12.9 0 1 1-25.8 0 73.18 73.18 0 0 0 73.09 73.09 12.9 12.9 0 0 1-12.9-12.9z" fill="#2584c5"/><circle cx="14.24" cy="118.26" r="12.9" fill="#5f3267"/><path d="M134.63 131.16a12.9 12.9 0 0 1-12.9-12.9 47.35 47.35 0 0 1-47.29 47.29 12.9 12.9 0 0 1 0 25.8 73.18 73.18 0 0 0 73.1-73.09 12.9 12.9 0 0 1-12.91 12.9z" fill="#faa61a"/><circle cx="74.43" cy="178.45" r="12.9" fill="#57653f"/><path d="M74.43 45.17a12.9 12.9 0 0 1 0 25.8 47.35 47.35 0 0 1 47.29 47.29 12.9 12.9 0 0 1 25.8 0 73.18 73.18 0 0 0-73.09-73.09z" fill="#72bf44"/><circle cx="74.43" cy="58.07" r="12.9" fill="#853135"/><circle cx="134.63" cy="118.26" r="12.9" fill="#7e883f"/><path d="M69.38 10.19a8.39 8.39 0 1 0-9.69 13.69l19.79 14a8.39 8.39 0 0 0 9.69-13.69z" fill="#72bf44"/></svg>