<svg data-name="Layer 1" xmlns="http://www.w3.org/2000/svg" width="152.33" height="200" viewBox="0 0 152.33 200"><title>_</title><path d="M25.8 117.94a47.29 47.29 0 1 0 47.29-47.29 47.34 47.34 0 0 0-47.29 47.29z" fill="none"/><path d="M12.9 105a12.9 12.9 0 0 1 12.9 12.9 47.34 47.34 0 0 1 47.29-47.25 12.9 12.9 0 1 1 0-25.8A73.18 73.18 0 0 0 0 117.94 12.9 12.9 0 0 1 12.9 105z" fill="#ed125f"/><path d="M60.19 178.13a12.9 12.9 0 0 1 12.9-12.9 47.34 47.34 0 0 1-47.29-47.29 12.9 12.9 0 1 1-25.8 0A73.18 73.18 0 0 0 73.09 191a12.9 12.9 0 0 1-12.9-12.87z" fill="#2584c5"/><circle cx="12.9" cy="117.94" r="12.9" fill="#5f3267"/><path d="M133.29 130.84a12.9 12.9 0 0 1-12.9-12.9 47.35 47.35 0 0 1-47.29 47.29 12.9 12.9 0 0 1 0 25.8 73.18 73.18 0 0 0 73.1-73.09 12.9 12.9 0 0 1-12.91 12.9z" fill="#faa61a"/><circle cx="73.09" cy="178.13" r="12.9" fill="#57653f"/><path d="M73.09 44.84a12.9 12.9 0 0 1 0 25.8 47.35 47.35 0 0 1 47.29 47.29 12.9 12.9 0 1 1 25.8 0 73.18 73.18 0 0 0-73.09-73.09z" fill="#72bf44"/><circle cx="73.09" cy="57.74" r="12.9" fill="#853135"/><circle cx="133.29" cy="117.94" r="12.9" fill="#7e883f"/><path d="M77.94 10.51a8.39 8.39 0 0 0-9.69 0l-19.79 14a8.39 8.39 0 1 0 9.69 13.69L73.1 27.63 88 38.2a8.39 8.39 0 1 0 9.69-13.69z" fill="#72bf44"/></svg>