<svg data-name="Layer 1" xmlns="http://www.w3.org/2000/svg" width="154.52" height="200" viewBox="0 0 154.52 200"><title>_</title><path d="M25.8 117.77a47.29 47.29 0 1 0 47.29-47.29 47.34 47.34 0 0 0-47.29 47.29z" fill="none"/><path d="M12.9 104.87a12.9 12.9 0 0 1 12.9 12.9 47.34 47.34 0 0 1 47.29-47.29 12.9 12.9 0 0 1 0-25.8A73.18 73.18 0 0 0 0 117.77a12.9 12.9 0 0 1 12.9-12.9z" fill="#ed125f"/><path d="M60.19 178a12.9 12.9 0 0 1 12.9-12.9 47.34 47.34 0 0 1-47.29-47.33 12.9 12.9 0 1 1-25.8 0 73.18 73.18 0 0 0 73.09 73.09A12.9 12.9 0 0 1 60.19 178z" fill="#2584c5"/><circle cx="12.9" cy="117.77" r="12.9" fill="#5f3267"/><path d="M133.29 130.67a12.9 12.9 0 0 1-12.9-12.9 47.35 47.35 0 0 1-47.29 47.29 12.9 12.9 0 1 1 0 25.8 73.18 73.18 0 0 0 73.1-73.09 12.9 12.9 0 0 1-12.91 12.9z" fill="#faa61a"/><circle cx="73.09" cy="177.97" r="12.9" fill="#57653f"/><path d="M73.09 44.68a12.9 12.9 0 1 1 0 25.8 47.35 47.35 0 0 1 47.29 47.29 12.9 12.9 0 0 1 25.8 0 73.18 73.18 0 0 0-73.09-73.09z" fill="#72bf44"/><circle cx="73.09" cy="57.58" r="12.9" fill="#853135"/><circle cx="133.29" cy="117.77" r="12.9" fill="#7e883f"/><path d="M97.48 11.22a8.41 8.41 0 0 0-7.63 4.87 5.22 5.22 0 0 1-3.12 2c-2.27.38-5.56-.94-9.24-3.74-6.91-5.25-13.38-5.62-17.6-5C49.77 10.83 43.51 19 42.83 20a8.41 8.41 0 1 0 13.77 9.6 13.27 13.27 0 0 1 3.84-3c1.71-.83 3.73-1.27 6.91 1.15 6.33 4.81 12.54 7.23 18.52 7.23a21.77 21.77 0 0 0 4.27-.42 22.16 22.16 0 0 0 14.2-9.94 8.41 8.41 0 0 0-6.86-13.4z" fill="#72bf44"/></svg>