<svg data-name="Layer 1" xmlns="http://www.w3.org/2000/svg" width="154.03" height="200" viewBox="0 0 154.03 200"><title>_</title><path d="M73.06 147.29a47.33 47.33 0 0 0 41.32-70.35l-64.47 64.32a47 47 0 0 0 23.15 6.03zM124.75 48.32a74 74 0 0 1 8.35 10 74 74 0 0 0-8.35-10zM73.06 52.71A47.3 47.3 0 0 0 31.72 123l64.42-64.3a47 47 0 0 0-23.08-5.99zM123.92 47.52q-1.06-1-2.15-2 1.09.98 2.15 2z" fill="none"/><path d="M124.74 48.31a12.84 12.84 0 0 0-5.45-3.25 12.84 12.84 0 0 1 5.45 3.25z" fill="none"/><path d="M39.62 48.31a12.9 12.9 0 0 1 0 18.25 47.35 47.35 0 0 1 56.52-7.86l9.76-9.7q.29-.33.6-.64t.66-.62l7.7-7.68a73.14 73.14 0 0 0-93.49 8.3 12.9 12.9 0 0 1 18.25-.05z" fill="#ed125f"/><path d="M39.62 66.56a12.9 12.9 0 0 1-18.25-18.25A73.21 73.21 0 0 0 13 141.66L31.72 123a47.38 47.38 0 0 1 7.9-56.44z" fill="#2584c5"/><path d="M21.37 66.56a12.9 12.9 0 1 0 0-18.25 12.86 12.86 0 0 0 0 18.25z" fill="#5f3267"/><path d="M106.5 151.69a12.9 12.9 0 0 1 0-18.25 47.36 47.36 0 0 1-56.59 7.82l-9.19 9.17a13.06 13.06 0 0 1-2.37 2.36l-7.15 7.14a72.56 72.56 0 0 0 41.87 13.16 72.62 72.62 0 0 0 51.69-21.41 12.9 12.9 0 0 1-18.26.01z" fill="#faa61a"/><path d="M39.62 151.68a13 13 0 0 0 1.1-1.25l-2.37 2.36a13 13 0 0 0 1.27-1.11z" fill="#57653f"/><path d="M106.5 48.31q-.31.31-.6.64l1.27-1.26q-.35.31-.67.62z" fill="#ed1c24"/><path d="M114.38 76.95a47.35 47.35 0 0 1-7.88 56.49 12.9 12.9 0 1 1 18.25 18.25 73.14 73.14 0 0 0 8.35-93.42z" fill="#f37021"/><path d="M124.75 133.44a12.9 12.9 0 1 0 0 18.25 12.86 12.86 0 0 0 0-18.25z" fill="#f15623"/><path d="M121.77 45.52q1.09 1 2.15 2c.27.27.55.52.82.79a74 74 0 0 1 8.35 10l5.1-5.09A12.9 12.9 0 1 0 120 34.91L114.86 40q1.31.92 2.59 1.9c1.48 1.1 2.92 2.36 4.32 3.62zM124.75 48.31h-.01.01zM21.37 151.68a73.26 73.26 0 0 1-8.39-10L7.64 147a12.9 12.9 0 1 0 18.22 18.27l5.33-5.31a74 74 0 0 1-9.74-8.18zM106.44 66.5a47.52 47.52 0 0 0-10.3-7.8L31.72 123a47.16 47.16 0 0 0 7.9 10.47l.06.06a47.53 47.53 0 0 0 10.23 7.76l64.46-64.32a47.51 47.51 0 0 0-7.88-10.39z" fill="#72bf44"/><path d="M21.45 151.76l-.08-.08a12.9 12.9 0 1 1 18.25-18.24l.06.06-.06-.06a47.16 47.16 0 0 1-7.9-10.44L13 141.66a73.26 73.26 0 0 0 8.39 10z" fill="#107c47"/><path d="M40.72 150.44l9.19-9.17a47.53 47.53 0 0 1-10.23-7.76 12.9 12.9 0 0 1 1.04 16.93zM30.5 155.46a12.86 12.86 0 0 1-9-3.7 74 74 0 0 0 9.74 8.18l7.15-7.14a12.86 12.86 0 0 1-7.89 2.66z" fill="#7e883f"/><path d="M39.68 133.5l-.06-.06a12.9 12.9 0 1 0-18.25 18.24l.08.08a12.91 12.91 0 0 0 16.9 1l2.37-2.36a12.9 12.9 0 0 0-1.04-16.9z" fill="#346241"/><path d="M124.74 66.56a12.9 12.9 0 0 1-18.24 0l-.06-.06.06.06a47.51 47.51 0 0 1 7.88 10.39l18.72-18.68a74 74 0 0 0-8.35-10 12.9 12.9 0 0 1-.01 18.29z" fill="#83613a"/><circle cx="124.74" cy="48.31" transform="rotate(-45 124.744 48.32)" fill="#83613a"/><path d="M105.9 49l-9.76 9.7a47.52 47.52 0 0 1 10.3 7.8l.06.06a12.9 12.9 0 1 0 18.25-18.24 12.84 12.84 0 0 0-5.45-3.25 12.84 12.84 0 0 1 5.45 3.25c-.27-.27-.55-.52-.82-.79q-1.06-1-2.15-2c-1.4-1.26-2.84-2.47-4.32-3.6q-1.27-1-2.59-1.9l-7.7 7.68z" fill="#853135"/><path d="M124.75 48.31" fill="none"/></svg>