<svg data-name="Layer 1" xmlns="http://www.w3.org/2000/svg" width="126" height="200" viewBox="0 0 126 200"><title>_</title><path d="M12.9 120.12A12.9 12.9 0 0 1 25.8 133V60.56a12.9 12.9 0 0 0-25.8 0V133a12.9 12.9 0 0 1 12.9-12.88z" fill="#ed125f"/><path d="M107.06 47.65a12.9 12.9 0 0 0-12.9 12.9V133a12.9 12.9 0 1 1 25.8 0V60.56a12.9 12.9 0 0 0-12.9-12.91z" fill="#2584c5"/><path d="M107.06 145.92A12.9 12.9 0 0 1 94.16 133c0 7.26-3.53 14.33-9.95 19.9a37.58 37.58 0 0 1-24.32 9.1c-18.16 0-34.09-13.56-34.09-29A12.9 12.9 0 0 1 0 133c0 29.71 27.43 54.82 59.89 54.82S120 162.73 120 133a12.9 12.9 0 0 1-12.94 12.92z" fill="#72bf44"/><circle cx="12.9" cy="133.02" r="12.9" fill="#853135"/><circle cx="107.06" cy="133.02" r="12.9" fill="#107c47"/><path d="M40.19 42.94A8.35 8.35 0 0 0 45 41.4l15-10.58L74.93 41.4a8.39 8.39 0 1 0 9.69-13.69l-19.79-14a8.39 8.39 0 0 0-9.69 0l-19.79 14a8.39 8.39 0 0 0 4.84 15.23z" fill="#faa61a"/></svg>