<svg data-name="Layer 1" xmlns="http://www.w3.org/2000/svg" width="127.76" height="200" viewBox="0 0 127.76 200"><title>_</title><path d="M12.9 119.53a12.9 12.9 0 0 1 12.9 12.9V60A12.9 12.9 0 1 0 0 60v72.46a12.9 12.9 0 0 1 12.9-12.93z" fill="#ed125f"/><path d="M107.06 47.07A12.9 12.9 0 0 0 94.15 60v72.46a12.9 12.9 0 0 1 25.8 0V60a12.9 12.9 0 0 0-12.89-12.93z" fill="#2584c5"/><path d="M107.06 145.34a12.9 12.9 0 0 1-12.9-12.9c0 7.26-3.53 14.33-9.95 19.9a37.58 37.58 0 0 1-24.31 9.11c-18.16 0-34.09-13.56-34.09-29a12.9 12.9 0 1 1-25.8 0c0 29.72 27.43 54.82 59.89 54.82s60.1-25.12 60.1-54.83a12.9 12.9 0 0 1-12.94 12.9z" fill="#72bf44"/><circle cx="12.9" cy="132.44" r="12.9" fill="#853135"/><circle cx="107.06" cy="132.44" r="12.9" fill="#107c47"/><path d="M38.37 41.06a12.9 12.9 0 0 0 12.9-12.9v-2.51a12.9 12.9 0 0 0-25.8 0v2.51a12.9 12.9 0 0 0 12.9 12.9z" fill="#ed125f"/><path d="M94.48 28.16v-2.51a12.9 12.9 0 0 0-25.8 0v2.51a12.9 12.9 0 1 0 25.8 0z" fill="#faa61a"/></svg>