<svg data-name="Layer 1" xmlns="http://www.w3.org/2000/svg" width="129.92" height="200" viewBox="0 0 129.92 200"><title>_</title><path d="M52.06 131.5v-.33-.55-.39c0-.13 0-.35.06-.53s.05-.31.08-.46 0-.3.08-.44q.1-.45.22-.89.16-.53.36-1.06c.06-.16.14-.31.21-.47s.16-.37.25-.55.2-.37.3-.55.15-.29.24-.43.25-.38.37-.56.14-.23.22-.34l.09-.12L65 109.56 23.34 52.31A12.9 12.9 0 0 0 2.47 67.48l49.59 68.21v-4.19z" fill="#faa61a"/><path d="M124.61 49.46a12.9 12.9 0 0 0-18 2.85L65 109.56l10.37 14.26.07.1c.16.22.29.46.44.68s.28.42.41.64a12.87 12.87 0 0 1 .69 1.45q.22.57.39 1.16c.05.17.08.35.13.53s.11.44.15.66.07.44.09.66.06.36.07.55 0 .49 0 .73v4.62l49.59-68.21a12.9 12.9 0 0 0-2.79-17.93z" fill="#72bf44"/><path d="M52.09 130.61v.55c-.01-.16-.01-.36 0-.55zM65 118.6a12.88 12.88 0 0 1 10.37 5.22L65 109.56l-10.39 14.23A12.88 12.88 0 0 1 65 118.6zM77.64 129.12c0 .22.07.44.09.66-.02-.22-.05-.44-.09-.66zM77.36 127.93c0 .17.08.35.13.53a8.21 8.21 0 0 0-.13-.53zM52.19 129.7c0 .18 0 .35-.06.53.02-.18.03-.36.06-.53zM77.81 130.33v.73c.02-.24.02-.49 0-.73zM52.34 128.8c0 .15-.05.29-.08.44.03-.15.05-.3.08-.44z" fill="#7e883f"/><path d="M54.3 124.25c-.13.19-.26.37-.37.56.07-.19.25-.38.37-.56zM53.69 125.24c-.1.18-.21.36-.3.55.09-.19.2-.37.3-.55zM53.15 126.34c-.07.16-.14.31-.21.47.06-.16.14-.31.21-.47z" fill="#ed1c24"/><path d="M75.4 139.08l-.25.32c-.12.15-.23.31-.36.46s-.48.55-.74.8-.48.46-.74.68l-.49.38-.26.21c-.27.2-.55.38-.84.55l-.11.07c-.33.19-.66.38-1 .54A12.84 12.84 0 0 1 65 144.4a12.84 12.84 0 0 1-5.57-1.27 12 12 0 0 1-1-.54h-.07q-.45-.27-.89-.58l-.24-.19c-.18-.14-.37-.28-.55-.43s-.52-.46-.76-.7-.48-.51-.71-.78-.24-.3-.36-.45l-.24-.3-.18-.24-2.29-3.15v36.44a12.9 12.9 0 1 0 25.8 0v-36.52l-2.29 3.15z" fill="#ed125f"/><path d="M57.41 142q.43.31.89.58c-.3-.22-.6-.42-.89-.58zM58.37 142.59c.33.2.67.38 1 .54q-.51-.25-1-.54zM52.06 131.62v4.07l2.29 3.15a12.93 12.93 0 0 1-2.29-7.22zM56.59 141.31c.18.15.36.29.55.43-.14-.14-.38-.28-.55-.43zM70.55 143.13A13 13 0 0 1 65 144.4a12.84 12.84 0 0 0 5.55-1.27zM74.78 139.86c.13-.15.24-.3.36-.46-.14.16-.23.31-.36.46z" fill="#ed1c24"/><path d="M77.86 131.5v-.43-.73c0-.24 0-.37-.07-.55s-.05-.45-.09-.66-.1-.44-.15-.66-.08-.35-.13-.53q-.17-.59-.39-1.16a12.87 12.87 0 0 0-.69-1.45c-.12-.22-.27-.43-.41-.64s-.27-.46-.44-.68l-.07-.1a12.9 12.9 0 0 0-20.71 0l-.09.12c-.08.11-.15.22-.22.34s-.26.37-.37.56-.16.29-.24.43-.21.37-.3.55-.17.37-.25.55-.14.31-.21.47q-.2.52-.36 1.06-.13.44-.22.89c0 .15-.05.29-.08.44s-.06.31-.08.46 0 .35-.06.53 0 .26 0 .39v1a12.93 12.93 0 0 0 2.29 7.22l.18.24.24.3c.12.15.23.3.36.45s.47.53.71.78.49.47.76.7.36.29.55.43l.24.19c.29.21.59.4.89.58h.07q.5.3 1 .54A12.84 12.84 0 0 0 65 144.4a13 13 0 0 0 5.59-1.27c.34-.16.67-.34 1-.54l.11-.07c.29-.17.57-.36.84-.55l.26-.21.49-.38q.39-.33.74-.68c.26-.25.5-.52.74-.8s.24-.3.36-.46l.25-.32.18-.24 2.29-3.15v-4.23z" fill="#853135"/><path d="M55.07 45.74a8.35 8.35 0 0 0 4.84-1.54l19.79-14A8.39 8.39 0 1 0 70 16.5l-19.79 14a8.39 8.39 0 0 0 4.86 15.24z" fill="#8e53a1"/></svg>