<svg data-name="Layer 1" xmlns="http://www.w3.org/2000/svg" width="76.08" height="200" viewBox="0 0 76.08 200"><title>_</title><path d="M46.12 113.46c1-.89 4-3.59 4.17-12.29.06-2.27.21-8.6-16.8-13.83v30.35c5.76-.46 10.05-1.89 12.63-4.23z" fill="none"/><path d="M21.88 143.39a12.9 12.9 0 0 1 .91-25.77h.94q2.82.2 5.36.2 2.33 0 4.41-.17V87.34c-2.41-.74-5.17-1.46-8.32-2.14A12.9 12.9 0 1 1 30.64 60l2.85.65V43.88a12.9 12.9 0 0 0-25.8 0v112.24a12.9 12.9 0 1 0 25.8 0v-12.59q-2.24.12-4.59.12-3.4 0-7.02-.26z" fill="#ed125f"/><path d="M58.45 70.38C52 66.24 44 63.11 33.49 60.62v26.72c17 5.23 16.85 11.56 16.8 13.83-.21 8.69-3.19 11.4-4.17 12.29-2.58 2.34-6.87 3.77-12.63 4.23v25.84c12.66-.7 22.72-4.38 30-11 8.05-7.31 12.3-17.66 12.62-30.76.19-9.01-2.69-21.77-17.66-31.39z" fill="#2584c5"/><path d="M27.89 59.68a12.9 12.9 0 0 0-2.72 25.51c3.15.68 5.91 1.4 8.32 2.14V60.62L30.64 60a12.92 12.92 0 0 0-2.75-.32zM29.08 117.86q-2.54 0-5.36-.2h-.94a12.9 12.9 0 0 0-.91 25.77q3.63.26 7 .26 2.35 0 4.59-.12v-25.88q-2.05.17-4.38.17z" fill="#5f3267"/></svg>