<svg data-name="Layer 1" xmlns="http://www.w3.org/2000/svg" width="129.92" height="200" viewBox="0 0 129.92 200"><title>_</title><path d="M52.06 130.59v-.4-.65c0-.21 0-.32.06-.49s0-.4.08-.6.08-.39.12-.58.06-.33.1-.49q.14-.53.32-1 .16-.44.35-.87c.06-.14.13-.28.2-.41s.14-.29.21-.43.18-.32.27-.48l.2-.34c.1-.16.21-.32.32-.48l.18-.27.09-.12L65 108.65 23.34 51.4A12.9 12.9 0 1 0 2.47 66.58l49.59 68.21v-4.19z" fill="#faa61a"/><path d="M124.61 48.55a12.9 12.9 0 0 0-18 2.85L65 108.65l10.35 14.24.05.11.21.32c.12.18.25.36.36.54s.15.27.23.4.2.36.3.54.16.34.23.52.14.31.21.46q.2.5.36 1 .14.46.24.93c0 .15.06.3.09.46l.09.48c.03.16 0 .37.06.56s0 .27 0 .4v5.12l49.59-68.21a12.9 12.9 0 0 0-2.76-17.97z" fill="#72bf44"/><path d="M77.55 127.77c0 .15.06.3.09.46-.03-.16-.05-.31-.09-.46zM52.24 128.45c0 .2-.05.4-.08.6.03-.2.05-.4.08-.6zM52.1 129.54v.65c-.02-.19-.01-.43 0-.65zM65 117.69a12.88 12.88 0 0 1 10.35 5.2L65 108.65l-10.39 14.24a12.88 12.88 0 0 1 10.39-5.2zM77.72 128.71c0 .18 0 .37.06.56a5.05 5.05 0 0 0-.06-.56zM77.83 129.67v.58c.01-.2.01-.39 0-.58zM52.46 127.38c0 .16-.07.33-.1.49.03-.16.06-.33.1-.49z" fill="#7e883f"/><path d="M75.4 138.18l-.23.29c-.12.15-.23.3-.35.45s-.45.52-.69.76-.51.49-.79.73-.33.26-.5.39l-.29.23h-.06c-.29.21-.58.4-.89.58l-.14.09c-.35.21-.71.4-1.08.57a12.84 12.84 0 0 1-5.38 1.22 12.84 12.84 0 0 1-5.4-1.19c-.37-.17-.73-.36-1.09-.57l-.15-.09c-.3-.18-.6-.37-.89-.58h-.06l-.3-.23c-.17-.13-.34-.25-.5-.39s-.54-.48-.79-.73-.47-.5-.69-.76-.23-.29-.35-.44l-.23-.29-.17-.24-2.29-3.15v36.44a12.9 12.9 0 0 0 25.8 0v-36.48l-2.29 3.15z" fill="#ed125f"/><path d="M70.38 142.3a13 13 0 0 1-5.38 1.19 12.84 12.84 0 0 0 5.38-1.19zM58.47 141.74c.35.21.72.4 1.09.57q-.56-.26-1.09-.57zM74.82 138.91c.12-.14.23-.3.35-.45-.12.16-.23.31-.35.45zM57.43 141.06zM56.58 140.4c.16.14.33.26.5.39zM54.34 123.28c-.11.16-.22.32-.32.48.1-.17.21-.33.32-.48zM53.34 125c-.07.14-.14.27-.2.41.06-.13.13-.26.2-.41zM52.06 130.74v4l2.29 3.15a12.93 12.93 0 0 1-2.29-7.15zM53.82 124.09c-.09.16-.19.32-.27.48l.27-.48z" fill="#ed1c24"/><path d="M77.86 130.59v-.35-.58-.4c0-.13 0-.37-.06-.56s-.06-.32-.09-.48-.05-.31-.09-.46q-.1-.47-.24-.93-.16-.51-.36-1c-.06-.16-.14-.31-.21-.46s-.15-.35-.23-.52-.2-.36-.3-.54-.15-.27-.23-.4-.24-.36-.36-.54l-.29-.37-.08-.11a12.9 12.9 0 0 0-20.7 0l-.09.12-.18.27c-.11.16-.22.32-.32.48l-.2.34c-.09.16-.19.32-.27.48s-.14.29-.21.43-.14.27-.2.41-.24.58-.35.87q-.18.51-.32 1c0 .16-.07.33-.1.49s-.09.39-.12.58-.05.4-.08.6 0 .32-.06.49 0 .44 0 .65v.55a12.93 12.93 0 0 0 2.29 7.2l.17.24.23.29c.11.15.23.3.35.44s.45.52.69.76.52.5.79.73l.5.39.3.23h.06c.29.21.59.4.89.58l.15.09q.53.31 1.09.57a12.84 12.84 0 0 0 5.4 1.19 13 13 0 0 0 5.42-1.19c.37-.17.73-.36 1.08-.57l.14-.09c.3-.18.6-.37.89-.58h.06l.29-.23c.17-.13.34-.25.5-.39s.54-.48.79-.73.47-.5.69-.76.23-.3.35-.45l.23-.29.17-.24 2.29-3.15v-4.19z" fill="#853135"/><path d="M56.26 31.28v-2.51a12.9 12.9 0 1 0-25.8 0v2.51a12.9 12.9 0 1 0 25.8 0z" fill="#ed125f"/><path d="M99.47 31.28v-2.51a12.9 12.9 0 1 0-25.8 0v2.51a12.9 12.9 0 1 0 25.8 0z" fill="#faa61a"/></svg>